<svg id="gryffindor" data-name="Layer 1" xmlns="http://www.w3.org/2000/svg" viewBox="0 0 272.91 324"><path d="M316.64,530.09a21.85,21.85,0,0,0,0-3.16c-.25-1.54-1.37-2.67-2.82-2.38a5.07,5.07,0,0,0-2.79,2.28c-.61,1,.28,1.76,1.49,1.51-.65-1.76-.15-3.1.9-2.6a4.21,4.21,0,0,1,2.22,2.41c.51,2.74-5.52,7.1-7.92,5.7-1.15-.67-1.79-2.2-2.73-3.45-.89,1.57-1.85,3.26-2.8,5-2.84-1.66-5.46-3.07-6-6.21-.15-.79.67-1.75,1.05-2.63a8.29,8.29,0,0,1,2.09,1.3c.39.46.36,1.29.62,2.32,1.14-1.67.74-2.86-.32-3.85s-2.34-2.16-3.94-.89c-3,2.36-1,4.66.37,7-.88-.11-1.58-.24-2.27-.26-2.46-.06-3.79,1-3.75,2.94,0,2.32,2.14,4.56,4.2,4.26a3.54,3.54,0,0,0,1.95-1.34c.23-.27-.11-1-.26-1.93-1,1.17-1,3.19-2.65,1.94a3.57,3.57,0,0,1-1.08-2.52c0-.49.87-1.24,1.5-1.49a4.79,4.79,0,0,1,5.54,1.24c2.93,2.93,4.34,6.62,5.35,10.52A10.07,10.07,0,0,0,305,547c.27-.19.43-.23.46-.33a13.88,13.88,0,0,0,.54-1.88c1-5.43,4.32-9.13,8.89-11.8a7,7,0,0,1,3.91-.54c1.27.12,1.62,1.08.62,2.07a3.24,3.24,0,0,1-1.63,1,28.3,28.3,0,0,1-3.61,0c1.38,1.85,2.88,1.79,4.47,1s3.3-1.66,2.83-3.72C320.88,530.3,318.63,530.19,316.64,530.09Z" transform="translate(-169.55 -234)"/><path d="M315.47,522c1.16.83,1.93,1.41,2.9.26,1.67-2,3.4-3.9,5.07-5.87a2.63,2.63,0,0,0,.31-.92l-.39-.31Z" transform="translate(-169.55 -234)"/><path d="M249.83,415.55c-.43-3.72-.89-7.68-1.36-11.73C247.43,408.33,248.38,414.77,249.83,415.55Z" transform="translate(-169.55 -234)"/><path d="M238.69,260.06c-.48,1-1.39,2-1.33,3a4.14,4.14,0,0,0,1.64,3c1.93,1.07,3.37-.21,4.36-1.94,2.08,2.32,4,2.84,5.43,1.54.91-.85.8-3-.24-4.11a3.37,3.37,0,0,0-.32.45c-.32.71-.62,1.43-.93,2.14-.85-.37-2.16-.53-2.47-1.17a26.64,26.64,0,0,1-1.62-5.32c-.05-.21.74-.91,1-.84,2.11.53,4.19,1.19,6.28,1.82.35.11.69.28,1.48.6-1.48-2.57-3.56-4.36-3.07-7.45,3.32-.13,6.57-.32,9.81-.35a4.1,4.1,0,0,1,2.32.87,2.29,2.29,0,0,1,.74,1.81c-.06.44-.85,1-1.39,1.11-1.66.31-3.27.26-4.06-1.86a3.2,3.2,0,0,0,.62,2.26c1.75,1.79,4.8,2,7.25.57,2.19-1.25,2.25-3.56,0-4.73a48.64,48.64,0,0,0-4.76-1.92c1.32-1.3,2-2.58.73-4.32a4.21,4.21,0,0,0-4.42-1.8,4.29,4.29,0,0,0-3.85,3.56,51.4,51.4,0,0,1,5.14-1.37,5.83,5.83,0,0,1,2.3.58,14,14,0,0,1-1.42,2.12,5.24,5.24,0,0,1-1.69.94c-3.26,1.49-6.73,1.55-10.18,1.29-2.67-.2-5.31-.8-8-1.23a1.66,1.66,0,0,0,.13.51,19.92,19.92,0,0,1,3.78,11.3,4,4,0,0,1-.64,2.17,1.79,1.79,0,0,1-1.64.5c-.38-.14-.67-1-.7-1.52a6.09,6.09,0,0,1,.43-1.82Z" transform="translate(-169.55 -234)"/><path d="M267.14,247.29l.18.73c4.67.43,9.07,3.59,13.61,1.19a18.13,18.13,0,0,0,12.43,2.93c4.07-.57,7.86-3.06,11.77-4.71,0-.3-.09-.6-.13-.9-.52-.2-1-.41-1.57-.59-2.64-.91-5.34-1.7-7.92-2.76a12.06,12.06,0,0,0-5.93-1.08c-6.82.51-13.26,2.6-19.87,4A12.16,12.16,0,0,0,267.14,247.29Zm29.17-1.46c.46.72,1.19,1.4,1.28,2.16s-.55,1.43-.86,2.14l-.81-.14c-.17-1.25-.33-2.5-.49-3.74Zm-3.25-.77c1.22.58,2.31,4.18,1.59,5.12-.16.22-.66.45-.8.36-.33-.2-.74-.6-.76-.93C293,248.13,293.06,246.66,293.06,245.06Zm-1.2-.58c.17,1.72.42,3.38.45,5.05,0,.42-.66.86-1,1.3-.41-.37-1.05-.67-1.18-1.12a25,25,0,0,1-.51-3.25C289.38,245,290,244.26,291.86,244.48Zm-5.24.88c1.58-.7,2.3-.13,2.29,1.56v3.45C286.59,250.12,286.24,249.31,286.62,245.36Zm-2.75.89a1.33,1.33,0,0,1,.86-.61.87.87,0,0,1,.74.42c.28,1.21.47,2.44.76,4C284.4,249.43,283.35,247.37,283.87,246.25Z" transform="translate(-169.55 -234)"/><path d="M347.52,246.62c1.07.56,2.17,1,3.66,1.76-1.34.27-2.43.22-3.14.71a7.82,7.82,0,0,0-2.47,2.74,2.42,2.42,0,0,0,.71,2.19c1.51,1.26,3.29.93,5.28.57-.35-.43-.45-.69-.58-.71-1.2-.19-2.92-.12-2.74-1.69.08-.76,1.81-1.36,2.83-2a2.28,2.28,0,0,1,1.14-.2c2.93,0,5.85,0,8.66,0,1.23,3.11-2.11,4.37-2.14,7l4.25-1c1.39-.31,1.83.41,1.62,1.63a8.88,8.88,0,0,1-.73,2.61c-.29.58-1,1-1.58,1.51l-.84-1.76-.71.23c.31,1,.31,2.46,1,2.91,2,1.35,2.2-1.54,3.57-1.91,1.25,1.64,1.5,4.55,4.28,4.15,1-.15,2.11-1.75,2.72-2.92.51-1,.21-2.26-1.22-3.09a3.68,3.68,0,0,1-.11,1.1c-.36.77-.78,1.51-1.18,2.25a8.75,8.75,0,0,1-2.06-1.22,3.63,3.63,0,0,1-.86-1.93,8.33,8.33,0,0,1,2.14-7.4c1.2-1.24,2.33-2.56,3.49-3.85l-.21-.48a15.23,15.23,0,0,0-1.65.23c-7.52,1.8-14.75,1.21-21.54-2.7a13.33,13.33,0,0,1-2.06-1.83c1.77-1.49,3.92.83,5.5-1.49-1.22-.39-2.4-1.21-3.22-.94-1.49.5-3.29,1.35-4,2.6C344.5,245.18,346.32,246,347.52,246.62Z" transform="translate(-169.55 -234)"/><path d="M203.45,316.21c2.34,1.74,3.17-1.06,4.33-1.54a26.49,26.49,0,0,0,3.84,3.18,3.89,3.89,0,0,0,3.1.13,3.07,3.07,0,0,0,1.11-2.44,6,6,0,0,0-1.05-2.89c-.6-1-1.56-1.82-2.75-.87s-1.06,1.94-.09,3.21l1-1.66.57-.11a6.36,6.36,0,0,1,.78,2.44,2.11,2.11,0,0,1-1.56,1.41,3,3,0,0,1-1.84-1.43c-1.35-2.25-1.27-4.67-.53-7.42l6.24,2-3-6.87c2-.26,3.51-.74,4.94-.56a9.25,9.25,0,0,1,3.56,1.72c.27.18.21,1.17,0,1.65-.09.2-1.06.25-1.46,0a14.78,14.78,0,0,1-2.06-1.63c-.84,1.17-.29,1.92.5,2.56,1,.8,2.09,2.15,3.35,1.07a5.69,5.69,0,0,0,1.87-3.57c0-.75-1.32-1.75-2.23-2.36a8.68,8.68,0,0,0-2.61-.78,3,3,0,0,0,.3-.79c.07-1.43.67-3.32,0-4.17s-2.67-1-4.09-1a2.14,2.14,0,0,0-2,3,1.36,1.36,0,0,0,.82.69c.24,0,.48-.49.77-.67.55-.33,1.13-.6,1.7-.9.34.74,1,1.55.92,2.19s-1,1.33-1.66,1.75c-1.52,1-3.15.57-4.7,0-2.36-.84-4.68-1.77-7.58-2.88a38.9,38.9,0,0,0,2.21,3.22c2.81,3.26,2.41,6.94,1.47,10.69-.09.36-.31.9-.56,1a16.41,16.41,0,0,1-2.43.25,10.67,10.67,0,0,1,.13-2.2c.1-.43.59-.77,1-1.23-1.31-.86-2.13-.26-2.73.67C202.06,312.6,202.25,315.31,203.45,316.21Z" transform="translate(-169.55 -234)"/><path d="M311.69,247.54c2.05,1.14,4.09,2.29,6.18,3.36a5.37,5.37,0,0,0,2.62.89c4.79-.45,9.58-.94,14.34-1.68a68.12,68.12,0,0,0,7.44-2c0-.26,0-.52,0-.78a20.66,20.66,0,0,0-3.13-1.47c-4.51-1.27-9.06-2.44-13.59-3.65-1.17-.31-2.53-1.17-3.49-.85-4.06,1.35-8,3-12.5,4.82C310.58,246.84,311.12,247.22,311.69,247.54Zm19.58-1a1.93,1.93,0,0,1,.08,1.8c-.27.44-1.09.54-1.84.87-.21-1.3-.36-2.23-.61-3.75C330,245.93,330.81,246.06,331.27,246.57ZM328,249a2,2,0,0,1-1.73-.3,22.13,22.13,0,0,1-.42-3.59C328,245.45,329.1,247.85,328,249Zm-2.8-3.31c.58,2.21.07,3.76-1.73,4.27-.23-1.72-.46-3.39-.7-5.19C323.93,244.6,324.86,244.33,325.22,245.71Zm-4.85-.43c0-.36.54-.7.83-1.05.27.3.7.55.78.89.21.94.28,1.92.34,2.34a6.41,6.41,0,0,1,0,1.7,3.58,3.58,0,0,1-.77.9c-.33-.3-.9-.57-.95-.91A23.85,23.85,0,0,1,320.37,245.28Zm-.93-.34c.11,1.82.2,3.42.3,5.14-1.44,0-2.18-.51-2-1.77S316.8,245.31,319.44,244.94Z" transform="translate(-169.55 -234)"/><path d="M388.42,303.44a5.19,5.19,0,0,0,2.4,3c1.35.51,2.53-.66,3.41-2.38-.7.29-1.09.6-1.37.52a14.84,14.84,0,0,1-2-.92c.46-.77.93-2.22,1.39-2.21a57.26,57.26,0,0,1,6.65.76c-1.62,2.69-2.9,4.8-4.18,6.91,2.68-.71,4.92-2,7.63-1.59a10.38,10.38,0,0,1-4.77,7.56c-.1-1.79-.18-3.14-.28-4.85a3.34,3.34,0,0,0-1.5,4.12,3.11,3.11,0,0,0,1.64,1.88,2.81,2.81,0,0,0,3.41-1.62c.66-1.21,1.25-2.46,2-4,.27.86.39,1.42.61,1.94,1.11,2.6,3.25,3,4.92.77a8.61,8.61,0,0,0,1.48-3.74,2.31,2.31,0,0,0-2.16-2.9,10,10,0,0,1,.54,2.52c0,1.28-.19,3-1.75,3-.71,0-1.68-1.61-2.06-2.66-1.23-3.35,0-6.24,2.12-8.84a10.33,10.33,0,0,0,.75-1.37,9.62,9.62,0,0,0-1.06.35c-2.91,1.58-6,1.29-8.93.39-.89-.27-1.57-1.73-2-2.79-.16-.4.7-1.7,1.14-1.72a8.26,8.26,0,0,1,2.75.8,6.77,6.77,0,0,1,.87.43,3,3,0,0,0-3.78-2.39c-2.66.46-3.73,2.06-3.49,5.22C390.08,300.47,388,302.12,388.42,303.44Z" transform="translate(-169.55 -234)"/><path d="M405.58,349.26q-1.35-3.33-2.82-6.6c-.35-.8-.84-1.55-1.32-2.42-1.91,3.17-3.61,5.92-5.23,8.72a2.28,2.28,0,0,0-.13,1.53c.82,3.8,1.64,7.61,2.6,11.38a38.14,38.14,0,0,0,1.73,4.47l.57.27a8,8,0,0,0,.47-1c1.45-4.94,2.9-9.88,4.3-14.83A2.49,2.49,0,0,0,405.58,349.26Zm-1.22,2.23c-.89,2.77-1.8,5.52-2.86,8.74-.58-1.44-.91-2.28-1.3-3.24l1.54-.78-2.1-.63c0-.13-.07-.27-.11-.4l2.59-.92c0-.12,0-.24,0-.35a17.44,17.44,0,0,1-2.17,0c-.3,0-.56-.38-.84-.59.26-.22.49-.59.78-.64a23.72,23.72,0,0,1,2.38-.26c0-.16,0-.32,0-.48l-3.82-.53,0-.78,5-.23c0-.2,0-.39.05-.59l-4.27-.41c.61-1.08.61-1.08,3.59-1.61l-2.19-1,1.22-3.48c1,2.34,1.92,4.52,2.76,6.74A2.61,2.61,0,0,1,404.36,351.49Z" transform="translate(-169.55 -234)"/><path d="M246.81,278.13a18.71,18.71,0,0,0-.4-2.06c-.49-3-.95-5.92-1.43-8.87l-.85-.25c-2.2,3.52-4.4,7-6.64,10.64,2.13,2.58,1.59,6,1.53,9.68C242.21,284.27,247,283.33,246.81,278.13Zm-2.35-3.25c.43.09.7,1,1,1.5l-.46.42-3.24-1C242.3,273.85,243.6,274.72,244.46,274.88Zm.77,4.48c-1.51-.87-3.48-.36-4.36-2.32C243.54,276.64,245.14,277.42,245.23,279.36Zm0,.86-.21.71c-1.29-.4-2.95.47-4.12-2Z" transform="translate(-169.55 -234)"/><path d="M213.8,333.93l-.44-.24a10.2,10.2,0,0,1-1.41,2.18,3.91,3.91,0,0,1-1.86.61c-.1,0-.3-.46-.46-.71.51-.16,1-.32,1.51-.5a7.83,7.83,0,0,0,.9-.5l-3.28-.52.1-1a29.44,29.44,0,0,0,3.76-.05c.52-.07,1.42-.76,1.38-1.08a82.82,82.82,0,0,0-1.3-8.47,35.8,35.8,0,0,0-1.81-4.91l-.78,0c-1,3-1.94,6-3.05,9-1,2.56-1.45,4.78.45,7.36,1.43,1.94,1.91,4.58,2.83,6.95Zm-2.59-7.39c.58,0,1.14.6,1.71.93-.06.21-.13.42-.19.63l-2.5.11-.39-.69C210.3,327.17,210.77,326.52,211.21,326.54Zm1.28,2.54c.21.18.45.61.37.79s-.5.66-.78.67a28.25,28.25,0,0,1-2.84-.18C209.94,329.1,211.75,328.49,212.49,329.08Z" transform="translate(-169.55 -234)"/><path d="M403.45,316.26a11.48,11.48,0,0,0-.7-1.62l-.8,0c-1.33,3.72-2.58,7.47-4,11.14a6.44,6.44,0,0,0,.14,5.38c1.12,2.43,2.15,4.91,3.26,7.46.52-.34.74-.4.82-.55,1.48-2.82,2.95-5.65,4.38-8.5a1.72,1.72,0,0,0,0-1.1Q405,322.38,403.45,316.26ZM400.94,334c-.33,0-.64-.26-1-.88l3.08-.59,0-.56a14.58,14.58,0,0,1-2.29,0,8,8,0,0,1-1.68-.67l.24-.61,3.87-.18c0-.18,0-.37,0-.55l-3.49-.46c0-.26,0-.51,0-.76.73-.12,1.45-.27,2.18-.36s1.57-.13,2.35-.2c0-.19,0-.39,0-.59l-3.63-.21c-.07-.24-.13-.48-.19-.72l3-1-2.22-.56-.06-.52,2.34-.9-1.16-.85,1-3.11.49,0a79.19,79.19,0,0,1,1.82,9.43C405.72,331.62,403,334.18,400.94,334Z" transform="translate(-169.55 -234)"/><path d="M371.9,276.1a1.53,1.53,0,0,0-.25-.93c-2.86-3.34-5.73-6.66-8.93-10.36-.34.93-.47,1.11-.45,1.27q.87,6.59,1.78,13.15a1.28,1.28,0,0,0,.42.84c2.31,1.37,4.65,2.69,7.44,4.28C371.91,281.27,371.92,278.69,371.9,276.1Zm-6.14-1.68,2.57-1.56h-3c0-.12-.07-.24-.1-.36l2.16-1.4,2.45,3L366,275C365.91,274.83,365.83,274.62,365.76,274.42Zm4.81,2.95c-1.22.45-2.49.74-3.74,1.09-.07-.19-.13-.38-.2-.56l3.73-1.53-.12-.56-3.85.92c-.07-.24-.14-.49-.22-.74,1.32-.36,2.63-.77,4-1,.17,0,.63.76.73,1.22S370.79,277.29,370.57,277.37Z" transform="translate(-169.55 -234)"/><path d="M222.47,300.48a18.83,18.83,0,0,0,9.24-.53c2.37-.64,4.95-1,4.79-4.55-.06-1.66.67-3.35,1.1-5.29l-9.23,1.33c-.11,0-.21.14-.31.22C225.44,294,223.89,297.06,222.47,300.48ZM235,294a5.41,5.41,0,0,1,.08,2.14l-.68.12c-.47-.69-.93-1.39-1.74-2.61C233.81,293.82,234.82,293.72,235,294Zm-2.09,1.79c.51.58,1,1.14,1.59,1.71-1.21.6-2.6-.74-3.11-3.53C231.86,294.6,232.35,295.22,232.87,295.81Zm.14,2.77c-1.93.26-3.35-1.17-4.36-4.17C230.89,295.24,231.21,297.46,233,298.58Zm-3,0c.07.09.05.24.08.41-1.55,1.07-2.45.28-3.26-1.34L228,296C228.8,297,229.39,297.78,230,298.57Z" transform="translate(-169.55 -234)"/><path d="M350.54,318.65c.23.6.53,1.17.84,1.86,1.09-3.41,2.1-6.53,3.09-9.65a.55.55,0,0,0,0-.38c-1-2.54-2-5.08-3.07-7.63-1.23,2.65-2.44,5.17-3.57,7.71a1.87,1.87,0,0,0,.07,1.25C348.75,314.1,349.65,316.38,350.54,318.65Z" transform="translate(-169.55 -234)"/><path d="M382.46,362.92l3.13-8.31-2.78-8.69c-1.31,2.7-2.57,5.25-3.77,7.82a1.58,1.58,0,0,0,.15,1q1.19,3.3,2.43,6.57A15.37,15.37,0,0,0,382.46,362.92Z" transform="translate(-169.55 -234)"/><path d="M309.44,244.52c2.05-1,4.15-1.84,6.73-3-6.6-1.7-12.49-2-18.83.64,2.89.93,5.3,1.63,7.65,2.5A5.32,5.32,0,0,0,309.44,244.52Z" transform="translate(-169.55 -234)"/><path d="M328.36,261.7a35.38,35.38,0,0,1-2.49,4.77c-1.29,1.79-1.57,3.16-.07,5,1.13,1.42,1.65,3.31,2.69,5.52.41-1.07.59-1.58.8-2.09.61-1.43,1.3-2.83,1.8-4.29a4,4,0,0,0,.24-2.44C330.42,265.89,329.28,263.66,328.36,261.7Z" transform="translate(-169.55 -234)"/><path d="M350.29,279.74c.94-2.93,1.72-5.21,2.39-7.53.31-1.07.79-2.34.49-3.3a47.41,47.41,0,0,0-2.74-5.94c-.93,1.89-1.76,3.74-2.75,5.51a2.46,2.46,0,0,0-.15,2.8,38.67,38.67,0,0,1,2.33,5.77A17.36,17.36,0,0,1,350.29,279.74Z" transform="translate(-169.55 -234)"/><path d="M373.07,294.24c-.14-2.3-.26-4.6-.41-6.9,0-.25-.09-.6-.25-.7-2.17-1.34-4.35-2.64-6.68-4C365.21,287.91,368.88,293.47,373.07,294.24Z" transform="translate(-169.55 -234)"/><path d="M234.84,409.1c1-2.54,2-5.1,2.88-7.69a2.42,2.42,0,0,0-.08-1.57c-.66-1.67-1.42-3.3-2.15-4.94-.18-.41-.4-.8-.82-1.62-.6,1.66-.93,2.85-1.44,4s-1.26,2.26-1.77,3.15c.78,1.68,1.5,3,2,4.45S234.45,407.84,234.84,409.1Z" transform="translate(-169.55 -234)"/><path d="M245.4,284.8c-2,1.19-4,2.36-6,3.57a1.38,1.38,0,0,0-.66.88c-.06,2.37,0,4.74,0,7.34C242.71,294.27,246.35,287.8,245.4,284.8Z" transform="translate(-169.55 -234)"/><path d="M392.2,331.84a21.81,21.81,0,0,0-.81,6.39c0,1.91-.19,3.49-2,3.85a17.42,17.42,0,0,1,1.12,4c.16,4.49.08,9,.15,13.5a9.57,9.57,0,0,0,.52,2.11l1-.19Z" transform="translate(-169.55 -234)"/><path d="M307.38,248c-2.25,1-4.48,2.14-7,3.38,4.9,2,9.77,1.7,14.68.83.07-.19.15-.39.23-.59-2.31-1.22-4.61-2.45-6.94-3.65A1.16,1.16,0,0,0,307.38,248Z" transform="translate(-169.55 -234)"/><path d="M208.55,341.82c-.57-1.59-1.12-3.19-1.8-4.73a14.28,14.28,0,0,0-1.69-2.25c-1.84,5.22-1.11,9.9-.58,14.57l.58.09c1.2-2.24,2.42-4.48,3.59-6.74A1.37,1.37,0,0,0,208.55,341.82Z" transform="translate(-169.55 -234)"/><path d="M422.37,382.87c-1.15-1.59-3.4-2.11-6.09-1.17,2.53,1.45,5.69,2.77,2.64,6.12-1.4,1.53-2.66.22-4.05-1.05-.24,2,.23,3.27,1.7,3.9a5.27,5.27,0,0,0,5.74-1.59A5.45,5.45,0,0,0,422.37,382.87Z" transform="translate(-169.55 -234)"/><path d="M237,288a.83.83,0,0,0,.49-.56,16.09,16.09,0,0,0-1-7.27c-2.38,3.23-4.51,6.11-6.64,9,.14.28.27.56.4.84C232.55,289.34,234.8,288.7,237,288Z" transform="translate(-169.55 -234)"/><path d="M379.43,288.53c.19-2.74-3.24-9-5.27-9.83C372.51,284,374.13,287.07,379.43,288.53Z" transform="translate(-169.55 -234)"/><path d="M406,346.62c2-2.26,2.41-10.51.6-12.78C403.06,337.64,402.84,343.09,406,346.62Zm1-8.79c-.21,2-.42,4.07-.68,6.62C404.46,341.7,404.6,340.32,406.93,337.83Z" transform="translate(-169.55 -234)"/><path d="M396.34,345.64c.9-1.7,1.82-3.33,2.62-5a2.37,2.37,0,0,0-.07-1.48c-.41-1.28-.9-2.54-1.38-3.8-.25-.68-.56-1.35-.9-2.17C394.69,335.8,394.52,343.81,396.34,345.64Zm.73-7.64c1.33,1.58,1.13,2.74,0,4.37Z" transform="translate(-169.55 -234)"/><path d="M202.46,319.18c0,4.17.24,8.34.41,12.5l.56-.07c.45-4.38.89-8.77,1.39-13.6C203.84,318.48,202.46,318.84,202.46,319.18Z" transform="translate(-169.55 -234)"/><path d="M268.92,252.26c.08,1.18.15,2.07.21,3l11.29-.93,0-.47Z" transform="translate(-169.55 -234)"/><path d="M407.2,362.68c.31-2.79.72-5.56,1-8.34a8.69,8.69,0,0,0-.12-1.75l-.72-.06c-.88,4-1.76,7.92-2.67,12.05C406.35,364.59,407.06,364,407.2,362.68Z" transform="translate(-169.55 -234)"/><path d="M396.59,365c-.55-4-1.09-7.8-1.63-11.66a2.39,2.39,0,0,0-.68,1.69c0,2.8.1,5.61,0,8.41C394.17,365.44,395.13,365.39,396.59,365Z" transform="translate(-169.55 -234)"/><path d="M275.26,241.92c-3.17.42-6.34.87-9.53,1.24-1.46.16-1.87,1.07-2.18,2.71l11.85-3.22C275.35,242.41,275.31,242.16,275.26,241.92Z" transform="translate(-169.55 -234)"/><path d="M394.91,319.66c-.17,2.26-.5,4.5-.72,6.76-.12,1.21-.14,2.44-.21,3.66l.53.06c.77-3.86,1.53-7.72,2.33-11.74C395.63,318,395,318.29,394.91,319.66Z" transform="translate(-169.55 -234)"/><path d="M339.94,241.75a16.11,16.11,0,0,1-2.9-.33c-1-.11-2.08-.18-3.12-.27,0,.17,0,.33-.07.5l9,2.91C342.61,242.57,341.89,241.59,339.94,241.75Z" transform="translate(-169.55 -234)"/><path d="M408.69,328.06q.29-5.76.56-11.52l-.71-.36c-.44.5-1.29,1-1.26,1.5.25,3.47.67,6.93,1,10.4Z" transform="translate(-169.55 -234)"/><path d="M341.57,252.85l-7,.39c-.67,0-1.34,0-2,0l0,.58,10.93.88C343.39,253.27,342.74,252.78,341.57,252.85Z" transform="translate(-169.55 -234)"/><path d="M223.64,406.56c-.6-3.32-1.2-6.63-1.88-9.93,0-.24-.68-.35-1-.53-.14.45-.5,1-.39,1.33.93,3.2,1.95,6.37,3,9.7C223.48,406.85,223.67,406.69,223.64,406.56Z" transform="translate(-169.55 -234)"/><path d="M392.37,294,384,288.74C386.12,293.09,390,295.4,392.37,294Z" transform="translate(-169.55 -234)"/><path d="M234.64,300.82,226.93,305C228.3,306.73,231,305.35,234.64,300.82Z" transform="translate(-169.55 -234)"/><path d="M374.46,273.89l.5-.37c-.5-1.82-1-3.65-1.58-5.7L370.84,269Z" transform="translate(-169.55 -234)"/><path d="M401.54,402.42c-.21,2.22-.08,4.47-.08,6.72l.4,0c.63-2.68,1.25-5.35,1.88-8l-.42-.34C402.7,401.34,401.6,401.83,401.54,402.42Z" transform="translate(-169.55 -234)"/><path d="M249,274.31c.55-2.55,1.1-5.09,1.71-8C248.81,267.27,247.83,271.82,249,274.31Z" transform="translate(-169.55 -234)"/><path d="M388,409l.5.15,3.15-7.11-1.69-.81C389.24,403.91,388.6,406.44,388,409Z" transform="translate(-169.55 -234)"/><path d="M228,289.35l-7.06,5.16C222.39,295.23,225.64,293,228,289.35Z" transform="translate(-169.55 -234)"/><path d="M237.76,268c-.31,2.64-.6,5.08-.92,7.8C238.79,273.43,239.3,269.2,237.76,268Z" transform="translate(-169.55 -234)"/><path d="M286.41,441.66c-.07-.2-.93-.27-1.35-.14a26.24,26.24,0,0,0-3.43,1.4c-1.9,1-3.58,2.42-6,2.17-.36,0-1.07.61-1.14,1s.44,1,.81,1.33a4,4,0,0,0,1.15.55c-.53,1.75-1,3.37-1.5,5-1.1-1.74-1.6-3.56-2.46-5.19a2.12,2.12,0,0,1,.37-2.79,5.69,5.69,0,0,0,1.15-1.33,13.22,13.22,0,0,0,.57-2.29,12.57,12.57,0,0,0-2.13.13c-.48.1-.89.56-1.38.71-2.27.75-4.56,1.47-6.86,2.14-1,.29-2,.43-2.58.54-1.54-.86-2.92-2.28-4.14-2.16-1.45.15-2.77,1.62-4.34,2.64a3.63,3.63,0,0,0,.29-1.18c-.14-.79-.4-1.56-.61-2.34-.8.29-1.62.55-2.39.9-.27.12-.38.54-.63.74-1.82,1.4-3.68,2.76-5.48,4.18a2.6,2.6,0,0,0-.91,1.32c-.05.22.6.61.95.9s1.27.63,1.37,1.06a22.35,22.35,0,0,1,.65,7.78,8.09,8.09,0,0,0,.55,2.62,14.49,14.49,0,0,1-.35,2.3,25.73,25.73,0,0,1-1.16,2.77c-.26.59-.57,1.16-.85,1.74a6.09,6.09,0,0,0,1.92.51c2.78-.23,5.55-.55,8.31-.91a7.87,7.87,0,0,0,1.79-.69,18.91,18.91,0,0,0-1.27-1.77c-.22-.25-.64-.33-1.17-.58V448.5c3,1,2.1,4,3.35,5.38l5.18-5.69-.81-1.1,1.74-.39c1.28,2,.17,5.51,4.24,5.54-1.58,1.39-1.19,2.76-.58,4.23s1.11,3.2,1.68,4.79a4,4,0,0,1-.37,3.46,6.54,6.54,0,0,1-4.57,3.6c-3.05.72-6,2.91-9.31.92-.23-.14-.7.11-1.53.28,2.19,3.13,5.08,5,7,6.93l4.25-3.07a47.89,47.89,0,0,0,4.68-3.5,41.2,41.2,0,0,0,3.19-4c1.32-1.54,3.22-2.82,1.79-5.62,1.93,1.33,2.41.1,3-1,3.07-5.35,6.18-10.67,9.23-16A2.14,2.14,0,0,0,286.41,441.66Z" transform="translate(-169.55 -234)"/><path d="M377.51,469.07c-.55-.59-1.35-1.14-1.51-1.83a9.09,9.09,0,0,1,0-3.45c.72-4.63.33-9.34,1.18-14a55.77,55.77,0,0,0,.51-8.39c.16-4.44,1-5.24,5.3-4.86a3.11,3.11,0,0,0-2.93-2.65,35.79,35.79,0,0,0-3.89-.22c-2.72-.17-5.41,1.42-8.22-.21-1-.6-1.61.87-1.16,1.72s1.54,1.47,2.22,2.29a5.16,5.16,0,0,1,1.2,2.11,16.56,16.56,0,0,1,.05,3.23h.18l-.63,3.6c-.41-.39-.79-.71-1.13-1.06-2.32-2.4-5-2.46-6.76.32a85.76,85.76,0,0,0-5.37,10.17c-.51,1.12-1,2.78,1.06,3.29-.23.63-.67,1.21-.56,1.66a51.62,51.62,0,0,0,1.81,6.38c.92,2.46,2.27,3.09,4.78,2.38a42.39,42.39,0,0,0,4.16-1.66c.4.85-1.78,3.12,1.06,2.29a7,7,0,0,1,5.38.73,6.27,6.27,0,0,0,3,.56c.54,0,1-.85,1.52-1.32C378.3,469.8,377.88,469.46,377.51,469.07Zm-8.95-9.43c-.32,1.59-.56,3.19-1,4.75-.09.37-.7.89-1,.85-.49-.05-1.23-.45-1.33-.85a12.68,12.68,0,0,1,.45-8.11,2.62,2.62,0,0,0,.1-1.61,4.76,4.76,0,0,1,2.73-5.46c1.56,2.31-1.35,5.1.82,6.84C369.05,457.41,368.79,458.52,368.56,459.64Z" transform="translate(-169.55 -234)"/><path d="M294.5,469.86c.59-.82.5-2.12.81-3.63.8-.19,1.06-1.26,1-2.65-.11-5.16-.14-10.32-.19-15.48,0-1.77,1-2.43,2.65-1.78.47.18.93.41,1.57.69.87-2.32,1.71-4.52,2.63-6.95-1.24.43-2.34.75-3.38,1.2s-2,1.05-3.29,1.71c.18-2.49.32-4.74.52-7,0-.33.35-.88.57-.9a1.61,1.61,0,0,1,1.14.48,25.52,25.52,0,0,1,1.68,2.28c1.56-1,3-2,4.43-3a10.07,10.07,0,0,0,1.45-1.71c-.58-.29-1.17-.57-1.75-.87-.23-.12-.45-.26-.67-.4-1.87-1.11-3.74-2.47-5.38.31-.05.08-.22.08-.34.1-4.92.87-7.64,3.91-8,8.85-.2,2.77-.57,5.33-3.89,6.4-1.61.52-1.44,2.26-1.27,3.87l4-1.91c0,2.37-.07,4.51,0,6.63a15.42,15.42,0,0,0,.79,2.88,8.31,8.31,0,0,0-.88,2.4c-.17,2.19,0,4.41-.14,6.6-.19,2.5-.95,2.84-3.6,1.74v-4.13c-.9,1-1.45,1.71-2.12,2.31-1.41,1.27-.93,2.42.24,3.41s2.6,1.95,3.89,2.94a2.46,2.46,0,0,0,3.52-.09A30.93,30.93,0,0,0,294.5,469.86Z" transform="translate(-169.55 -234)"/><path d="M315.68,436.83l7.32-5.7c-.09-.19-.18-.39-.26-.58a4.78,4.78,0,0,1-5.14-.73,2.81,2.81,0,0,0-1.11-.31c-2.1-.48-3.69.74-5.21,1.78-3.12,2.15-5.86,4.45-5.43,9,.26,2.74,0,5.67-3.38,7.1-1.58.66-1,2.4-.57,4l3.13-1.64c0,1.5-.1,2.81,0,4.1s.47,2.32.82,3.95a13.84,13.84,0,0,0-.39,2.35c-.09,2.81,0,5.63-.13,8.44,0,1,0,2.23-1.9,2,.14-1.11.32-2.18.4-3.26a1.2,1.2,0,0,0-.33-1c-.27-.15-.95-.12-1.07.08-.72,1.14-2.1,2.6-1.81,3.48.48,1.51,2,2.74,3.2,3.93.27.26,1.34.05,1.79-.28a59.58,59.58,0,0,0,5.47-4.41c.61-.57.74-1.66,1.09-2.5,2-4.4-.42-8.9.68-13.19l-1.15-.35a43.78,43.78,0,0,0,1.06-5c.22-2.38.83-3,3-2.89.56-1.4,1.12-2.74,1.64-4.1.22-.59.36-1.22.54-1.84a5.35,5.35,0,0,0-2,0,27.11,27.11,0,0,0-3.15,1.83c.28-2.64-.6-5.09,1.49-7.53C314.85,434.8,315.2,435.64,315.68,436.83Z" transform="translate(-169.55 -234)"/><path d="M355.63,466.43a12.71,12.71,0,0,0-2.33-.91c1.67-2,1.47-4.19,1.37-6.3s-.59-4.3.65-5.6a23,23,0,0,1-.81-4.26c.06-5.06-2.94-6.05-7-4.24-1.21.54-2.32,1.29-3.78,2.11a7.1,7.1,0,0,0,.5-1.77c0-.6-.14-1.64-.4-1.71a3.19,3.19,0,0,0-2.17.27c-2.18,1.26-4.28,2.66-6.37,4.07a1.72,1.72,0,0,0-.75,1.23,1.4,1.4,0,0,0,1,1c1.14.05,1.45.63,1.46,1.63,0,3.59.18,7.18-.12,10.77-.16,1.86-.53,3.6-2.24,4.73-.27.18-.4.58-.78,1.17a6.44,6.44,0,0,0,2.19.43c2.67-.58,5.32-1.29,7.95-2a5.41,5.41,0,0,0,1.37-.94c-.32-.45-.65-.9-1-1.36-.44-.64-1.27-1.3-1.26-1.93.1-3.32.4-6.63.63-9.95a3.17,3.17,0,0,1,2.49-3.1c1.31-.39,1.93,0,1.89,1.29-.07,2.08-.26,4.15-.34,6.23-.06,1.47,0,2.94,0,4.69-.14.35-.41,1.07-.7,1.78a12.54,12.54,0,0,1-1.55,3.44c-1.11,1.28-1,2.08-.3,2.62,2.41-.39,4.29-.77,6.18-1,1.23-.13,2.5.07,3.73-.06a5.14,5.14,0,0,0,1.6-.84C356.39,467.39,356.12,466.74,355.63,466.43Z" transform="translate(-169.55 -234)"/><path d="M395.81,461.06c-.13-.61.32-1.23.21-1.74q-.84-4.11-1.93-8.15c-1-3.66-4.88-4.91-8.37-4-3.91,1-5.58,4.3-7.42,7.36-.5.82-1.31,2,.15,2.91.09.06,0,.44,0,.66,0,2.63-.24,5.26,0,7.86.07,1,1.06,1.85,1.76,3,.11.36.11,1.17.51,1.6a16.35,16.35,0,0,0,3,2.48c2.39,1.52,4.91,1.35,6.68-.84a53.74,53.74,0,0,0,5-7.62C395.93,463.64,395.69,462.25,395.81,461.06Zm-6-.9c0,2.61.4,5.27-1.23,7.59-.34.49-1.09,1.3-1.24,1.21-.62-.34-1.47-.93-1.53-1.49a78.73,78.73,0,0,1-.57-9.69,18.88,18.88,0,0,1,1.3-5.29,7.27,7.27,0,0,1,1.34-1.82c2.58,1.86-.68,5.65,2.26,6.67A21.71,21.71,0,0,0,389.79,460.16Z" transform="translate(-169.55 -234)"/><path d="M413.28,450.37c-1-1.72-2.19-1.92-4-.86-1.11.65-2.12,1.46-3.18,2.2l-.38-.36c.47-1,1-1.93,1.38-2.94A3.45,3.45,0,0,0,407,447a3.12,3.12,0,0,0-1.22.25,19.82,19.82,0,0,1-8.55,3.61c-.57.08-1.05.8-1.56,1.22.46.43.88,1.13,1.4,1.22a2,2,0,0,1,1.91,2.57c-.27,2.27-.55,4.53-.73,6.81a10.07,10.07,0,0,0,.41,2.27,2.74,2.74,0,0,0-.57,1.27c.06,2.41-.28,4.53-2.69,5.8-.32.17-.39.84-.57,1.27a5.66,5.66,0,0,0,1.23.39,46.7,46.7,0,0,1,5.05.36c2.23.42,4.4,1.2,6.62,1.7a1.92,1.92,0,0,0,1.64-.47,1.83,1.83,0,0,0-.32-1.64c-.66-.78-1.64-1.3-2.3-2.09a5,5,0,0,1-1.38-2.56c-.14-3.06,0-6.13.06-9.19a13.7,13.7,0,0,1,.41-3.69c.23-.75,1.08-1.3,1.65-1.94a8.05,8.05,0,0,1,1.14,2.19,17.6,17.6,0,0,1,.05,3.23c2.1-1,4-1.74,5.78-2.68.47-.25,1-1.15.92-1.54A27.08,27.08,0,0,0,413.28,450.37Z" transform="translate(-169.55 -234)"/><path d="M333.93,429.51a7,7,0,0,0-1.92.55c0,.13.05.27.07.41h26.27C350.22,430,342.08,429.7,333.93,429.51Z" transform="translate(-169.55 -234)"/><path d="M355.54,432.22H337.29v.4h18.25C355.53,432.49,355.54,432.35,355.54,432.22Z" transform="translate(-169.55 -234)"/><path d="M332.3,476.66h18.11l0-.22-18.11-.59C332.31,476.12,332.31,476.39,332.3,476.66Z" transform="translate(-169.55 -234)"/><path d="M279.89,429.72c0-.28-.05-.57-.07-.86l-17.25,1.61,0,.76Z" transform="translate(-169.55 -234)"/><path d="M251.18,478.53c4.12-.34,8.33.18,12.33-1.49l-12.38.87C251.15,478.11,251.16,478.32,251.18,478.53Z" transform="translate(-169.55 -234)"/><path d="M347.74,435.29l0-.4h-6.23v.4Z" transform="translate(-169.55 -234)"/><path d="M332.66,378.84c-.13-.19-.26-.37-.38-.56a33.1,33.1,0,0,0-12.95,8.17c-3.71,3.64-7.05,7.49-8.54,12.65-1-5.38.77-9.75,4.72-13.39-4.42,1.52-9.09,8.24-7.51,11.48.25-.36.5-.72.87-1.23.68,5.78,1.1,6.82,3.28,8.17a22,22,0,0,1,0-2.7c.57-4.64,3.27-8.19,6.18-11.56a40.48,40.48,0,0,1,12.45-9.66A14.35,14.35,0,0,0,332.66,378.84Z" transform="translate(-169.55 -234)"/><path d="M318.77,326.07c-7-4.22-8.91-10.48-7.48-18.12-.32,0-.54-.1-.68,0a27.65,27.65,0,0,0-3.06,1.72,2,2,0,0,1-2.94-.31c-1.4-1.42-1.5-3.62-.23-6,.3-.57.54-1.17.82-1.75a5.28,5.28,0,0,0-3.1,4.86c-.13,2.59,1,4.24,3.86,4.5l-2.76,5.41.57.33c1.54-2.48,2.92-5.13,6.09-6.58-.85,3.73-.8,7,1.08,10.13A12.25,12.25,0,0,0,318.77,326.07Z" transform="translate(-169.55 -234)"/><path d="M290.51,295.59c.26-.39.1-1,.14-1.56.13-2-.1-4.07.47-5.91.78-2.51,2.44-2.58,4.1-.49.16.2.29.43.44.64a12.24,12.24,0,0,0,8.68,5.11,6.67,6.67,0,0,0,1.81-.21c-4.71-1.93-4.94-1.78-7.5-5.45-1.58-2.26-3.69-2-5.77-2.41a2.11,2.11,0,0,0-2.63,1.49,27.07,27.07,0,0,0-1.55,6,6.39,6.39,0,0,1-1.33,3.69c-1.22,1.63-2.11,3.4-1.45,5.71C287.57,299.86,289.09,297.76,290.51,295.59Z" transform="translate(-169.55 -234)"/><path d="M314.58,381.75c-3.79.71-5.87,3.67-8.65,6.57A19.6,19.6,0,0,1,314.31,376c-3.33.37-7.23,4.88-8.75,9.59-1.77,5.49-2,11.1-.56,12.41C305.53,391,309.14,385.87,314.58,381.75Z" transform="translate(-169.55 -234)"/><path d="M316,286c2,.94,3.84,2.46,5.75,2.55s4-1.24,6-1.95C325.51,281.54,319.93,280.59,316,286Zm7.93-1.32c.18.2.36.39.53.59a5.68,5.68,0,0,1-1.09,1.67c-1.45,1.08-3,.72-4.25-1C321.18,286.59,323.8,285.17,324,284.63Z" transform="translate(-169.55 -234)"/><path d="M288.69,284.68l-.71-.55c-3.82,5.24-7.6,10.55-14.43,12,.44,1.7,1.11,1.89,2.5,1.34,3.78-1.5,6.54-4.27,9.12-7.19A38.81,38.81,0,0,0,288.69,284.68Z" transform="translate(-169.55 -234)"/><path d="M318,278.77l-14.19-5.38C307.35,279.13,313.59,280.65,318,278.77Z" transform="translate(-169.55 -234)"/><path d="M282.85,323.58c1.26-3.53,2.66-7.09.75-10.89-.85,6.09-1.42,12.25-6.76,16.91C279.22,329.27,281.76,326.64,282.85,323.58Z" transform="translate(-169.55 -234)"/><path d="M358.71,375.3c3,.16,6,1,9,1.47a8,8,0,0,0,2-.18c-6.64-2.9-21.93-3.45-26.08-1.2.7-.05,1.14-.12,1.59-.12C349.74,375.25,354.24,375.05,358.71,375.3Z" transform="translate(-169.55 -234)"/><path d="M262.06,330.56c5.27,1,12-7.07,10.75-12.9A18,18,0,0,1,262.06,330.56Z" transform="translate(-169.55 -234)"/><path d="M304.49,371.63c-4.49-3.59-7.44-8-7.67-13.91-1.55,2.35-.36,7.12,2.57,11.12C300.85,370.84,302.85,372,304.49,371.63Z" transform="translate(-169.55 -234)"/><path d="M296.52,367.31c-3.9-4.26-4.9-9.3-3.73-15.31-2.64,2.53-2.18,8.49-.08,12.32C294.07,366.81,295,367.55,296.52,367.31Z" transform="translate(-169.55 -234)"/><path d="M290.09,277.61c.5,2.49,4,5.32,6.56,5.77,2.24.39,5.1-.47,6-2.1C297.92,282.23,294,280.75,290.09,277.61Z" transform="translate(-169.55 -234)"/><path d="M300.07,296.4c.35-.27.12-1.31.16-2-4.75,3.43-7.53,7.67-7.7,13.31A20.34,20.34,0,0,1,300.07,296.4Z" transform="translate(-169.55 -234)"/><path d="M285.71,282.23c-3.25,4.23-6.42,7.91-11.49,9.82C277.29,293.89,285.54,286.81,285.71,282.23Z" transform="translate(-169.55 -234)"/><path d="M300,303.39c.67-1.47,1.69-2.77,2.5-4.19.15-.26,0-.69,0-1a2.79,2.79,0,0,0-1,.16,2.5,2.5,0,0,0-.92,1c-1.45,3.4-2.9,6.8-4.22,10.24a8.69,8.69,0,0,0,0,2.77C297.6,309.13,298.71,306.22,300,303.39Z" transform="translate(-169.55 -234)"/><path d="M325,299c-4.79.8-8.34,7.94-5.83,11.44C319.49,305.82,321.47,302.26,325,299Z" transform="translate(-169.55 -234)"/><path d="M291.09,362.58a12.84,12.84,0,0,1-2.19-11.79C285.52,354,286.83,360.85,291.09,362.58Z" transform="translate(-169.55 -234)"/><path d="M371.26,380.12c2.28-3.2,6.31-2,9.44-3.63C377.36,374.5,371.2,377.2,371.26,380.12Z" transform="translate(-169.55 -234)"/><path d="M315.8,303l-.06.05C315.79,303.2,315.8,303.15,315.8,303Z" transform="translate(-169.55 -234)"/><path d="M316,302.08a2,2,0,0,0-.15.95l6.5-5.9A12.17,12.17,0,0,0,316,302.08Z" transform="translate(-169.55 -234)"/><path d="M311.43,294.88a10.93,10.93,0,0,1,1.27,2.34c.16.3.37.58.56.87l.61-.06c0-1,.37-2.29-.07-3.09a45.15,45.15,0,0,0-3.48-4.93C309.61,291.25,310.09,293.44,311.43,294.88Z" transform="translate(-169.55 -234)"/><path d="M293,297.07c-2.33,2.27-3.54,4.48-3.19,7.35,1.17-1.82,2.39-3.61,3.48-5.48C293.51,298.59,293.17,297.94,293,297.07Z" transform="translate(-169.55 -234)"/><path d="M305.24,382l5.9-8.37C308.6,374.08,304.77,379.48,305.24,382Z" transform="translate(-169.55 -234)"/><path d="M340.91,289.74c-.17-.26-.34-.52-.5-.78l-7.52,4.91.53.82Z" transform="translate(-169.55 -234)"/><path d="M328.69,291.9c.16.21.3.42.45.63l6.41-3.94-.47-.74Z" transform="translate(-169.55 -234)"/><path d="M331.06,293.51l7.75-4.66C336.33,288.94,331.89,291.69,331.06,293.51Z" transform="translate(-169.55 -234)"/><path d="M315.29,282.69l-4.05,2.15C312.88,286.14,314.72,285.24,315.29,282.69Z" transform="translate(-169.55 -234)"/><path d="M372.73,382.39l5.09-3C374.94,379.27,373,380.61,372.73,382.39Z" transform="translate(-169.55 -234)"/><path d="M280.41,284.63l-3.94,2.17C278.85,287.93,279.54,286.14,280.41,284.63Z" transform="translate(-169.55 -234)"/><path d="M330.64,288.18l-3,2.77.32.36,4.93-3.33c-.06-.12-.11-.24-.16-.35Z" transform="translate(-169.55 -234)"/><path d="M330.62,288.17h0l0,0,0,0h0l.06-.05Z" transform="translate(-169.55 -234)"/><path d="M329.92,287.47a5.24,5.24,0,0,0-3.42,2.84l4.12-2.14C330.38,287.92,330.08,287.43,329.92,287.47Z" transform="translate(-169.55 -234)"/><path d="M233.81,479.48c-.73-.48-1.89-1.1-1.93-1.72-.2-3.68-.14-7.38-.18-11.07a1.23,1.23,0,0,0-.16-.4l-2-.76c2.69-.58,2.71-2.27,2.8-4s0-3.78,3-4.27a7.69,7.69,0,0,0-6.11-.86c-4.7.87-9.38,1.92-14.18,2.93,0,.75,0,1.77,0,2.8,0,1.35.52,1.61,1.7,1.06,1.39-.65,2.81-1.23,4.21-1.85,1.12,2.82.93,3.14-1.53,3.49-1.17.17-2.32.5-3.49.76,4.91.49,4.91.49,5.42,1.55l-2.32.51,4.06,3.09c-1.8,1.38-1.2,3.26-1.13,5.14a31.26,31.26,0,0,1-.33,6.77,3.59,3.59,0,0,1-2.21,2.07c-1.25.44-2.3-.27-3.08-1.47a47.54,47.54,0,0,1-5.81-13.85c-.51-1.93-.67-4.22-3.32-4.46.37-1.06,1-2,1-2.91-.34-5-.58-10,.37-15a70.65,70.65,0,0,1,4.92-16.44c.83-1.82,1.72-2.05,3.08-.67a29.86,29.86,0,0,1,2.7,3.34c.68.93,1.25,1.94,1.85,2.9l1.52-.67a23,23,0,0,1,.61,4,6.08,6.08,0,0,1-.91,2.67,14,14,0,0,1-1.76,2l1.23,1.13c4.63-4,9.07-7.82,13.45-11.69a3.45,3.45,0,0,0,.92-1.87c.39-2.18.68-4.38.94-6.58.24-2,.4-3.95.59-5.93l-.81-.22a9.6,9.6,0,0,0-.82,2.34c-.24,3.38-.37,6.77-.54,10.14a12.69,12.69,0,0,0-1.92.94c-1.23.89-1.9.63-2.79-.63a31.93,31.93,0,0,0-4.3-4.78c-.57-.55-1.58-.64-2.72-1.06,0,.14,0,.21,0,0h0a.74.74,0,0,0,0-.19,3.42,3.42,0,0,0-5.05-2.07c-2.44,1.34-5.06,2.34-7.59,3.53-1,.46-2.26.78-2.83,1.57a66.29,66.29,0,0,0-4.52,7.27c-.36.66-.05,1.68-.05,2.39a8.62,8.62,0,0,0-1.29,1.75,40.16,40.16,0,0,0-2,5.69,10,10,0,0,0,.27,3.25c-.34.65-.89,1.55-1.31,2.51-1.36,3.07-.57,6.25-.44,9.39a52,52,0,0,0,10.58,29.79c1,1.31,1.71,1.29,3.05.54a62.9,62.9,0,0,1,9.6-4.82,56.92,56.92,0,0,1,9.88-2c.79-.12,1.88.48,1.89-.86S235.86,480.83,233.81,479.48Z" transform="translate(-169.55 -234)"/><path d="M215.71,433c-.44.24-1.18.4-1.27.74-.92,3.18-1.9,6.37-2.52,9.62-1.18,6.2-1,12.45-.44,18.72.58,6.72,2.78,12.94,5.22,19.12l.64-.16a16.3,16.3,0,0,0-.48-1.69,61,61,0,0,1-4.47-21.08A66.25,66.25,0,0,1,216,434.43C216.09,434,215.8,433.47,215.71,433Z" transform="translate(-169.55 -234)"/><path d="M234.88,460.5c-.34,1.58-.53,3.19-.77,4.8-.22,1.46-.38,2.94-.69,4.38a16.46,16.46,0,0,1-.92,2.53c.44,1.66.76,3.26,1.32,4.77.21.56,1,.91,1.51,1.36a7.15,7.15,0,0,0-.13-1.87c-.91-2.5-2.39-5-.09-7.48.14-.16.06-.51.1-.77.38-2.43.81-4.86,1.14-7.3.06-.4-.25-.86-.39-1.29C235.59,459.91,235,460.15,234.88,460.5Z" transform="translate(-169.55 -234)"/><path d="M232.65,439.17a98.55,98.55,0,0,0-8,6.61l.65,1a6.66,6.66,0,0,0,1.55-.72c.9-.73,1.67-1.62,2.56-2.37,2.24-1.88,4.61-3.62,6.73-5.62a22.81,22.81,0,0,0,2.7-3.8l-.72-.55C237.31,436.7,234.84,437.7,232.65,439.17Z" transform="translate(-169.55 -234)"/><path d="M208.13,496.45c4.09-1.36,7.66-2.48,11.17-3.77.55-.21.82-1.18,1.21-1.79l-.51-.48C216.2,492.34,211.87,493.26,208.13,496.45Z" transform="translate(-169.55 -234)"/><path d="M228.73,491c-1.92.29-2.14.7-1.44,3.09l6.08-3.07-.24-.62C231.66,490.58,230.19,490.76,228.73,491Z" transform="translate(-169.55 -234)"/><path d="M199.4,427.11c1.47-1.29,2.81-2.47,4.16-3.64C201.54,422.81,200.05,424.39,199.4,427.11Z" transform="translate(-169.55 -234)"/><path d="M370,326.61c-2.52-5.32.15-10.4.64-15.58C367.62,314.78,366.24,323.78,370,326.61Z" transform="translate(-169.55 -234)"/><path d="M372.32,327.1c-.3-3.32-.61-6.84-.93-10.35C369.39,319.48,370.19,326,372.32,327.1Z" transform="translate(-169.55 -234)"/><path d="M374.86,326.61c-.46-2-.89-3.93-1.42-6.2C372.38,323.07,373,325.6,374.86,326.61Z" transform="translate(-169.55 -234)"/><path d="M216.7,344.31c4.64-2.26,8.69-1.4,12.69.37C227,341.76,219,341.28,216.7,344.31Z" transform="translate(-169.55 -234)"/><path d="M216.88,345.93c3.28-1.07,6.56-1.6,9.91-.16C224.86,343.62,219.25,343.74,216.88,345.93Z" transform="translate(-169.55 -234)"/><path d="M223.37,347.17c-2.47-1.59-7.84.69-9.23,3.74C216.74,348.72,219.49,346.88,223.37,347.17Z" transform="translate(-169.55 -234)"/><path d="M260.41,393c-1.29,2.59-2.36,4.71-3.37,6.85a1.61,1.61,0,0,0,0,1.08c.66,2,1.35,4.07,2.05,6.09.24.68.52,1.34.78,2a40,40,0,0,0,1.93-5.16c.76-2,2.37-3.79.15-6.08C261,396.82,261,395,260.41,393Z" transform="translate(-169.55 -234)"/><path d="M273.2,402.22a46.89,46.89,0,0,1,2.52,6c1.15-3,2.11-5.43,3-7.89.09-.24-.09-.61-.2-.9-.6-1.49-1.23-3-1.82-4.45-.22-.54-.38-1.1-.57-1.65-1.2,1.68-1.64,3.56-2.75,4.9C272.14,399.7,272.29,400.68,273.2,402.22Z" transform="translate(-169.55 -234)"/><path d="M205.07,360.52c.38,3.08.74,6,1.15,9.28C207.84,368.39,206.87,362.46,205.07,360.52Z" transform="translate(-169.55 -234)"/><path d="M376.94,292.55l2.06-1.24a3.88,3.88,0,0,0,.26.31l-2.1,2.43.53.5,3.14-3C378.58,290.08,377.54,290.35,376.94,292.55Z" transform="translate(-169.55 -234)"/><path d="M382.33,291.25l-3.4,3.89C380.43,295.39,382.4,293.44,382.33,291.25Z" transform="translate(-169.55 -234)"/><path d="M383.52,293.53l-3,2.42C382.74,296,384,294.56,383.52,293.53Z" transform="translate(-169.55 -234)"/><path d="M219,414a6,6,0,0,0,1.46-1.15c-.12-.15-.24-.3-.35-.46l-5.05.72C216.61,414.76,216.74,414.82,219,414Z" transform="translate(-169.55 -234)"/><path d="M221.63,410.41c0-.26-.49-.69-.71-.66-2.38.36-4.75.8-7.25,1.24.21.54.26.76.31.76,2.42-.1,4.84-.19,7.25-.37C221.4,411.37,221.68,410.73,221.63,410.41Z" transform="translate(-169.55 -234)"/><path d="M421.23,425.47c.35-1.5-1-1.6-2-1.79-4.09-.74-8.19-1.39-12.18-2.05.27-2.14.64-4.21.75-6.3a13.35,13.35,0,0,0-.6-3c-.08-.4-.22-1.09-.05-1.2,2.64-1.72,4.4-4.8,7.91-5.17a12.85,12.85,0,0,0,2.5-.29c.36-.11.55-.76.91-1.33-4.17-1.16-7.11-3.44-8.7-7.21l.55-.6a11,11,0,0,0,1,1.47c3.82,3.75,7.36,3.55,11.51,1.94,7-2.71,9.21-10.6,8.4-16.21s-3.24-9.57-8-12c-2.28-1.17-5.09-1.44-7.7-1.81-2.9-.41-3.46-.62-3-3.5,1.66-9.64.46-19.41,1.51-29.08a67.66,67.66,0,0,0,.69-10.33A34.08,34.08,0,0,1,415,321c.07-.51-.38-1.07-.54-1.62a3.55,3.55,0,0,1-.26-1.44c.38-2.48.78-5,1.31-7.42a17.31,17.31,0,0,1,1.35-4c.47-1,.83-1.72-.1-2.6-5.29-5-8.77-11.31-12.48-17.67-.81.61-1.54,1.2-2.33,1.73-2.22,1.49-4.7,1-7,.61-6.53-1-10.74-5.41-13-11.06-1.73-4.38-2.16-9.37-2.63-14.14a33.53,33.53,0,0,1,3.19-18.88c.07-.14,0-.35,0-.19-1.37-.34-2.63-.6-3.85-1-5.23-1.62-10.4-3.38-16.08-2.44-1.23.2-2.64-.94-4-1.31A169,169,0,0,0,336,235c-11-1.36-21.92-.88-32.88-.86-5.38,0-10.75,1.07-16.13,1.58-3.24.31-6.5.48-9.76.7-3,.2-6,.26-9,.62-5.15.62-10.3,1.26-15.39,2.21s-10.32,2.23-15.43,3.55c-2.62.67-5.15,1.73-7.84,2.65a23.67,23.67,0,0,0,.81,2.74c3.22,7.4,3,15.2,2.29,22.94-.32,3.36-1.63,6.68-2.82,9.9a10.43,10.43,0,0,1-5.84,6.22c-3.48,1.5-6.85,3.21-10.74,3.37a8.41,8.41,0,0,1-6.16-2.07c-1-.91-1.5-.92-2.35.35-2.69,4-5.6,7.83-8.39,11.74a18.68,18.68,0,0,0-1.63,2.67,1.84,1.84,0,0,0,.05,1.26c.35,1.1,1.09,2.16,1.15,3.27.31,5.15.37,10.32.64,15.48.15,2.79.57,5.57.8,8.37.35,4,.59,8.06,1,12.08.52,5.51,1,11,1.71,16.52.25,2,1,4,1.29,6.05a8,8,0,0,1-.63,3.76c-.15.38-1.46.39-2.25.41a52.85,52.85,0,0,0-5.77,0c-5.58.75-11.16,6.63-11.36,12.79-.09,2.84-.31,5.58,1,8.2a14,14,0,0,0,10.27,8c2.71.51,4.9-.89,6.87-2.63l.46.39-4.38,5.2c2.42,1.52,4.77,3,7.1,4.48a11.46,11.46,0,0,1,1.21,1c2,1.75,2,1.78,0,3.5-1.22,1-.44,2-.06,3,1.18,3,1.21,3-2.07,3-2.42,0-4.84,0-7.26,0-1.89,0-2.21.51-1.72,2.29a11.25,11.25,0,0,1,.38,1.7c.14,1.13-.23,1.6-1.53,1.9-7,1.59-14.31,2.32-20.63,6.22-.38.23-.72.51-1.38,1,.59.42,1.06,1,1.42.95,4.69-.75,7.63,2.41,10.92,4.78.11.08.2.17.31.24,2.9,1.87,4.76,3.63,3.37,7.91-1.23,3.77-.53,8.16-.73,12.26-.12,2.41-.27,4.83-.51,7.23-.11,1.1-.51,2.15.67,3a1.24,1.24,0,0,1,.09,1.2c-1.55,1.94-1.16,4.24-1.23,6.41-.22,6.79,0,13.62-.63,20.37-.33,3.76-1.89,7.4-2.88,11.1a5,5,0,0,0-.14,2.09c3.09-3.37,7.07-4.48,11.41-5.47-.6,1.85-1.1,3.37-1.75,5.38,3.54-1.07,6.5-1.76,9.32-2.84,4.72-1.82,9.7-2.14,14.61-2.91,2.54-.4,5-1.3,7.53-1.79,1.49-.29,3-.2,4.57-.35,2.53-.26,5-.69,7.58-.8a3.55,3.55,0,0,1,2.46,1.16c3.52,4.12,6.93,8.34,10.38,12.5.73.88,1.43,2,3.24.3-1,4.06,1.84,5.48,3.62,7.47,2.82,3.16,5.8,6.19,8.69,9.3a2.13,2.13,0,0,0,3.74-.55c1.05-2,2.19-3.94,3.53-6.32,2.23,2.33,4,4.4,6,6.24,7.79,7.16,15.69,14.18,23.42,21.4a34.89,34.89,0,0,1,4.67,6c1.07,1.55,3.23,1.83,4.26.21a69.5,69.5,0,0,1,13.12-15.49c2-1.75,4.28-3.37,5.83-5.49,2.8-3.82,7.52-4.94,10.67-8.21a67.77,67.77,0,0,1,5.91-4.9c.84,2.11,1.53,3.9,2.26,5.67.23.57.59,1.54.9,1.54a2.67,2.67,0,0,0,2.06-.79c3-5.07,8.06-8.15,12-12.35,5.95-6.42,11.87-12.87,17.84-19.27a2.74,2.74,0,0,1,1.76-.88,24,24,0,0,1,10.92,2.59,9.47,9.47,0,0,0,5.25,1.09c3.61-.54,6.84.7,10.19,1.4,7,1.48,14,3.09,20.93,4.65.56.13,1.1.3,1.72.47-.25-2.29-.52-4.44-.7-6.59a10.91,10.91,0,0,1,.11-2.55,17,17,0,0,0-.55-5.92c-.48-2.49,0-5.15,0-7.74-.06-4.29-.21-8.58-.3-12.86a3,3,0,0,1,.22-1.69c1.25-1.81,1-3.86,1.07-5.85.24-7.12.38-14.24.72-21.35a7.21,7.21,0,0,1,1.44-3.67,20.71,20.71,0,0,1,11.59-8.16V429C435.4,427.28,428.79,423.69,421.23,425.47ZM199.08,401.25a15.49,15.49,0,0,0,4.45-9.23,25.61,25.61,0,0,0-.31-7.52c-.55-2.73-2.74-4.28-5.42-4.78a6.41,6.41,0,0,0-7.17,3.29c-1.33,2.43-.5,5.1.66,7.5.84,1.71,2.44,2,4.17,1.86,2-.18,2.9-1.67,3.46-3.32a10.49,10.49,0,0,0,.18-2.65l-.81-.24c-.11.24-.24.46-.35.7-.57,1.32-1.17,2.46-3,2.09a3.34,3.34,0,0,1-2.92-3,3.42,3.42,0,0,1,1.6-3.89c2.28-1.39,4.45-.77,6.37.7s3.51,3.33,2.85,5.83c-1.55,5.85-5.48,9.74-12.3,7.9a7.66,7.66,0,0,1-3.7-2.55,16.46,16.46,0,0,1-2.69-5.17,9.5,9.5,0,0,1-.06-4.53c.25-1.21.29-1.87-1.1-2a79.91,79.91,0,0,1,6.17-7.23c3.16-2.94,9.28-2.49,12.29.59a17.19,17.19,0,0,1,1.46,2l.42-.48c0-2.09-.41-4.28.09-6.24.76-3-.09-5.5-.65-8.33-1.24-6.19-1.4-12.58-2.5-18.8-2-11.4-1.48-22.89-2-34.35a24.44,24.44,0,0,0-1.22-5L207,291.42c3.26,2.75,7.16,2.53,11.25,1,3.91-1.45,7.47-3.26,10.18-6.64a30.75,30.75,0,0,0,6.78-18,128.16,128.16,0,0,0,0-13.86,17.7,17.7,0,0,0-1.77-5.73c-.36-.84-1.38-1.38-2.12-2.08,5.28-1.1,10.69-2.17,16.08-3.35,4.32-.94,8.57-2.24,12.92-3,3-.51,6.16-.19,9.22-.48,4.35-.41,8.66-1.23,13-1.52,6-.41,12.11-.5,18.17-.72,2.21-.08,4.72.47,6.56-.4,2.5-1.17,4.86-.85,7.25-.66,5.52.44,11,1.15,16.53,1.76,4.27.48,8.56.86,12.82,1.5,6.35,1,12.71,2,19,3.22,5.16,1,10.24,2.41,15.42,3.65a4,4,0,0,1-.09.94c-3.67,9.53-2.55,19,1.18,28.07,1.6,3.92,2.84,8.07,5.83,11.5a15,15,0,0,0,17.59,3.7,4,4,0,0,1,.67-.15c2.19,6.28,6.49,10.83,12,14.6-2.34,2.22-1.88,5.3-2.18,8.17-.18,1.61-.08,3.24-1.37,4.56-.3.31,0,1.28.13,1.91s.89,1.76.63,2.1c-1.22,1.61-.05,3.16-.19,4.61-.82,8.09,1.11,16.18-.51,24.28-1.05,5.28-1.16,10.75-1.78,16.12-.3,2.57-.89,5.11-1.24,7.68a9.92,9.92,0,0,0,.25,2.34,5.78,5.78,0,0,0,1.81-.82c2.52-2.62,5.71-2.93,9-2.79.47,0,1.3.25,1.34.49.33,2,2,1.47,3.19,1.95a6.23,6.23,0,0,1,2.88,2.84,15.84,15.84,0,0,1,1.6,9.88c-.09.58-.71,1.08-1.31,1.94.29,2.74-2.55,6.55-6.41,8-4.2,1.61-8.93.13-10.72-2.87-3.88-6.49.18-10.22,5.65-13.34-2.63-.55-6,1.3-7.24,3.69a15.46,15.46,0,0,0,3.27,18,.4.4,0,0,1,.1.21l-9.62,5.48c3.61,3.59,2.92,7.7.61,11.9-2.36.73-3-1-3.15-2.89-2,.33-2.59,3.09-5.11,1.87a43,43,0,0,0,3.41-3.28,4.87,4.87,0,0,0,1.43-2.76c-.1-3.37-.49-6.74-.84-10.1-.16-1.51-.5-3-.83-4.9-1.72,2.09-3.38,4-4.95,6a36.21,36.21,0,0,0-2.87,4.2c-.89,1.58-2,3.06-.79,5.21.81,1.46.78,3.38,1.13,5.1l-.41.45c-.55-.48-1.29-.87-1.61-1.48a13.11,13.11,0,0,1-.63-3,30.76,30.76,0,0,1-2.23,2.68,7,7,0,0,1-1.74.91c-.09-.61-.22-1.22-.28-1.83a10.8,10.8,0,0,1,.06-1.27c-1.5,3.24-3.85,3.17-6.91,1.73l5.19-9.21,2.54,1.08c-.61,1.46-1.79,3.07-.91,5l.63.15c.49-1.77,1.11-3.51,1.45-5.31.73-3.95,1.32-7.94,2-11.91a2.92,2.92,0,0,1,.4-1.27,45.53,45.53,0,0,1,4.75-5.34c-1.2,2-2.4,3.93-3.73,6.09,2.79-1.42,5.56-2.68,7.58-5.25,0,2.29-.46,4.36-2.34,5.7a7.21,7.21,0,0,1-2.27.57,12.08,12.08,0,0,0-1.3.51c.34.44.6,1.13,1,1.26a3.27,3.27,0,0,0,3.84-1.2c1-1.47,2-3,3.15-4.68a5.64,5.64,0,0,0,.51,1.21c1,1.28,1.83,2.92,3.15,3.64a3.82,3.82,0,0,0,3.59-.83c1.38-1.63,1.15-3.75.23-5.71-.83-1.76-1.38-1.84-2.86-.37,2.48.74,3.06,1.61,2.29,3.41s-2.81,2.27-4.06.69a11.33,11.33,0,0,1-2.18-9.61,4.4,4.4,0,0,1,2-2.44,46,46,0,0,1,5.29-2.34,10.1,10.1,0,0,0-2.41-1.78,4.64,4.64,0,0,1-3.51-4.8c-.06-2.87.45-5.33,3.57-6.62,1.46,2.19.6,3.91-1.25,5.51,1.77,1,2.55.07,3.2-1,1.23-2.11.8-5.68-1-6.38-3.66-1.44-3.66,2.22-5.1,4.11-1.13-1.87-2.46-3.07-4.69-2.07-1.1.49-1.89,1.14-1.71,2.51s.93,2.33,2.72,2.8c-1-1.77-1.16-3.26.52-4.35,3.14,1.54,3.29,5.35.17,9.63-1.91-1.89-3.84-3.7-5.62-5.63-.35-.38-.2-1.24-.21-1.88a55.32,55.32,0,0,0-.35-7.49c-2.08,2.23-1.1,5.07-1.86,7.7H369.26c-.83,0-1.66-.13-2.71-.21.84-2.4,1.67-4.57,2.35-6.79a69.48,69.48,0,0,0,3-18.28c.19-6.5,3-11.37,8.74-14.5a2.28,2.28,0,0,0,1.45-2.44,15,15,0,0,1,2.15-8,42.09,42.09,0,0,0,1.8-5.32,3.15,3.15,0,0,1,1.27-1.64l-.45-2.48c.86.11,1.73.2,2.58.35.57.1,1.13.28,1.79.45,0,4.89,0,9.78,0,14.67a10.14,10.14,0,0,0,.71,2.55,9.53,9.53,0,0,0,.86-2.54c.22-4.5.31-9,.49-13.52a21.34,21.34,0,0,1,.43-2.63c-1.45-.21-2.84-.39-4.23-.65-1-.18-1.63-.42-1.29-1.81a6.6,6.6,0,0,0-.41-3.4c-.63-2-1.47-3.88-2.23-5.84l4.18-.61c0-.22,0-.44.07-.66-.76-.68-1.53-1.34-2.26-2-.57-.54-1.32-1-1.6-1.71-2.08-5-6.91-5.26-11.16-6.52-1,2.61,0,6.64,2.38,9-1.93.76-3.65,1.56-5.45,2.07-.38.1-1.11-.77-1.58-1.28-1.36-1.48-2.67-3-4-4.51l-.53.18a6.72,6.72,0,0,0,.48,1.95c.87,1.45,1.93,2.79,2.83,4.23.27.43.56,1.28.36,1.5-2.58,2.85-2.81,6.68-4.28,10-1,2.2-2,4.38-1.45,7,.63,3.19-.4,6.17-1.94,9-3.36,6.19-6.64,12.44-10,18.65a26.61,26.61,0,0,1-1.61,2.21l-7.86-11.74.71-.48,2.62,4.19c1.24-1.07.57-2.1,0-3-2.54-4.18-6.45-6.56-11-8-1.51-.47-3.1-.69-4.66-1,0-.17,0-.33-.05-.5,3-.94,6-2.1,9.15-2.75,1.66-.35,1.87-1,1.95-2.43a18,18,0,0,1,1-4.65c.61-1.86,1.48-3.56-.34-5.36-.56-.55-.42-1.81-.62-2.86,2.81-1.59,3.23-4.53,3.78-7.42a19.8,19.8,0,0,1,.75-2.57c.4-1.23.85-2.45,1.23-3.69.6-2,1.15-4,1.71-5.94.77-2.73.44-3.71-2.13-4.67-2.8-1-5.69-1.88-8.58-2.67a13.25,13.25,0,0,1-5.29-2.73,17.14,17.14,0,0,0-5.82-3,14.11,14.11,0,0,1-7.91-5.44c-1.78-2.64-4.62-3.05-7.21-3.91-1.62-.55-2.34-1.17-2.22-2.95a34,34,0,0,0-.18-5.88c-.17-1.45.31-1.91,1.68-1.78,4.73.44,9.47.94,14.21,1.25,2.59.17,5.2-.12,7.8,0s5.16.51,7.74.84c3.36.42,6.71.89,10.06,1.35,1.61.22,3.24.36,4.82.73a1.73,1.73,0,0,1,1,1.36c-1.25,6.46.19,12.61,2.15,18.66a95.4,95.4,0,0,0,3.61,9.26,13.45,13.45,0,0,0,2.34,2.82l.75-.44-.9-2.75c-1.51-4.63-2.93-9.3-4.54-13.89a31,31,0,0,1-1.43-9.67,20.63,20.63,0,0,1,.45-3.89,2.12,2.12,0,0,0-1.65-2.68c-3.67-.89-7.34-1.85-11.06-2.4-3-.46-6.34.29-9.13-.67-5.35-1.83-10.83-1.43-16.24-1.89a130.92,130.92,0,0,0-29.14.67,2.78,2.78,0,0,0-1.79,1.18H300.3A91.42,91.42,0,0,1,295,266.3c-.55.76-2.79.6-4.18.38a35.43,35.43,0,0,1-5.16-1.62c-.72,1.58-.51,2.3,1.76,5.8l-1,.07c-4.49.22-4.45.2-6.36-4.05-1-2.32-2.23-4.57-3.33-6.86a7.39,7.39,0,0,1-.33-1.29l10.3-.87,0-.91a8.5,8.5,0,0,0-1.92-.25c-6.09.55-12.21,1-18.27,1.77-4.18.54-8.3,1.53-12.44,2.37-1.39.28-2,.73-1.36,2.55.56,1.58,0,3.56-.1,5.36-.17,2.31,0,4.82-3.09,5.71,2.68,3.74.3,6.94-.53,10.23-.61,2.43-1.44,4.8-1.91,7.28,5.78-6.78,5.09-15.67,7.65-23.85l6.42,12.76.72-.36c-1.94-6.25-6.39-11.51-7.72-18.41l19.07-3.26-10.82,21.91.59.42a14.1,14.1,0,0,0,2.11-2.62c3-6.16,5.87-12.37,8.8-18.55a18.18,18.18,0,0,1,1.07-1.69l5.8,13c-2.3,1.86-5.64,2.38-7.34,5.77l2.57-.31-11.32,7.86c-.56-.85-1.18-1.77-1.87-2.8-.24.38-.38.55-.35.58,2.16,2.88.58,4.43-2.36,5.51l.3.48,4.89,1.08c-4.24,3.49-5.41,8.72-7.37,13.58-.93,2.3-2.53,4.33-4.08,6.92-.92-1.8-1.63-3-2.15-4.32a2.31,2.31,0,0,1,.32-1.57c3.19-6.72,6.42-13.42,9.62-20.13a1.24,1.24,0,0,0-.23-1.23,23.68,23.68,0,0,0-1.28,2c-3,5.8-5.93,11.64-8.93,17.43-4.69,9-9.35,18.08-14.17,27.05-1.84,3.43-4.07,6.66-6.08,9.9a44,44,0,0,0-4.3-1.14c-2.17-.37-3.07-1.88-3.88-3.68-1.27-2.84-2.66-5.62-3.85-8.1.14-1.35.33-2.55.36-3.76.05-2.41,0-4.82,0-6.72l5.87-2.51a1.92,1.92,0,0,1,.54-.22c1.52-.16,3-.3,5-.49l6.88,12.06.46-.12a16.8,16.8,0,0,0-.56-2.14c-1.43-3.5-3-7-4.31-10.51a3.66,3.66,0,0,1,.52-2.32c.22-.5.8-.84,1.23-1.24,1.33-1.24,2.71-2.46.77-4.5a5.77,5.77,0,0,1,2,0c2.29,1.12,3.36-.45,4.39-2,1.29-1.91,2.47-3.91,3.82-6.07,1.17,2.4,2.19,4.52,3.21,6.64l.75-.38c-1.38-2.67-2.09-5.66-4.45-8.2l-2,2.27c-1.54,1.77-3,3.6-4.64,5.29a5.3,5.3,0,0,1-2,.89c-.75.27-1.52.46-2.29.69.74,2.24.06,3.62-2.25,4.94-4.18,2.36-8.42,4.54-13.43,4.32-1.05-.05-1.54.47-1.52,1.55q.23,10,.43,19.95a6.73,6.73,0,0,0,.09.77c.22,2.12.12,3.64-2.31,5-5.4,3-7.88,8.23-8.88,14.28-1,5.82.88,10.69,4.53,15a27.65,27.65,0,0,0,3.58,3.06L213,374.62c-.48-.83-.92-1.51-1.28-2.23a2.41,2.41,0,0,0-3.09-1.39,5.31,5.31,0,0,0-2.58,2.56,3.54,3.54,0,0,0,.47,3.05c.81,1,2.05.81,3.06-.52l-2.06-.6c.18-1.71,1.36-1.71,2.46-1.57,2.31.28,2.47,2.12,2.78,4.08l-7.1,3.24c1.54.87,3,1.74,4.42,2.48,1.79.92,2.73,2.08,2,4.23s-1.14,4.27-1.93,6.32c-.27.7-1.55,1.71-1.88,1.55-1.17-.56-1.39-1.62-.35-2.7.15-.14.14-.44.21-.71a3.38,3.38,0,0,0-3,3.62c.12,1.61,2,3.72,3.4,3.51a2.7,2.7,0,0,0,1.79-1.25c1.24-2.48,2.29-5.05,3.46-7.67.48.66,1.1,1.6,1.81,2.46,1,1.19,2.49,1.72,3.66.95a6.09,6.09,0,0,0,2-3.31c.39-1.4-.5-2.5-1.8-3.13a2.61,2.61,0,0,0-1,0c.45.71,1.21,1.37,1.15,1.94a3.48,3.48,0,0,1-1.26,2.22,2.1,2.1,0,0,1-2-.34,34.21,34.21,0,0,1-2.3-5.64c-.11-.35.69-1.2,1.24-1.52,1.88-1.1,3.84-2.07,6-3.2-1.76-.67-3.31-1.16-4.76-1.86-2-.95-2.26-2.18-1.33-4.42.78-1.88,2.1-1.32,3.58-1.07,3.73.64,3.09,3.7,3.45,6.08.91,5.92,1.64,11.86,2.46,17.79a7,7,0,0,0,.51,1.36l.56-.1c-.33-2.19-.56-4.39-1-6.55-.31-1.49,0-2.31,1.61-2.31h18.14c-.21,1.69-.43,3.39-.63,5.09-.61,5.12-1.31,10.22-1.76,15.35-.16,1.77-.85,2.31-2.45,2.16-3.25-.33-3.25-.32-4.75,2.48-.15.27-.35.5-.67,1-.2-.49-.41-.76-.4-1,.09-1.66-.71-1.85-2.1-1.45-2.7.77-2.7.66-3.22-2.09a85,85,0,0,0-2.62-10.57c-.55,4.54.78,8.86,1.39,13.24-1.36,1.58-2.13,0-3-.57l-3.26,2.21-.61-.65c.65-1,1.37-1.94,1.94-3,.38-.71,1-1.73.73-2.28-2-4.56-4.25-9.05-6.41-13.55h-.78a21.11,21.11,0,0,0-2,3.6c-1.17,3.59-2.23,7.21-3.1,10.88-.16.65.61,1.75,1.24,2.32a39.77,39.77,0,0,0,3.87,2.81c-1.73.78-1.73.78-5.07-1.43-.39.54-.82,1.07-1.18,1.65-.79,1.24-1.92,1.05-2.91.52s-1.43-2.91-.7-3.61a8,8,0,0,1,1.13-.77c2.6-1.77,2.72-2.47.68-4.92A19.22,19.22,0,0,0,199.08,401.25Zm192.74,13.92.09-.9h6.18l.06-.61-6.19-.81c.59-1.33,3.27-1.64,7.16-.86.71,2.76-.89,4.51-2.91,5.76-.86.53-2.3.19-3.47.14-.17,0-.49-.65-.41-.91s.56-.5.87-.52a12.61,12.61,0,0,0,3.61-.44Zm5.57-11,.82-.17.86,4.19-3.87-.47c-.08-.25-.15-.5-.23-.75l2.77-1.16C397.64,405.35,397.52,404.75,397.39,404.16Zm1.23,4.83a1.58,1.58,0,0,1,.29,1.42c-.12.32-.81.59-1.23.56-1.42-.1-2.83-.34-4.39-.55C393.94,409,397.59,408,398.62,409Zm-110.85,1.43L284,413.76l-.71-.66,4.35-5.86-.47-.49a20,20,0,0,0-2.27,2c-1.06,1.25-1.91,2.67-3,3.89a7.64,7.64,0,0,1-1.94,1.19l-.6-.73,7.79-9.35-.23-.37a4.63,4.63,0,0,0-1.24.76c-2.39,2.83-4.72,5.71-7.1,8.56-.46.56-1,1.05-1.53,1.58l-.76-.63c1.69-2.41,3.35-4.84,5.09-7.21s3.52-4.62,5.28-6.92c-.1-.13-.21-.25-.32-.37l-1.54.47a2.22,2.22,0,0,1,0-.56c1.74-6.43,3.33-13,2.69-19.63-.51-5.35-2.06-10.59-3-15.91-.84-4.85-2.19-9.74-.13-14.62a15.28,15.28,0,0,1,1.14-1.87l4.37,2.57c-.69-4.12.75-5.47,5.38-5.68.61,0,1.23,0,2,0-1.26-1.63-2.67-1.5-7.54.4.69-2.12,1.87-2.42,9.66-2.51-1.72-1.65-2.51-1.72-8.06-.69.82-1,2.88-1.85,5.54-1.85,2,0,3.94.37,5.92.57-1.67-1.87-5.49-2-11-.41.49-1.64,2.79-2.81,5.35-2.66a19,19,0,0,1,11.83,5c1.46,1.3,3,2.5,4.59,3.66a7.51,7.51,0,0,0,1.8.71l.36-.48c-.6-.84-1.21-1.67-2.1-2.92,2.72.48,5.28.34,7.23,1.94a63.26,63.26,0,0,1,5.22,5.46v-5.28a17.36,17.36,0,0,1,7.31,7.19c2.12-.73.28-2.31,1.08-3.78l6.75,5.5c-.7-2.37-6.27-7.21-10.24-8.85.69,1.21,1.29,2.3,2.19,3.88l-10.48-7.93-.31.3c.84,1.46,1.67,2.92,2.51,4.37l-.34.29c-4.1-3-8.29-5.94-12.25-9.13-1.07-.86-1.48-2.55-2.18-3.87a5.46,5.46,0,0,0-1.29-1.83c-.56,3.8,2.08,6,4.28,8.54-3-.06-7.76-3.62-9.42-7.26A18.2,18.2,0,0,1,302.65,320c-1.25.92-1.89,3.48-1.51,7.53.24,2.53,1.08,5,1.56,7.55a30.5,30.5,0,0,1-4.59-12.84c-.86,4.31.55,8.09,2.67,11.77-1.52-.6-3.82-3.41-4.81-6.68a57.34,57.34,0,0,1-1.3-7.85c-2.17,1.83-1.13,6.24,3.82,14.52-4.78-1.17-8.23-9-8-17.53a10.94,10.94,0,0,0-1,3.21c0,2-.05,4.2.75,5.94,2.24,4.9,1,9.24-1.26,13.66a69.31,69.31,0,0,0-2.53,6.74,29,29,0,0,1-2-5.28c-.29-1.7.08-3.51.17-5.57a6.83,6.83,0,0,0-1,8.16,2.14,2.14,0,0,1-.1,2.6,44.53,44.53,0,0,0-2.31,5.68c-.25-2.68-.46-4.95-.7-7.54-2.07,1.49-1.82,3.37-1.59,5,.28,2,1.13,3.87,1.6,5.83.54,2.3,1,4.63,1.5,7.32-3.6-2.68-6.12-9.05-6.15-15.63,0-6.11,2.57-10.88,7.24-14.9-2.48.06-5.76,4.26-7.68,9.23A26.15,26.15,0,0,0,274,352.93a9.27,9.27,0,0,1-1.94-7.42c.35-2.6,1.14-5.13,1.38-7.94l-4.36,5.75a6.75,6.75,0,0,1-3.4-5c7.33-2.43,7.33-2.43,8.43-4.85-3.73,1.4-7.27,2.85-11.47,1,8.48-2,12.77-5.66,12.59-10.15-2.4,2.22-4.65,4.83-7.39,6.73a8.58,8.58,0,0,1-9.87.19c2.61-1.41,5.05-2.86,5.62-6.08-4.79,3.72-10.14,5-16.54,4.06,1.27,2,2.73,2.61,4.34,2.52a10,10,0,0,1,6.2,1.86c1,.66,1.34,1.25.62,2.53-2.17,3.86-4.12,7.84-6.28,12l-12-22,10.75-19.95c1.22,2.78,2.31,5.18,3.28,7.62.12.3-.32,1-.69,1.27a8.77,8.77,0,0,1-2,.66c.92,2.55,4,3.25,8.67,1.83a55.58,55.58,0,0,1-4.06,6.27,47,47,0,0,1-5.28,4.59c1.71.61,3.24-.13,4.71-.83,2.79-1.31,4.4-3.79,6-6.28,2.52-3.88,4.94-7.84,7.73-11.51a28.73,28.73,0,0,1,10.08-7.94,16.9,16.9,0,0,0,9.24-12,5.64,5.64,0,0,0-.22-1.21,14.9,14.9,0,0,0-.85,1.64,15.68,15.68,0,0,1-7.77,9,49.43,49.43,0,0,0-15.15,12.21c-2,2.45-4.48,4.37-7.75,4.21l13.27-15.53-.46-.5A31.73,31.73,0,0,1,258.14,308c2.43-4.79,4.55-9.44,7.1-13.84s6.84-7.48,11.47-9.77c2.54-1.26,5.16-2.33,7.7-3.47-1.27-.76-5.71.07-9.19,1.89-2.91,1.51-5.76,3.12-8.83,4.35,5.25-4.67,10.25-9.73,17.77-10.63l-.09-.75-5-.33L279,275c1.72-.28,3.43-.63,5.16-.84a20.2,20.2,0,0,1,15.22,4.27,22,22,0,0,0,3.71,2.2,5.68,5.68,0,0,0,6.71-.68c-4.91.84-8.2-2.3-11.87-4.54-1.93-1.18-4-2.18-5.9-3.56l4.39.71c.05-.25.11-.5.17-.74l-5.92-2.51.19-.58c6.77,1.9,14.43.08,20.81,5.17-.4-1.16-.8-2.32-1.33-3.83,2.56,1.35,5.17,1.66,7,4.13a13.22,13.22,0,0,0,8.73,5.44c2.31.35,4.6,1.12,5.3,3.95.11.44,1.09.79,1.73.94,3.77.91,7.56,1.76,11.86,2.74l-5.73,5.43c0,.17.09.34.13.51,1-.15,2.05-.25,3.05-.47,1.77-.38,2.42.27,2.13,2.06a11.42,11.42,0,0,1-4,7.17c-3.21,2.75-6.54,2.4-10,.71-1.49-.72-2.86-2.13-4.69-1a7.6,7.6,0,0,0-3.79,5.47,13.54,13.54,0,0,0,.2,5.23c1.2,4.71,5.56,4.93,10.1,4,2.28-.45,4.51-1.13,6.79-1.6.47-.09,1,.31,1.57.48-.25.54-.47,1.09-.74,1.62a17.73,17.73,0,0,0-1.91,3.92c-.4,2-2.72,3.71-4.73,3.21a2.77,2.77,0,0,0-1.5.13c-2.14.7-4.31,1.36-6.37,2.26a16.93,16.93,0,0,0-3,2.31c5.83,1.3,11.42,2.42,15.79,6.41a11.51,11.51,0,0,1,2.3,2.53,60,60,0,0,0-6.2-3.7,9.81,9.81,0,0,0-7.05-.85c13,3,19.46,11.79,22.2,24a51.21,51.21,0,0,0-10.08-11.69,35.34,35.34,0,0,0-13.52-7.52c11.41,6.67,21.17,14.57,23,29.22-2-.55-3.72-1-5.4-1.55-.46-.15-.82-.77-1.09-1.26a23.2,23.2,0,0,0-7.14-7.92,7.21,7.21,0,0,0-1.09-.44l7.38,8.53-.66.73c-.9-.74-2.08-1.3-2.65-2.23-2.78-4.6-6.72-7.95-11.12-10.85-.13-.09-.34-.05-.68.12,4.2,3.15,8,6.62,10.89,11.6-2.35-.62-4.43-.36-5.71-2.78-1.65-3.13-4.81-4.74-7.82-6.43,2.26,2.56,5.35,4.34,7,7.59a4.72,4.72,0,0,1-4.8-2.41,36.11,36.11,0,0,0-4.68-5.23c-.43-.44-1.24-.49-2-.76a74.74,74.74,0,0,0,5.57,6.86,13.47,13.47,0,0,0,4.86,2.74c4.91,1.75,9.85,3.49,14.88,4.86,8.53,2.31,17.1,4.52,25.74,6.39,2.58.55,5.44-.13,8.15-.36s5.59-.94,8.34-.78c1.46.09,2.9,1.5,4.26,2.45.9.62,1.59,1.54,2.47,2.21a8.77,8.77,0,0,1,3.05,10.07c-.91,2.69-1.37,3.36-3.15,4.44.76-4.17.18-7.83-3.35-10.54,2.14,2.49,2.16,5.17.77,7.92-.91,1.8-1.88,3.61-4,4a51,51,0,0,0-.46-6.25,7.72,7.72,0,0,0-3.38-5.05l-.41.3a7.29,7.29,0,0,1,1,1.47c.42,1.12,1.14,2.35,1,3.41-.56,3.65-1.69,4.3-5.49,3.08a49.91,49.91,0,0,1-7.68-3.27c-2.63-1.38-5.4-1.38-8.19-1.45-6.79-.16-13.58-.4-20.37-.34a79.69,79.69,0,0,0-9,1c.6-.8,4.89-2.61,8-3s6-.49,9-.73c0-.18.07-.36.1-.55-1.32-.24-2.62-.58-3.94-.7-5.93-.56-11.18,1.45-16.17,4.38q-4.92,2.88-9.86,5.74l-.39-.54,8.5-6.55c-5-.1-13.89,8.6-12.63,11.95,6.54-3.78,12.92-8,20.91-8.2a2.27,2.27,0,0,1,2.46,1.43c1.67,3.5,1.62,8.65-.53,11.63.85-4.52.19-8.29-2.74-11.5,1.44,4,3,8.06,1.06,12.46-.43-2-.86-3.82-1.28-5.69l-.77.14c0,1.58,0,3.17,0,4.75.07,2.56-1.15,4.47-2.82,6.24-1.52,1.61-2.87,3.38-4.41,5a3,3,0,0,1-2,.71c-6.71-.26-13.42-.72-20.15-.91-5.66-.16-11.34,0-17-.05H287l1.15-2.28Zm-37,1c.11,1.73.42,3.45.64,5.16-2.68.85-2.95.66-3.73-1.71-1.72-5.21-1.33-10.41-.12-15.62a3,3,0,0,0,0-1.5,27.22,27.22,0,0,0-.09,19.35c-1.7.6-2.68.3-2.56-1.47.42-6.17.71-12.36,1.41-18.51.91-8,2.57-15.89,1.44-23.95-1.07-7.64-3.94-14.36-10.82-18.65-1.81-1.12-3.77-2-5.78-3.06-1.62,3-4.47,4.12-7.13,5.49-5.38,2.76-7.57,6.83-6.9,12.87,0,.09-.13.19-.2.29-3.45-3.55-2.5-9.58,2.29-15.48-1.69.38-2.67,1.72-3.47,3.09a18.39,18.39,0,0,0-1.94,4.46,37.12,37.12,0,0,0-.66,5c-2.29-2.68-2-5.5,1.47-13.53-2,.06-2.49.8-5.08,7.58-.86-1.59-.73-3.87.93-7.05a60.43,60.43,0,0,1,4.28-6.2c-3.06,1.21-4.61,3.6-6.26,5.94,1.57-4.58,3.38-9,7.86-11.56a12.2,12.2,0,0,1,14.66,1.5c1.61,1.47,2.82,3.37,4.38,4.9a19.23,19.23,0,0,0,3.63,2.61,27.08,27.08,0,0,1,13.34,20c.73,4.89.31,10-.09,15C251.64,394.72,250.27,403,250.8,411.39Zm-12.24-41.94L231.34,387c-1.36-5.14-5.27-7.8-7.77-11.64,1.4-.49,2.68-.87,3.91-1.38a4.17,4.17,0,0,0,1.57-1.11c.2-.22.09-.82-.06-1.17-.05-.12-.68-.1-1,0a10.5,10.5,0,0,1-1.72.78c-2.7.4-3.14,0-3.16-2.69s.07-5.23,0-7.84a2.44,2.44,0,0,1,1.63-2.56c1.76-.84,3.45-1.83,5.44-2.9l8.41,12.15.62-.38-7.82-12.74.2-.48c1.13.28,2.44.29,3.34.91a51.62,51.62,0,0,1,5.57,4.57,3.52,3.52,0,0,1,.76,4.74,37.65,37.65,0,0,0-1.54,3.49l.61.31c.73-1.45,1.47-2.9,2.39-4.71a33.05,33.05,0,0,1,3.1,14.14l-.52.24-5.1-8.77-.64.19a14.14,14.14,0,0,0,.69,2.35c1.57,3.22,3.23,6.39,4.81,9.61a3.49,3.49,0,0,1,.44,1.83c-.5,3.36.49,3.56-3.74,3.51-3.11,0-6.23,0-9.54,0,1.11-2.86,2.29-5.91,3.49-9s2.36-5.86,3.54-8.79Zm-8,18.45c-2.14,0-3.83,0-5.5,0-.33,0-.91-.47-.92-.73-.07-2.57,0-5.13,0-8.11Zm-9.67-25.07v8C218,369.26,218.18,365,220.91,362.83Zm.2-29.55,2.15,4C220.61,337.58,220.59,337.55,221.11,333.28Zm12,6c1.71-3.63,3.56-7.2,5.57-11.2,4.49,7.3,8.71,14.18,12.89,21l-3.89,6.47c-2.81-2.19-5.63-4.25-8.28-6.52a20.74,20.74,0,0,1-2.76-3.51c-1-1.41-2.12-2.79-3.06-4.26A2.6,2.6,0,0,1,233.08,339.29Zm15,17.56,3.67-6.18c2.16,3.77,4.18,7.32,6.24,10.84,1.22,2.08,2.55,4.1,3.75,6.19a2.2,2.2,0,0,1,.27,1.73c-1.82,3.31-3.75,6.56-5.67,9.82-.08.13-.28.2-.77.55C255.65,371.13,253.72,363.32,248.1,356.85Zm19.24-9.92c2,1.67,1.79,4.26,3.17,6.12.08.11-.14.46-.25.69Q267.13,360.37,264,367a2.66,2.66,0,0,1-.6.69c-.59-1.11-1.13-2.17-1.72-3.19q-3.39-6-6.82-11.88c-.78-1.34-1.64-2.63-2.34-3.75,1-1.63,1.92-3.16,2.84-4.69,1.36-2.29,2.66-4.63,4.14-6.85a1.93,1.93,0,0,1,1.83-.5c.94.58,2.81,0,2.61,2.19A9,9,0,0,0,267.34,346.93Zm14.26,27.89c-1.78,3.41-3.64,6.78-5.48,10.16-.11.2-.38.32-.81.66-3.44-5.89-6.83-11.67-10.18-17.47a1.3,1.3,0,0,1,0-1.06c2-3.93,4.08-7.84,6.38-12.24,1.71,1.95,3.16,3.47,4.45,5.12,1.43,1.85,2.53,4,4.11,5.7s2,4.07,2.5,6.24C282.74,372.78,282.07,373.91,281.6,374.82Zm1.2.51.66.05c.25,2.8.62,5.6.72,8.4.11,3.33,0,3.35-3.33,3.5-1.42.07-2.83,0-4.76,0C278.5,383,280.65,379.15,282.8,375.33Zm-7.68,12.16c-1.78,0-3.19,0-4.6,0-4.5.12-9,.23-13.51.42-1.42.06-1.8-.34-1.89-1.86a10.54,10.54,0,0,1,2-6.36c2.2-3.54,4.26-7.17,6.43-10.85Zm-20.31,2.34c2.58,0,5.17-.13,7.73.09.75.06,1.4,1.15,2.25,1.89a1,1,0,0,0,.46-.21c2.39-2.44,3.64-2.71,6.86-1.46a1,1,0,0,0,.72.05c3.14-1.76,6.53-.38,9.78-.81,1.16-.15,1.24.72,1.15,1.55-.52,5-1.38,9.83-4.41,14-1.54,2.11-3.42,4-4.6,6.32-1.52,3-4,3.51-6.83,3.74-4.53.38-9.05.79-13.85,1.21C252.27,407.42,253.22,398.79,254.81,389.83Zm3.77-79.51-2.77,3.34C254,311.7,254,311.7,258.58,310.32Zm46.64-42.79-8.42-1.2a73.68,73.68,0,0,1,5-8.53c.76-1,2.91-1,4.73-1.48.23,3.51.41,6.4.61,9.38h-3.34l-.09.55Zm33.87,42.91.58.46-2.23,2.75-.67-.52Zm-2.73-.65-.52-.11c-.09-1.23-.18-2.46-.27-3.71l3.63-1.18C338.08,306.75,337.22,308.27,336.36,309.79Zm-3.67,3.64c-.29.13-.73.45-.87.35-1.59-1.11-3.31-.22-4.94-.37s-2.48-1.43-2.46-3.61c0-4,2-5.35,5.67-4a13.71,13.71,0,0,0,2.17.88,2.45,2.45,0,0,1,2.13,2.74C334.43,311,334.48,312.61,332.69,313.43ZM351.85,352a3,3,0,0,1,.25-2.1C356,342.94,360,336,363.91,329.13c.73-1.27,1.61-2.46,2.34-3.74a2.27,2.27,0,0,0,.23-1.45,19.69,19.69,0,0,1,1.45-12.78,2.09,2.09,0,0,0,.25-.74c.45-7.44,6.37-8.95,11.84-10.85a3,3,0,0,1,4.13,1.58c-2.9-.11-5.09.75-6.39,3.71a10.6,10.6,0,0,0,1.7,0c1.14-.2,2.26-.55,3.4-.71a2.51,2.51,0,0,1,3,1.69,5,5,0,0,1-.58,4.83c-.2.27-1.08.19-1.59.06a6.85,6.85,0,0,0-7.34,2.17c2.17.16,4,.34,5.78.42s2.39.66,1.54,2.4-2.16,3.2-2.71,5a38,38,0,0,0-1.39,7.59,2.46,2.46,0,0,1-1.42,2.36,16.28,16.28,0,0,0-4.78,3.92,75.39,75.39,0,0,0-4.83,8,2.08,2.08,0,0,0-.07,1.72l1.41-1.14c.14,6.18-3.2,21-5.47,23.79.2-2.8.38-5.36.56-7.93l-.64,0c-2,3.73-1.39,7.79-1,12.17-2.12-1-2-2.61-2.08-4.19s-.19-3-.29-4.53l-.68,0v8.12c-3.08-1.1-1.85-4-2.57-6l-.66.06c-.08,1.52-.16,3-.24,4.58-2.25.32-3.12-.38-3.52-2.57-.38-2-1-4-1.56-6.21l1.72.7C353.66,357.9,352.69,355,351.85,352ZM379,291.31l-2.06,1.24c.6-2.2,1.64-2.47,3.89-1l-3.14,3-.53-.5,2.1-2.43A3.88,3.88,0,0,1,379,291.31Zm-.07,3.83,3.4-3.89C382.4,293.44,380.43,295.39,378.93,295.14Zm4.59-1.61c.46,1-.78,2.47-3,2.42Zm2.2,103c.72,4-1,6.65-3.26,9.59l-7.27-13.24c1.77.19,3.24.29,4.7.51s1.81,1.31,1.69,2.61c-.07.75-.22,1.49-.4,2.66Zm-17-5.68c-2.73,4.8-5.53,9.55-8.46,14.56-3.09-5.75-6-11.11-8.88-16.56,4.76,0,9.59,0,14.41,0a4.82,4.82,0,0,1,2.24.58C368.39,389.66,368.84,390.56,368.69,390.83Zm-28.26-2,.25-.55c.58.2,1.35.22,1.71.61,2.34,2.49,2.22,7.31-.23,10.1C342.47,395.4,343.05,391.84,340.43,388.82Zm-1.28,18.63,3.36,7.44L332,414.32Zm4.17-5.38c3.1-3.26,4.95-7.72,7.41-11.75a16,16,0,0,1,1.36,2.18q3.07,6.78,6,13.6c.18.43.36,1.11.16,1.42-1.57,2.39-3.22,4.74-4.9,7.06-.28.37-.84.83-1.23.79a4.15,4.15,0,0,0-4.8,2.8,4.4,4.4,0,0,0-2.53-3.25c-1.06-.52-1.28-2.57-2.09-3.8C340.63,407.92,340.14,405.4,343.32,402.07Zm16.69,5.4c1.73,3.23,3.26,6.1,4.78,9l-.32.54-10.26-1.24Zm.88-1.15,9.64-15.53a6.06,6.06,0,0,1,3.8,3.56c1.73,3.72,3.85,7.25,5.93,10.8a3.54,3.54,0,0,1,.06,4c-1.58,2.63-3,5.33-4.65,7.94A2.22,2.22,0,0,1,374,418c-2-.13-4-.49-6-.74a3.1,3.1,0,0,1-2.61-2C364,412.33,362.45,409.39,360.89,406.32Zm-145.16,1.73c1.74,0,3.6-1.08,5.28-.1l0,.76L214.59,410l-.39-.6C214.71,408.91,215.22,408.05,215.73,408.05Zm-.72-1c.35-2.2,1.84-2.11,3.16-2.22,1.14-.09,1.88.35,1.88,1.73Zm5.91,2.66c.22,0,.68.4.71.66s-.23,1-.4,1c-2.41.18-4.83.27-7.25.37,0,0-.1-.22-.31-.76C216.17,410.55,218.54,410.11,220.92,409.75Zm-.81,2.65c.11.16.23.31.35.46A6,6,0,0,1,219,414c-2.26.81-2.39.75-3.94-.89Zm-32.29,47h5.72c.08,4-4.18,2.32-5.35,5a18.33,18.33,0,0,1,3.18.05c.61.11,1.6.66,1.61,1.05,0,.94.8,2.29-.82,2.81l-3.28,1.06c0,.23,0,.45,0,.68a24.16,24.16,0,0,1,2.7.17c.53.09,1.45.57,1.42.73-.13.67-.39,1.58-.89,1.85a14.53,14.53,0,0,1-3,.79,12.42,12.42,0,0,0-1.51.64c0,.22.07.44.11.66l4.87.22c.73,3.32-2.44,2.33-4,3.79,1.36,0,2.29,0,3.21,0,1.18-.05,1.42.48,1.3,1.58-.21,2-1,3.19-3.22,3.27a11.06,11.06,0,0,0-2.54.66c0,.23,0,.47.05.71,1.19,0,2.39-.07,3.58,0a6.68,6.68,0,0,1,1.75.66,8.17,8.17,0,0,1-1.5,1.23,18.32,18.32,0,0,1-2.45.76l.12.63a7.76,7.76,0,0,1,1.65-.13c.8.11,2.22.28,2.26.57.16,1.23.25,2.67-1.35,3.24a15.66,15.66,0,0,0-4,1.88,5.76,5.76,0,0,0,1.44.33c.43,0,.88-.41,1.29-.36a15.43,15.43,0,0,1,2.28.55,10.55,10.55,0,0,1-1.68,1.78,8.48,8.48,0,0,1-2.13.72l0,.59,3.67.23c-.35.68-.49,1.52-.91,1.7-2,.85-4.14,1.52-6.27,2.28.26-3,.6-5.89.74-8.77.35-7.1.59-14.21.93-21.31a5.62,5.62,0,0,1,.67-2.72c1.45-2.24,1.24-3.17-1.26-4l.84-8.52c0-.19,0-.52.09-.56a6.06,6.06,0,0,1,2-.69,10.35,10.35,0,0,1,4.27.52c.67.32,0,1.49-1,1.77l-4.6,1.31C187.79,459,187.81,459.18,187.82,459.37Zm4.6-6.07c-1.67.19-3.32.53-5,.82A35.31,35.31,0,0,1,189,440.59c.54-1.91.1-3-1.56-4-2.34-1.53-4.39-3.48-6.66-5.12a34,34,0,0,0-4-2.13l3.32-1.73c2.67-.35,5.13-.66,7.59-1,1.35-.18,2.69-.45,4-.62,2.27-.26,2.42-.07,2.08,2.32l-8.31,1.57.12.61c2.11,0,4.24.15,6.34,0,1.83-.17,2.79.63,3.66,2.47-3.22.05-6.29.1-9.07,1.37l0,.64c.49.05,1,.13,1.49.14,1.76.06,3.53,0,5.26.2.47.06,1.09,1,1.14,1.53s-.64,1.17-1.14,1.33c-.78.26-1.7,0-2.52.22-.38.08-.65.64-1,1a4.29,4.29,0,0,0,1.11.56c.5.09,1.08-.14,1.55,0,.84.26,2.33.75,2.3,1-.1,1.23,0,2.83-2,3a11.89,11.89,0,0,0-2.4.75c0,.23.07.45.1.68a11.57,11.57,0,0,1,2.13.23c.54.15,1.44.65,1.41.88a3.23,3.23,0,0,1-1,2c-.56.42-1.49.32-2.24.52s-1.49.47-2.23.71l.09.59a22.36,22.36,0,0,1,3.58.21,2.32,2.32,0,0,1,1.52,1.27C194.19,452.81,193.44,453.18,192.42,453.3Zm33,43.5c-1.95-1.82-3.31-.27-4.93.7-.94.55-2.26.48-3.41.66-3.66.55-7.33,1-11,1.68-1.51.3-2.67.47-3.47-1.48-1.62,4.18-5.82,3.53-8.68,6,.24-3.45.47-6.38.65-9.32.15-2.44.23-4.88.39-7.31.13-2,.41-4,.5-6s-.15-3.84,0-5.73a287.61,287.61,0,0,0,.66-36.19c-.08-2.41.14-4.34,2.12-5.9a1.76,1.76,0,0,0-.07-1.69,7.61,7.61,0,0,1-2.1-6.22,57.18,57.18,0,0,0-.32-5.83,3.73,3.73,0,0,1,1-.24c4.18,0,8.36,0,12.54-.1a28,28,0,0,0,4-.84c2.05-.35,4.12-.57,6.17-.92,4.06-.69,8.11-1.42,12.36-2.17.19.94.43,2.16.79,4a37.12,37.12,0,0,1,2.4-2.92,4.47,4.47,0,0,1,2.17-1.41c2.62-.28,2.84.22,2.73,2.9-.2,4.82-.06,9.66-.33,14.47a67.56,67.56,0,0,1-1.32,7.24,3.8,3.8,0,0,0,.06,2.12c1.25,2.7,1.19,3.7-1.87,4.1a12.47,12.47,0,0,0-1.34.33c0,.2.06.4.08.6a8.09,8.09,0,0,1,1.62-.12,19.61,19.61,0,0,1,2.09.47c-.56.41-1.09.85-1.67,1.22a10.82,10.82,0,0,1-1.6.51l3.69,1.26-1.36.88a39.66,39.66,0,0,1,.53,4.6c-.07,10.71-.23,21.43-.29,32.14,0,2.59.26,5.18.41,8Zm135.92,15.05c-4.75,4.92-10,9.34-13.8,15.58-1.55-6.3-2.13-7.58-4-9.39-2.9,2.7-5.75,5.42-8.69,8a39,39,0,0,1-4.68,3.53,11.38,11.38,0,0,1-2.92.83c-3.25,5.86-10.2,9.05-14.73,14.62-2.75,3.37-5.39,6.82-8.15,10.33a24.9,24.9,0,0,0-1.87-2.37c-3-3.16-6-6.33-9.14-9.38-4.43-4.33-9.05-8.47-13.39-12.89-3-3.06-5.76-6.41-8.53-9.71a24.22,24.22,0,0,1-2.08-3.4c-1.69,2.57-3.39,5-4.91,7.55a13.24,13.24,0,0,0-.93,3.15l-8-8.5c-.67-.72-1.31-1.47-2-2.12a6.66,6.66,0,0,1-2.25-5c-.07-2-.42-2.14-2.66-1l-10.51-13.12,4-.9c-.5-1.34-.88-2.34-1.26-3.33,3.08-1.4,3.62-1.13,4.21,1.94.19,1,.3,2.05.4,2.72a44.4,44.4,0,0,1,6.25,2.36c3.29,1.8,5,4.9,5.76,8.49a3.94,3.94,0,0,1-.26,2.08c-.55,1.49-1.82,1.66-2.83.44-.38-.44-.72-.92-1.07-1.39l-.65.48a16.58,16.58,0,0,0,2.66,3.27c1.71,1.25,4-.39,4.21-2.72.23-2.79-1-5.06-2.46-7.26-.18-.26-.4-.5-.65-.82,2.72.23,3.45.85,4.37,2.94a6.09,6.09,0,0,0,2,2.32c2.4,1.8,4.86,3.52,7.38,5.13.78.5,1.88.47,2.75.86.61.27,1.59.91,1.54,1.27-.26,2.07.91,3.17,2.39,4.13,4.06,2.6,8.1,5.22,12.21,7.73a17.92,17.92,0,0,0,3.5,1.17,30,30,0,0,0-4.85-11.82c1.11-1.13,1.89-.66,2.59.29,1.39,1.88,2.76,3.78,4.14,5.66,1.71-.79,1.87-1.42.62-2.61s-2.38-2.2-3.66-3.37c1.2-.91,2-.27,2.76.46,2.9,2.72,5.8,5.46,8.74,8.16.8.74,1.73,1.35,2.58,2,5.42-4.84,10.75-9.54,16-14.31,2.14-1.94,4.41-2.18,7.1-1.09a62.4,62.4,0,0,0-4.81,5.7,56,56,0,0,0-3.6,6.92,2,2,0,0,0,.16,1.63c.11.2,1,.19,1.39,0,5.8-3.24,11.58-6.53,17.36-9.82.14-.08.19-.32.38-.65l-1.53-.1,1.2-2.82c.31.91.49,1.42.82,2.4,1.74-3.11,4.3-2.43,6.9-2.14-.06.65-.12,1.25-.15,1.63l11.42-2.79c-2.81-1.64-1.32-4.13-1.47-6.15-.08-1,1.46-2.42,2.59-3.12a46.28,46.28,0,0,1,5.82-2.67c.5-1.64,1-3.34,1.56-5a1.64,1.64,0,0,1,1.09-1,10.65,10.65,0,0,1,2.39.43,6.83,6.83,0,0,1-.81,2.07,10.48,10.48,0,0,1-2.15,1.51c0,.2.07.4.1.6.72-.05,1.58.13,2.13-.2a6.26,6.26,0,0,0,2.4-2.24c.87-1.79,2-1.48,3.82-.64C370.7,501.74,366.16,506.91,361.37,511.85ZM252,493.81c3.47-1.64,4.1-1.48,6.27,1.43.86,1.15,1.74,2.28,2.58,3.44.29.41.73.95.66,1.35a36.08,36.08,0,0,1-.95,3.64,10.86,10.86,0,0,1-3.21-1A12.82,12.82,0,0,1,252,493.81Zm26.11-.94.58-.47,7.5,8c-4,1.37-7.65.16-10.95-2.83.17,2.25,1.66,3.26,3.28,4a11.81,11.81,0,0,0,10.6.09,3.1,3.1,0,0,1,3.71.56c1.43,1.14,2.91,2.21,4.41,3.26a6.85,6.85,0,0,1,2.77,8c-.7-2.8-1.22-5.33-3.7-6-.23,2,0,4.28-.84,5.95-.74,1.44-2.89,1.43-4.72,1,.3-3.6-.45-6.64-4.19-8.34.16.61.34,1.22.46,1.84a8.36,8.36,0,0,1,.52,3c-.61,3.23-1.63,3.59-4,2.8a22.53,22.53,0,0,0-6.95-1c-3.25,0-5.51-1.78-8-3.4-2.9-1.87-4.84-3.45-3.33-7.5.68-1.81-.51-4.42-1.13-6.58-.29-1-.23-1.56.68-2.06a17.78,17.78,0,0,1,11-1.86c.43.05.86.67,1.15,1.12,1,1.53,1.8,3.2,2.89,4.64a8.14,8.14,0,0,0,3.11,2.31C281.22,497.34,279.64,495.1,278.06,492.87Zm25,14.77a7.2,7.2,0,0,0-1.94-3.22,66.47,66.47,0,0,0-6.48-5.61,5.5,5.5,0,0,0-3.64-1.26c-3.79.61-6.63-2-6.16-5.82l20.55-1.54c-.27,11.84-.52,23.13-.79,34.79l-7.42-6.65a30.56,30.56,0,0,1,2.89-1.71c2-.92,2.8-2.68,3-4.69A12.6,12.6,0,0,0,303,507.64Zm-19,9.16.57.33c-.32.55-.51,1.28-1,1.63-1.1.82-2,2.08-3.39,2.41-.1-.28-.19-.55-.29-.82ZM278.85,520c-.18-.24-.38-.48-.57-.72l3.79-2.93.52.66Zm6.18-1.35.43.18c-.1.43,0,1.11-.31,1.27-1.18.71-1.95,2.29-3.56,2.12l-.27-.62Q283.17,520.13,285,518.66Zm1.37,1.89c0,.22.27.88.08,1-.91.82-1.94,1.49-2.93,2.22l-.65-.8Zm1.09,1.85c.26,1,.54,1.92.71,2.89a5.51,5.51,0,0,1-1.13.44c-.13-.42-.27-.84-.44-1.37l-1.42.34c-.14-.16-.27-.33-.4-.49Zm68.95-18.33-4.68-3.82c1.89-2.23,3.77-4.49,5.69-6.7a1.59,1.59,0,0,1,1.15-.59,28.62,28.62,0,0,1,6.43,1.76l-5.17,1.41C360,499.24,359.3,502.25,356.44,504.07Zm-6.8-6a7.29,7.29,0,0,0-.79-1.2c-1.52-1.52-2.92-3.17-5.54-2.26a3.58,3.58,0,0,1-2.73-.5A32.06,32.06,0,0,1,337,491l.4-.68,17.76,2Zm-12.06-1.44c-2.79.8-5.25-.47-7.74-1.82a5.87,5.87,0,0,0,5.33,3.29,32.13,32.13,0,0,0,6.77-.68c2.41-.46,3.3-.05,4.78,1.84a24,24,0,0,0,4.28,4c1.58,1.23,2.86,5.58,1.89,7.23-.15.26-.82.54-.92.45a2.59,2.59,0,0,1-.86-1.29c-.5-3.4-1.15-5-3.33-7.35,0,1.15,0,2,0,2.77.1,1.17.36,2.32.42,3.48.14,2.93-.11,3.12-3.07,2.66-.7-.1-1.4-.15-2.31-.25.33-3.76-.71-7.07-4.14-9.45.3,1.27.58,2.54.9,3.79.92,3.58-.44,5.59-4.11,5.49a37.88,37.88,0,0,1-8.49-1.13c-1.4-.35-2.48-1.83-3.78-2.69-1.66-1.08-1.43-2.73-1.22-4.23.39-2.81-.91-4.59-3.09-6-1-.68-2-1.45-3-2.14s-2-1.25-3.27-2.08a22.56,22.56,0,0,1,13.2-1.05C330.09,492.31,334.67,492.61,337.58,496.64ZM324.29,521l.66-.18,2.09,2.54c-1.18,1.29-2,.22-2.6-.57C324.13,522.39,324.32,521.61,324.29,521Zm1.58-1.11c.13-.3,1.15-.49,1.56-.31a10.15,10.15,0,0,1,1.95,1.5,3.4,3.4,0,0,0,.35-.24l-2.64-3c2.22-.38,2.64,1.83,4.67,2.23l-3-3.45.45-.55,3.48,2.49.41-.44-3.16-2.56c.17-.23.34-.47.52-.7,2.14-.13,2.83,2.83,5.33,2.94l-4.08-3.61c1.05-1.21,3,.15,5,3.52-2.62,1.62-5.22,3.28-7.9,4.84C328,523,325.5,520.74,325.87,519.89Zm8.31-6.25c.14-.15.27-.31.4-.46,1.42.13,2.13,1.13,2.67,2.32l-.5.5Zm-11.33-2.71-4.61,3.67-.24-.19,2.86-5.3Zm-10.1-13.73a7.45,7.45,0,0,1,5.39,6.5,7,7,0,0,0,1,3.07,1.94,1.94,0,0,1-.05,2.44c-1.69,2.74-3.23,5.57-4.83,8.37-2-3.32-4-6.76-6-10.22a1.57,1.57,0,0,1-.15-1.24C309.6,503.11,311.2,500.13,312.75,497.2Zm-5.09,7.07-.34-.07V493.91l4.37,2.23Zm.06,4.78L313,519.34l-6.15,5.9V509.3Zm129.84-78.69a7.76,7.76,0,0,1-5.91.92Q420.37,429,409,427.15c-5.58-.93-11.2-1.65-16.83-2.33a21,21,0,0,0-5.58.25c15.36,1.48,30.6,3.52,45.37,8.14,0,.2.07.39.1.58a5.79,5.79,0,0,1-2.11.38c-5.46-1.13-10.89-2.44-16.37-3.52-2.28-.45-4.65-.49-7-.72l-.06.63,22.87,5.13c-2.26,3.37-5.1,1.48-7.54,2.33,1.07.41,2.13.84,3.22,1.22,2.44.85,2.44.84,2,3.59H420c2,2.38,6.58,1.11,6.61,5.4l-6-.34c-.05.26-.09.51-.14.76,1.11.32,2.22.62,3.32,1,2.49.74,2.62,1,2,3.72h-4.88c0,.16-.07.31-.11.47,1,.33,2.08.6,3.08,1,.63.26,1.45.59,1.68,1.12a3.23,3.23,0,0,1,0,2.23c-.1.25-1.15.17-1.76.18s-1.22-.07-1.83-.11l-.15.56a13,13,0,0,0,2,.76c1.33.29,2,.86,1.9,2.4-.14,3-.45,6,.07,8.91.94,5.14.17,10.11-.41,15.17-.24,2.13.34,4.35.58,6.53a14,14,0,0,1,.31,1.51c0,2.79-.34,3.09-3.11,2.47-5.57-1.26-11.11-2.65-16.7-3.84-8-1.7-15.92-3.4-23.93-4.84-5.51-1-11.11-1.45-16.65-2.26-3.47-.51-6.9-1.23-10.36-1.82a11.17,11.17,0,0,0-1.92,0l-.06.69c1,.23,2,.53,3,.69,7.53,1.16,15.06,2.23,22.57,3.47,7.18,1.19,14.39,2.31,21.49,3.89s13.83,3.65,20.75,5.49c1,.27,2.06.36,3,.68a5.19,5.19,0,0,1,1.35,1c-.57.16-1.19.57-1.69.46-2.4-.55-4.75-1.33-7.16-1.86-6.15-1.35-12.33-2.62-18.49-3.92q-6.94-1.45-13.91-2.87a3.48,3.48,0,0,0-.79.15c.39.34.6.68.88.74,6.15,1.36,12.35,2.56,18.47,4.07,7.24,1.78,14.44,3.81,21.63,5.8.62.18,1.07.93,1.6,1.42l-.4.57c-2.61-.7-5.23-1.35-7.82-2.12-7.5-2.21-14.95-4.65-23-3.75a3.83,3.83,0,0,1-2.41-.59c-4.21-2.92-9-4.15-13.92-4.82-11.43-1.59-22.88-3.16-34.36-4.24-7.2-.68-14.48-.41-21.73-.67a11.56,11.56,0,0,1-4.07-1c-1.3-.57-2.32-.81-3.24.51-.65.91-1.44.91-2.56.75-6.27-.94-12.53-1.27-18.85.06-2.69.58-5.57.27-8.36.29-5,0-10.06-.07-15.08.07-3.52.1-7,.46-10.53.83-2.51.27-5,.74-7.5,1.12q-5.79.85-11.57,1.68a2.35,2.35,0,0,1-.73-.11l-.32-.57c.75-.5,1.44-1.28,2.25-1.44a95.61,95.61,0,0,1,9.63-1.57c7.85-.76,15.72-1.34,23.59-2a7,7,0,0,0,1.22-.36c0-.21,0-.42-.05-.63-3,.13-6,.26-9.06.41s-6.14.3-9.2.54-6.24.94-9.34.83c-2.89-.11-5.71,1.59-8.58.8,0-.29,0-.58-.07-.87a68.46,68.46,0,0,1,6.76-1.22c7.6-.64,15.22-1.17,22.83-1.66,5-.33,9.91-.57,14.87-.77,8.41-.34,16.83-.72,25.25-.89,6.84-.14,13.69,0,20.53,0a3.19,3.19,0,0,0,1.9-.55,644.47,644.47,0,0,0-91.94,2.88c-.07-.31-.15-.62-.22-.93a8.73,8.73,0,0,1,2.23-.93c6.29-.68,12.59-1.26,18.89-1.92a74.57,74.57,0,0,0,8.3-1.13c1.36-.3,2.57-1.34,3.94-2.1.62,1.62,2,1.65,3.62,1.61,6.92-.19,13.84-.39,20.76-.41,4.38,0,8.75.33,13.12.42,2.66.06,5.4.33,7.91-1.89.33,2.9,2.07,2,3.64,2,5.55,0,11.11.09,16.65.36,4.94.23,9.87.66,14.79,1.15,4.6.46,9.18,1.13,13.78,1.69.87.11,1.76.13,2.64.19,0-.17.09-.34.14-.51a4.33,4.33,0,0,0-1.17-.52c-8.66-1.15-17.31-2.49-26-3.33-6.82-.66-13.69-.7-20.55-1.05-.48,0-1.18-.15-1.4-.48-1.23-1.87-2.65-.9-4.12-.46a15.77,15.77,0,0,1-4.09.85c-4.7.11-9.41.06-14.12.07-6.89,0-13.79,0-20.68,0-1.83,0-3.28-.11-3.3-2.69-.73.29-1.38.36-1.71.72-2.88,3.09-6.71,3.12-10.48,3.32-6.46.35-12.91.67-19.37,1a11.22,11.22,0,0,1-3,.1c2.46-2.05,5.75-1.05,8.43-2.51l-8.08.47c-.9-2.78-.44-3.47,2.27-3.76a12.75,12.75,0,0,0,1.91-.49l-.09-.55a26.91,26.91,0,0,1-3.08.36c-.44,0-.89-.43-1.33-.66.38-.36.71-.86,1.16-1a11.86,11.86,0,0,1,2.17-.38c0-.22,0-.44,0-.67l-3,.19c0-1.91,0-3.82,0-5.74.2-7.83.46-15.67.63-23.5,0-1.46.07-2.65,2.06-2.44.5.06,1.06-.32,1.58-.5,0-.17,0-.34,0-.52a8.11,8.11,0,0,1-1.71,0,7.19,7.19,0,0,1-1.53-.74c.44-.35.83-.89,1.32-1,1.66-.41,3.35-.67,5-1l-.09-.55c-1.56.19-3.11.44-4.67.54a4.89,4.89,0,0,1-1.56-.44c.4-.55.68-1.39,1.21-1.6a17.86,17.86,0,0,1,3.3-.66c0-.19,0-.39-.06-.58a14.45,14.45,0,0,1-2.77.19,6.22,6.22,0,0,1-1.78-.9c.5-.46.93-1.24,1.49-1.34,3.5-.63,7-1.13,10.56-1.63a14.78,14.78,0,0,1,2.1,0l1.35,3.82c1.23-1.5,2.13-2.5,2.92-3.58a3.27,3.27,0,0,1,2.88-1.61c4.64-.05,9.28-.2,13.92-.41,1.88-.09,3.74-.47,5.62-.62a18.35,18.35,0,0,1,2.56.09c.2,1.47.34,2.59.54,4.11a26.32,26.32,0,0,0,2.72-2.07c2.31-2.33,5.12-2.71,8.26-2.59,4.83.19,9.68-.1,14.51.12,5.65.26,11.27,1,16.91,1.23,6.73.25,13.47.14,20.2.17,3.18,0,6.38-.18,9.54.06,4.6.34,9.18.93,13.75,1.55q7.62,1,15.22,2.28c4.6.75,9.19,1.64,13.77,2.49a4,4,0,0,1,.95.48l-.12.7-12-1.66-.12.61,11.56,2c0,.23,0,.46,0,.69l-4.6-.22c0,.21,0,.41,0,.61.57,0,1.15.08,1.72.16.8.12,1.79,0,1.7,1.35,0,.18,1.15.75,1.45.58a16.93,16.93,0,0,0,3.45-2.53,4.6,4.6,0,0,1,4.75-1.45c2.76.68,5.57,1.19,8.2,1.74-.31,1.7-.59,3.24-.94,5.14l-8.46-.85c0,.16-.06.32-.08.48l8.47,1.51c0,.24-.09.48-.13.72l-3.94-.44c0,.17-.07.34-.11.51,1,.23,2,.47,3.05.66a1.63,1.63,0,0,1,1.53,1.85c.06,4.11.35,8.22.35,12.34a73.46,73.46,0,0,1-.53,8.77,4.53,4.53,0,0,1-1.58,2.3c-1.62,1.51-1.78,2.4-.5,4.19s.93,4.79-.61,5.69l1.81,3.38-4.59-.61-.12.59,4.36,1.14c0,.25-.1.49-.14.74l-5.08-.85-.35.59c2.79.78,6.11.85,6.89,4.45l-1.29,2c-3.09-.71-6.2-1.29-9.22-2.2-.84-.25-1.41-1.44-2.29-2.39a8.27,8.27,0,0,0-1.06.42c-3.32,1.78-5.59,1.19-7.22-2.05-.57-1.14-1.48-1.27-2.24-.75-4,2.69-7.94.42-11.88-.05-2.64-.31-5.25-.86-7.89-1.24a3.71,3.71,0,0,0-1.32.33l0,.7,5.5,1.1c3.81.76,7.62,1.54,11.44,2.24a3.35,3.35,0,0,0,1.81-.36c.93-.41,1.8-.95,3-1.62,0,2.89,1.86,3.63,3.93,4,1.87.35,3.78,1.43,5.37,0,4.65,2.69,9.93,2.29,14.9,4.55-.13-1.74-.22-2.87-.34-4.36l4.81.33c-.71-2.48-3.06-2-4.65-3.05-.09-.67-.18-1.48-.29-2.37l2.41-1c-2-.68-3-1.75-2.34-4h4.22c.05-.21.1-.42.14-.64a20.48,20.48,0,0,0-3.1-.95c-1.15-.17-1.62-.6-1.48-1.78a28,28,0,0,0,0-3.06l4.94.61.2-.8-5.64-1.49c.84-2.46,2.82-3,5.31-2.56,0-.21,0-.42.05-.64a17,17,0,0,1-2.58-1.11,9.28,9.28,0,0,1-1.6-1.65,13.74,13.74,0,0,1,2-.89,8.12,8.12,0,0,0,2.55-.87,11.32,11.32,0,0,0-2.15-.94c-1.6-.34-2-1.27-2-2.82,0-6.53-.25-13.06-.2-19.58,0-1.14,1-2.28,1.71-3.66A10.17,10.17,0,0,0,418,435.4c-3.8-.88-7.63-1.66-11.46-2.36-.41-.08-1,.54-1.43,1-.91,1-1.73,2-2.59,3.07-.14-.1-.29-.19-.44-.28.48-1.13.95-2.26,1.56-3.71-3.25-.73-6.25-1.49-9.3-2a28.81,28.81,0,0,0-4.37-.14c-.12,0-.3,0-.37,0-2.65-2.62-6.33-1.65-9.47-2.6s-6.43-.91-9.67-1.17c-7.21-.58-14.41-1.22-21.63-1.56a135.38,135.38,0,0,0-14.1.13c-7.22.42-14.37-.84-21.59-.57-5.14.19-10.3-.39-15.45-.55a24.36,24.36,0,0,0-5.86.23c-1.4.31-2.62,1.44-4,2.25.07-.44.15-1,.28-1.84-2.6,0-5.05,0-7.51,0-3.51.09-7,.26-10.52.38-1.9.06-3.8,0-5.69.15-3.85.31-3.84.36-6.16,3.1-.51-2.15-2.2-2.2-3.79-2.08-3.84.29-7.66.75-11.49,1.08-.4,0-.83-.29-1.25-.46.34-.39.63-1.07,1-1.14a58.85,58.85,0,0,1,7-1c13.22-.82,26.47-1.26,39.65-2.44a206,206,0,0,1,26.74-1c4.28.17,8.54.59,12.81.86,1.11.07,2.22,0,3.33,0,0-.23,0-.46.05-.7a9.7,9.7,0,0,0-1.29-.23c-4.62-.28-9.24-.67-13.87-.78-5.91-.15-11.84-.26-17.75-.06-9.2.3-18.39.85-27.57,1.35-5.54.3-11.07.66-16.59,1.11-4,.32-8,.86-11.95,1.23-.44,0-.93-.38-1.39-.59.42-.42.8-1.14,1.27-1.21,3.72-.57,7.45-1.1,11.19-1.47,9.2-.89,18.42-1.69,28-2.57-.65-.24-1-.48-1.25-.45-4.1.28-8.19.63-12.29.9s-8.22.44-12.33.71-8.3.65-12.45.9c-.49,0-1-.4-1.52-.62a5.25,5.25,0,0,1,1.54-.76c5.42-.69,10.84-1.4,16.28-1.94,4.67-.46,9.35-.7,14-1.05,4.28-.32,8.55-.86,12.83-.95,7.58-.16,15.17-.21,22.75,0,10.9.31,21.8.94,32.7,1.34,1.52.06,2.49.4,2.85,2a9.61,9.61,0,0,0,.92,1.81c4.05-4.23,8.71-1.61,13.09-1.5,4,.1,8,.79,12.06,1.18,5,.5,10.11.45,14.93,1.64a37,37,0,0,0,7.83,1.21,128.19,128.19,0,0,1,15.12,1.63c3.39.52,6.7,1.57,10.07,2.3a23.56,23.56,0,0,0,2.81.17,76.94,76.94,0,0,1,7.9.87A74.55,74.55,0,0,1,437.56,430.36Z" transform="translate(-169.55 -234)"/><path class="cls-1" d="M328.86,467.1a1.4,1.4,0,0,1-1.25-1.35c-.08-1.57-.18-3.14-.12-4.71s.5-3.28-.55-4.82A1.82,1.82,0,0,1,327,455c.27-.9.71-1.75.92-2.66a27.35,27.35,0,0,0,.27-7.23c0-1-.34-1.12-1.21-.76-2.45,1-4.89,2.06-7.34,3.06-1,.39-1.12.77-.32,1.45a3.66,3.66,0,0,1,1.17,2.86c0,.81.08,1.63.15,2.44a30,30,0,0,1-.11,7.86c-.35,1.85-.94,3.53-3.13,4.07-1,.25-1.18,1.19-.5,2,.95,1.12,2.19,1,3.39.65a7.53,7.53,0,0,1,3.77-.07,16,16,0,0,0,5.29.48,1.37,1.37,0,0,0,.52-.13c.28-.21.7-.48.71-.75s-.34-.62-.63-.81A3.19,3.19,0,0,0,328.86,467.1Z" transform="translate(-169.55 -234)"/><path class="cls-1" d="M322.91,441.88a2,2,0,0,0,2.1-.33,4.16,4.16,0,0,0,1.61-3.69,2.83,2.83,0,0,0-2.6-2.38,1.41,1.41,0,0,0-.87.38c-.9.9-1.77,1.83-2.6,2.8a1,1,0,0,0-.17.87A5.3,5.3,0,0,0,322.91,441.88Z" transform="translate(-169.55 -234)"/></svg>