<svg id="hufflepuff" data-name="Layer 1" xmlns="http://www.w3.org/2000/svg" viewBox="0 0 257.88 324"><path class="cls-1" d="M283.78,308.61c-.13-1.45-.25-2.71-.36-4h-.61c-.45,1.42-1,2.82-1.32,4.27-.12.52.07,1.48.43,1.68a20.67,20.67,0,0,0,3.31,1.22C285.11,308.77,285.11,308.77,283.78,308.61Z" transform="translate(-177.06 -234)"/><path class="cls-1" d="M271,323.8c.29-.08.71.16,1,.33q4.2,2.47,8.38,5l-.15.35-6.71-1.73c-1.53,2.24-3,4.44-4.56,6.63l.54.46,2.47-2.18c3.16-2.8,5-3,8.27-1l2.15,1.34v-1.11c0-3.91-.19-4-3.83-5.67-1.95-.89-3.64-2.33-5.56-3.32-.87-.45-2.31-.92-2.94-.51-1.34.85-1.95.53-2.87-.51-1.79-2-4.24-2.29-6.78-2.16,1,.61,2.2.91,3.25,1.44C266,322.29,267.86,324.66,271,323.8Z" transform="translate(-177.06 -234)"/><path class="cls-1" d="M263.43,355.27l.64-.51-5.23-5.69C258.75,352.67,261.51,353.63,263.43,355.27Z" transform="translate(-177.06 -234)"/><path class="cls-1" d="M262.54,342.52l-3,.3c.12,1.33.5,2.47.25,3.45-.73,2.85,1.34,3.76,3.06,5-1.57-2.2-2.62-4.5-1.7-7.43l5.66-.36c-4.43-3.94-5.91-8.58-6.44-13.78-.56,1.15-1.37,2.46-1.09,3.49C260.16,336.33,261.42,339.36,262.54,342.52Z" transform="translate(-177.06 -234)"/><path class="cls-1" d="M268.3,334.73l3.23-6.14-.3-.35c-1.14,1.12-2.34,2.2-3.41,3.4a2.5,2.5,0,0,0-.73,1.81C267.2,334,268,334.41,268.3,334.73Z" transform="translate(-177.06 -234)"/><path class="cls-1" d="M252.43,335.27c-2.43,1-3.33,2.71-3.11,6.09Z" transform="translate(-177.06 -234)"/><path class="cls-1" d="M289.87,346.65c-1.14-2.4-2.61-3.73-4.8-3.92s-4.32-.84-5.4-3.13l1.71-1.25-.09-.55c-4,.59-8,1.31-10.5-3.07-.1,3.16,1,4.27,3.53,4.53,1.75.18,3.67.25,4.46,2.42a2.35,2.35,0,0,0,1.32,1c2,.79,4.09,1.46,6.11,2.25C287.35,345.39,288.43,346,289.87,346.65Z" transform="translate(-177.06 -234)"/><path class="cls-1" d="M284.85,345.79l-8.05-4.17C276.77,344.16,280.92,346.22,284.85,345.79Z" transform="translate(-177.06 -234)"/><path class="cls-1" d="M277.2,337a23.72,23.72,0,0,0,3.78-1.47c-3.16-4-5.33-5-8.64-1.24a10.08,10.08,0,0,0,2.1,2.38A4.14,4.14,0,0,0,277.2,337Z" transform="translate(-177.06 -234)"/><path class="cls-1" d="M191.41,402.54c.23,1.7.5,3.39.68,5.1s.24,3.28.35,4.92l.7-.07C193,409.11,193.88,405.62,191.41,402.54Z" transform="translate(-177.06 -234)"/><path class="cls-1" d="M194.43,423.26c-.2-2.45-.39-4.91-.59-7.37C192,418.49,193.65,420.85,194.43,423.26Z" transform="translate(-177.06 -234)"/><path class="cls-1" d="M203.32,404.32,196,405.6A6.89,6.89,0,0,0,203.32,404.32Z" transform="translate(-177.06 -234)"/><path class="cls-1" d="M200.64,400.58l-10.16-1.29C191.87,401.18,197.63,401.73,200.64,400.58Z" transform="translate(-177.06 -234)"/><path class="cls-1" d="M198.29,470.13c3.27.48,6.5,1.65,9.85.79,0-.26,0-.52.05-.78l-9.83-.91C198.34,469.53,198.31,469.83,198.29,470.13Z" transform="translate(-177.06 -234)"/><path class="cls-1" d="M236.86,413q.63-3.07,1.27-6.15l-.86-.17-1.2,6.22Z" transform="translate(-177.06 -234)"/><path class="cls-1" d="M236.52,405.56a1.92,1.92,0,0,0,0-1.09,12.87,12.87,0,0,0-.54-1.59c-.65.81-1.45,1.35-1.51,2-.38,4-.73,8.07-.83,12.11a66.26,66.26,0,0,0,.58,7.14C235.87,418,233.75,411.49,236.52,405.56Z" transform="translate(-177.06 -234)"/><path class="cls-1" d="M234.46,440.6c-1.16,3.94.85,11.86,2.61,12.71a24,24,0,0,1-1.35-10C235.76,442.41,234.91,441.49,234.46,440.6Z" transform="translate(-177.06 -234)"/><path class="cls-1" d="M238.21,432.76l-.66-11.58-1,.07c-.19,3.9.68,7.73,1,11.6Z" transform="translate(-177.06 -234)"/><path class="cls-1" d="M202.78,466.27c3.35-.84,6.86-1.85,10.44-2.53,1.42-.27,2.24-.66,2.52-2.08C212.58,461.11,203.49,464.61,202.78,466.27Z" transform="translate(-177.06 -234)"/><path class="cls-1" d="M213.54,422.74c0-2.66.07-5.32,0-8a9.86,9.86,0,0,1,1.27-5.81,9.15,9.15,0,0,0,.69-2.58l-1-.5c-.64,1.25-1.75,2.46-1.85,3.76-.34,4.61-.37,9.25-.45,13.88,0,.41.42.83.64,1.25A3.18,3.18,0,0,0,213.54,422.74Z" transform="translate(-177.06 -234)"/><path class="cls-1" d="M225.51,464.7a3.92,3.92,0,0,0,1.33-.09,21.07,21.07,0,0,1,9.72-1.82c.8,0,1.6-.71,2.8-1.29C235.86,460.05,227.1,462.27,225.51,464.7Z" transform="translate(-177.06 -234)"/><path class="cls-1" d="M214.42,454.14a39,39,0,0,1-.34-17.84l4.77.54L219,436l-6.57-1.23C211.11,441.35,212.15,452.21,214.42,454.14Z" transform="translate(-177.06 -234)"/><path class="cls-1" d="M266.84,475.1l1,1.6c2.55-1.68,1.1-3.27.11-5.15l-2.63,1.65-1.44-5-.71,0c-.51,1.69-1,3.38-1.58,5.18-2.39-.68-3.24.88-3.67,2.65a2.34,2.34,0,0,0,1.75,3.1c.49-.94.91-1.77,1.33-2.59l2,1.65c-1.8,2.13-1.69,5.17,0,7.81l3.4-6.49-.53.08a14.65,14.65,0,0,1-.68-3.27C265.21,475.94,266.23,475.55,266.84,475.1Z" transform="translate(-177.06 -234)"/><path class="cls-1" d="M301.51,498c-.39-1.53-.77-3-1.16-4.57h-.66a12.33,12.33,0,0,0-1.15,2.22,2.76,2.76,0,0,1-2.4,2.19c-1.17.29-2.4,2.08-2.72,3.42a2.87,2.87,0,0,0,2.21,3.76c0-.55-.14-1,0-1.31a12.39,12.39,0,0,1,1.69-2.12c.08-.09,1,.34,1,.54a14.31,14.31,0,0,1-.29,2.52c-.06.41-.42.9-.29,1.18.75,1.58,1.59,3.1,2.72,5.24.6-2.47,1.63-4.45,1.37-6.25-.36-2.48-.29-3.06,2.31-2.77-.09.65-.19,1.29-.29,2a3.69,3.69,0,0,0,2.3-3.93C305.74,498.21,304.52,497.67,301.51,498Z" transform="translate(-177.06 -234)"/><path class="cls-1" d="M280.09,511.1c-5.45-1.34-10.95-2.52-16.36-4a96.06,96.06,0,0,1-12.09-4.1c-4-1.72-7.78-4-11.65-6l-.62.48c.54.69.95,1.64,1.67,2a76.55,76.55,0,0,0,16.81,7.18c4,1.06,7.92,2.15,11.9,3.12,3.23.78,6.49,1.41,9.73,2.09.83.17,1.67.23,2.51.35A3.59,3.59,0,0,0,280.09,511.1Z" transform="translate(-177.06 -234)"/><path class="cls-1" d="M282.92,262.85l.44-.1-2.52-8.24c5.64-1.32,7.27-2,7.73-3l-10.3,1.11c1.28,3.06,2.47,6,3.7,8.84A8.55,8.55,0,0,0,282.92,262.85Z" transform="translate(-177.06 -234)"/><path class="cls-1" d="M326.47,265.83c-.54,2.09-.9,4.22-1.34,6.33l.69.16,6.76-21h-6.89l-.06.5,5.23,1c-.88,2.41-1.69,4.54-2.41,6.69S327,263.67,326.47,265.83Z" transform="translate(-177.06 -234)"/><path class="cls-1" d="M322.7,251l-14.34-7.08C310.62,247.11,319.67,251.68,322.7,251Z" transform="translate(-177.06 -234)"/><path class="cls-1" d="M284.38,266.73c.72,2.16,1.59,4.28,2.09,6.49.41,1.8,1.33,2.22,2.71,1.94l-4.25-8.62Z" transform="translate(-177.06 -234)"/><path class="cls-1" d="M299,273.56l-.12-.77L290.58,274l.15,1Z" transform="translate(-177.06 -234)"/><path class="cls-1" d="M315.31,342.75l6.79,8.6C322.23,348.71,317.93,343.36,315.31,342.75Z" transform="translate(-177.06 -234)"/><path class="cls-1" d="M318.56,349.23l5.95,9.75c.17-4.43-2.87-7.1-5.35-10.09Z" transform="translate(-177.06 -234)"/><path class="cls-1" d="M276,373.89l5-2.59C277.3,370.78,275.62,371.76,276,373.89Z" transform="translate(-177.06 -234)"/><path class="cls-1" d="M277,374.56c2.78,1,4.09-.85,5.72-1.51s3.47-1.48,5.44-2.32C283.8,370.21,280.65,372.21,277,374.56Z" transform="translate(-177.06 -234)"/><path class="cls-1" d="M349.65,366.89l32.49-5.25C380.74,359.51,352.71,364.09,349.65,366.89Z" transform="translate(-177.06 -234)"/><path class="cls-1" d="M312,375.63c11.42-3,22.92-5.82,34.13-9.59l-.33-1.13-34.05,9.85C311.85,375.05,311.94,375.34,312,375.63Z" transform="translate(-177.06 -234)"/><path class="cls-1" d="M315.65,381.77c11.75-2.46,22.73-7.6,34.42-10.33C338.06,373,327,377.66,315.65,381.77Z" transform="translate(-177.06 -234)"/><path class="cls-1" d="M294,436l.21.66,30.38-10A110.16,110.16,0,0,0,294,436Z" transform="translate(-177.06 -234)"/><path class="cls-1" d="M345,368.19c-11.37,3.28-23,5.85-33.81,10.81l.27.54L345.28,369Z" transform="translate(-177.06 -234)"/><path class="cls-1" d="M273.31,446.09l-.21-.57c-7.06.81-13.18,4.17-19.53,6.93l.39,1.05Z" transform="translate(-177.06 -234)"/><path class="cls-1" d="M311.58,468.87a32.42,32.42,0,0,1-10,8.76,12.15,12.15,0,0,0-2.33,2.59l.35.29c2.59-1.72,5.25-3.36,7.75-5.21a60.33,60.33,0,0,0,5.75-5c.35-.34.05-1.34.05-2C312.62,468.48,311.85,468.49,311.58,468.87Z" transform="translate(-177.06 -234)"/><path class="cls-1" d="M287.69,452.33a18.53,18.53,0,0,0,1.82,5.94,35.87,35.87,0,0,0,3.38,4.54l3.85.54C293.51,459.7,289.61,456.91,287.69,452.33Z" transform="translate(-177.06 -234)"/><path class="cls-1" d="M292.93,462.85h0s0,0,0,0h0l0,0Z" transform="translate(-177.06 -234)"/><path class="cls-1" d="M349,445.66l.71-.43q-4.89-5.88-9.8-11.75C340.81,439.17,345,442.33,349,445.66Z" transform="translate(-177.06 -234)"/><path class="cls-1" d="M365.87,414.76c-5.86,1.12-11.94,1.18-17.45,3.95,0,.22.09.45.14.68L366,415.51C366,415.26,365.93,415,365.87,414.76Z" transform="translate(-177.06 -234)"/><path class="cls-1" d="M373,416.41l-18.93,4c.09.37.17.75.26,1.12l18.86-4.18C373.09,417,373,416.72,373,416.41Z" transform="translate(-177.06 -234)"/><path class="cls-1" d="M364.58,470.78c1.49-4.78.21-8.94-1.79-13a12.17,12.17,0,0,0,.09,2.42c.08,2.79.46,5.63,0,8.34C362.58,470.31,363.11,470.5,364.58,470.78Z" transform="translate(-177.06 -234)"/><path class="cls-1" d="M341,468l1-.49c-.63-4.28-5-6.41-6.61-10.1C336,461.6,339,464.5,341,468Z" transform="translate(-177.06 -234)"/><path class="cls-1" d="M323.55,444.8c-.29-.58-1.13-.88-1.72-1.3l-2.28-2.67c.67,3.31,1.21,6,1.8,8.71a1,1,0,0,0,.8.47c.34-.12.82-.53.8-.79a24.93,24.93,0,0,0-.51-3,5.82,5.82,0,0,1,1.05,1.48c.39,1.36.52,2.81,1,4.14.18.5,1,.79,1.51,1.17.16-.63.61-1.37.42-1.87A61.86,61.86,0,0,0,323.55,444.8Z" transform="translate(-177.06 -234)"/><path class="cls-1" d="M297.09,430.62c-.18.06-.13.74-.22,1.38l11.44-4.17c-.11-.32-.22-.64-.32-.95C304.35,428.11,300.71,429.33,297.09,430.62Z" transform="translate(-177.06 -234)"/><path class="cls-1" d="M330.65,457c-.13-3.7-2.28-6.57-3.94-9.61C327.82,450.71,328.06,454.37,330.65,457Z" transform="translate(-177.06 -234)"/><path class="cls-1" d="M366.45,462.54c.88,3.68.57,7.63,2.34,11.09A19.52,19.52,0,0,0,366.45,462.54Z" transform="translate(-177.06 -234)"/><path class="cls-1" d="M370.27,365.64l-11.59,2.2c0,.25.09.49.14.74,3.89-.56,7.95-.25,11.59-2.2C370.37,366.14,370.32,365.89,370.27,365.64Z" transform="translate(-177.06 -234)"/><path class="cls-1" d="M300.84,460.07l-8.14-4.74C293.49,458.37,298.3,461.26,300.84,460.07Z" transform="translate(-177.06 -234)"/><path class="cls-1" d="M286.05,456.23c-.2,2.31,1.91,6.75,3.54,7.2,1,.29,2.48,1.06,3.28-.59C289.53,461.92,287.45,459.6,286.05,456.23Z" transform="translate(-177.06 -234)"/><path class="cls-1" d="M343.74,443.36c-.15,2.93,3.4,8.11,5.81,8.38Z" transform="translate(-177.06 -234)"/><path class="cls-1" d="M304.65,457.21l-7.56-1.89C300.12,458.64,303.32,459.45,304.65,457.21Z" transform="translate(-177.06 -234)"/><path class="cls-1" d="M315.69,439.34q1.62,5,3.23,9.91l.79-.26a32.51,32.51,0,0,0-3.44-9.83Z" transform="translate(-177.06 -234)"/><path class="cls-1" d="M351.42,374.29l10.26-2.58c-.09-.32-.17-.64-.25-1l-10.24,2.69C351.27,373.72,351.35,374,351.42,374.29Z" transform="translate(-177.06 -234)"/><path class="cls-1" d="M313.37,439.93c0,2.8.7,4.9,3.13,6.17C315.51,444.14,316.2,441.31,313.37,439.93Z" transform="translate(-177.06 -234)"/><path class="cls-1" d="M347.63,465.13c.59,3.13,2.17,4.95,4.46,5.12C350.86,468.48,350.35,466.07,347.63,465.13Z" transform="translate(-177.06 -234)"/><path class="cls-1" d="M360.2,470.24c.39-.3,1.1-.58,1.12-.91.13-1.55.06-3.11.06-5.11-2.36,1.4-1.23,3.28-1.53,4.78C359.78,469.38,360.08,469.83,360.2,470.24Z" transform="translate(-177.06 -234)"/><path class="cls-1" d="M283.87,472.67c3.24-.46,4.09-3.61,6.14-5.43C287.12,468.07,285.81,470.72,283.87,472.67Z" transform="translate(-177.06 -234)"/><path class="cls-1" d="M310.79,468.85l-.71-.76-5.94,5.66c.2.22.4.44.61.65Z" transform="translate(-177.06 -234)"/><path class="cls-1" d="M363.31,413.15l5.46-1.31-.18-.84-5.49,1Z" transform="translate(-177.06 -234)"/><path class="cls-1" d="M311.21,376c-.09-.24-.19-.49-.29-.73l-7.3,3,.32.8Z" transform="translate(-177.06 -234)"/><path class="cls-1" d="M273.35,357.5c0,.13.15.56.32,1.21a17.07,17.07,0,0,1-9.66-6.15c1.14,3.13,2.92,5.62,6.18,6.77l-.05,0c3.66.2,7.32,1.7,11.16.31Z" transform="translate(-177.06 -234)"/><path class="cls-1" d="M392.68,461.53c-.28-2.42-.55-4.83-.82-7.25-.49.29-.62.55-.62.82,0,1,0,2,.06,3.06.61,9.52.65,18.94-3,28a20.47,20.47,0,0,1-5,7.56,31.09,31.09,0,0,1-12.58,7l-15.45,4.78-4,1.25a2.86,2.86,0,0,0,2.09.16,59.84,59.84,0,0,1,6.54-1.47c4.85-.52,9.21-2.52,13.75-4,6.73-2.25,11.12-7.41,15.92-12.11.25-.25.16-.83.27-1.24q.83-3.21,1.67-6.42C392.49,475,393.71,468.31,392.68,461.53Z" transform="translate(-177.06 -234)"/><path class="cls-1" d="M214.87,385.65l.33.81c2-.93,3.94-1.87,5.91-2.79l-.3-.65C218.26,382.6,216.85,384.78,214.87,385.65Z" transform="translate(-177.06 -234)"/><path class="cls-1" d="M403.47,269c-1.61,2.57-3.25,4.91-4.59,7.41-1.68,3.14-.95,6.61-.89,10,0,1.41.72,2.79.81,4.21.27,4.25,3.46,6.15,6.43,8.2a15,15,0,0,0,10.18,2.62c1.94-.17,2.24.31,1.48,2-3.21,7.18-4.51,14.87-5.91,22.53-.8,4.35-1.53,8.71-2.15,13.08-.34,2.37-.32,4.78-.6,7.15-.1.84-.6,1.63-.62,2.3.21,2,.34,4.12.69,6.14a3.35,3.35,0,0,0,1.2,2.22c5,2.43,9.87,5,14,8.75s8.68,7.59,10.88,13.14a5.52,5.52,0,0,1-.07,5c-1.69,3.41-2.51,7.26-3.71,10.92-.65,2-1.33,3.91-2,5.86-.09.27-.36.65-.27.79,1.68,2.56.13,5.26.29,7.89a60.33,60.33,0,0,0,1.68,12c1,3.69,1.21,7.58,1.8,11.37.38,2.5.89,5,1.2,7.49.49,3.82,0,7.49-2.79,10.39-4.18,4.44-11.81,4.86-15.38.79-2.84-3.24-3.37-7.35-2.42-11.34,1.33-5.51,1.85-10.84-.27-16.26a3.15,3.15,0,0,0-2.74-2.31c-1.06-.14-2.11-.38-3.48-.64.28,2,.66,3.78.77,5.6.22,3.91.33,7.83.42,11.75,0,1.46-.2,2.94-.11,4.39,0,.67.77,1.29.85,2,.85,7.05,1.71,14.11,2.38,21.19.12,1.28-.62,2.64-1,4.2,1.1.44,1.11,1.61.86,3.28-.51,3.42-.47,6.92-.89,10.36a31,31,0,0,1-3.54,11.62c-2,3.62-3.81,7.36-7,10.1a127.66,127.66,0,0,1-11.62,9.31c-5.12,3.51-11.22,4.74-17.16,6.23-.43.11-1-.33-1.5-.6-.71-.38-1.38-.84-2.65-1.63,1.2,3.41-.45,4-2.7,4.61-6,1.67-11.9,3.53-17.77,5.52a38,38,0,0,0-6.39,3.18c-3.73,2.12-7.53,4.17-11.08,6.57A42.66,42.66,0,0,0,312.48,558c-.87-.65-1.94-1.06-2.36-1.82-3.44-6.38-8.53-11.26-14.05-15.78a56.87,56.87,0,0,0-17.71-9.64c-5.1-1.76-10.25-3.42-15.45-4.86-4.79-1.33-9.86-1.82-14.49-3.55-8.42-3.15-17.4-5.44-24.2-11.81a48.77,48.77,0,0,1-7-7.36c-2-2.88-3.32-6-5-9-3.18-5.57-3.72-11.59-5.22-17.78-3.25,0-6.6.16-9.93-.05a48.72,48.72,0,0,1-7.45-1.26c-1.53-.34-2.51-1-1.73-3.07,2.05-5.53.77-11.35.9-17,.05-1.79-.7-3.61-1.11-5.52,0,0-.13-.13-.23-.11-4.78.88-6.64-3.55-9.84-5.51-.44-.27-.54-1.32-.57-2-.12-3.73.59-7.2,3.37-10a19,19,0,0,0,2.34-3.07,4.47,4.47,0,0,1,4.78-2.41c-.26-2-.54-3.77-.72-5.56-.13-1.31-.13-2.63-.21-3.94-.12-2.09-.33-4.17-.35-6.25,0-.76.55-1.52.64-2.3a15.16,15.16,0,0,0,.15-4.19c-.39-2.25-1.19-4.43-1.7-6.66A2.81,2.81,0,0,1,188,394c4-.12,8-.35,12-.29a2.19,2.19,0,0,0,2.38-2c.65-2.45,1.69-4.57,3.92-5.95,1.77-1.09,1.69-3,1.73-4.63a158.21,158.21,0,0,0,0-16.87c-.81-9.91-2.1-19.79-3.25-29.67-.23-2-1-4-1.1-6-.07-1,.65-2,1-3-1.72.47-1.85-.66-2.32-2.19a92.91,92.91,0,0,0-4.12-10.6c-1-2.22-2.41-4.24-3.52-6.4-.52-1,.55-1.6,2.08-1.54,2.13.08,4.52.5,6.36-.28a18,18,0,0,0,10.72-17.88,17.3,17.3,0,0,0-5.74-11.65c-1-.89-1.23-1.4.09-2,2.87-1.28,5.76-2.54,8.64-3.8s5.92-2.7,8.93-3.89a165.32,165.32,0,0,1,27-8.61c1.34-.28,2.72-.34,4.58-.57,1.22-1.64,3.87-1.27,6.1-1.88,3-.8,6-1.31,9.06-1.94-.29-1.29-.95-2.46-.66-3.3a3.24,3.24,0,0,1,3.47-2.56,70.08,70.08,0,0,0,11.22-.35c6.31-.75,11.24-4.52,16.11-8.21a14.09,14.09,0,0,0,2.58-3.17c1.07-1.52,1.69-.82,2.32.35a17.35,17.35,0,0,1,1.3,2.22c.83,2.41,3,3.31,4.9,4.48a31,31,0,0,0,5.73,3.11c1.92.66,4.09.56,6.12.93,3.83.71,7.62,1,11.41-.27a11.4,11.4,0,0,1,2.87,0c-.29,1.77-.54,3.32-.8,5,2.18.51,4.46,1.12,6.77,1.59,5.23,1.07,10.48,2.06,15.72,3.1,1.34.27,2.67.62,4,.93l2.92.67-1.21,1.56a8.85,8.85,0,0,1,2.18-1.56,4.69,4.69,0,0,1,2.65,0c5,1.47,10.19,2.71,15.05,4.67C392.82,263.8,399,264.75,403.47,269ZM227.65,295.74c1.27-2.32.79-3-3.08-3.75a6,6,0,0,0,1.26,2.14,22.83,22.83,0,0,0,1.87,1.66l-3.89-1,2.44,3.23L223,296.64l-.27.64c.6.52,1.13,1.32,1.82,1.5,2.74.71,3.27,3.09,3.88,5.19.45,1.53.82,2.34,2.84,1.27-2.55,5.22-5,9.83-9.81,12.49,1.8,1.36,2.7,0,3.91-1.1a32.31,32.31,0,0,0,8.09-12.69,27.35,27.35,0,0,0,.94-13.5c-.39-2.63,0-3.75,2.59-4.61,6.17-2.08,12.41-4,18.62-5.95,1.08-.35,2.57-.29,3.16-1s.12-2.1.12-3.42c1.47,1.88,2.73,3.54,5.43,2,1.29-.75,3.1-.6,4.67-.87l12.46-2.14c0-.26,0-.51.07-.76a5.68,5.68,0,0,0-2-.36c-5.6,1.07-11.19,2.23-16.78,3.33a3.88,3.88,0,0,1-1.16-.1l0-.56,18.62-5.25L278,266.15a13.51,13.51,0,0,1-1.73,2.92c-.63.61-1.79,1.33-2.46,1.13a14.88,14.88,0,0,1-3.9-2.18c-2.57-1.74-5.67-2.52-8.12-1-3.18,2-6.92,3.63-8.65,7.5a2.63,2.63,0,0,1-2.31.81c-2.8-.65-5.5-1.73-8.31-2.28a4.21,4.21,0,0,0-3.27,1.07,27.41,27.41,0,0,0-3.83,5.16c-1,1.62-1.94,1.74-3.71,1.25a57,57,0,0,0-7.55-1.16,32.67,32.67,0,0,0,6,4.53,2.15,2.15,0,0,0,1.51.06c2-.45,3.92-1,5.87-1.49,4.6-1.25,9.18-2.53,13.79-3.75,1.85-.49,3.74-.86,5.61-1.28.07.27.13.53.2.79l-25.42,7.41c.94,5.71,1.59,11.48-.06,17.1-.29-4.38-.57-8.81-.88-13.23-.15-2.1-.23-4.29-2.48-5.4-2-1-4.07-1.92-6.13-2.8-2.47-1.06-5-2.06-7.94-3.27,2.32,6.33,4,12.18.7,18.16,4.35.71,7.63-1.87,7-5.38-.23-1.35-1.52-2.5-2.13-3.83a3.55,3.55,0,0,1,.18-1.82c1.77.1,4.11-.32,5.17.64a17.82,17.82,0,0,1,4.11,6.43c.91,2.24-1.14,5.87-3.31,6.8.09-.39.17-.74.26-1.09Zm-3.14,75.46c0-.47,0-.93,0-1.4.38-.82,1.09-1.65,1.08-2.47q0-6.84-.37-13.67c-.12-2.38-.59-4.74-.7-7.12-.13-2.54,0-5.1,0-7.65l.53-.09c.69,6.35,1.65,12.68,2,19.05.35,6.56.08,13.15.08,19.73l1.3.88a17.22,17.22,0,0,0,.37-1.7,39.09,39.09,0,0,0,.44-4.31c.05-5.73.26-11.47-.06-17.18-.26-4.81-1.16-9.58-1.78-14.36-.14-1.11-.3-2.21-.46-3.41a6.52,6.52,0,0,1-1.18-.09c-.71-.18-1.4-.44-2.1-.66a13.52,13.52,0,0,0,1.4-1.93,4.86,4.86,0,0,0,.81-2.54c-.65-3.39-1.52-6.74-2.32-10.11-.59-2.47-1.18-3-3.45-3.16,1.91,4.55,4.11,9,3.32,14.05a12.06,12.06,0,0,1-1-2.58c-1.11-3.4-2.17-6.81-3.42-10.16a6.27,6.27,0,0,0-3.83-4.16c-2.57-.89-5-2.08-7.54-3.19s-5.09-2.3-7.82-3.55c1.47,4.25,2.92,8.08,4.09,12,.58,1.91,1,3.61,4.15,2.76-.89,1.31-1.41,2-1.88,2.79-.29.46-.76,1-.69,1.46.67,3.83,1.58,7.62,2.16,11.45.77,5.15,1.38,10.32,1.92,15.49.31,2.89.35,5.81.49,8.72q.39,8.06.74,16.11c.05,1.16,0,2.32,0,4.11,2.48-1.77,4.37-3.09,6.22-4.46a1.1,1.1,0,0,0,.43-.88,13.14,13.14,0,0,0-1.36-3.56c-1.25-1.82-2.77-3.45-4.21-5.21,3-2.71,5.37-6,5-10.4s-3.49-7.13-7.18-9.5a13.82,13.82,0,0,0,5.09-11.71c-.31-4.77-3.09-8.06-7.66-9.95a20.13,20.13,0,0,0,5-13.31c2,4.31,3.64,8.69,7.82,11.34-.65,1.28-1.23,2.36-1.75,3.46-1.5,3.26-3.5,6.39-1.08,10.15,1.55,2.4,2.16,5.44,5,6.93,1.75.94,1.51,2,.26,3.23-4.54,4.33-5.41,12.78.47,17.37a14.06,14.06,0,0,1,1.79,2c-2.2-.21-4.4-.48-6.6-.59a5.52,5.52,0,0,0-1.9.68l.17.42,8.33.79-3.73,8,3.82-.69a19.79,19.79,0,0,0,.51-3.47A26.66,26.66,0,0,0,224.51,371.2Zm-14.67,17.71,2.18,2.92a14.91,14.91,0,0,1,1.4-2.62c.89-1.16,2.05-2,3.62-1-3,.9-4.8,4.57-4,8.35,2.17-2.51,4.71-4.66,3.93-8.41,2.46.92.8,2.94,1.14,4.77,1-1.17,1.67-2.38,2.68-3a14.34,14.34,0,0,1,4.81-1.89c.3-.06,1,2,1.58,3.19l.82-.9c.33-.39.6-.83,1-1.18,1.41-1.37,2.47-1.24,3.84.11a2.18,2.18,0,0,0,1.93.3c2.37-.93,4.68-2,7.07-3.11l1.17,9.43c3.38-.59,3.6-.82,3.71-3.78l2.45,1.18.24-.45-4.65-4.9a14.79,14.79,0,0,1,4.12,2c1.15.75,1.62,2.89,4.12,1.7a43.2,43.2,0,0,0-13.78-8.42c-2.29-.83-5-.6-7.63-.87l1.29-1a16.34,16.34,0,0,0-4.75,1.09c-1.13.42-1.77.37-1.5-1.62-1.76,1.75-3.33,3-5.29,1.23a.78.78,0,0,0-.64,0,37.51,37.51,0,0,0-6.31,2.55,16.9,16.9,0,0,1-5.12,2.58c-1.92.43-3.3,1.65-3.27,3.54,1.28-.56,2.58-1.15,3.9-1.72-1,1.15-2,2.26-2.92,3.44a6.2,6.2,0,0,0-1.1,5.65,27.85,27.85,0,0,0,2.37-3.06C209.28,393.12,211.66,391.56,209.84,388.91Zm24.21-117.35a20.89,20.89,0,0,0,3.26,0,22.33,22.33,0,0,0,5.36-1.13c2.88-1.17,4.15-3.89,5.31-6.56.42-1,.78-1.37,1.94-.83,1.82.84,3.76,1.4,5.64,2.12,5.8,2.19,11.43-1.68,14.21-6.25.7-1.15,1.15-1.43,2.33-.78a34.85,34.85,0,0,0,3.81,1.46c-1.87-4-2.15-4.17-5.23-3.79a34.08,34.08,0,0,0-5.17.75c-2.66.76-5.24,1.8-7.86,2.72-1.27.26-2.72.26-4.12.5s-2.64.76-4,1.1c-4.13,1.05-8.34,1.83-12.37,3.17s-8.16,3.25-12.17,5a18.16,18.16,0,0,0-3.19,2.49c-3-.94-6,.89-8.9,2.81.16.3.2.49.3.54,1.76.83,3.53,1.64,5.3,2.46,2.72,1.26,5.06.9,6.89-1.58a50.4,50.4,0,0,0,3.49-6.41l5.2,2.19-3.84-.33c-.13.28-.39.81-.66,1.36l3.07-.33c0,.2.07.39.11.58l-4.48,1.95c.11.26.21.51.32.76l7.56-2.78Zm159.2,189.91a15,15,0,0,0,4.46-8.18c.25-1.38.87-3.06.36-4.13a54.45,54.45,0,0,0-4.79-7.6,16.68,16.68,0,0,0-2.73-2.47,37.13,37.13,0,0,0,2.61-3.69c.94-1.74,2.13-3.53,2.39-5.41.67-4.72-4-6.28-6.09-9.51a97.17,97.17,0,0,0-.37,12.37c.13,4.1.49,8.19.75,12.29l-1,.09q-1.35-12.17-2.68-24.34l-.54-.09a8,8,0,0,0-.51,2.29q.74,9.07,1.61,18.14c.34,3.45-.42,7.39,4.38,9.15-2.52,1-3.08,2.53-2.49,4.72a18.64,18.64,0,0,1,.43,4.55c0,5.58.24,11.18-.07,16.75a34.25,34.25,0,0,1-2,9.55c-2.15,6-7.25,9.29-12.63,11.87a70.41,70.41,0,0,1-11.27,3.79c-3.67,1-7.43,1.69-11.12,2.63a2.84,2.84,0,0,0-1.54,1.44,15.4,15.4,0,0,0-.72,3c-.64-.23-1.45-.26-1.74-.66-1.7-2.41-4.14-1.78-6.14-1.14-6,1.93-11.92,4.07-17.35,7.44a60.66,60.66,0,0,0-13.91,12.19c-.55-.72-1-1.42-1.57-2.06-1.61-1.83-2.95-4.12-4.95-5.33a142.46,142.46,0,0,0-12.87-6.53c-2.38-1.12-4.91-2.25-6.68,1.68a7.43,7.43,0,0,1-.41-1.56c.15-2.24-.75-3-3.1-3.42-5.55-.91-11.06-2.18-16.52-3.61a117.5,117.5,0,0,1-11.81-3.92,42,42,0,0,1-8.82-4.1,31,31,0,0,1-12.45-17.56c-.39-1.37-.7-2.76-1-4.14-.8,7.48,2.31,13.5,6.94,19-6.83-4.16-8.75-11.21-10.65-18.38l-5.82,1.19-.25.73c1.63,1.07,3.22,2.21,4.9,3.19.94.54,1.8.85,1.32,2.25a46.28,46.28,0,0,0-1.74,6.19c-.73,3.94,1.69,7.25,5.39,7.56,2.07.18,4.15.23,6.24.34.53,3.95,1.4,8.15,5.09,10s7.63,1.08,11.11-1.27c2.43,3.39,4.21,7.51,8.37,8.25,4,.72,7.71-1.39,10-2.81,2.6,2.05,4.79,3.85,7.06,5.55,1.46,1.08,3,2.82,4.56,2.84,3.85,0,7.7-.75,11.63-1.22,1.86,3.63,3.9,7.63,6.09,11.94l-2.83-1.54c1.4,1.63,9.44,3.14,12.06,2.45-4.77-9.94-13.22-15.2-23-19,5.18.49,9.58,2.85,13.86,5.6a28.11,28.11,0,0,1,9.82,11.5,36.53,36.53,0,0,1,14.78-14.6c7.17-3.93,16.87-7.43,20-6.94-2.79,1.14-5.2,2-7.53,3.1-4.82,2.2-9.87,4.07-14.31,6.89-3.26,2.08-5.76,5.4-8.47,8.28-1.43,1.53-2.59,3.3-4.07,5.21,6.32.41,11.85-.19,16.77-15a10.21,10.21,0,0,0,2.56,1c3.13.27,6.48,1.12,9.37.34a14.18,14.18,0,0,0,8.42-6.21c.91-1.48,2.09-2.66,4.22-1.81a48.56,48.56,0,0,0,7.39,2.38,4.08,4.08,0,0,0,3.27-.86c2.12-2.14,3.94-4.57,6-7,1.95.69,4.08,1.59,6.29,2.18,3.86,1.05,6.49-.56,7.6-4.38.74-2.52,1.56-5,2.38-7.69,3.08,1.92,5.76-.07,8.6-.57,1.66-.3,1.89-1.17,1.81-2.56-.21-4-2-7.28-4.16-10.45a22.24,22.24,0,0,0,3.44-1.54c3-1.93,6-6.25,4.52-9.48-1.11-2.49-3-4.66-4.51-6.95C394.43,462.87,393.82,462.18,393.25,461.47ZM274,318.09c-2.4-.25-4.7-.7-6.25-3l2,.21a44,44,0,0,1,5.52.65c2.09.51,4.07,1.43,6.12,2.08,3.32,1.05,7.1,1.32,7.86,6,.16.95,1.72,1.68,2.52,2.41-.2-3.06-.37-5.81-.56-8.85l1.89.66.36-.56a16.87,16.87,0,0,0-3.56-2.4c-1.43-.53-2-1.21-1.86-2.68a11.42,11.42,0,0,0,0-2.41c-.4-3.65-2.35-6.48-4.62-9.12l-.76,0c-.87,3.06-1.75,6.12-2.62,9.17-1.64-.12-2.05-.81-1.52-2.2.81-2.13,1.53-4.29,2.3-6.43l-.67-.46a48.16,48.16,0,0,0-4.24,5.38c-1.95,3.32-4.45,5.4-8.47,5.51-1.09,0-2.45.43-2.47,2.14,0,.28-.83.87-1.12.78-2.5-.77-4.65.11-6.92,1a4.86,4.86,0,0,1-3.42-.15c-3.17-1.46-6.2-3.3-9.77-2.8a72.4,72.4,0,0,1,5.43,5c1.56,1.72,4.6,2.18,4.85,5l-6.19.35-2.6-3.75,3.82,1.38c-2.13-4.92-7.12-8-11-7.3-1.34,4.34-.55,8.58.63,12.76.53,1.84,2.15,3.57,2.1,5.31-.13,4.14,2.78,5.26,5.54,7.1,2.32-4.24,6.5-6.92,7.4-11.77,1.3.69,1.41,1.48.69,2.69a15.86,15.86,0,0,0-1,3.37c-3.6,1.69-5.27,5.15-5.44,9.5l1.62,1.12c-1.74,1-2.71,1-3.3-1.12-.7-2.52-2.36-4-6-4.34l4.49,4.65-3.71-1.35c-.13.21-.25.42-.37.63l5.62,4.31-.18.3-3.69-1.09c-.09.24-.18.47-.28.7l6,2.84-2.46.38c-.08.15-.15.3-.23.46l3.41,1.85c0,.11-.07.22-.1.34h-2.32a5.48,5.48,0,0,0,4.07,4,38.22,38.22,0,0,1,6.13,2.79l-.24.67c-.71-.17-1.41-.38-2.12-.51a10.6,10.6,0,0,0-2.36-.3c-2.77.13-3.49,1.18-2.61,3.47l4.73-1.23-3.93,3,.27.44,4.58-.75c0,.18.07.37.11.56a28.17,28.17,0,0,0-3.8,1.92,25.47,25.47,0,0,0-3,2.84l.28.25,3.81-1.64.3.61c-3.62,2.81-6.86,5.94-8.86,10.18l5.42-5.06.3.33q-2.17,3.54-4.33,7.08l.45.26,3.58-2.64.37.43-2.31,4.47,3.1-1.85.34.47c-.55.95-1.11,1.89-1.67,2.84l.29.22,1.91-1.58v3c1,.66,1.58,1.05,2.16,1.42a5.9,5.9,0,0,0,1.58,1,10.79,10.79,0,0,0,8-1.19,13.52,13.52,0,0,1-.48-10.22,8.2,8.2,0,0,0-1-7.78,12,12,0,0,1-.78-1.56l.46-.31,3.29,3.93.68-.44c-.07-4.33-3.46-7-5.83-10.16a3.39,3.39,0,0,1,1.61.68c2,1.87,5,2.7,5.77,5.8.1.39,1.34.48,2,.71l.26-.6A15.24,15.24,0,0,0,267.7,366c-1.44-1.49-3.46-2.67-4.29-4.43-1.3-2.74-3.92-3-6-4.32a17.11,17.11,0,0,1-2.74-2.52,21.37,21.37,0,0,0-2.51-2.68,11,11,0,0,1-3.86-5.35l8.68,6.53-1.61.41c1.47,1.24,2.53,2.88,3.82,3.07,3.41.51,5.46,3.09,8.22,4.52a32.77,32.77,0,0,0,5.46,1.73c.09-.25.17-.49.25-.74-1-.58-2-1.12-2.89-1.78-.18-.12,0-.69-.05-1.06l-.05,0,2.56,1.08c3.2,1.33,6.4,1.59,9.52-.19,2.52-1.44,5-2.95,7.72-4.57L286.86,354c0-.17,0-.65.07-1.24l7.86,2.22-5-7.05.59-.45c1.57,1.69,2.88,3.8,4.77,5a13.51,13.51,0,0,0,6.86,2.07c2.16,0,4.81-.13,6.47-2.09a24.49,24.49,0,0,1-3.7-2.69c-1.28-1.35-3.09-2.82-1-5,.15-.16.06-.76-.12-1-1.46-1.95-2.66-4.26-4.53-5.69a54.62,54.62,0,0,0-9.47-5.55,5.3,5.3,0,0,1-2.1-2.13c-1.73-2.3-2-6.19-6.28-5.8a1.06,1.06,0,0,1-.76-.38c-1.34-1.58-2.65-3.18-4-4.78.14,0,.32-.11.42-.06,2.84,1.41,4.82,4.36,8.3,4.62a.83.83,0,0,1,.51.38c1.11,1.92,2.15,3.88,3.33,5.76A6.12,6.12,0,0,0,291,332c5.07,3,10.83,5.11,14.16,10.54.32.52,1.34.62,2,.91.16-.49.59-1.27.42-1.44-1-1-2.16-1.79-3.25-2.67a35.35,35.35,0,0,1-4.08-3.42c-3-3.32-5.7-6.82-9.62-9.24-1.37-.84-2-2.82-3.09-4.19a5.21,5.21,0,0,0-2-1.67c-3.2-1.25-6.45-2.37-9.71-3.5-.84-.29-1.74-.4-3.22-.73Zm85.53,40.82a3.22,3.22,0,0,0-.33-1.22,10.45,10.45,0,0,0-1.55-1.33l-.76,1.74,2.7.76,1.55.83c-.06-.25-.11-.49-.17-.74,1-.72,1.86-1.78,3-2.09a65.9,65.9,0,0,1,8.68-1.81c2.57-.35,4.64-1,5.21-3.93a10.25,10.25,0,0,1,1.08-2.19c.66,1.81.79,3.57,1.73,4.38s2.64.53,3.48.66c2.55-3-.87-7.3,3.3-9.33-.94-.7-2.43-1.25-2.59-2.06-.23-1.15.53-2.48.86-3.74a3.17,3.17,0,0,0,0-.44c1.06-6,1.75-12.07,3.35-17.9.78-2.82,0-3.89-2-5.13-2.93-1.82-5.56-4.06-6.92-7.27-2.72-6.45-4.53-13.11-3.28-20.25a2,2,0,0,0-.88-1.73c-4.54-1.8-9.13-3.46-13.71-5.17l.27.94-2.85,4c-1.44-1.36-2.92-2.19-1.73-4.19.18-.3-.38-1.49-.75-1.57-4.94-1.13-9.88-2.24-14.87-3.13a52.36,52.36,0,0,0-6.35-.45c-.65,1.86-1.15,3.27-1.76,5-1.87-1.76-3.16-3.12-2.58-5.63a13.8,13.8,0,0,0-2.47,1.53c-.79.51-1.67,1.28-2.49,1.25a55.26,55.26,0,0,1-9.1-.8c-2.51-.5-4.06,0-4.81,2.48-.06.2-.44.31-.78.54-.76-1.14-1.47-2.2-2.17-3.27H309c-.39,1.19-1.11,2.39-1.11,3.58q.07,13.45.41,26.9a37.2,37.2,0,0,0,.72,4.86l2.65-1.66,1.52-4.38a5.3,5.3,0,0,1,.92.66c1.37,1.71,1.82,4.1,4.07,5.2.33.16.17,1.42.14,2.17,0,.16-.42.3-.7.48l-.88-1.52c-1.38.87-2,1.67-.74,3a2.07,2.07,0,0,1,.3,1.71c-.49,1.7-1.14,3.37-1.74,5-1.62-.6-3.24-5-2.23-6.83s-.22-1.94-1.05-2.26c-2.82,2.17-2.14,5-2.17,7.7,0,2,0,4.07,0,6.11a3.71,3.71,0,0,0,2.7,3.81,18.76,18.76,0,0,1,7.78,3.33c1.56,1,2.76.38,3.13-1.44.3-1.5.75-3,1.31-5.1a10.05,10.05,0,0,0,.55,1.76c1,1.54,1.32,3.83,3.67,3.87a2.36,2.36,0,0,1,2.48,2.22c.16.91-.42,1.94-.76,3.25a12.67,12.67,0,0,0-1.92-1.77,1.39,1.39,0,0,0-1.19.22,1,1,0,0,0-.08,1c1.09,1.31,2.54,2.16,3.34,3.94.57,1.28,2.71,1.63,3.66,3.31.59,1.07,2.35,1.49,3.49,2.15,0,.3-.14.79,0,.93a20.45,20.45,0,0,1,2.26,1.69c1.08,1.22,2,2.61,3,3.93.7,1,1.32,2,2.09,2.86.56.65,1.31,1.59,2,1.6a21.74,21.74,0,0,0,5.37-.7c.57-.15,1.13-1.07,1.32-1.75.12-.43-.44-1-.69-1.59a17.8,17.8,0,0,0-1.72,1.64c-.26.31-.26.83-.57,1.91-.88-1.65-2.18-3-1.89-3.75.93-2.33,3.22-2.86,5.4-2.73.62-1.39,1.17-2.6,1.72-3.81a5.2,5.2,0,0,0,5.15,4.44c1,.09,1.17,2.4.36,3.4C360.55,357.65,360.06,358.28,359.56,358.91Zm-18,125c.14-1.82-1-1.81-2-1.07a6.77,6.77,0,0,0-2.65,5.3,14.9,14.9,0,0,0,2.68-2.64,19.58,19.58,0,0,1,2-1.64c.3.75.59,1.5.75,1.92l5.41-3.33c-1.82,1.69-3.76,3.31-2.92,6.56q2.08-2.76,4.15-5.54l-1.27-1,2.73,1.25c0,.3,0,.61,0,.91,1.17-.74,2.3-1.55,3.52-2.21a6.77,6.77,0,0,1,1.84-.41c2.05-.21,3-2.69,5.8-2.54l-2.68,4c4.05-.46,5.38-3.3,6.93-6.28l1,2.11,1.52-4.79.72,2.2.75.56,6.37-7,.33.29c-1.08,1.5-2.16,3-3.52,4.91,3.55-2.13,4.76-6.42,9-6.92l-3.2,3,.31.32,5.38-3.69c.13.18.25.36.38.53l-2.2,2.11c4.15-.32,4.3-1.57,3.45-5.88-3.75-.76-5.4,2.67-8.11,4.07,1.09-2.73,2.18-5.36,5.63-5.69.48-.05.91-.47,1.39-.6,1.65-.47,1.7-1.5,1.13-2.84-3.37-.51-6,1.06-8.54,2.91a2.45,2.45,0,0,1,.32-1.18c1.56-2.54,4.3-3.35,6.79-4.37,1.75-.72,1.61-1.51.5-3.24L375,460.67l-.48-.66,11.89-9.7L384.33,448c-3.23,2-4.27,6.46-7.94,8.22a15.4,15.4,0,0,1,1.49-2.92c1.66-3,3-6.27,5-9a3.5,3.5,0,0,0,.32-4.44c-4.09,2.52-4.16,7.13-6.16,10.73l-.18-3.24-.57-.08c-.66,2.38-1.31,4.75-2,7.27l-1.5-1.67c-.64,2.53-1.31,4.53-1.62,6.58-.4,2.58-.48,5.21-.78,7.8-.06.54-.52,1-1,1.85-1.15-7.84-6-14.2-4.95-22q1,3.86,2.09,7.69l.7-.16q-1.56-7.62-3.14-15.24a44.31,44.31,0,0,1,3.78,7.66,10.31,10.31,0,0,1,.18,7.82,5.86,5.86,0,0,0,1,5.39c.19-6.12,1-12.49-1.36-18.66-2.6-6.76-6.23-12.4-9.87-15.65l5.25,11.27-.7.37c-3.07-3.4-4.28-8.17-7.88-11.16l3.13,7-.48.25-5.36-7.8c1.45,4.78,1.45,4.78.87,5.75-1.38-1.53-1.86-3.95-4.62-4.8l1.22,3.42-.54.34c-1.47-1.2-2.34-4.34-4.82-1.9.55,1.63,1.9,3.6,1.39,4.54-1.25,2.28.82,3.26,1.1,4.85a9.49,9.49,0,0,0,.33,1,1.22,1.22,0,0,1-1-.48c-1.43-2-2.76-4.11-4.27-6.06-2.14-2.75-2.24-3.66-7-2-1.2.43-1.83.46-2.1-.88l0,.06c1.22-.84,2.33-2.05,3.68-2.44a55.81,55.81,0,0,1,9.71-2.08c2.5-.27,4.66-.38,4.58-4.37,2.39,3,4.6,1.92,7,1.29a104.57,104.57,0,0,1,11.94-2.22c2.91-.42,5.89-.39,8.82-.74,1.41-.18,2.74-1,4.15-1.14,4.34-.4,8.69-.74,13-.87a52.36,52.36,0,0,1,17.53,2.47c3.93,1.26,7.86,2.6,11.06,5.39,1.8,1.57,3.62,3.12,4.95,4.27-3-9-11.24-12.53-20-15.42,6.77.72,13.14,2.32,18.48,6.81-2.37-6.18-7.72-8.92-13-11.82a17.42,17.42,0,0,1,11.42,4.61c-2.89-6.43-8.58-9.55-14.53-12.38,5.48,1.3,10.67,3.1,14.52,7.51-1.05-3.92-4.12-6-7.49-8.55,3.35,0,5,2.26,7.32,3.3-.36-3.39-3-5.06-5.49-6.91l.41-.51,5.24,2.79c.44-3.23-1.41-5.28-3.2-7.49l4.73,2.94c.51-4.47-1.32-7.59-4-10.45,2.7.71,3.76,3.15,5.86,5.34,0-6.91-3.81-11.31-7.68-15.68,3.95,1.56,5.69,5.36,8.7,8.06a11.42,11.42,0,0,0-.95-3.81c-2.07-5.1-5.05-9.57-9.69-12.62-5.45-3.6-11.66-5.63-17.88-7.3a54.78,54.78,0,0,0-17.72-1.41c-5.86.35-11.65.76-17.19,2.74-1.74.63-4.66.26-3.8,4.12-1.12-.5-2-.63-2.42-1.12-1.26-1.35-2.7-1.09-4.2-.8-2.05.39-4.1.78-6.14,1.22-5.93,1.3-11.88,2.48-17.75,4-5.39,1.39-10.71,3.09-16,4.77-5,1.59-10,3.25-15,5-6,2.18-11.86,4.57-17.8,6.84-5.64,2.16-11.34,4.18-16.93,6.47-4.72,1.93-9.31,4.19-14,6.28-2.45,1.09-4.94,2.1-7.37,3.22-1.47.68-2,1.86-1.6,3.75,2.78-1.13,5.36-2.24,8-3.23s5.35-1.9,8-2.84c.1.26.19.52.28.78-2.93,1.12-5.89,2.16-8.78,3.38s-5.62,2.37-7.51,5a57.19,57.19,0,0,0,7-2.67c2.31-.93,4.69-1.68,7-2.51.09.2.17.41.26.61-.59.31-1.18.65-1.79.94-3.79,1.8-7.62,3.53-11.36,5.44-.62.31-.88,1.35-1.3,2.06a18.43,18.43,0,0,0,2.33.25,3.78,3.78,0,0,0,1.19-.47l7.52-3a1.89,1.89,0,0,1-1,1.46c-2.32,1.16-4.62,2.37-7,3.35a5.11,5.11,0,0,0-3.45,3.86,26.59,26.59,0,0,0-.43,5.49c0,1.55.65,3.09.69,4.65.11,4.21,0,8.42,0,12.58l2,.56-2.18,2.17.43.54,3.54-.43a20.83,20.83,0,0,1-2.77,1.9,1.82,1.82,0,0,0-.52,1.46c0,.26.76.69,1.12.64a45.13,45.13,0,0,0,4.88-.93c1.8-.46,3.56-1.06,5.34-1.59.06.17.12.34.17.51l-10.6,4.26.33.94L258,444.33l.15.47-13.88,5.82c.11.32.22.64.34,1l7.43-1.71c-2.25,2.44-6.05,1.87-8,4.6l.24.63,6.17-1.23.17.45-7,4.54c.1.23.21.45.31.67a5.27,5.27,0,0,0,1.59,0q6.24-2.06,12.44-4.2c1.56-.54,3.14-1.08,4.65-1.75,4.58-2,9.07-4.28,13.72-6.12,3.34-1.32,6.91-2.06,10.33-3.18,2.13-.7,4.15-1.67,6.26-2.42,4.28-1.52,8.59-2.95,12.87-4.46,3.6-1.27,7.16-2.69,10.78-3.9,3.33-1.12,6.72-2.06,10.1-3,.35-.1,1.07,0,1.14.22a1.67,1.67,0,0,1-.11,1.4,4,4,0,0,1-1.68.92q-5.46,1.81-10.95,3.56c-2.1.66-4.3,1.18-3,4.24.06.15-.1.4-.17.68-.3-.07-.76-.06-.82-.21-1.17-2.9-3-2.08-5-1a5.86,5.86,0,0,1-1,.26c-2.78.8-5.6,1.48-8.31,2.45a15,15,0,0,0-4,2.38,29.5,29.5,0,0,0-2.93,3.06c-.26-.31-.43-.42-.44-.53,0-.45,0-.89,0-1.34l-.67-.23-2.54,6.83-.38-.06c-.09-1.29-.17-2.58-.26-3.86l-.79,0-.78,6.69h-.66c-.3-2.08-.59-4.17-.89-6.25l-.52.11c.32,2.76-.78,5.56,1.69,8.24,1.92,2.09,3,4.91,4.46,7.33-2,2.21-4.32,4.71-6.55,7.29-.21.24.12.95.21,1.49-3.3,1.74-8.08.63-10.1,5.13,1.46.85,1.45,1.89.09,3.12a7.5,7.5,0,0,0-1.11,1.74l.44.37c1.86-1.68,2.95-4.78,6.75-3.56-.51,1.69-1,3.3-1.52,5,.34,0,.56,0,.6-.07.44-.9.83-1.83,1.28-2.72a3.3,3.3,0,0,1,4.26-1.54c2.07.77.86,2,.52,3.19a4.57,4.57,0,0,0,0,1.17l.6.33,2.21-2.69c-.27,1.81-.49,3.27-.71,4.73l.62.18a20.64,20.64,0,0,0,1.76-2.65,26,26,0,0,0,1-3.2c2.9.81.11,2.81,1.05,4.54l5.89-2.9.36,1.09c3.1-.29,4.27-2.67,6-4.56a16.3,16.3,0,0,1,4.88-3.45c3.49-1.7,7.16-3.06,9-6.91.17-.36.86-.48,1.66-.89l-7.26-6.07c5.21-.52,6.94,4.18,10.27,6.46l-2.42-4.12.46-.26,5.22,5.51.35-.36-1.29-2.36.25-.22,8.09,5.45c-.71-1.58-1.16-2.58-1.83-4.05l6.38,3.41c-.7-1.91-1.14-3.12-1.58-4.34l.53-.25a12.19,12.19,0,0,0,1.55,2.26,5.1,5.1,0,0,0,1.89.67,5.09,5.09,0,0,0,.15-1.75c-.45-1.58-1.06-3.12-1.79-5.2.75.44,1.26.56,1.42.87a26.79,26.79,0,0,1,1.94,4.09,2.25,2.25,0,0,0,3.07,1.61c1.7-.44,1-1.64.54-2.61-1.21-2.34-2.48-4.65-3.72-7L340,461l5.45,6.89c-.28-.89-.47-1.5-.67-2.12l.46-.22,3.58,5.65a17.57,17.57,0,0,0-12.06,3.32l2.13-.15c.08.22.16.45.25.67l-8.71,3.38c-.36,2.42-.63,4.18-.89,5.95a2,2,0,0,0,1.24-.8,17.15,17.15,0,0,1,2.41-3,2.66,2.66,0,0,1,2.4-.18c.42.22.59,1.43.48,2.14a14.45,14.45,0,0,1-1,2.84,1.28,1.28,0,0,0,1-.57c1.46-1.42,2.79-3.13,5.1-3.05.47,0,1,.65,1.33,1.12C342.5,482.89,341.88,483.49,341.58,483.87ZM194.14,435.56l.34.37c-.18,2.5-.47,5-.5,7.51,0,1.38-.29,2.36-1.57,3a2.51,2.51,0,0,0-1.33,3.43,18.84,18.84,0,0,1,.54,4.95c.09,2.55.08,5.11.06,7.67a44.67,44.67,0,0,1-.25,7.51c-.3,1.69.11,2.46,1.56,2.61,3.3.34,6.61.63,9.93.69,6.56.14,13.13.12,19.69.14a3.72,3.72,0,0,0,1-.36c1-.35,2-.75,3-1,4.54-1.18,9.1-2.29,13.62-3.53.4-.11.84-1,.84-1.47q0-7.09-.16-14.2c-.28-13.18-.62-26.35-.87-39.53-.12-6.34-.09-12.69-.16-19a25.51,25.51,0,0,0-.34-2.68c-3.52,1.6-7.57,1.76-9.45,5.69a2.47,2.47,0,0,1-1.48,1.21c-.65.15-1.76.11-2.06-.3-1.84-2.43-1.78-2.47-4.28-.62-.57.42-1.13.84-1.68,1.28-1.1.89-2,.77-2.66-.51-.22-.43-.43-.87-.54-1.08-2.72-1-3.33,1.64-5.16,2.46l-1.94-2.5c-1,.7-2,1.35-2.92,2.14s-2.24,1.82-3,.17-1.75-1.63-3.12-1.66a76.31,76.31,0,0,1-9.57-.49c-2.5-.38-3,0-2.76,2.54.46,4.17.76,8.36,1,12.54.29,4.42.49,8.85.74,13.45h6.25c.43-1.9.79-3.56,1.21-5.43-1.62-.71-2-2.4-1.47-4.48.32-1.31.49-2.51-1.23-3.26-.51-.22-.78-1.64-.68-2.44.06-.45,1.08-.9,1.75-1.1.88-.26,1.94-.05,2.73-.44,4.31-2.16,8.54-4.47,12.83-6.66.44-.22,1.44-.13,1.62.17a2,2,0,0,1,.12,1.83c-1.87,1.91-2.43,4.23-3,6.77-1.13,5-.45,9.91-.09,14.86.09,1.35,1,1.93,2.27,2.23,2.52.6,5,1.28,7.66,2,.19-2.16.38-4.3.53-5.94a10.65,10.65,0,0,1-1.11-2.76c-.15-2,0-3.95-.07-5.92-.14-3.34-.9-4.55-3-5.05-.19-2.07-.18-2.05,1.6-3,2.9-1.51,5.83-3,8.66-4.58,1.81-1,3.47-2.35,5.57-3.81.25,1,.8,2.14.54,2.39-2.75,2.61-2.36,5.91-2.27,9.17.12,4.27.24,8.54.29,12.81,0,.7-.51,1.43-.42,2.11.32,2.62.7,5.24,1.27,7.82a3.31,3.31,0,0,0,1.63,1.8,22.57,22.57,0,0,0,3.33,1.27c-.71,3.12-2.24,4-4.66,2.35a114.59,114.59,0,0,0,.13,11.77c.17,1.66,1.71,3.18,2.59,4.78a6.17,6.17,0,0,1,1.08,2.52c0,.34-1.29.95-2.06,1.06A29.38,29.38,0,0,0,217.54,467c-.14.14-.52,0-1.48.13a11.74,11.74,0,0,1,1.39-2.94,11.67,11.67,0,0,0,3.49-9c-.13-3-1.06-6.29,1.35-8.21a22.17,22.17,0,0,1-1-3.72c-.15-1.89.12-3.82-.11-5.69-.14-1.16-.63-3-1.41-3.24a84.27,84.27,0,0,0-9-2.3,20.35,20.35,0,0,0-.39,2.29c-.07,1.46-.07,2.92,0,4.38,0,2,.15,3.92.16,5.88,0,1.46-.11,2.92-.17,4.53a39.48,39.48,0,0,1,1,5.65c.07,1.76.52,2.65,2.41,2.3.15.84.27,1.53.31,1.74l-20,9.78c-.76-1.39.11-2.4,1.21-3.47,1.55-1.51,3.25-3,2.65-5.59a5.74,5.74,0,0,1,.32-1.9,44.17,44.17,0,0,0,.79-5.77c0-2.41-.87-4.95,1.9-6.93l-3.28-1c0-3.56.07-7.26-.06-10.95,0-.86-.63-2.3-1.18-2.41a26.52,26.52,0,0,0-5-.11v9Zm115.38,83.82c-.3-13.63-.59-26.68-.88-39.8a10.82,10.82,0,0,0-7.52,6.8,2.56,2.56,0,0,1-1.68,1.43c-2.07.36-4.2.31-6.26.67-4.09.71-7.78,3.33-12.19,2.62-.4-.06-.84.25-1.27.3a18.16,18.16,0,0,1-2.32.2c-1.55,0-3.11,0-4.64-.15a4.82,4.82,0,0,1-2.21-.72c-1-.68-1.75-1.7-2.75-2.37a4.35,4.35,0,0,1-2-4.23,8.73,8.73,0,0,1,2.63-5.6c3.5-3.8,5.71-5.52,10.68-7.45a2.55,2.55,0,0,0,1-.79c1.4-1.82,2.77-3.67,4.22-5.61a18.14,18.14,0,0,0-2.21-3.37,15.19,15.19,0,0,1-3.85-7.49,11.74,11.74,0,0,1-.12-2.23h-.93c-.11,1.9-.12,3.82-.35,5.72a17.39,17.39,0,0,1-1.07,3.18l-2.42-2.57a3.79,3.79,0,0,0,.76-5,1.6,1.6,0,0,0-1.46-.5c-1.93.7-3.79,1.61-5.71,2.34q-9.1,3.45-18.25,6.82c-5.08,1.88-5.12,1.91-4.79,7.32,2.67.76,1.54,3.64,3,5,1.67-1.05,2.37-1,3.32.31,1.08,1.49.73,3.07-.84,4.44a16.3,16.3,0,0,0-1.59-1.93c-.15-.15-1.08.22-1.07.26a26.77,26.77,0,0,0,.57,2.66c.11.42.52.86.43,1.2-.52,1.89-1.15,3.74-1.87,6a16.57,16.57,0,0,1-1.52-2,14.17,14.17,0,0,1-1.16-2.9c-.14-.52.19-1.14.19-1.71,0-.85-.11-1.69-.17-2.54a23.48,23.48,0,0,0-2.46.79c-.29.13-.44.59-.73,1-1-3.21-.43-4.82,1.58-5.41s2.23-1.3,1.47-3.37c-2.42.69-4.82,1.46-7.27,2.05-1.84.44-2.27,1.29-1.75,3.14,1,3.59,1.74,7.27,2.6,10.91a1.9,1.9,0,0,0,.45.88,21.87,21.87,0,0,1,2.42,2.17c3.15,4,7.35,6.45,12,8.26.37.14,1.19-.39,1.57-.82a28.12,28.12,0,0,0,1.92-2.73c.94,2.1,1.66,3.69,2.43,5.43l1.32-1.05c1.61-1.29,2.48-1.09,3.26.81.22.53.37,1.1.54,1.65.41,1.29,1.14,2,2.11,1.68.84-1,1.41-2.17,1.95-2.15,1.53,0,.82,1.25.78,2.13,0,.26.48.68.82.78,1.1.31,2.22.51,3.33.75l1.33-5h3.31c.6-1.89,1.13-3.58,1.66-5.27l.95-.07,2.26,4.35c2.13-.76,3.55-.46,4.05,1,.64,1.84-.06,4.15-1.2,4.6-.31-.78-.62-1.55-.92-2.32a16.39,16.39,0,0,0-2.08,1.6,18.6,18.6,0,0,0-1.59,2.15c1.65,2.23,6.21,0,6,4.74L287,508.5C295.15,510.59,302.33,514.57,309.52,519.38ZM275.13,250.46c1.62,3.86,3.31,7.6,4.78,11.44q2.76,7.23,5.16,14.59c.37,1.14.72,1.38,1.77,1.18,2.28-.45,4.55-1,6.85-1.22,6-.68,12.09-1.53,18.15-1.73,4.31-.14,8.64.75,13,1a3.67,3.67,0,0,0,2.55-1.33,7.53,7.53,0,0,0,1-2.84c.87-3.28,1.5-6.63,2.6-9.83,1.58-4.58,3.49-9,5.3-13.65-12.1,2-22.64-.29-31.13-9.88C297.33,247.2,287.48,251.51,275.13,250.46Zm31.5,82.4c-.16.24-.33.47-.5.7a7.87,7.87,0,0,0,1.55,1.25,45.23,45.23,0,0,0,5.56,2.36c3.72,1.17,4.53,4.69,6.37,7.45-3.42-3.06-6.37-6.76-11.51-7,1.56,1.94,3.06,3.94,4.7,5.8a2.44,2.44,0,0,1,.39,3.3,40.75,40.75,0,0,0-3,4.95,6.73,6.73,0,0,1-4.48,3.79c-2.32.66-4.76.93-7.29,1.4l2,3.56-.8.69-3.11-3.94-.38.28c.43,1.65.85,3.3,1.28,5l-.3.07-3.78-6.08c-1,2.25,3.51,9.34,5.09,9.26.18-.5.34-1,.36-1,2.16,1,4.11,2.12,6.15,3s3.91,2.83,6.87,1.81c-.92-1.11-1.68-2-2.45-2.94l.19-.2,3.63,2,.18-.3-6.51-6.92.46-.44c3,2.21,5.3,5.43,9.66,6.54a10,10,0,0,1-1-1.11,9.53,9.53,0,0,1-.56-1.16c.39-.05.86-.26,1.17-.12,4.46,2.07,8.76.73,13.29-.6l-2.59-5.13.4-.29,4,4.47.53-.36-4.4-7.53.71-.47,5.22,6.77.55-.36-7.89-12.38c4.24,3.55,7.41,8,10.42,12.53a38.54,38.54,0,0,0-12.16-16.52c6.67,3.08,10.45,9,14.69,14.66q-1.08-2.34-2.17-4.68l.37-.28,4.42,6c.16-.13.32-.26.49-.38a17,17,0,0,0-1.49-2.84c-5.36-6.75-12.06-12.13-19-17C317.35,337.09,311.77,335.3,306.63,332.86Zm-16.2,199.92c-1.48-2.25-2.49-4.09-3.8-5.68-1.6-1.94-2.67-4.84-5.82-4.64a54.27,54.27,0,0,0-9.08,1.29,4,4,0,0,1-4.77-1.88c-3.83-6.31-5.51-5.88-10.82-4.56-4.8,1.2-7.27.06-9.5-3.62a2.09,2.09,0,0,0-.32-.55c-2.16-1.9-4.18-4-7.46-3.8-2.69.15-5.4,0-8.1,0-1.63,0-2.19-.7-2.45-2.33-.55-3.54-.66-7.41-3.22-10.17a46.94,46.94,0,0,0-8.34-7.13c-2.06-1.37-2.43-2.48-1.58-4.68s2.59-4.46,1.47-7.17a22.69,22.69,0,0,1-2.28-.51c-1.92-.65-3.25.25-2.91,2.25.6,3.47,1.28,6.93,2.16,10.33a33.35,33.35,0,0,0,7.75,13.68,46.17,46.17,0,0,0,14.92,10.91A125.57,125.57,0,0,0,260.07,523c9,2.19,17.94,4.37,26.35,8.36C287.54,531.85,288.76,532.18,290.43,532.78ZM263.7,281c1.3,2.38,2.32,4.62,3.67,6.63,2.37,3.52,4.95,6.89,7.43,10.34,1.76,2.43,1.93,2.49,4.47.91a5.42,5.42,0,0,0,1.21-1.18c1.46-1.83,2.73-1.73,4,.29.61,1,1.32,1.9,2,2.87,2,3.12,4.29,6.14,4,10.22a2.59,2.59,0,0,0,1,2,22.7,22.7,0,0,1,9.5,12c.56,1.68,1.1,3.25,2.95,4,1.51.65,2.08.46,2.15-1.3.18-4.58.37-9.1-4.2-12-.05,0-.07-.13-.12-.18-4.29-5.75-8.61-11.49-12.88-17.26s-8.72-11.81-13-17.79a3.52,3.52,0,0,0-4-1.67C269.1,279.49,266.4,280.25,263.7,281Zm84.62-8c0-.25.09-.5.13-.76,2.77.61,5.55,1.16,8.29,1.83,3.29.8,6.58,1.62,9.82,2.59,4.84,1.45,9.63,3,14.45,4.56.6.19,1.43.63,1.79.39,1.95-1.27,3.78-2.71,6.08-4.41-4.37-.72-7.56.55-10.73,2.58-.76-1.84-1.35-3.39-2-4.89-1.56-3.43-3.29-5.84-7.21-5.16a15.91,15.91,0,0,0-4.67,1.58,47.36,47.36,0,0,0-4.71,3.24c-1.71-2.61-3-5.24-4.91-7.32-1.71-1.88-4-3.63-6.87-2.92-2.69.66-5.22,1.75-6.39,4.65a6.36,6.36,0,0,1-1.16,1.49l-5.37-6.21-.76.32a23.62,23.62,0,0,1-.88,3.69c-.66,1.66.28,1.87,1.49,2,2.64.39,5.28.78,7.92,1.19.78.13,1.56.32,2.34.49,0,.19-.07.38-.1.57-1.76-.2-3.52-.48-5.3-.59-2.18-.14-4.37-.17-6.55-.14-.35,0-.7.52-1.05.8.35.27.68.71,1.06.76,1,.14,2.05,0,3.05.16,6,1,12,1.82,17.93,3.16,7.75,1.76,15.41,3.89,23.07,6,1.6.45,3,1.39,2.57,3.76a29.69,29.69,0,0,0-.67,8.83c.47,3.82,1,8.1,3,11.16,2.38,3.6,6.37,6.17,9.78,9.06.48.4,1.6.05,2.42.05a3.86,3.86,0,0,0-1.94-1.68c-4.52-1.67-7.42-5.29-9.3-9.26a33.88,33.88,0,0,1-2.66-11.52c-.2-2.52.95-5.17,1.61-7.74.28-1.11.76-2.26-.67-2.76-4.71-1.66-9.4-3.4-14.19-4.77C360.81,276,354.55,274.54,348.32,272.94ZM306,316c0-4.06-.07-7.47,0-10.87.08-2.84-.14-5.52-2.16-7.76-1.43-1.6-2.9-3.18-4.16-4.91-2.39-3.26-4.61-6.64-6.95-9.92-1.68-2.34-3.44-2.84-6.1-1.87-1.61.6-2.91.71-3.44-1.45a2.35,2.35,0,0,0-1.55-1.44,31.1,31.1,0,0,0-4.51-.06C286.39,290.92,294.75,304.09,306,316Zm-4,56.39c-2.14-1.87-4.06-.45-5.78-.66,0-.22-.09-.45-.14-.67l5.71-1.74c-2.79-1.69-5.35-.13-8.2,0l3.07-2.3c-.06-.22-.11-.45-.17-.67l-5.21,1.05,2.63-2.92c-1.4-.29-2.49-.46-3.55-.75s-2.39-1.22-3.44-1c-1.67.31-3.22,1.31-5.09,2.14.21-.77.35-1.29.5-1.88-4.44.57-7.85,2.84-11.15,5.31-.26.2,0,1,0,1.44l-2.92,1.13.18.44,2.81.57-4.46,1.67-.24.5c3.21.59,2.64,2.88,2.54,5.05a10.53,10.53,0,0,0,1.13-2.21c.67-1.36,1.64-2.55,3.31-2.19s1.2,1.74,1.05,3a16.35,16.35,0,0,0,.23,3.11c4.64-4.63,4.64-4.63,5.88-4.1.06,1.08.12,2.19.21,3.79a14.38,14.38,0,0,1,2.13-2c.63-.37,1.7-.84,2.1-.56,1.32.9,2.37.57,3.66,0,2.24-.95,4.6-1.62,6.86-2.55C297.67,374.51,299.63,373.5,302,372.38ZM353,522.93a7.92,7.92,0,0,1-1.79-.65c-3-2.29-6.3-2.56-9.82-2a2.46,2.46,0,0,0-1.52.7,73.64,73.64,0,0,0-5.25,7.74c-1,1.79-1.65,2.5-3.81,1.68-3.6-1.36-7.16-1.28-9.9,2a22.94,22.94,0,0,0-2.44,3.31c-2.33,4.19-4.56,8.44-6.67,12.38-1.82-3-3.93-6.16-5.82-9.49-2.76-4.85-9.45-9.41-15-5.52,8.58,5.2,15.94,11.62,20.64,21.21.78-1.93,1.1-3.66,2.06-4.91,2.89-3.74,5.68-7.68,9.16-10.83,5-4.52,11.08-7.65,17.31-10.3C344.2,526.52,348.35,524.84,353,522.93Zm8.94-263.44a49.09,49.09,0,0,0,3.94,4.65c1.61,1.5,3.3,3.27,5.28,3.9a9.47,9.47,0,0,0,8.81-1.49c1.81-1.38,2.63-.42,3.23,1.11,1.28,3.21,3.64,5.53,6.22,7.66a1.62,1.62,0,0,0,1.48.11c2.65-1.72,5.23-3.54,8-5.44a60.27,60.27,0,0,0-6.42-3.05c-6.06-2.09-12.14-4.17-18.31-5.88-2.39-.67-5.06-2.2-7.65-.09-.14.12-1-.52-1.42-.92s-.69-1.34-1.15-1.45c-6.06-1.37-12.1-2.87-18.23-3.83-3-.46-6.81-2.88-8.72,2,0,0,0,.11.08.35.91-.44,1.81-.84,2.67-1.31,1.81-1,3.18-.6,4.18,1.2a5.63,5.63,0,0,0,.92,1.47c1.59,1.44,2.2,4,4.86,4.25A17.26,17.26,0,0,0,361.89,259.49ZM393.72,283c-2.41,1.59-3.84,3.38-2.52,6.12,1.1,2.27,2.72,3.76,5,4-.33-3.22-.1-6.49-1.09-9.33-1.19-3.38,1.43-5.82,1.15-9.18-1.78,1.08-3.37,2.16-5.06,3-5.25,2.71-8.32,7-8.71,12.84-.33,4.85.25,9.77,2.77,14a24.29,24.29,0,0,0,6.11,7.13c4.78,3.51,6.13,3.19,10.52-.06,3.38-2.5,7-4.65,10.93-7.22a24.81,24.81,0,0,1-2.67-.89,68.42,68.42,0,0,1-7.58-3.88c-1.35-.87-2.34-2.15-4.47-1.05l1.11-2.31-1.62-1.36c-1.62,2-1.82,3-.85,5.32,1.39,3.32,4.35,2.68,7,2.38a4.76,4.76,0,0,1-2.23,5.67,7.21,7.21,0,0,1-7.29-.18c-2.41-1.3-4.26-3.15-4.67-5.75l-4.44,1a25.28,25.28,0,0,0,1.21-3.94c.14-1.28.37-2.86-.21-3.86a9.5,9.5,0,0,1-1.13-6.6C385.51,285.05,389.61,281.31,393.72,283ZM239,288.33a4.89,4.89,0,0,0,.39,1c2.21,3,4.45,6.06,6.63,9.12,3.07,4.29,6.16,8.57,9.11,12.94,1.3,1.93,2.81,1.62,4.53,1s3.35-1.27,5-1.86c1.16-.4,1.88-.82.87-2.14-1.3-1.7-2.46-3.51-3.73-5.23-4.18-5.65-8.36-11.3-12.62-16.88a2.63,2.63,0,0,0-2.21-.91C244.32,286.17,241.71,287.29,239,288.33Zm11.69-4.44c2.51,3.66,4.53,6.74,6.69,9.71,3.09,4.27,6.24,8.51,9.47,12.68,2.19,2.82,4.48,2.66,6.56-.32a17.11,17.11,0,0,0,1.09-1.84c1.32-2.62-.73-4.24-1.93-6-2.26-3.32-4.75-6.47-7.09-9.74-1.19-1.68-2.18-3.49-3.38-5.16-.43-.6-1.27-1.43-1.8-1.34C257.26,282.38,254.25,283.11,250.69,283.89ZM392.84,506.68c-1.89,0-3.56,0-5.23,0-5.89.13-10.57,2.57-13.48,7.73-1.15,2-2.38,2.61-4.38,1.68-3.76-1.77-7.38-1.77-10.69.95-1.72,1.41-3.28,3-4.91,4.55l.47.72a13.67,13.67,0,0,0,1.94-.44c1.66-.62,3.28-1.37,4.95-2,1.5-.54,3.49-.34,3.39-3.08,2,1,3.8,1.49,5.84.75,2.57-.93,5.36-1.25,7.91-2.2a51.12,51.12,0,0,0,17.16-10.89,32.44,32.44,0,0,0,9.75-16.57c.38-1.66.91-3.28,1.39-5L397.71,481l-.09.37,7.69,2.55c-2.72,3.22-5.65,6.51-8.38,10C394.05,497.51,393.75,502.07,392.84,506.68Zm-59.31-.18c-3.8-5.07-7.36-9.88-11-14.63s-6-10.26-10.91-14c.34,6.11-2.33,12.82,4,17.53.1.07.1.27.18.38,2.89,4.13,5.83,8.22,8.63,12.41a2.37,2.37,0,0,0,3.28,1C329.49,508.44,331.23,507.57,333.53,506.5Zm10.24-3,.42-.84c-3-3.73-6.08-7.42-9-11.22-.87-1.12-1.6-1.75-3.06-1.24a1.68,1.68,0,0,1-1.54-.42c-.95-1.9-2.63-1.43-4.17-1.45-3.08-.05-4.74-2.32-3.65-5.19a8.73,8.73,0,0,1,1.84-3.17c1-1,.69-1.66.2-2.64a9.15,9.15,0,0,0-6.13-4.73l-4.2,3.42c2.39,3.72,4.66,7.39,7,11,1.4,2.09,3,4.05,4.51,6.05,2.43,3.2,4.81,6.44,7.35,9.56,1,1.18,2.35,2.95,3.47,2.9C339.19,505.34,341.47,504.2,343.77,503.47Zm57.44-189.85c-2.06,1.22-3.63,2.55-5.44,3.11-2.16.68-2.85,2.15-3.57,4a79,79,0,0,0-4.55,19.34c-.17,1.35-.71,3.07,1.28,3.88.14.05,0,1.17-.23,1.72s-1,1-1.05,1.6a40.35,40.35,0,0,0,0,5,4,4,0,0,0,.55,1.27l.42-.14c.44-2.29.87-4.57,1.31-6.85a6.17,6.17,0,0,1,1.19,2.7c.31,1.49,0,3.79.88,4.33,1.21.74,3.22.18,4.87.18-.07-3.68-3-5.93-4.86-8.82.38-.45.69-.83,1-1.22a68.14,68.14,0,0,0,5.16-6.53,7.41,7.41,0,0,0,1.25-4.87,29.34,29.34,0,0,0-3-7.32c-.74-1.41-.7-2.17.47-3.35C398.91,319.59,400.88,317.33,401.21,313.62ZM405,355.23c.12-2.41,2.16-5-2-6.29,1-.85,2.23-1.37,2.42-2.15a79.92,79.92,0,0,0,1.36-8.19c.47-3.43.7-6.9,1.29-10.31.75-4.41,1.7-8.79,2.68-13.15.57-2.55,1.34-5,2.15-8-2.48,1.51-4.5,2.91-6.66,4-2.72,1.39-3.44,2.48-2.47,5.5s2.29,6,3.5,9.15c-3,1.61-4.92,4.78-6.07,8.21-1.26,3.77.47,7.29,2.42,10.44.71,1.15.41,1.5-.2,2.32-1.42,1.91-2.72,3.89-4,5.89-.87,1.35-.18,2,1.19,2.2S403.35,355.08,405,355.23Zm-162.28-4.08c-1.51-2-4.29-3.11-3.18-6.2a.53.53,0,0,0-.07-.43c-1.19-1.19-1.11-2.65-1.09-4.18,0-1.12-.71-2.26-.61-3.35.37-4.49-1.29-8.07-4.4-11.18a23.6,23.6,0,0,1-2.54-3.45c-.88-1.31-1.71-2.65-2.58-4-2.24,1.73-2.31,1.74-1.94,3.79.44,2.41,1,4.79,1.54,7.19.26,1.27.87,2.64.61,3.81-.21,1-1.44,1.78-2,2.48.93.38,2.31.51,2.88,1.26,2.57,3.35,4.81,7,7.36,10.33,2.88,3.8,6,7.45,9,11.17l.67-.53a27.88,27.88,0,0,0-3-3.65C242.17,353.21,241.36,352.42,242.71,351.15Zm-.12,22.35c1.57-2.75,3-5.09,4.21-7.58a3.41,3.41,0,0,0-.54-2.68,42.58,42.58,0,0,0-2.85-3.49q-6.36-8.17-12.68-16.37a80,80,0,0,0,.92,9.41c.28,2.12-.1,4.5.73,6.35,1.19,2.63,3.18,4.92,4.9,7.3S240.72,371,242.59,373.5Zm161.72,95.58a10,10,0,0,1,2.33-.94c1.44-.12,1.95-.86,1.78-2.17-.33-2.57-.67-5.15-1.06-7.72-.58-3.87-1.22-7.74-1.82-11.61-.39-2.53-.76-5.06-1.15-7.6l-.73-.27c-1.25,2.34-2.6,4.63-3.7,7-.52,1.14-1.15,2.79-.71,3.72,1.5,3.14,2,7,5.64,8.85.36.19.41,1,.54,1.34L398,459l-.12.76,8.37,1.19c-.91,1.6-1.45,2.7-2.13,3.7-3.31,4.91-2.72,12.67,1.35,16.82a1.45,1.45,0,0,0,1.11.43,1.32,1.32,0,0,0,.65-1c.32-2.36.62-4.73.84-7.1.17-1.82.35-3.75-2.43-3.74C405.33,470.09,405.06,469.69,404.31,469.08ZM201.6,307.68c.66.44.94.65,1.24.81,4.08,2.15,8.23,4.17,12.21,6.49,2.54,1.48,4.77,1.07,7.08-.21a8.17,8.17,0,0,0,1.94-1.39,18.39,18.39,0,0,0,4.51-6.36c-4.51-.91-4.51-.9-7.14,2.13A12.53,12.53,0,0,1,219.6,311a6.25,6.25,0,0,1-6.42.82c-1.88-.8-3-2.49-3.69-4.8,3.78.11,6.41-1.21,7.33-4.88.53-2.06-.61-3.4-2.1-4.87C211.68,302.35,207.6,306,201.6,307.68ZM382.17,436.21c-2.63-3.76-5.39-7.55-8-11.45-1.92-2.9-3.13-3.47-7.61-1.78.45,1.26,1.37,2.57,1.25,3.77a7.67,7.67,0,0,0,1.67,5.79c2,2.56,4.09,5,5.94,7.69,1,1.44,1.82,1.18,2.78.2C379.49,439.14,380.68,437.81,382.17,436.21ZM238.06,291.34l-.59.31c-.12,2.37.11,4.83-.43,7.1-.78,3.24-.94,5.95,1.39,8.85a5.4,5.4,0,0,0,4.38,2.25,29.78,29.78,0,0,1,5.73,1.41c1.4.42,2.74,1,4.11,1.55l.42-.62ZM350.47,488.59c2.67,3.39,5.26,6.77,8,10a2.78,2.78,0,0,0,2.24.87c2.55-.55,5.05-1.31,7.54-2.09,1.21-.38,1.36-1.11.45-2.12-1.56-1.71-2.94-3.6-4.56-5.25-1.34-1.36-2.75-3.13-4.43-3.56C356.53,485.65,353.42,486.72,350.47,488.59Zm-12.19,1.46c-.16.66-.22.75-.19.79,3.24,4.69,6.49,9.39,9.8,14,.06.09,1.37-.41,1.37-.64,0-2.13,1.53-2.31,3.07-2.64s2.93-.83,4.69-1.34c-2.39-3.08-4.42-5.81-6.58-8.42-1.8-2.19-2.79-2.27-5.48-1a3.54,3.54,0,0,1-2,.36C341.39,490.91,339.83,490.44,338.28,490.05Zm-14.55,21.12c-3.87-5.62-7.21-11.34-12.31-16.47,0,4.3,0,8,0,11.7a5.51,5.51,0,0,0,.67,2.87c1.52,2.2,3.27,4.24,5,6.48Zm56.55-20.06c-2.68-3.17-4.89-5.83-7.15-8.44-1.15-1.31-2.45-2-4.14-.72-1.44,1.06-3,1.93-4.43,3a1.51,1.51,0,0,0-.13,1.48c1.88,2.73,3.78,5.46,5.87,8a3,3,0,0,0,2.61.9C375.42,494.16,377.76,492.6,380.28,491.11ZM293.26,279c3.83,5.75,7,10.89,11.93,15.38,0-4,0-7.41,0-10.82a8.51,8.51,0,0,0-.35-1.93,4.05,4.05,0,0,0-4.95-3,17.48,17.48,0,0,1-2.18.15Zm-53.94,101.3c.38-.94.7-1.82,1.08-2.66.67-1.49,1.1-2.81-.17-4.35-2.2-2.68-4.15-5.56-6.27-8.31a10.23,10.23,0,0,0-2-1.49V377Zm134.73,100,7.44,8.6.88-.08,4.19-11a66,66,0,0,1-7.81-.07C376.53,477.54,375.17,478.33,374.05,480.36Zm30-42.95c0-4,.06-7.8,0-11.63,0-1.5-2.79-4.13-4.19-3.78a4,4,0,0,0-2.25,2.43C396.26,428.52,399.89,435.62,404.05,437.41Zm16.64,11.26c2.3-1,4.36-1.61,6-2.76a37.59,37.59,0,0,0,4.62-4.41A60,60,0,0,0,423,445c-1.41.66-3.47,2-4.24.4-.91-1.91-2.33-1-3.62-2,0,1-.32,2-.06,2.15,1.64,1.06,3.41,1.95,5.23,2.94-1.36,2.26-3-.07-4.65-.36a5.28,5.28,0,0,0,5.65,3.48c4.15-.36,5.63-.41,7.72-4.93C426.41,447.52,424.52,450.4,420.69,448.67ZM234.93,307.32c-1.6,2.72-3.13,5.18-4.5,7.73a2.72,2.72,0,0,0-.12,2.24c1.54,2.42,3.28,4.73,5.06,7.24,0-.66.13-1.21.13-1.75-.06-3.47-.2-6.95-.17-10.42a13.56,13.56,0,0,1,.74-3.05h.62C236.19,308.74,235.68,308.17,234.93,307.32ZM375,421.89l6.8,10.25V421.3Zm41.33,7.28.4.5,4.49-.92c0,.18,0,.35,0,.53l-4.94,4.25c.15.22.3.43.44.65,2.67-2.06,5.33-1.39,8.2.13-.27-1.09-.52-1.84-.64-2.61a8.64,8.64,0,0,0-6.46-6.78c-1.47-.28-2.44.2-2.55,1.71l4.62-.29c0,.19.07.38.1.58Zm-46.61,7.55c-.8,2.74.84,4.66,1.37,6.8s.85,4.16,1.26,6.25C375.48,442.77,377.57,445.66,369.76,436.72Zm-181.27-4.61c-3,1.23-4.54,4.93-4,8.42.18,1,.42,1.76,1.73,1.69s2.18-.5,2.21-1.85C188.54,437.71,188.49,435,188.49,432.11ZM298.11,325.17c-1.28,2.77-1.05,5.32,1.36,7.57,2,1.87,3.85,3.89,5.77,5.84l.52-.47Zm58-60.93,10.29,3.39q-.11.38-.21.78l-9.12-2.35c2.34,3.31,8.25,4.29,10.68,2C365.6,265.29,358.77,263.08,356.09,264.24ZM264.2,386.32c.68-1.93,1.42-3.69,1.91-5.52s.72-3.62,1.12-5.73C263.85,376.12,262.29,383.18,264.2,386.32Zm157.35,57.3c2.77-2.28,3.72-4.62,2.69-7-.36-.82-1.51-1.3-2.69-2.25Zm-201.77-47.1c1.7-3.13,5.52-3.92,5.88-7.68C222.36,389.46,219.37,393.11,219.78,396.52ZM296.9,322.3a7.09,7.09,0,0,0-.93-1.48,15.54,15.54,0,0,0-1.85-1.27c-.4.65-1.17,1.31-1.14,1.94.09,1.94.49,3.87.77,5.8l.64-.09C293.7,324,294.53,322.21,296.9,322.3ZM278.59,487.71l.68.39,3.38-5.38C279.53,481.61,278.19,483.5,278.59,487.71ZM256.72,267.12a6.77,6.77,0,0,0-8.61,2.44Zm15.52,221.94,4.26-7C273.69,481.71,271.69,485,272.24,489.06Zm73.55-226.62c-2.34-3-7.19-4-9.09-2.23ZM232.37,389.36c-2.87-.21-5,3.86-4,6.86Zm-21.84-60.87c2.56-.37,5.39.58,7.51-1.72C215.7,328.27,212.47,325.06,210.53,328.49ZM385.36,274.1c-1.62-2.69-6.52-5-8.77-4.06Zm2.24,26.48c2.62.27,6.55-3.16,7.19-5.93Zm-110.3-36.1c.37-1.87-.85-1.73-1.77-1.45-1.95.59-3.85,1.38-5.8,2.1C272.58,267.08,274.76,264.45,277.3,264.48Zm-3.56,112-.64-.34c-2.32.78-3.41,3.54-2.67,7C271.57,380.86,272.66,378.68,273.74,376.49Zm156,58.44c-1.53,2.31-2.8,4.24-4.08,6.16l.54.35C428.85,440.24,430.53,437.54,429.78,434.93ZM344.53,264.15c.05-.28.11-.57.17-.86l-8.84-1.39c0,.24-.08.48-.11.72C338.71,262.91,341.4,264.79,344.53,264.15ZM277.71,505.88a14.28,14.28,0,0,0-.69-2.75c-.19-.39-1.15-.87-1.31-.75a26.43,26.43,0,0,0-2.42,2.49Zm119.92-44c2.19,1.64,5.41,1.37,6.23,0Zm-84,72.52-1.11,0v8.16l.64,0Q313.39,538.49,313.62,534.4Zm-42-12.27.7.08c.37-1.37.8-2.72,1.09-4.1.63-2.9.6-2.9-.45-3.82C272.5,517,272.06,519.55,271.62,522.13Zm21.94.15c-.87,1.91-1.78,3.69-2.48,5.54-.21.55.18,1.32.39,2.52l2.94-6.83Zm35.32-.57c-1.26,3.12-.5,5.37,2.15,5.95Zm-73.4-251.43c-.1-.35-.21-.69-.31-1l-7.76,2.12c.08.29.17.58.25.87Zm14.54-8.1.24.54,6.08-1.56c0-.13,0-.27.07-.4l-3.12-.84Zm61.42,223.54,1,.48c.79-1.3,1.64-2.58,2.35-3.93.16-.32-.12-.88-.19-1.33-.43.17-1.08.22-1.24.53C332.65,482.84,332.07,484.29,331.44,485.72Zm20.62,27c.64,2.34,1.27,4.67,1.92,7.09C355.26,518.5,354.37,514.12,352.06,512.71Zm-116.88-12-5,7.41C231.8,508,235.49,503,235.18,500.72ZM398.6,323l6,.75C403.85,321.58,401.09,321.13,398.6,323ZM221.37,348.63c-1.69-1.51-5.83-1.29-6.85.36ZM330.42,519.92l-.71.34q1.77,4.26,3.53,8.51C333.45,525.38,331.33,522.88,330.42,519.92Zm47.8-247.56c-.09.28-.17.55-.25.82,2.1.9,3.87,2.84,6.68,1.66Zm23.21,167.88c0-.2,0-.4,0-.6H395c0,.2,0,.4,0,.6ZM226.56,302.82c-.45-2.08-3.62-4.22-6.73-4.45Zm189.51,136.6c-.48,1.91.24,2.59,3.31,3.05v-2.12Zm-29.3,58.35c-.52,1.69,2.22,6,4.55,7.18Zm-.36-24.55c-.09-.26-.17-.53-.26-.8l-7.33,2.2.27.88ZM228.68,277.12c2.59.18,7.51-1.81,8.4-3.16-1.36.43-2.74.81-4.07,1.31S230.4,276.38,228.68,277.12ZM314.9,517.58l-2.5-3.18v4.83Zm-61.56-7.35c-.88,2.47-1.54,4.36-2.23,6.33C253.12,516.28,254.44,513,253.34,510.23Zm57.4,24.45-.94.11q.4,3.35.82,6.71l.7-.08C310.82,539.21,311.85,536.82,310.74,534.68Zm40.37-21.41-.64.09c-.6,2.06.4,3.91.82,5.84l.74-.11Q351.57,516.18,351.11,513.27Zm14.26-80.07c-1.15-3.29-2.4-6.47-5.16-8.69Zm4.73,74.16c-.57,2.54,1.43,7.26,2.93,7.21C372.08,512.24,371.14,509.93,370.1,507.36Zm-151.16-23,6.08-1.22C222.69,481.87,220.84,482.27,218.94,484.34Zm7.73-178.92c-3.08-3.5-5.7-5-7.44-4.26Zm170.27,37.65c-.05.31-.1.62-.16.93l5.47.79c0-.3.09-.6.13-.9C400.8,342.25,398.79,343.16,396.94,343.07Zm-.73,2.7c5,2,5,2,6,0Zm-.47,137c0,.15,0,.3,0,.46,1.7.7,3.39,1.45,5.13,2.07.28.1.76-.34,1.15-.54-.26-.28-.47-.72-.79-.82-1.35-.45-2.73-.82-4.12-1.15A5.51,5.51,0,0,0,395.74,482.81ZM217,372c.9,1.14,3.46,1.33,5.65,0ZM388.3,496.5l-.64.56,4.71,6.58.6-.45ZM271.78,514.81c-2.35,2.34-3,5.28-2,7.07C270.45,519.55,271.12,517.18,271.78,514.81Zm8.07-136.95c-.07-.21-.14-.42-.22-.63-.58.35-1.37.56-1.69,1.07-.64,1-1.89,2.1-.45,3.64C278.32,380.5,279.08,379.18,279.85,377.86Zm-67.59-69c-.08.27-.16.54-.25.82,1.36,1.12,2.79,2,4.86.69ZM404.9,325.52c0-.18,0-.37,0-.56h-5.69c0,.19,0,.38,0,.56ZM224.44,485.77l-.32-1.1-6.13,2.5c.07.21.15.43.23.64Zm47.43-5.53c-1.13.28-2.05.26-2.22.61a31,31,0,0,0-1.43,3.85l.7.25Zm-37.5,19.82c-2.13,0-3.27,1.4-3.9,4.56Zm130.41-71.87.76-.47c-1.58-1,0-3.86-3.33-4.43Zm26-126.5c3.68.13,4.12-.31,3.12-2.9Zm-121.46,84-2.14-2.22c-.52,1-1,1.95-1.8,3.35ZM224,305.16l-4.78-2-.24.62C220,305.17,221.27,306.22,224,305.16Zm168.89-.5.77.68c.85-.68,1.75-1.31,2.53-2.06.16-.15,0-.83-.2-1.1a1,1,0,0,0-1-.11C394.23,302.89,393.56,303.79,392.85,304.66ZM252.12,509.85c-2.72.93-3.24,2.09-1.92,4.35C250.86,512.7,251.44,511.38,252.12,509.85ZM395,306.19l.22.54,4.48-1.86-1.87-1.21ZM292.14,522.66c-2.12,0-3.2,1.88-2.55,4.13C290.45,525.41,291.21,524.17,292.14,522.66Zm42.37,2.44c1.66-1.36-.07-2.38-.59-3.51-.11-.24-.66-.28-1-.41,0,.38-.27.84-.12,1.12C333.3,523.28,333.94,524.2,334.51,525.1Zm-8.36-41.79.63.43c.53-1.31,3.23-1.34,1.78-4.4Zm33.44-220.2,5,1.4-2.5-3ZM398.41,457c0,.21-.05.43-.08.65l4.22.57C401.2,455.9,399.74,456.89,398.41,457ZM219.63,350.11l-5.93.6C214.79,351.71,218.41,351.51,219.63,350.11Zm169.62-54,.34.66,4-2.14C391.31,293.47,390.41,295,389.25,296.07ZM227.9,292.25c-1-1.61-1.53-3.81-3.77-4l-.45.53Zm-7.34,16.12c.14-.48.36-.88.27-1a20.43,20.43,0,0,0-2.1-1.85c-.11-.08-.54.28-.82.43.49.6.94,1.24,1.47,1.8A5.27,5.27,0,0,0,220.56,308.37Zm73,222,.73.2q.66-2.48,1.33-5l-.72-.19C294.41,527.08,294,528.73,293.52,530.37Zm101.4-92.85c0,.26,0,.53.05.8l6.21-.63c0-.25-.05-.51-.08-.76ZM216,307.62l-.39.95c1.1.48,2.2,1,3.32,1.4.1,0,.44-.59.68-1Zm2.73,45.26-.47-.57-3,.34c.72.72,1.26,1.57,1.56,1.49A6.74,6.74,0,0,0,218.71,352.88ZM373.87,512.22l.89-.43c-.58-1.29-1.16-2.59-1.73-3.88l-.77.34C372.79,509.58,373.33,510.9,373.87,512.22Zm-99.14,9.15.5,0c.1-1.52.21-3,.32-4.56l-.82-.05ZM387.87,293.08l.66,1.11,2.58-1.73c-.2-.27-.51-.81-.56-.78C389.63,292.11,388.75,292.6,387.87,293.08ZM220.12,488.39c.07.23.13.47.2.7,1.61.48,2.79-.54,4.05-1.3l-.17-.58Zm-1.05-114-.51.47c.35.44.74,1.29,1,1.26a5.66,5.66,0,0,0,1.8-.94l-.28-.64Zm14.77,133c2.16-.07,3.17-1.49,2.42-3.35Zm134.69,6.07.92-.19c-.29-1.17-.57-2.35-.85-3.52l-.75.16C368.08,511,368.3,512.23,368.53,513.41Zm-13.41.56c.3,1.11.59,2.23.92,3.44C357.5,516.11,357.34,515.05,355.12,514Zm-6.28,1.74-.84-.09a21,21,0,0,0-.1,2.74c0,.16.84.25,1.48.42C349.16,517.5,349,516.6,348.84,515.71ZM397,441.46l-.24.64a5.35,5.35,0,0,0,1.88.83c.46,0,.92-.69,1.87-1.47Zm22.25-6c-.85,1-1.31,1.55-1.78,2.09l2.4,1.62C419.65,437.8,419.52,437,419.26,435.49ZM216.91,325.3a3.91,3.91,0,0,0-4.09-.78c0,.26,0,.52,0,.78ZM326.59,474.49l-.32.56c1.06.55,1.3,3.05,3.62,1.06Zm66,25.62a2.47,2.47,0,0,0-2.72-3.06Zm-77.42,37.13c1.66-2.09,1.65-2.26,0-3.36Zm47.73-266.6-.22-.51-2.49-.31c.14.83.54,1.56,1,1.61S362.35,270.93,362.92,270.64ZM216.8,329.83c-.09-.28-.19-.57-.28-.86L213,330c.1.33.21.66.32,1ZM399.65,479.12c-.06.2-.12.4-.19.6l3.63,1.06C402.41,478.25,400.78,479.44,399.65,479.12Z" transform="translate(-177.06 -234)"/><path class="cls-1" d="M332.4,429.68a42.49,42.49,0,0,1-1.49,4.05,16.55,16.55,0,0,1-1.84,2.54l-.9-.42a40.89,40.89,0,0,1,1.15-6c.85-2.44,2.17-4.71,3.19-7.09a6.55,6.55,0,0,0,.6-2.7c-.23-7.7-.56-15.4-.78-23.1a16.16,16.16,0,0,1,.62-3.32c.06-.28.21-.62.11-.84-.71-1.61-1.56-3.16-2.16-4.8a2.46,2.46,0,0,1,.29-2c1.78-2.29,3.66-4.51,5.61-6.65a2.78,2.78,0,0,1,1.94-.64c.23,0,.47,1,.64,1.58a11.66,11.66,0,0,1,.17,1.59c1.12-1,2-1.78,2.82-2.63,1.69-1.83,2.68-1.87,4.55-.19,3.19,2.86,4.42,6.7,5.13,10.68a18,18,0,0,1,0,6.67,21.37,21.37,0,0,1-2.71,6.62c-1.24,2-3.54,1.31-5.42,1-2.95-.47-2.9-.56-3.38,2.46a11.55,11.55,0,0,1-.93,2.3,2.15,2.15,0,0,0-.28,1,45.41,45.41,0,0,0,.95,5.83,7.74,7.74,0,0,0,1.82,2.6,26.37,26.37,0,0,0,2,1.94,9.21,9.21,0,0,1-2.48,1.8,14.63,14.63,0,0,0-8.7,6.42,8.15,8.15,0,0,0-.55,1.4ZM344.8,395c-.45-3-.87-6.41-1.56-9.77-.13-.65-1.31-1.08-2-1.62-.56.83-1.63,1.65-1.62,2.47.05,4.24.37,8.47.58,12.71.05,1-.14,2.06,1.45,2.14,1.43.07,2.39-.2,2.56-1.82C344.33,397.86,344.55,396.65,344.8,395Z" transform="translate(-177.06 -234)"/><path class="cls-1" d="M379.64,384.38l-2.2-1.62a21.91,21.91,0,0,0,1.6-1.89,5.18,5.18,0,0,0,1-2.05c.35-3.38.51-6.78.89-10.15a2.69,2.69,0,0,1,1.29-1.67c2.78-1.64,5.61-3.19,8.47-4.71a4.06,4.06,0,0,1,5.18,1.13c.14.16.22.38.35.55,2.48,3.1,2.48,3.1-1,4.86a7.89,7.89,0,0,1-2.11,1.06,2.32,2.32,0,0,1-1.76-.73,18,18,0,0,1-1.67-2.62l-.82.08c-.21,3-.41,6-.66,9.55l6.14-2.84c-.19,1.53-.4,2.67-.47,3.81-.11,2-1.66,1.36-2.75,1.68-2.55.73-3.83,4.35-2.46,6.75a2.92,2.92,0,0,1,.39,1.21c.27,3.68.7,7.35.68,11a63.15,63.15,0,0,1-1,7.42,30.37,30.37,0,0,0-.3,4.15c.05,2.81-2.09,3.51-4.06,4.39a9.92,9.92,0,0,1-2.39.9c-1.28.21-2.78.63-3.85.17-1.86-.79-2.38-2.74-2.38-4.71a1,1,0,0,1,.53-.78c.22-.06.57.24.84.41l1.8,1.25c.38-.67,1-1.32,1.11-2,.38-3.81.62-7.62.91-11.43.16-2.22.34-4.44.49-6.67,0-.18-.13-.37-.18-.57C380.69,388.28,380.14,386.24,379.64,384.38Z" transform="translate(-177.06 -234)"/><path class="cls-1" d="M399.38,385l-1.69.44c-1-1.71-.53-2.87,1.12-3.73.45-.24,1.07-.74,1.08-1.13a28.4,28.4,0,0,0-.2-5.46c-.5-2.88.72-6.45,3.17-8a62.55,62.55,0,0,1,6.35-3.66,3.1,3.1,0,0,1,2.55.33,12.8,12.8,0,0,1,2.77,2.73c.76.93,1.34,2,2.24,3.39l-4.88,3.63a31,31,0,0,0-1.56-3.84,21.66,21.66,0,0,0-2.2-2.8l-.44.4v11.45c1.78-.53,3.18-1,4.62-1.36,3.86-1,6,.48,7.05,4.35,1.27,4.54-.29,6.58-2.88,10.22-1.18-2.58-2.32-5.1-3.52-7.73a.44.44,0,0,1,.09-.24c.77-1,2.44-1.94,1.25-3.16-.66-.69-2.57-.67-3.71-.3-3.15,1-3.26,1.88-2.93,5.23.24,2.36-.38,4.81-.53,7.22-.05.77.28,1.56.26,2.33-.1,3.83-.17,7.66-.46,11.48a4.46,4.46,0,0,1-1.4,2.76,25.47,25.47,0,0,1-4.91,3.43c-1.62.85-3.92-.77-4.2-2.8a6.12,6.12,0,0,1,.47-3.21l2.68,3c.28-4.73.74-8.83.71-12.92S399.71,389.08,399.38,385Z" transform="translate(-177.06 -234)"/><path class="cls-1" d="M295.67,390l-2.19-2.53-.71,0c-.16,3-.33,5.93-.49,8.85.44.1.59.19.7.15,1.12-.34,2.24-.71,3.36-1.07,0,1,0,1.93.05,2.9,0,.79,0,1.58,0,2.5a7.86,7.86,0,0,1-1.6.24c-1.81-.16-2,.94-2,2.34.11,3,.23,6.07.27,9.1a6.19,6.19,0,0,1-.53,1.57c-.16.54-.52,1.45-.33,1.59,1.51,1.15.61,2.56.56,3.85-.18,3.71-.54,7.4-.58,11.1,0,3.21-2.14,5-4.3,6.67a16.21,16.21,0,0,1-4.46,2.23c-1.8.65-2.36.09-2.35-2.11,3.39-.1,3.23-2.95,3.33-5,.27-5.79.15-11.6.17-17.4,0-1.56,0-3.13-.11-4.69-.08-.76-.72-1.47-.8-2.24a9.71,9.71,0,0,1,.19-3c.25-1.14.94-2.22,1-3.35.25-3.4.28-6.82.42-10.22.13-2.91,2.37-4.37,4.28-6,1.05-.88,2.38-1.43,3.39-2.34,2.5-2.25,4.84-1.64,7.22.23Z" transform="translate(-177.06 -234)"/><path class="cls-1" d="M284,391.88l-3.44,7c-1.31-2.05-2.35-3.67-3.64-5.66v8.82l5.93-2.36a34.14,34.14,0,0,1-1.08,4.69,2.82,2.82,0,0,1-1.74,1.35,3.56,3.56,0,0,0-2.83,3.54,20.76,20.76,0,0,0,.05,5.68c.49,2.27.54,4.23-.79,5.44.46,1.48,1.1,2.54,1.06,3.58-.15,4.19-.39,8.39-.83,12.57s-5,8.19-9.27,8.34a2.23,2.23,0,0,1-2.64-2.21c3.1-.36,4.45-1.68,4.61-5.05.23-5.17.27-10.34.38-15.52.06-3.11.09-6.22.14-9.73l-2.31,1.47c-.35-1.61-.54-2.82.88-4a4.49,4.49,0,0,0,1.23-2.79,28.77,28.77,0,0,0,0-5.25c-.35-5.62,3-9.26,6.81-12.52,1.51-1.3,3.45-.75,5,.34A23.74,23.74,0,0,1,284,391.88Z" transform="translate(-177.06 -234)"/><path class="cls-1" d="M375.76,371.22c-2.29,8.78-1.6,17.14-1.7,25.85l2.62-1c.54,1.69-.09,3.07-2.52,4-5.15,2-5.24,2.75-7.54-.22a48.85,48.85,0,0,1-5.83,2.62c-3.58,1.1-5.7-.53-5.7-4.22,0-1.58.6-3.19.42-4.72a70.21,70.21,0,0,0-1.94-11.19c-.4-1.41-.3-1.67.8-2.2,2.73-1.3,5.42-2.67,8.23-4.07a83.41,83.41,0,0,0,.5,21.81c3.46-.81,3.84-1.26,3.84-4.34,0-2.85.12-5.71-.05-8.55a41,41,0,0,0-1-4.79c-.1-.53-.17-1.34.13-1.63a44.77,44.77,0,0,1,4.38-3.76C371.91,373.64,373.57,372.66,375.76,371.22Z" transform="translate(-177.06 -234)"/><path class="cls-1" d="M254.67,413.75c.07.88.19,1.64.19,2.4,0,4.3,0,8.61,0,12.92a7.27,7.27,0,0,0,.4,2.54c.2.55.86,1.36,1.22,1.32a2.85,2.85,0,0,0,1.75-1.17,3.46,3.46,0,0,0,.36-1.87c0-4.38,0-8.76,0-13.14a3.63,3.63,0,0,0-.65-2.16c-1.05-1.23-.34-2.18.48-2.76,2.29-1.58,4.73-3,7.11-4.41a9,9,0,0,1,1.24-.5c0,.81.24,1.59,0,1.87-1.65,1.66-.78,3.7-1,5.57-.21,1.48-.54,2.95-.79,4.24a10.77,10.77,0,0,1,.77,2.47c.11,2,.07,3.93,0,5.91,0,1.45-.2,2.91,1.85,3.15.3,0,.56.35.94.6-1.85,2.22-3.54,4.37-5.36,6.41s-2.06,1.83-3-.52c-.15-.38-.36-.75-.55-1.15-2.43,1.38-4.83,2.66-7.12,4.1a2.3,2.3,0,0,1-3.3-.35,6.4,6.4,0,0,1-1.24-2.86,22.76,22.76,0,0,1-.38-4.44,16.67,16.67,0,0,1,.53-2.75c.09-.48.35-1.19.13-1.42-1.62-1.74-1-3.85-1.08-5.82-.07-1.09.4-2.4-1.22-2.81.26-.77.31-2,.82-2.22C249.19,415.76,251.75,414.88,254.67,413.75Z" transform="translate(-177.06 -234)"/><path class="cls-1" d="M321.35,418c.73-1.75,1.45-3.51,2.19-5.26.57-1.33,1.08-2.69,1.77-3.95.84-1.51,2.05-1.48,3,0a6.13,6.13,0,0,1-2,8.78c-2,1.21-3.44,3.24-6.25,3.18-3.87-.07-8.14-3.36-8-7.73.2-4.89,0-9.86.93-14.62.83-4.27,4-7.41,8.05-9.21.89-.39,2.55.2,3.51.85,2.46,1.65,4.72,3.53,5.38,6.74.25,1.23.33,2-.85,2.73-2.41,1.57-4.66,3.37-7,5s-3.53,3.72-3.05,6.62l1.17,6.89Zm-.21-25.18a12.58,12.58,0,0,0-1.62,10.44c1.06-.68,2.13-1.27,3.06-2,.44-.35,1-1.11.87-1.51C322.83,397.55,322,395.41,321.14,392.83Z" transform="translate(-177.06 -234)"/><path class="cls-1" d="M298,425.62c.19-.86.17-1,.26-1.13,2.92-2.88,2.57-6.55,2.54-10.18-.05-6.77,0-13.55-.06-20.32,0-1-.74-1.91-.95-2.9-.19-.84-.48-2.08-.07-2.55,2.54-2.84,5.26-5.51,7.93-8.22.11-.11.41,0,.8,0-.34,6.56-.82,13.09-1,19.62-.09,3.82.3,7.64.49,11.46.07,1.37.55,2.82.23,4.08a2.74,2.74,0,0,0,1.72,3.62c.29.14.48.47.74.76Z" transform="translate(-177.06 -234)"/><path class="cls-1" d="M350,296.75c-.11-1.09-.17-1.8-.24-2.49-2.25-.12-2.69,1.53-1.37,4.34-.81,1.69-1.57,3.28-2.34,4.87l-.66-.14c-.14-2-2.86-3.47-.86-6,.26-.34-.28-1.49-.7-2.08-.13-.18-1.13.24-1.71.42-.41.13-.79.34-1.18.5-1.42-2.57-.71-4.31,1.82-4.92a2.73,2.73,0,0,0,1.55-1.2c.74-1.34,1.29-2.79,2.11-4.61.62,1.9,1.11,3.39,1.59,4.88,1.29.33,3-.33,3.31,1.74C351.49,293.69,351.81,295.3,350,296.75Z" transform="translate(-177.06 -234)"/><path class="cls-1" d="M329.21,317c-1.19-1.21-1.16-2.53.61-3.66a3.39,3.39,0,0,0,1.82-2.77c.12-1.06,1.1-2,2-3.52.61,1.74.92,2.88,1.42,3.94a2.47,2.47,0,0,0,1.23,1.29c2.49.79,2.51.75,2,3.47a7,7,0,0,1-1,.06c-.69-.06-1.38-.18-2.07-.28.27.7.54,1.4.8,2.1.15.39.47.83.39,1.18-.48,2-1,4-1.62,6-.1.32-.6.52-1.26,1.07-.47-3.47-3-6.22-1.07-9.72l-.44-.42Z" transform="translate(-177.06 -234)"/><path class="cls-1" d="M324.25,300.68c-1.67-1.25-3.1-4.74-2.91-6a10.18,10.18,0,0,0-.21-2.95,1.64,1.64,0,0,0-.9-.12c-.35.87-.62,1.77-1,3a2.89,2.89,0,0,1-1.95-3.24c.08-1.83,1.5-3,3.67-3,.58-1.64,1.16-3.27,1.95-5.48.51,1,.87,1.36.84,1.7-.14,2,.51,2.93,2.72,2.85.64,0,1.62,1.25,1.88,2.1s-.17,1.92-.3,2.9a7.1,7.1,0,0,1-1.55-.54,11.4,11.4,0,0,1-1.42-1.28c-.25,1-1,2.46-.65,2.88C326.74,296.1,324.39,298.19,324.25,300.68Z" transform="translate(-177.06 -234)"/><path class="cls-1" d="M377.15,328.13c-.06-1.72-.07-3.46-.22-5.18a31.54,31.54,0,0,0-.61-3.31l-.64-.22L373.41,322c-1.57-1.59-1.5-4.82.54-5.59,2.36-.89,2.8-2.87,3.89-4.55.11-.18.18-.38.53-1.12.55,1.64,1,2.61,1.19,3.63.3,1.35.6,2.31,2.36,2.56,2.07.3,1.17,2,1.09,3.19l-2.7-.2c-.06,1-.2,2-.16,3,.07,2.15-1.08,3.7-2.09,5.34Z" transform="translate(-177.06 -234)"/><path class="cls-1" d="M351.88,320.12c-1.64-2.37-.94-4.43,1.31-5.33.83-.33,1.29-1.64,1.84-2.55a20.8,20.8,0,0,0,1-2.19l.73,0a16.65,16.65,0,0,0,1.19,3,8.42,8.42,0,0,0,2,1.83c.61.49,1.8.85,1.84,1.35.09.95-.46,2-.91,3.51l-1.92-3c-1.05,3.45.06,6.87-2.51,9.52-.82-1.64-1.59-3.08-2.22-4.57a1.52,1.52,0,0,1,.18-1.38c1.39-1.4.24-1.81-.9-2.39Z" transform="translate(-177.06 -234)"/><path class="cls-1" d="M344.51,331.11l2.76,4.74c4,.38,4.87,1.7,2.88,4.91-.87-1.36-2.14-2.1-3.24-.67-.48.62,0,2,.08,3.05l.68.05c-.44.54-.88,1.08-1.31,1.63s-.76,1-1.2,1.57c-1.37-1-2.45-1.87-1.85-3.8.25-.79-.26-1.82-.43-2.73-.63.5-1.26,1-1.9,1.49a3.76,3.76,0,0,1-.55.32c-1.64-1.68-1.25-3.65.64-4.63a6.19,6.19,0,0,0,2-2.45A27.75,27.75,0,0,0,344.51,331.11Z" transform="translate(-177.06 -234)"/><path class="cls-1" d="M372.7,298.14c-2.57,1.22-2.69,2.7-.42,4.86-.76,1.67-1.52,3.34-2.29,5.05a6.89,6.89,0,0,1-1.61-6.57c.21-.61-.24-1.45-.39-2.18-.58.15-1.17.27-1.74.45s-.84.35-1.3.55c-.88-2.66,0-4.4,2.05-5.78a6.68,6.68,0,0,0,1.33-1.8c.44-.62.87-1.24,1.3-1.87l.59.22a19.47,19.47,0,0,0,.33,2.05c.3,1.1.46,2.25,2.15,2.26.56,0,1.41,1,1.62,1.69a9,9,0,0,1-.08,2.82l-.81,0Z" transform="translate(-177.06 -234)"/><path class="cls-1" d="M364,340.1l-1.54,2.74c-1.82-1.25-1.95-4.37-.13-4.71,2.72-.53,3.28-2.45,4-4.44a6.22,6.22,0,0,1,.75-1l1.56,5c3.72-1.2,5.32.28,4.24,4.13-.64-.22-1.72-.29-1.84-.67-.34-1.06-1-1.79-1.75-1s-1.39,2.63-1,3.07c1.72,2,.26,2.77-1,4l-2.4-1.9C365.82,342.38,365.74,341.88,364,340.1Z" transform="translate(-177.06 -234)"/><path class="cls-1" d="M319.84,270.57a18.58,18.58,0,0,0-.56-3c-.67-1.74-1.62-3.32-3.81-3.39a6.61,6.61,0,0,0-6.24,3.27c-1.08,1.76-2.12,3.55-3.31,5.54a9.23,9.23,0,0,1-1.3-1.19c-1.16-1.64-2.21-3.35-3.39-5-2.58-3.51-8.57-3-9.49,2.07-.08.47-.26.92-.4,1.43-3.38-2.22-5.93-9-4.92-11.85,1.63-4.63,7.06-8.21,12-7.52,3.66.51,3.65.5,4.89-2.89.66-1.83,1.38-3.63,2.2-5.79,1,1.91,2,3.49,2.78,5.12s1.56,3.39,2.37,5.17c4.79-1.24,9.37-1.43,12.19,3.6C325.2,260.36,323.89,266.45,319.84,270.57Zm-9.43-9.87c0,.3,0,.59,0,.89l-9.86,1.19c0,.21,0,.43-.07.64a25.27,25.27,0,0,0,4,.76,33.1,33.1,0,0,0,4.41-.38c.05.18.11.36.16.55l-4.4,1.64,1.81,3.4c2.77-5.46,5.33-6.85,11.09-6.3a10.38,10.38,0,0,0,3.05,0c.56-.12,1-.81,1.48-1.25-.13-.19-.26-.38-.38-.58h-10l0-.43,10-1.17c0-.25,0-.5,0-.75a59.1,59.1,0,0,0-10.89-.09,83.65,83.65,0,0,1-11.25.92c-5.2-.12-9.8.3-10.59,1.76Zm10.44-3.2c0-.28.07-.56.11-.84a16.11,16.11,0,0,0-2.79-.47q-7.85.09-15.69.31c-3.82.1-7.65.24-11.47.45-.45,0-.87.58-1.3.89l.24.58Zm-16.18-6,.36.72,2.82.22c0,.22,0,.44,0,.66l-3.75.39-.7,1.72h7.1c-1.72-1.65-.95-4.65-3.93-4.52A6.22,6.22,0,0,0,304.67,251.46Zm-12.46,3.74h9.71C298.86,252.58,295.36,252.57,292.21,255.2Zm-1.64,11.4,5.08-4.09-6.93,1C289.57,264.93,290.07,265.78,290.57,266.6Z" transform="translate(-177.06 -234)"/></svg>