<svg id='ravenclaw' version="1.1" xmlns="http://www.w3.org/2000/svg" xmlns:xlink="http://www.w3.org/1999/xlink" x="0px" y="0px"
	 width="612px" height="792px" viewBox="0 0 612 792" enable-background="new 0 0 612 792" xml:space="preserve">
<g id='ravenclaw'>
	<path fill-rule="evenodd" clip-rule="evenodd" d="M99.914,701.17c-0.853-0.808-1.629-1.579-2.465-2.28
		c-0.094-0.078-0.744,0.221-0.763,0.386C96.589,700.138,98.866,701.572,99.914,701.17z"/>
	<path fill-rule="evenodd" clip-rule="evenodd" d="M135.996,523.412c0.174-0.021,0.348-0.041,0.522-0.063
		c-0.292-2.572-0.583-5.144-0.875-7.716c-0.196,0.023-0.393,0.047-0.589,0.071C134.356,518.383,134.454,520.976,135.996,523.412z"/>
	<path fill-rule="evenodd" clip-rule="evenodd" d="M109.528,609.968c0.991-0.584,2.078-1.105,3.005-1.832
		c0.342-0.268,0.588-1.25,0.386-1.49c-0.326-0.384-1.241-0.741-1.589-0.546c-0.985,0.555-1.839,1.364-2.678,2.145
		c-0.235,0.218-0.409,0.746-0.306,1.014C108.448,609.521,108.938,609.636,109.528,609.968z M118.769,605.781
		c-0.182-0.203-0.316-0.466-0.423-0.455c-1.085,0.106-2.173,0.224-3.239,0.442c-0.127,0.026-0.282,0.759-0.142,1.007
		c0.138,0.245,0.674,0.464,0.96,0.393c0.798-0.199,1.564-0.538,2.327-0.861C118.443,606.225,118.569,605.99,118.769,605.781z"/>
	<path fill-rule="evenodd" clip-rule="evenodd" d="M158.293,729.419c-2.317-1.771-17.305-1.977-19.328-0.359
		C139.997,729.858,155.869,730.194,158.293,729.419z M154.4,731.462c-4.783,0-9.533,0-14.64,0
		C142.067,733.536,151.608,733.336,154.4,731.462z"/>
	<path fill-rule="evenodd" clip-rule="evenodd" d="M116.484,717.152c-1.654-1.978-3.011-2.668-4.038-2.195
		C113.526,715.961,114.508,717.064,116.484,717.152z"/>
	<path fill-rule="evenodd" clip-rule="evenodd" d="M184.005,715.811c-1.193,0.735-2.115,1.304-3.25,2.003
		C182.43,718.281,183.688,717.551,184.005,715.811z"/>
	<path fill-rule="evenodd" clip-rule="evenodd" d="M212.686,682.035c-0.177-0.201-0.355-0.403-0.532-0.605
		c-1.132,1.012-2.264,2.022-3.396,3.034c0.146,0.166,0.293,0.332,0.439,0.498C210.36,683.986,211.523,683.011,212.686,682.035z"/>
	<path fill-rule="evenodd" clip-rule="evenodd" d="M230.002,591.769c2.136-1.371,3.096-3.778,2.086-4.993
		C231.367,588.502,230.685,590.136,230.002,591.769z"/>
	<path fill-rule="evenodd" clip-rule="evenodd" d="M229.8,612.514c0.256,0.042,0.512,0.084,0.767,0.127
		c0.138-0.876,0.275-1.752,0.413-2.628c-0.235-0.038-0.471-0.077-0.706-0.116C230.116,610.769,229.958,611.641,229.8,612.514z"/>
	<path fill-rule="evenodd" clip-rule="evenodd" d="M71.817,633.132c-0.601,1.301,1.057,4.736,2.493,5.167
		C74.518,636.887,73.567,634.914,71.817,633.132z"/>
	<path fill-rule="evenodd" clip-rule="evenodd" d="M76.503,658.469c-0.147,1.762,0.93,2.933,2.469,3.089
		C78.086,660.448,77.295,659.459,76.503,658.469z"/>
	<path fill-rule="evenodd" clip-rule="evenodd" d="M88.619,682.216c0.086-0.123,0.173-0.245,0.26-0.367
		c-0.832-1.716-2.339-2.65-4.118-2.089C86.232,680.696,87.426,681.456,88.619,682.216z"/>
	<path fill-rule="evenodd" clip-rule="evenodd" d="M53.776,629.021c-0.069-0.458-0.186-0.914-0.201-1.373
		c-0.225-6.917-0.341-13.84-0.689-20.75c-0.194-3.84-0.771-7.66-1.175-11.489c-0.093-0.877-0.621-1.248-1.436-1.047
		c-2.489,0.615-5.004,1.163-7.436,1.962c-2.232,0.734-2.602,0.619-2.659-1.676c-0.036-1.423-0.007-2.848-0.007-4.271
		c0.24-0.042,0.481-0.083,0.721-0.124c0.214,0.629,0.537,1.244,0.622,1.89c0.202,1.522,0.696,1.833,2.163,1.459
		c2.053-0.522,4.131-0.948,6.209-1.363c1.173-0.234,1.699-0.653,1.648-2.066c-0.111-3.107,0.094-6.226,0.171-9.339
		c0.027-1.075,0.445-1.653,1.654-1.517c0.403,0.045,0.85-0.287,1.276-0.446c-0.222-0.354-0.361-0.837-0.68-1.041
		c-1.79-1.146-2.237-2.739-2.109-4.8c0.365-5.917-0.354-11.741-1.899-17.463c-0.128-0.475-0.32-0.932-0.488-1.396
		c-0.392-1.082-0.887-2.153,1.069-2.135c0.7,0.007,1.19-0.711,0.614-1.239c-2.13-1.952-1.332-4.515-1.533-6.832
		c-0.326-3.74-0.388-7.504-0.662-11.25c-0.129-1.767-0.43-3.53-0.795-5.265c-0.084-0.399-0.82-1.011-1.147-0.949
		c-1.785,0.335-3.57,0.756-5.277,1.365c-0.463,0.165-0.85,1.06-0.931,1.665c-0.149,1.117,0.008,2.271-0.059,3.404
		c-0.138,2.323,0.34,4.071,2.32,5.843c3.831,3.429,3.566,8.176-0.353,11.622c-1.605,1.411-2.055,2.752-1.946,4.839
		c0.29,5.575,0.243,11.169,0.341,16.755c0.089,5.092,0.213,10.184,0.265,15.276c0.007,0.689-0.313,1.382-0.48,2.072
		c-0.19-0.018-0.381-0.036-0.572-0.054c-0.095-0.488-0.264-0.976-0.275-1.466c-0.251-10.824-0.484-21.648-0.723-32.473
		c-0.006-0.297-0.031-0.593-0.041-0.89c-0.037-1.127-0.365-1.498-1.559-0.92c-3.168,1.531-6.457,1.651-9.15-0.752
		c-1.548-1.382-2.92-3.361-3.517-5.331c-1.545-5.103-0.839-9.96,2.864-14.13c2.755-3.104,6-5.569,9.587-7.604
		c0.97-0.55,1.351-1.131,1.23-2.357c-0.227-2.304-0.099-4.64-0.177-6.96c-0.043-1.277,0.647-1.873,1.741-2.237
		c8.081-2.696,16.306-4.7,24.85-5.156c1.253-0.066,2.049-0.338,1.542-1.884c-0.091-0.277,0.408-0.922,0.785-1.142
		c0.7-0.408,1.511-0.629,2.393-0.975c-0.232-0.295-0.315-0.516-0.459-0.568c-2.247-0.813-2.718-2.541-2.899-4.746
		c-0.504-6.153-1.251-12.287-1.893-18.43c-0.233-2.232-0.147-2.269,1.925-1.438c7.578,3.037,15.497,4.249,23.616,4.387
		c7.442,0.125,14.815-0.471,22.073-2.166c4.415-1.029,8.802-2.182,13.205-3.262c0.988-0.242,1.58-0.782,1.604-1.832
		c0.162-6.767-0.498-13.457-2.537-19.914c-1.977-6.262-5.165-11.955-9.103-17.211c-1.629-2.174-3.351-4.279-5.018-6.426
		c-0.141-0.181-0.188-0.436-0.375-0.894c0.581-0.042,1.067-0.211,1.458-0.085c6.245,2.027,11.332,5.639,15.122,11.049
		c3.635,5.189,5.769,10.998,7.08,17.13c0.671,3.138,1.135,6.32,1.706,9.479c0.09,0.5,0.259,0.986,0.591,1.451
		c2.413-11.557,1.968-23.053-0.765-34.521c0.179-0.066,0.357-0.133,0.536-0.199c0.341,0.325,0.803,0.589,1.004,0.985
		c1.538,3.028,3.26,5.991,4.48,9.146c2.555,6.61,4.025,13.528,5.211,20.507c0.089,0.523,0.592,0.977,0.903,1.462
		c0.282-0.472,0.684-0.909,0.828-1.419c1.948-6.908,1.517-13.885,0.563-20.877c-0.047-0.34,0.124-0.709,0.194-1.064
		c0.388,0.146,0.927,0.18,1.138,0.46c1.002,1.332,1.921,2.728,2.856,4.109c0.205,0.302,0.358,0.64,0.871,0.931
		c0.082-0.541,0.262-1.089,0.231-1.624c-0.541-9.227-1.113-18.451-1.654-27.678c-0.023-0.396,0.188-0.806,0.291-1.21
		c0.39,0.139,0.871,0.174,1.154,0.43c2.606,2.35,4.526,5.182,5.888,8.419c2.098,4.988,3.602,10.128,4.245,15.515
		c0.457,3.822,0.954,7.641,1.47,11.455c0.043,0.322,0.361,0.607,0.552,0.909c0.237-0.218,0.55-0.394,0.701-0.661
		c3.864-6.833,6.794-14.041,8.495-21.715c0.469-2.117,0.675-4.293,1.022-6.438c0.095-0.587,0.263-1.162,0.486-2.126
		c1.916,2.309,2.94,4.577,3.472,7.032c1.334,6.159,0.749,12.308-0.506,18.39c-0.947,4.591-2.108,9.142-3.313,13.674
		c-0.606,2.281-1.522,4.48-2.293,6.719c-0.15,0.436-0.284,0.878-0.424,1.317c0.124,0.089,0.248,0.177,0.372,0.266
		c0.425-0.407,0.911-0.767,1.266-1.226c4.736-6.146,9.416-12.333,12.371-19.602c0.371-0.914,0.637-1.873,1.033-2.773
		c0.159-0.361,0.541-0.625,0.821-0.934c0.26,0.269,0.573,0.504,0.772,0.813c1.264,1.959,1.133,4.166,0.958,6.328
		c-0.388,4.775-2.066,9.217-3.743,13.646c-1.327,3.502-2.716,6.98-4.076,10.47c-0.314,0.806-0.136,1.323,0.799,1.504
		c0.527,0.103,1.02,0.453,1.542,0.488c0.468,0.031,1.141-0.058,1.403-0.365c2.749-3.224,5.426-6.508,8.148-9.755
		c0.252-0.301,0.678-0.457,1.024-0.682c0.184,0.38,0.501,0.749,0.53,1.14c0.258,3.552,0.411,7.11-0.513,10.6
		c-0.253,0.954-0.038,1.321,0.935,1.521c8.928,1.84,17.924,3.02,27.058,2.637c6.337-0.267,12.583-1.146,18.557-3.438
		c0.367-0.141,0.759-0.263,1.146-0.285c0.357-0.021,0.793,0.009,1.057,0.203c0.132,0.097,0.023,0.637-0.091,0.933
		c-1.812,4.684-2.65,9.598-3.365,14.53c-0.297,2.047-0.338,4.132-0.488,6.2c-0.079,1.094-0.573,1.862-1.643,2.228
		c-0.498,0.17-0.98,0.385-1.433,0.564c0.03,0.252,0.007,0.402,0.057,0.432c1.455,0.88,1.855,2.172,1.56,3.783
		c-0.088,0.479-0.035,0.985-0.035,1.479c-0.003,2.658-0.517,2.726,2.522,3.147c2.878,0.399,5.791,0.82,8.562,1.652
		c3.675,1.104,7.336,2.378,10.236,5.133c2.467,2.345,3.132,6.139,1.588,9.591c-1.067,2.386-2.128,4.774-3.166,7.174
		c-0.942,2.179-0.878,2.21,1.259,3.124c3.89,1.665,7.244,4.053,9.574,7.655c0.908,1.404,1.585,2.957,2.41,4.418
		c0.806,1.427,0.549,2.483-0.727,3.579c-3.497,3.005-6.028,6.768-8.044,10.887c-2.528,5.165-3.766,10.648-4.34,16.358
		c-0.579,5.753-0.27,11.445,0.471,17.14c0.152,1.169-0.132,1.907-1.178,2.584c-2.264,1.464-4.564,2.713-7.317,2.938
		c-1.471,0.121-1.155,1.229-1.013,2.133c0.221,1.412,0.721,2.807,0.748,4.216c0.061,3.204-0.091,6.412-0.171,9.618
		c-0.004,0.179-0.138,0.354-0.309,0.766c-0.444-0.351-0.895-0.562-1.13-0.916c-1.99-3.003-4.047-5.969-5.866-9.074
		c-1.187-2.027-1.129-4.292-0.042-6.411c0.629-1.226,1.354-2.419,2.167-3.53c1.025-1.401,1.702-2.893,1.714-4.639
		c0.002-0.306-0.092-0.756-0.297-0.879s-0.675-0.012-0.911,0.159c-2.089,1.513-4.472,2.276-6.968,2.69
		c-1.315,0.219-1.771,0.793-1.784,2.17c-0.106,11.618-0.397,23.237-2.197,34.741c-0.601,3.839-1.675,7.609-2.653,11.381
		c-0.339,1.309-0.125,2.157,1.184,2.508c2.51,0.672,5.042,1.261,7.559,1.906c0.484,0.124,0.943,0.349,1.414,0.525
		c-0.189,0.421-0.288,0.923-0.582,1.247c-2.286,2.521-4.454,5.178-6.97,7.449c-2.104,1.901-4.507,3.564-7.005,4.909
		c-2.007,1.08-3.082,2.774-4.054,4.55c-5.601,10.231-11.859,20.008-19.176,29.114c-6.681,8.316-13.98,16.012-22.565,22.348
		c-4.585,3.384-9.475,6.404-14.438,9.214c-4.319,2.445-8.926,4.388-13.428,6.505c-1.649,0.775-3.336,1.486-5.055,2.086
		c-0.648,0.227-1.563,0.316-2.137,0.029c-6.484-3.238-13.06-6.33-19.334-9.942c-4.297-2.475-8.112-5.774-12.227-8.582
		c-6.267-4.275-12.082-9.087-17.279-14.599c-4.236-4.492-8.096-9.297-11.467-14.509c-4.063-6.284-7.59-12.845-10.522-19.704
		c-2.032-4.754-3.858-9.621-5.387-14.558c-1.775-5.734-3.397-11.545-4.593-17.423c-1.746-8.579-2.75-17.304-2.54-26.067
		c0.191-7.996,0.89-15.98,1.425-23.966c0.086-1.285-0.235-1.853-1.583-1.801c-1.182,0.045-2.393-0.219-3.546-0.047
		c-0.623,0.093-1.499,0.708-1.666,1.265c-0.835,2.8-1.164,5.644-0.952,8.625c0.547,7.702-0.245,15.296-2.577,22.695
		c-0.344,1.092-0.591,2.212-0.883,3.32C54.171,629.057,53.974,629.039,53.776,629.021z M244.541,569.843
		c0.096-0.198,0.191-0.396,0.287-0.593c1.518,0.344,3.037,0.688,4.555,1.032c0.087-0.166,0.174-0.333,0.261-0.499
		c-0.824-1.117-1.648-2.235-2.671-3.623c0.615,0.081,0.799,0.123,0.983,0.126c0.448,0.01,0.896,0.001,1.344,0
		c-0.198-0.46-0.335-0.961-0.61-1.369c-0.24-0.356-0.635-0.609-0.962-0.908c0.531-0.349,0.936-0.456,1.247-0.33
		c1.367,0.552,1.632-0.146,1.432-1.257c-0.259-1.446-0.629-2.872-0.916-4.314c-0.073-0.366-0.011-0.761-0.011-1.164
		c0.818,0.237,1.395,0.406,1.972,0.573c0.057-0.699,0.274-1.433,0.135-2.09c-0.241-1.143-0.729-2.23-1.059-3.357
		c-0.117-0.401-0.071-0.851-0.119-1.581c0.648,0.382,0.966,0.59,1.302,0.763c0.371,0.19,0.758,0.349,1.138,0.521
		c0.116-0.451,0.415-0.948,0.314-1.346c-0.431-1.705-0.974-3.383-1.487-5.067c-0.128-0.422-0.292-0.833-0.44-1.248
		c0.098-0.087,0.195-0.174,0.293-0.261c0.417,0.192,0.831,0.392,1.25,0.578c0.49,0.219,0.984,0.428,1.477,0.641
		c0.153-0.588,0.477-1.189,0.431-1.762c-0.212-2.647-1.683-4.685-3.378-6.599c-0.452-0.511-0.83-1.087-1.243-1.633
		c0.133-0.128,0.265-0.255,0.397-0.382c2.437,0.956,4.353,2.689,6.254,4.632c0.347-0.754,0.545-1.396,0.58-2.046
		c0.173-3.275-1.52-5.64-3.892-7.601c-1.435-1.187-2.979-2.239-4.473-3.353c0.099-0.137,0.199-0.273,0.298-0.41
		c4.44,1.494,7.849,4.567,11.459,8.079c0.229-1.128,0.479-1.861,0.511-2.604c0.168-3.827-2.653-7.284-6.844-8.638
		c-0.825-0.267-1.487-1.003-2.277-1.423c-0.509-0.271-1.105-0.44-1.68-0.509c-0.566-0.068-1.159,0.116-1.73,0.069
		c-1.228-0.101-2.446-0.32-3.674-0.419c-10.469-0.842-20.834,0.432-31.188,1.664c-8.042,0.957-16.047,2.213-24.08,3.252
		c-6.025,0.778-12.052,1.653-18.107,2.08c-10.894,0.769-21.809,1.253-32.717,1.811c-2.397,0.122-4.837,0.459-7.142-0.67
		c-0.372-0.183-0.875-0.119-1.318-0.132c-3.303-0.091-6.612-0.077-9.907-0.283c-3.199-0.201-6.414-0.456-9.568-0.997
		c-3.354-0.574-6.63-1.583-9.969-2.261c-1.537-0.313-3.143-0.372-4.715-0.362c-0.495,0.003-0.985,0.606-1.477,0.936
		c0.347,0.462,0.599,1.158,1.057,1.343c1.69,0.682,3.454,1.179,5.179,1.774c1.165,0.402,2.313,0.854,3.469,1.282
		c-0.033,0.134-0.066,0.268-0.099,0.401c-0.764,0-1.529-0.003-2.293,0.001c-1.819,0.011-3.64-0.019-5.456,0.072
		c-0.392,0.02-0.763,0.472-1.144,0.726c0.279,0.378,0.476,0.938,0.849,1.104c1.708,0.76,3.409,1.72,5.213,2.034
		c3.778,0.659,7.62,0.954,11.435,1.406c0.661,0.078,1.317,0.192,1.975,0.29c-0.162,0.313-0.331,0.431-0.495,0.424
		c-3.4-0.14-6.811-0.177-10.196-0.482c-2.595-0.234-5.153-0.863-7.742-1.207c-0.8-0.106-2.062-0.418-2.195,0.823
		c-0.13,1.219,1.153,1.339,2.019,1.517c2.464,0.506,4.955,0.88,7.426,1.356c1.27,0.244,2.519,0.595,3.777,0.898
		c-0.489,0.341-0.915,0.345-1.34,0.341c-3.26-0.032-6.522-0.131-9.779-0.05c-0.754,0.019-1.494,0.648-2.24,0.998
		c0.639,0.485,1.236,1.046,1.93,1.435c0.622,0.348,1.35,0.506,2.032,0.748c-0.03,0.204-0.061,0.409-0.091,0.613
		c-0.792,0.082-1.593,0.116-2.372,0.267c-0.331,0.063-0.792,0.316-0.871,0.58c-0.076,0.253,0.23,0.656,0.434,0.948
		c0.287,0.41,0.634,0.779,0.956,1.166c-0.445,0.246-0.871,0.54-1.338,0.729c-1.079,0.436-1.451,1.201-0.706,1.859
		c0.993,0.878,0.734,1.64,0.224,2.607c-1.017,1.931-0.421,3.394,1.621,4.268c0.336,0.145,0.65,0.343,1.36,0.724
		c-0.783,0.225-1.193,0.289-1.553,0.459c-0.455,0.216-0.981,0.44-1.243,0.821c-0.107,0.157,0.4,0.731,0.625,1.118
		c0.14,0.242,0.273,0.489,0.41,0.734c-0.28,0.137-0.563,0.266-0.838,0.412c-0.353,0.187-0.898,0.32-0.993,0.602
		c-0.107,0.319,0.069,0.913,0.334,1.147c0.937,0.829,0.869,1.46-0.024,2.311c-0.705,0.673-1.491,1.798-0.501,2.57
		c1.431,1.116,1.536,2.354,1.22,3.901c-0.147,0.719-0.217,1.49-0.119,2.21c0.069,0.511,0.371,1.273,0.752,1.41
		c2.131,0.767,4.311,1.405,6.489,2.032c1.816,0.522,3.654,0.97,5.483,1.45c-0.009,0.129-0.019,0.258-0.028,0.387
		c-0.611,0.06-1.236,0.234-1.831,0.159c-2.737-0.346-5.463-0.779-8.199-1.129c-0.424-0.055-0.883,0.168-1.327,0.262
		c0.249,0.394,0.408,0.985,0.762,1.146c2.003,0.906,3.989,2.164,6.099,2.458c4.875,0.68,9.815,1.181,14.733,1.212
		c14.722,0.092,29.458,0.451,44.152-0.871c12.008-1.08,24.012-2.213,36.016-3.344c2.509-0.235,5.034-0.432,7.507-0.887
		c2.982-0.548,5.959-0.017,9.009-0.56c6.166-1.097,12.487-1.009,18.76-0.388c4.055,0.401,8.018,1.18,11.73,2.903
		c1.397,0.648,2.683,1.538,4.328,2.498c-0.13-0.689-0.083-1.176-0.3-1.46c-0.98-1.281-1.875-2.7-3.099-3.709
		c-2.347-1.936-5.274-2.589-8.22-3.081c-0.578-0.097-1.139-0.3-1.707-0.454c0.036-0.141,0.071-0.282,0.107-0.424
		c4.666-0.581,8.945,1.242,13.614,2.641C248.702,572.201,246.246,571.363,244.541,569.843z M81.391,572.781
		c0.144,0.082,0.289,0.164,0.433,0.246c0.161,0.1,0.309,0.246,0.483,0.292c2.32,0.608,2.785,1.097,2.56,3.442
		c-0.177,1.844,0.334,3.409,1.319,4.885c0.492,0.737,1.061,1.425,1.531,2.174c0.18,0.286,0.182,0.684,0.265,1.031
		c-0.369,0.032-0.74,0.102-1.107,0.083c-0.176-0.009-0.336-0.198-0.517-0.274c-2.426-1.017-4.637-2.603-7.492-2.418
		c-1.465,0.096-2.755-0.563-3.813-1.682c-0.277-0.293-0.976-0.376-1.425-0.284c-1.383,0.285-2.724,0.789-4.112,1.032
		c-0.795,0.14-1.65-0.061-2.479-0.108c0.48-0.69,0.807-1.665,1.467-2.023c3.296-1.788,3.388-4.647,2.877-7.782
		c-0.095-0.586-0.128-1.182-0.235-1.765c-0.82-4.454-2.958-7.891-7.346-9.658c-1.969-0.794-2.493-0.478-2.46,1.631
		c0.021,1.324,0.467,3.039-0.181,3.895c-1.469,1.94-1.691,3.73-0.766,5.834c0.037,0.084,0.016,0.196,0.012,0.294
		c-0.217,5.379-0.358,10.761-0.683,16.133c-0.174,2.871-0.316,2.861,2.449,2.473c0.244-0.035,0.492-0.047,0.738-0.067
		c8.814-0.713,17.568-0.59,26.178,1.777c1.855,0.51,2.158,0.204,2.141-1.724c-0.043-5.129-0.18-10.26-0.12-15.388
		c0.114-9.776,0.221-19.556,0.55-29.326c0.3-8.879,0.915-17.747,1.311-26.624c0.029-0.651-0.406-1.654-0.93-1.947
		c-4.85-2.715-10.029-4.597-15.499-5.617c-6.243-1.165-12.504-0.792-18.738,0.04c-2.483,0.332-4.934,0.966-7.372,1.571
		c-2.629,0.652-5.201,1.547-7.846,2.11c-1.463,0.312-1.841,1.06-1.818,2.363c0.029,1.627-0.035,3.256-0.009,4.883
		c0.007,0.446,0.057,1.118,0.327,1.275c0.319,0.187,0.922-0.002,1.36-0.15c4.342-1.465,8.626-3.125,13.025-4.388
		c3.931-1.129,7.981-1.847,11.99-2.69c0.478-0.101,1.11,0,1.532,0.246c3.317,1.938,6.658,3.843,9.873,5.941
		c2.191,1.431,4.201,3.161,5.396,5.585c0.217,0.44,0.29,1.336,0.029,1.564c-1.216,1.069-0.631,1.785,0.301,2.501
		c1.206,0.926,1.805,2.101,1.954,3.647c0.232,2.406,0.743,4.787,0.967,7.194c0.063,0.672-0.263,1.64-0.759,2.062
		c-3.875,3.289-7.813,6.507-11.787,9.677c-0.877,0.699-0.815,1.127-0.133,1.886c1.182,1.314,2.497,2.594,3.328,4.12
		c1.526,2.804,2.711,5.791,4.1,8.672C82.88,570.706,83.629,571.913,81.391,572.781z M124.762,624.531
		c-0.271-0.317-0.346-0.455-0.461-0.535c-5.47-3.814-11.346-3.76-17.383-1.724c-0.572,0.192-1.142,0.86-1.389,1.444
		c-0.476,1.125-0.842,2.328-1.035,3.534c-0.39,2.436-0.35,2.503-2.673,1.663c-3.784-1.366-6.08-5.302-4.648-9.085
		c1.009-2.668,2.251-5.126,3.909-7.425c0.762-1.056,1.664-2.197,1.886-3.414c0.369-2.017,1.419-3.357,2.914-4.596
		c4.675-3.875,10.269-5.11,16.088-5.715c0.382-0.04,0.97,0.154,1.172,0.442c0.671,0.959,1.494,0.835,2.488,0.732
		c2.259-0.233,4.495-0.776,6.737,0.564c1.608,0.962,2.354,0.378,2.442-1.484c0.188-3.978-0.189-7.903-1.434-11.699
		c-0.182-0.555-0.829-1.253-1.358-1.35c-3.951-0.716-8.046-1.985-11.221,1.921c-0.091,0.112-0.234,0.18-0.35,0.274
		c-5.396,4.396-10.819,8.761-16.181,13.199c-5.363,4.439-10.647,8.973-16.006,13.417c-1.02,0.846-1.454,1.732-1.264,3.066
		c1.064,7.482,2.011,14.981,3.137,22.455c0.403,2.677,1.178,5.299,1.812,7.939c0.332,1.383,0.985,1.54,2.068,0.559
		c0.512-0.464,1.026-0.929,1.572-1.352c4.797-3.72,9.605-7.427,14.403-11.145c4.449-3.447,8.894-6.899,13.331-10.36
		C123.81,625.477,124.24,625.015,124.762,624.531z M84.614,611.282c0.111-0.007,0.223-0.015,0.333-0.021
		c0-5.043,0.003-10.087-0.005-15.13c0-0.49,0.112-1.152-0.15-1.431c-0.411-0.436-1.097-0.612-1.667-0.898
		c-0.212,0.465-0.669,0.969-0.6,1.388c0.936,5.685,0.142,10.992-3.142,15.842c-0.27,0.398-0.293,1.131-0.142,1.618
		c0.733,2.352,1.7,4.636,2.333,7.011c1.264,4.744,0.712,9.317-1.918,13.517c-0.55,0.878-0.449,1.441,0.004,2.268
		c1.658,3.018,3.448,5.991,4.773,9.155c1.754,4.192,2.51,8.527-0.028,12.813c-0.215,0.364,0.021,1.244,0.346,1.638
		c1.662,2.013,3.545,3.851,5.12,5.925c3.085,4.063,5.068,8.565,4.917,13.823c-0.015,0.504,0.407,1.175,0.831,1.51
		c2.199,1.736,4.633,3.209,6.667,5.112c2.929,2.739,4.78,6.151,4.789,10.312c0.002,1.026,0.378,1.629,1.296,2.087
		c1.934,0.964,3.894,1.911,5.707,3.077c3.556,2.288,6.436,5.249,8.013,9.253c0.499,1.267,1.29,1.936,2.567,2.125
		c3.578,0.53,6.817,1.915,9.811,3.902c2.616,1.735,4.729,4.046,5.786,6.935c0.655,1.789,1.513,2.076,3.108,2.048
		c3.212-0.055,6.435-0.082,9.638,0.118c1.537,0.096,2.14-0.624,2.892-1.716c1.276-1.854,2.613-3.721,4.208-5.293
		c3.101-3.055,7.185-3.916,11.329-4.405c1.296-0.153,2.022-0.715,2.561-1.866c2.816-6.029,7.123-10.51,13.567-12.637
		c1.419-0.468,2.037-1.383,2.301-2.762c0.772-4.023,2.797-7.447,5.352-10.555c2.055-2.501,4.606-4.44,7.442-6.025
		c0.666-0.372,1.589-1.124,1.589-1.701c0.001-2.37,0.462-4.591,1.255-6.804c0.161-0.449-0.221-1.486-0.602-1.642
		c-0.537-0.218-1.465-0.071-1.934,0.294c-0.628,0.49-1.065,1.296-1.427,2.042c-0.663,1.365-1.448,2.563-2.853,3.288
		c-0.343,0.178-0.636,0.607-0.781,0.985c-1.777,4.651-4.108,8.941-7.739,12.453c-0.436,0.421-0.73,1.308-0.631,1.902
		c0.308,1.862-0.172,2.571-2.034,2.294c-1.209-0.18-2.125,0.042-2.856,1.041c-0.437,0.596-0.93,1.152-1.422,1.705
		c-1.979,2.216-3.353,5.033-6.413,6.181c-0.586,0.22-0.947,1.073-1.381,1.657c-0.32,0.432-0.507,0.991-0.893,1.339
		c-4.256,3.845-8.685,7.495-13.726,10.257c-3.278,1.796-6.761,3.219-10.161,4.789c-1.316,0.607-2.613,0.914-4.027,0.09
		c-3.063-1.786-6.249-3.368-9.25-5.248c-1.917-1.202-4.17-2.118-5.169-4.46c-0.103-0.242-0.684-0.276-1.039-0.417
		c-0.701-0.279-1.458-0.471-2.086-0.867c-1.411-0.889-2.506-2.28-4.589-1.625c-1.262,0.397-1.869-0.33-1.625-1.683
		c0.216-1.199-0.241-1.921-1.061-2.695c-2.151-2.029-4.251-4.115-6.315-6.234c-4.845-4.971-9.205-10.359-12.687-16.354
		c-3.167-5.452-5.946-11.131-8.819-16.749c-0.63-1.232-1.34-2.011-2.806-1.939c-0.33,0.016-0.675-0.294-1.013-0.454
		c0.188-0.368,0.283-0.925,0.581-1.074c1.45-0.727,1.264-1.811,0.828-3.021c-0.551-1.527-1.238-3.029-1.58-4.605
		c-1.318-6.077-2.911-12.132-3.668-18.286C85.373,626.792,85.149,619.018,84.614,611.282z M189.363,628.149
		c-0.02,0.177-0.04,0.353-0.061,0.528c-1.627,0.174-3.259,0.319-4.88,0.537c-0.48,0.064-0.935,0.33-1.4,0.504
		c0.25,0.381,0.414,0.892,0.763,1.125c5.441,3.647,10.917,7.244,16.356,10.895c0.81,0.544,1.372,0.433,2.109-0.106
		c2.785-2.035,5.65-3.963,8.409-6.033c1.204-0.903,2.664-1.565,2.794-3.528c0.356-5.367,0.992-10.716,1.354-16.082
		c0.375-5.564,0.568-11.141,0.806-16.714c0.017-0.387-0.255-0.787-0.393-1.181c-0.368,0.174-0.808,0.271-1.094,0.534
		c-6.04,5.54-12.316,10.782-19.194,15.262c-0.864,0.563-1.197,0.972-0.333,1.778c0.705,0.658,0.389,1.202-0.267,1.697
		c-1.211,0.914-2.403,1.852-3.602,2.781c-0.728,0.564-0.874,1.18-0.119,1.831c0.261,0.224,0.593,0.365,0.848,0.594
		c0.275,0.247,0.499,0.551,0.745,0.83c-0.323,0.262-0.61,0.604-0.976,0.77c-1.031,0.467-2.11,0.831-3.14,1.302
		c-0.361,0.165-0.634,0.524-0.947,0.795c0.288,0.304,0.55,0.639,0.87,0.903C188.438,627.525,188.91,627.826,189.363,628.149z
		 M98.823,703.713c0.039-0.283,0.077-0.567,0.116-0.851c2.787,0.633,5.597,1.182,8.355,1.924c2.92,0.785,5.043,2.78,6.894,5.138
		c-0.228-2.864-3.241-3.648-4.465-6.139c0.591,0.22,0.867,0.295,1.119,0.42c2.349,1.171,3.85,3.162,5.139,5.35
		c0.428,0.727,0.899,1.137,1.761,0.488c-0.977-2.928-3.554-4.534-5.184-6.933c1.561,0.818,3.095,1.699,4.259,2.931
		c1.151,1.217,1.93,2.787,2.872,4.202c0.133-0.063,0.266-0.127,0.398-0.19c-0.091-0.396-0.109-0.827-0.284-1.182
		c-1.262-2.576-3.181-4.624-5.509-6.221c-3.211-2.202-6.782-3.536-10.656-4.161c-1.728-0.279-3.497-0.816-5.029-1.641
		c-1.239-0.666-2.152-1.939-3.208-2.943c-0.471-0.448-1.225-1.333-1.478-0.194c-0.279,1.258-0.237,2.857,0.329,3.971
		c0.895,1.761,2.343,3.24,3.581,4.872c-0.139-0.021-0.556,0.042-0.786-0.136c-3.321-2.568-5.229-5.791-3.94-9.992
		c0.553-1.806-0.061-2.476-1.385-3.239c-3.048-1.761-5.896-3.784-8.176-6.523c-2.859-3.433-3.48-7.212-1.746-11.322
		c0.454-1.076,0.142-1.746-0.646-2.456c-1.833-1.652-3.865-3.17-5.35-5.101c-1.465-1.905-2.71-4.145-3.405-6.433
		c-0.829-2.731,0.245-5.296,2.03-7.557c1.497-1.894,1.466-3.766,0.103-5.72c-1.58-2.263-3.273-4.452-4.768-6.77
		c-1.637-2.537-2.232-5.255-0.731-8.126c1.278-2.446,2.641-4.859,3.73-7.388c0.378-0.879,0.352-2.19-0.023-3.079
		c-0.76-1.803-1.95-3.419-2.844-5.172c-1.702-3.337-3.217-6.692-1.437-10.562c0.86-1.868,2.31-3.03,3.953-4.063
		c0.989-0.621,1.844-1.478,1.431-2.642c-0.398-1.124-1.093-2.258-1.955-3.077c-1.631-1.551-3.912-0.977-4.152,0.928
		c-0.464,3.677-0.946,7.354-1.253,11.046c-0.755,9.082-0.832,18.188,0.106,27.25c0.474,4.585,0.449,9.274,2.003,13.723
		c0.405,1.158,0.565,2.4,0.883,3.592c1.219,4.561,2.474,9.112,3.675,13.678c0.327,1.24,1.095,1.913,2.271,2.284
		c1.068,0.337,1.353,1.079,0.533,1.879c-0.844,0.823-0.743,1.597-0.33,2.541c0.611,1.396,1.065,2.864,1.72,4.237
		c1.997,4.185,3.871,8.443,6.133,12.482c4.068,7.264,9.286,13.727,14.637,20.079c0.65,0.772,1.25,1.087,2.279,0.867
		c1.736-0.37,2.593,0.554,2.031,2.268c-0.358,1.092-0.033,1.739,0.671,2.489c6.708,7.152,14.573,12.85,22.739,18.172
		c0.736,0.48,1.568,0.813,2.624,1.349c-0.11-0.579-0.091-0.794-0.186-0.931c-1.562-2.253-2.357-4.764-2.532-7.48
		c-0.064-0.995-0.66-1.268-1.542-1.446c-3.025-0.614-6.069-1.185-9.036-2.022c-2.113-0.597-3.859-1.953-5.221-3.721
		c-1.881-2.443-2.125-5.251-1.728-8.17c0.139-1.018-0.16-1.465-1.197-1.781C104.258,705.67,101.551,704.656,98.823,703.713z
		 M143.652,502.479c0.103,0.093,0.207,0.185,0.311,0.277c0.322-0.185,0.735-0.295,0.951-0.563c1.7-2.113,3.422-4.214,5-6.416
		c0.482-0.673,0.507-1.661,0.793-2.487c0.228-0.658,0.523-1.295,0.808-1.932c0.331-0.742,1.068-1.548,0.943-2.193
		c-0.214-1.106,0.333-1.607,0.884-2.314c1.145-1.469,2.413-2.912,3.204-4.57c0.777-1.627,1.152-3.494-0.43-5.104
		c-0.197-0.2-0.055-0.955,0.166-1.303c0.737-1.162,1.688-2.195,2.361-3.389c0.926-1.641,1.641-3.298,0.566-5.297
		c-0.383-0.712-0.083-1.939,0.208-2.832c0.548-1.673,1.692-3.22,1.934-4.912c1.535-10.756,0.483-21.189-4.47-31.026
		c-0.278-0.552-0.813-0.974-1.229-1.456c1.371,11.36,1.396,22.532-0.848,33.613c-2.239,11.055-6.301,21.389-12.891,30.981
		c-0.849-1.663,0.132-3.374-1.483-4.702c-0.108,0.8-0.201,1.3-0.238,1.804c-0.258,3.47-0.926,6.832-2.387,10.022
		c-2.27,4.956-4.05,10.067-4.54,15.543c-0.316,3.536-0.151,7.034,1.491,10.271c0.333,0.656,1.088,1.466,1.721,1.534
		c1.703,0.183,3.446,0.032,5.17-0.044c0.907-0.041,1.208-0.509,1.116-1.49c-0.327-3.474-0.536-6.958-0.792-10.438
		c-0.026-0.363-0.065-0.726-0.099-1.088c-0.166-0.065-0.332-0.13-0.499-0.195c-0.737,1.29-1.475,2.581-2.342,4.098
		c-1.388-5.241,1.683-16.502,6.142-18.667C144.609,499.788,144.131,501.134,143.652,502.479z M253.271,589.016
		c0.861-0.109,1.396-0.2,1.935-0.241c0.65-0.051,1.302-0.059,1.953-0.086c-0.162-0.74-0.234-1.518-0.517-2.209
		c-0.214-0.523-0.713-0.925-1.059-1.399c-0.322-0.441-0.608-0.908-0.911-1.363c0.583-0.211,0.932-0.076,1.289-0.052
		c0.548,0.038,1.42,0.203,1.58-0.049c0.284-0.448,0.36-1.282,0.124-1.754c-0.475-0.947-1.206-1.769-1.856-2.623
		c-0.39-0.513-0.829-0.988-1.245-1.48c0.095-0.145,0.19-0.29,0.286-0.435c0.647,0.239,1.309,0.445,1.938,0.725
		c1.06,0.471,1.86,0.143,2-0.939c0.104-0.807-0.187-1.693-0.433-2.505c-0.153-0.507-0.549-0.941-0.787-1.326
		c0.842-0.069,1.973,0.089,2.13-0.231c0.296-0.602,0.187-1.531-0.043-2.229c-0.253-0.768-0.813-1.442-1.278-2.131
		c-0.394-0.582-0.843-1.128-1.268-1.689c0.504-0.195,0.839-0.185,1.089-0.032c0.926,0.563,1.814,1.188,2.734,1.764
		c1.172,0.733,2.075,0.304,2.073-1.061c-0.001-0.66-0.176-1.411-0.525-1.961c-0.705-1.111-1.587-2.11-2.387-3.163
		c-0.372-0.489-0.72-0.995-1.079-1.494c0.15-0.142,0.3-0.282,0.45-0.424c1.324,1.05,2.699,2.042,3.955,3.168
		c0.986,0.883,1.479,0.606,1.984-0.452c0.899-1.89,0.221-3.47-0.902-4.948c-0.808-1.062-1.713-2.048-2.575-3.067
		c0.453-0.16,0.729-0.115,0.925,0.035c1.757,1.35,3.489,2.733,5.256,4.069c0.322,0.243,0.876,0.534,1.134,0.409
		c0.287-0.138,0.456-0.713,0.506-1.119c0.795-6.465-4.331-11.412-9.206-12.611c-0.496-0.122-1.408,0.201-1.683,0.614
		c-2.563,3.857-4.408,8.106-5.424,12.577c-0.979,4.308-1.441,8.75-1.885,13.158c-0.568,5.646-0.641,11.351-1.4,16.966
		c-0.619,4.577-2.938,7.144-7.648,3.998c-0.082-0.055-0.167-0.104-0.255-0.149c-1.447-0.734-2.93-0.253-3.612,1.208
		c-0.271,0.579-0.53,1.184-0.664,1.805c-0.369,1.709-0.339,3.482,1.03,4.687c1.257,1.104,2.779,0.641,4.155-0.118
		c0.603-0.333,1.264-0.569,1.847-0.933c3.308-2.064,6.725-3.726,10.796-3.395c0.37,0.03,1.097-0.418,1.102-0.655
		c0.008-0.429-0.296-1.046-0.661-1.264c-0.892-0.532-1.892-0.881-2.848-1.305c0.001-0.147,0.002-0.296,0.002-0.444
		c1.071-0.079,2.142-0.158,3.213-0.237c0.077-0.165,0.154-0.328,0.231-0.492C255.765,591.196,254.699,590.264,253.271,589.016z
		 M143.387,596.198c0.247-0.952,0.445-1.453,0.498-1.97c0.27-2.63,0.554-5.262,0.702-7.899c0.03-0.536-0.51-1.579-0.784-1.578
		c-1.694,0.006-3.427,0.099-5.048,0.532c-0.314,0.083-0.227,1.802-0.251,2.768c-0.011,0.434,0.174,0.868,0.241,1.308
		c0.81,5.319,1.005,10.622-0.608,15.842c-0.146,0.471-0.688,0.817-1.047,1.223c-0.234-0.438-0.606-0.856-0.676-1.319
		c-0.185-1.227-0.874-2.005-1.984-2.35c-1.125-0.351-2.289-0.668-3.456-0.779c-5.474-0.524-10.949-0.583-16.371,0.504
		c-3.161,0.635-6.246,1.523-8.679,3.83c-0.896,0.849-1.246,2.992-0.637,4.139c0.699,1.316,1.818,2.017,3.308,1.525
		c1.904-0.629,3.835-1.256,5.613-2.162c3.254-1.658,6.504-3.069,10.286-2.365c0.329,0.062,0.707-0.144,1.063-0.225
		c-0.105-0.302-0.201-0.607-0.318-0.903c-0.083-0.21-0.193-0.409-0.441-0.926c0.662,0.095,1.103,0.052,1.434,0.222
		c2.846,1.462,5.662,2.983,8.508,4.443c1.552,0.797,2.049,1.889,1.265,3.514c-0.14,0.288-0.09,0.676-0.101,1.019
		c-0.172,5.472,2.765,9.287,6.721,12.544c0.299,0.247,0.714,0.354,1.27,0.619c-0.523-1.686-1.135-3.046-1.352-4.468
		c-0.829-5.432,0.7-10.586,2.187-15.703c0.558-1.917,0.754-1.859-1-2.379c0.787-3.42,1.574-6.84,2.361-10.26
		c-0.143-0.041-0.286-0.082-0.429-0.123C145.042,595.193,144.426,595.567,143.387,596.198z M135.888,735.431
		c-0.06,0.08-0.121,0.159-0.181,0.239c0.487,0.374,0.933,0.829,1.469,1.106c2.322,1.202,4.622,2.469,7.026,3.483
		c1.887,0.797,3.698,2.378,5.991,1.34c5.033-2.277,10.146-4.405,15.036-6.96c4.492-2.347,8.754-5.14,13.073-7.81
		c1.055-0.651,2.154-1.438,2.831-2.437c0.671-0.99,1.363-1.419,2.49-1.515c0.584-0.049,1.247-0.289,1.697-0.658
		c7.698-6.326,18.502-18.024,24.376-26.419c2.371-3.388,4.651-6.84,6.95-10.278c1.315-1.967,2.658-3.921,3.855-5.96
		c1.156-1.969,2.147-4.035,3.188-6.07c0.121-0.237,0.22-0.706,0.11-0.794c-0.217-0.173-0.629-0.282-0.888-0.196
		c-1.591,0.526-3.152,1.145-4.743,1.673c-0.932,0.311-1.196,0.839-1.003,1.801c0.191,0.956,0.345,1.966,0.248,2.925
		c-0.272,2.686-1.895,4.676-3.89,6.247c-3.136,2.469-6.402,4.779-9.69,7.044c-1.212,0.835-1.627,1.595-1.06,3.052
		c1.906,4.892-0.523,8.459-4.418,10.555c-2.744,1.477-5.684,2.203-8.689,2.766c-1.183,0.222-1.775,0.695-1.523,1.992
		c0.886,4.554-0.476,7.497-4.415,9.81c-3.073,1.806-6.462,2.637-9.903,3.306c-1.153,0.224-1.744,0.856-2.207,1.91
		c-0.627,1.426-1.313,2.89-2.282,4.087c-3.087,3.813-7.359,5.685-12.075,6.159c-4.252,0.427-8.571,0.313-12.857,0.248
		C141.564,736.033,138.727,735.657,135.888,735.431z M60.659,550.12c0.212,2.063,0.372,3.683,0.55,5.302
		c0.121,1.104,0.674,1.299,1.638,0.814c1.721-0.862,3.48-1.647,5.202-2.509c3.864-1.936,5.834-5.045,5.719-9.405
		c-0.042-1.58-0.107-3.161-0.174-4.74c-0.042-0.993,0.235-1.705,1.322-2.004c0.505-0.14,0.928-0.577,1.389-0.88
		c-0.387-0.469-0.706-1.024-1.174-1.39c-1.347-1.052-2.477-2.191-2.985-3.92c-0.652-2.222-1.425-4.414-2.259-6.575
		c-0.795-2.063-2.424-3.032-4.542-2.791c-1.917,0.219-2.737,1.693-2.89,3.297c-0.294,3.081-0.468,6.199-0.322,9.284
		c0.073,1.535-0.223,2.624-1.177,3.75c-0.287,0.34-0.245,1.444,0.064,1.708c0.792,0.675,0.78,1.369,0.656,2.249
		C61.29,545.047,60.959,547.791,60.659,550.12z M124.224,509.9c0.227-0.188,0.364-0.245,0.368-0.312
		c0.155-2.696,0.312-5.393,0.394-8.092c0.004-0.115-0.826-0.474-1.036-0.345c-1.841,1.138-3.679,2.294-5.426,3.57
		c-6.966,5.09-13.913,10.21-20.239,16.104c-0.25,0.232-0.438,0.639-0.448,0.97c-0.004,0.142,0.509,0.404,0.807,0.437
		c8.337,0.903,16.677,1.793,25.019,2.657c1.188,0.123,1.502-0.373,1.053-1.515c-0.451-1.146-0.979-2.266-1.386-3.427
		c-1.18-3.365-2.285-6.751-1.503-10.401c0.083-0.39,0.239-0.765,0.418-1.329C123.05,508.903,123.649,509.413,124.224,509.9z
		 M72.986,505.852c-1.048,0.395-1.792,0.601-2.458,0.955c-0.374,0.199-0.615,0.645-0.917,0.979c0.375,0.171,0.742,0.466,1.127,0.491
		c1.28,0.083,2.566,0.081,3.85,0.089c1.1,0.007,1.56-0.208,0.885-1.475c-1.366-2.563-2.676-5.173-3.746-7.869
		c-1.145-2.885-0.701-5.604,1.584-7.914c2.26-2.285,2.975-2.384,5.741-0.779c2.796,1.622,5.781,1.904,8.852,0.924
		c1.78-0.567,3.498-1.341,5.292-1.856c5.557-1.597,10.925-1.605,15.721,2.233c0.713,0.571,1.295,0.535,1.929-0.13
		c0.747-0.783,1.541-1.523,2.34-2.256c3.373-3.093,7.011-5.626,11.872-5.542c0.24,0.004,0.619-0.016,0.7-0.157
		c0.409-0.717,0.742-1.478,1.101-2.222c-0.56-0.105-1.145-0.365-1.675-0.281c-0.917,0.143-1.792,0.53-2.699,0.759
		c-8.006,2.018-16.074,3.688-24.335,4.242c-9.628,0.646-19.155,0.347-28.372-2.968c-3.191-1.146-3.042-1.145-2.619,2.156
		c0.671,5.23,1.068,10.496,1.686,15.735c0.094,0.794,0.628,1.631,1.179,2.253C70.821,504.115,71.818,504.834,72.986,505.852z
		 M232.259,661.062c1.876,0.329,3.573-0.629,5.117-1.945c0.295-0.251,0.629-0.771,0.551-1.062c-0.083-0.312-0.6-0.624-0.982-0.72
		c-3.017-0.752-6.067-1.374-9.067-2.186c-5.145-1.394-10.411-2.515-15.343-4.465c-4.642-1.835-9.071-4.352-13.315-7.012
		c-4.706-2.95-9.109-6.389-13.622-9.645c-4.095-2.955-8.426-5.009-13.657-3.726c-0.667,0.164-1.275,0.567-1.911,0.86
		c0.552,0.427,1.06,0.935,1.664,1.268c3.664,2.016,7.366,3.963,11.019,5.998c0.938,0.522,1.684,1.345,2.948,0.825
		c0.33-0.135,0.951,0.201,1.333,0.471c3.782,2.675,7.521,5.411,11.314,8.07c5.504,3.857,11.325,7.179,17.396,10.06
		c0.367,0.174,1.182,0.207,1.271,0.035c0.837-1.601,1.817-0.771,2.846-0.3C223.697,659.366,227.637,660.934,232.259,661.062z
		 M106.837,678.913c-1.86,1.174-2.064,1.722-1.144,3.086c4.347,6.448,9.375,12.325,14.927,17.757
		c2.736,2.677,2.754,2.658,5.788,0.408c0.079-0.06,0.164-0.112,0.24-0.174c4.42-3.55,8.852-7.084,13.249-10.663
		c1.133-0.922,1.096-2.144-0.054-2.929c-2.306-1.572-4.857-2.38-7.673-2.138c-1.858,0.161-2.473,0.732-2.595,2.573
		c-0.064,0.971-0.002,1.993,0.244,2.93c0.353,1.35-0.222,1.613-1.354,1.475c-2.548-0.311-3.582-2.176-4.375-4.281
		c-0.181-0.479-0.334-0.97-0.5-1.455c-0.135-0.011-0.269-0.021-0.403-0.031c-0.175,0.405-0.489,0.806-0.499,1.215
		c-0.026,1.023,0.108,2.051,0.131,3.078c0.009,0.411-0.004,1.118-0.182,1.179c-0.388,0.132-0.938,0.041-1.33-0.148
		c-0.636-0.308-1.198-0.768-1.785-1.158c-0.365,0.548-0.623,0.936-1.037,1.558c-0.905-0.997-1.827-1.767-2.43-2.734
		c-0.821-1.317-1.295-2.851-2.112-4.171c-0.705-1.14-1.68-2.11-2.596-3.228C108.914,682.757,108.395,679.654,106.837,678.913z
		 M87.674,499.146c-0.9,1.566-2.321,1.621-3.556,1.951c-0.938,0.251-1.217,0.536-0.759,1.537c1.181,2.582,2.213,5.231,3.348,7.836
		c0.204,0.469,0.617,0.846,0.934,1.265c0.168-0.512,0.518-1.04,0.472-1.532c-0.161-1.721-0.44-3.431-0.709-5.14
		c-0.266-1.691-0.074-1.882,1.625-1.879c4.593,0.009,9.188,0.046,13.779-0.082c1.898-0.054,3.785-0.512,5.679-0.768
		c4.346-0.587,8.719-1.019,13.03-1.8c2.422-0.438,3.439-2.188,3.488-4.683c0.021-1.065-0.479-1.361-1.38-1.081
		c-4,1.247-7.895,2.723-11.374,5.14c-0.922,0.641-1.927,1.2-2.963,1.631c-2.51,1.045-4.841,0.142-7.142-0.831
		c-2.532-1.069-5.065-2.138-7.593-3.219c-0.152-0.065-0.26-0.233-0.743-0.688c2.707-0.113,5.021-0.211,7.334-0.309
		c0.008-0.209,0.017-0.417,0.025-0.625c-1.744-1.328-4-1.074-5.988-1.789c2.088-0.327,4.14-0.625,6.198,0.177
		c0.863,0.336,1.803,0.83,2.771-0.137c-2.76-2.345-6.173-1.226-9.556-1.979c3.817-1.005,7.201-1.038,10.569,0.171
		c0.374,0.134,0.836,0.019,1.258,0.019c-0.425-0.756-0.909-1.273-1.506-1.54c-3.356-1.502-6.809-1.492-10.26-0.394
		c-2.015,0.642-3.973,1.46-5.974,2.149c-2.862,0.986-5.79,1.136-8.775,0.655c-0.458-0.074-0.974,0.215-1.462,0.337
		c0.122,0.444,0.192,0.911,0.376,1.329c0.55,1.249,1.451,1.924,2.904,1.79c0.972-0.089,1.958-0.029,2.937-0.032
		c0.773-0.003,1.546-0.001,2.319-0.001c0.016,0.208,0.033,0.415,0.049,0.623c-1.777,0.486-3.555,0.973-5.332,1.458
		C83.59,500.049,85.514,499.212,87.674,499.146z M156.85,583.289c-2.947-0.158-5.713,0.354-7.47,1.353
		c-2.382,1.354-2.415,5.144-0.012,6.551c0.764,0.448,0.891,0.944,0.902,1.79c0.018,1.298,0.244,2.622,0.612,3.867
		c0.122,0.414,1.007,0.939,1.45,0.864c2.469-0.423,4.682-1.371,6.348-3.407c0.54-0.659,1.402-1.104,2.191-1.499
		c1.382-0.688,3.103-0.954,3.028-3.106c-0.007-0.217,0.774-0.672,1.171-0.651c1.327,0.068,2.65,0.277,3.965,0.49
		c0.349,0.057,0.665,0.32,0.996,0.489c-0.22,0.34-0.365,0.786-0.672,1.002c-1.654,1.156-3.363,2.234-5.016,3.394
		c-0.346,0.242-0.536,0.708-0.798,1.07c0.429,0.197,0.882,0.602,1.282,0.553c1.258-0.152,2.499-0.459,3.739-0.736
		c1.268-0.284,2.514-0.688,3.793-0.876c0.771-0.113,1.222-0.32,1.198-1.14c-0.037-1.284,0.687-1.19,1.662-1.105
		c0.931,0.081,1.971-0.006,2.821-0.36c1.105-0.461,1.026-1.374-0.046-1.924c-0.614-0.315-1.301-0.514-1.858-0.904
		c-0.463-0.324-0.784-0.853-1.167-1.29c0.518-0.285,1.005-0.687,1.559-0.831c1.044-0.272,2.135-0.363,3.19-0.602
		c0.338-0.076,0.625-0.378,0.935-0.576c-0.205-0.314-0.353-0.693-0.625-0.929c-0.634-0.546-1.274-1.126-2.009-1.504
		c-1.213-0.625-2.226-1.666-3.938-1.083c-1.924,0.655-4.017,0.807-6.013,1.273c-0.54,0.127-1.207,0.493-1.449,0.945
		c-0.536,1.001-1.269,1.462-2.355,1.481c-1.342,0.023-2.419,0.521-3.395,1.501c-1.622,1.629-3.469,2.958-5.907,3.038
		c-0.347,0.011-0.701-0.183-1.051-0.281c0.149-0.334,0.236-0.72,0.462-0.99c0.275-0.328,0.929-0.53,0.963-0.838
		c0.167-1.497,1.394-1.769,2.408-2.322c0.517-0.282,1.068-0.564,1.465-0.979c0.259-0.271,0.415-0.813,0.336-1.171
		c-0.053-0.241-0.581-0.48-0.924-0.532C158.043,583.226,157.442,583.289,156.85,583.289z M241.582,487.795
		c0.036-0.907-0.274-1.103-1.812-0.715c-9.985,2.517-20.065,2.319-30.167,0.96c-4.244-0.571-8.468-1.308-12.687-2.048
		c-1.456-0.256-2.033,0.492-2.563,1.623c-0.54,1.154,0.497,1.314,1.003,1.806c0.567,0.549,1.124,1.139,1.786,1.55
		c0.448,0.278,1.156,0.521,1.6,0.363c2.817-0.999,5.69-1.431,8.681-1.583c5.172-0.265,10.083,0.71,14.567,3.131
		c2.108,1.138,3.5,1.163,5.582-0.034c4.328-2.491,7.317-0.777,8.871,3.145c0.45,1.135,0.761,2.379,0.836,3.591
		c0.056,0.912-0.142,1.992-0.615,2.758c-1.788,2.893-3.734,5.688-5.623,8.517c-0.616,0.923-0.816,1.813-0.252,2.902
		c0.369,0.712,0.472,1.593,0.558,2.411c0.098,0.938,0.5,1.318,1.443,1.21c1.028-0.117,2.063-0.195,3.097-0.237
		c0.973-0.039,1.448-0.511,1.477-1.469c0.041-1.383,0.132-2.767,0.101-4.147c-0.01-0.432-0.229-1.001-0.551-1.262
		c-2.056-1.664-2.075-1.643,0.27-2.896c0.216-0.116,0.463-0.176,0.679-0.293c0.96-0.523,1.584-1.204,1.636-2.422
		c0.066-1.524,0.346-3.039,0.536-4.558C240.533,496.128,241.033,492.159,241.582,487.795z M235.972,596.646
		c-0.048-0.009-0.098-0.017-0.146-0.024c0-5.086-0.023-10.172,0.016-15.258c0.01-1.262-0.391-1.988-1.733-2.038
		c-0.439-0.017-0.88-0.226-1.31-0.196c-0.435,0.03-0.857,0.246-1.285,0.381c0.222,0.319,0.382,0.719,0.675,0.945
		c2.838,2.19,3.469,7.061,1.879,9.822c-1.392,2.418-2.667,4.917-3.811,7.463c-1.522,3.389-1.446,3.423,1.591,5.544
		c2.037,1.422,2.92,4.578,2.398,6.99c-0.715,3.307-2.242,6.169-3.988,8.997c-1.947,3.155-2.661,6.487-0.092,9.653
		c2.776,3.423,2.149,7.189,0.198,10.289c-1.914,3.041-3.929,6.02-5.8,9.085c-0.258,0.423-0.185,1.438,0.145,1.76
		c1.05,1.026,2.243,1.932,3.478,2.735c0.824,0.536,1.796,0.581,2.551-0.275c1.946-2.209,2.282-6.188,0.836-8.634
		c-0.212-0.359-0.171-1.262,0.083-1.439c1.456-1.017,1.924-2.43,2.015-4.086C234.434,624.455,235.204,610.551,235.972,596.646z
		 M177.692,435.959c-0.194-0.039-0.389-0.078-0.583-0.117c-0.184,0.468-0.42,0.922-0.542,1.406c-0.76,3.008-1.257,6.108-2.294,9.017
		c-1.571,4.407-3.269,8.804-5.353,12.985c-3.003,6.023-5.741,12.152-7.811,18.534c-1.837,5.667-3.212,11.483-4.778,17.238
		c-0.092,0.338-0.073,0.708-0.105,1.063c0.135,0.058,0.271,0.114,0.407,0.172c2.8-2.968,5.052-6.31,6.794-10.081
		c-1.948-0.564-2.195-0.907-1.458-1.99c0.858-1.263,1.812-2.46,2.707-3.698c1.589-2.2,3.184-4.397,4.725-6.63
		c0.26-0.377,0.266-0.928,0.389-1.398c-0.125-0.078-0.25-0.157-0.375-0.236c-0.609,0.536-1.187,1.117-1.845,1.584
		c-0.263,0.187-0.704,0.121-1.064,0.17c0.003-0.352-0.063-0.724,0.031-1.051c0.076-0.264,0.357-0.463,0.521-0.709
		c2.379-3.574,4.764-7.143,7.109-10.738c0.224-0.344,0.185-0.858,0.313-1.525c-0.735,0.235-1.172,0.375-1.608,0.516
		c-0.125-0.072-0.249-0.145-0.373-0.217c2.246-3.604,3.933-7.438,4.688-11.572C177.958,444.473,178.286,440.216,177.692,435.959z
		 M217.901,589.363c0.164,0.005,0.327,0.01,0.491,0.016c-0.472,7.934-0.801,15.879-1.454,23.798
		c-0.708,8.605-1.692,17.188-2.627,25.773c-0.111,1.015-0.68,1.977-1.016,2.97c-0.106,0.313-0.316,0.772-0.186,0.954
		c1.082,1.51-0.032,2.67-0.486,3.97c-0.162,0.463,0.114,1.079,0.189,1.625c0.464-0.337,1.09-0.575,1.365-1.027
		c1.781-2.932,3.373-5.984,5.271-8.835c0.77-1.157,0.89-1.986,0.382-3.227c-0.723-1.765-1.417-3.595-1.736-5.463
		c-0.846-4.958,0.577-9.458,3.128-13.694c0.311-0.517,0.377-1.464,0.117-1.996c-1.982-4.067-2.655-8.336-1.553-12.686
		c0.901-3.557,2.338-6.974,3.458-10.479c0.175-0.549,0.17-1.509-0.169-1.811c-2.109-1.881-2.663-4.393-3.13-6.973
		c-0.14-0.773-0.217-1.575-0.493-2.299c-0.159-0.42-0.655-0.712-1-1.062c-0.184,0.47-0.519,0.937-0.526,1.409
		C217.878,583.339,217.901,586.352,217.901,589.363z M170.252,725.159c-0.58,0.064-0.95,0.052-1.288,0.152
		c-1.357,0.401-2.683,1.1-4.058,1.211c-3.781,0.305-7.58,0.471-11.373,0.504c-5.779,0.052-11.561-0.056-17.34-0.093
		c-2.347-0.014-4.753,0.475-6.937-0.896c-0.229-0.145-0.895-0.07-0.922,0.026c-0.108,0.382-0.154,0.852-0.026,1.22
		c1.448,4.166,4.877,5.716,8.805,6.516c5.223,1.064,10.512,1.173,15.795,0.697c4.432-0.399,8.858-0.973,12.739-3.465
		C167.78,729.662,169.273,727.794,170.252,725.159z M187.833,460.168c-0.143-0.041-0.285-0.081-0.428-0.121
		c-0.396,0.596-0.805,1.185-1.185,1.791c-1.828,2.914-3.377,6.053-5.532,8.699c-3.264,4.009-7.067,7.574-10.409,11.523
		c-2.375,2.808-4.607,5.798-6.469,8.962c-2.094,3.558-3.706,7.398-5.515,11.123c-0.619,1.272-1.201,2.563-1.896,4.052
		c2.763-0.427,11.257-8.712,11.743-11.168c-0.978,0.367-1.92,0.72-2.862,1.072c-0.09-0.148-0.18-0.298-0.271-0.447
		c2.76-2.791,6.247-4.924,8.408-8.644c-0.915,0.222-1.5,0.363-2.084,0.505c-0.061-0.123-0.121-0.245-0.182-0.368
		c0.416-0.386,0.826-0.778,1.248-1.157c1.686-1.513,3.407-2.989,5.041-4.556c0.351-0.336,0.687-1.308,0.531-1.452
		c-1.079-1.008-0.203-1.553,0.387-2.176c4.404-4.658,7.782-9.92,9.46-16.169C187.94,461.18,187.833,460.66,187.833,460.168z
		 M194.24,499.986c-0.096-0.175-0.191-0.35-0.287-0.525c-0.37,0.151-0.753,0.274-1.107,0.457c-2.751,1.424-5.435,2.997-8.257,4.262
		c-6.001,2.689-11.977,5.493-16.966,9.798c-3.602,3.107-6.66,6.847-9.937,10.327c-0.299,0.318-0.42,0.804-0.625,1.211
		c0.443,0.177,0.874,0.464,1.331,0.512c2.753,0.289,5.267-0.542,7.679-1.769c0.993-0.505,2.136-0.836,2.174-2.311
		c0.008-0.304,0.538-0.65,0.891-0.876c0.663-0.424,1.416-0.716,2.043-1.182c0.27-0.2,0.554-0.862,0.433-1.032
		c-0.934-1.317,0.033-1.492,0.948-1.944c1.717-0.846,3.643-1.471,4.714-3.367c-0.453-0.332-0.791-0.58-1.323-0.971
		C182.69,509.078,189.034,505.324,194.24,499.986z M169.571,503.83c2.057-1.142,3.993-2.287,5.996-3.301
		c1.164-0.59,1.952-1.188,1.088-2.499c0.123-0.162,0.166-0.268,0.244-0.313c0.298-0.172,0.616-0.311,0.912-0.486
		c4.81-2.858,9.38-6.014,12.998-10.37c1.428-1.721,2.22-3.717,2.602-5.88c0.07-0.396-0.239-0.858-0.373-1.29
		c-0.378,0.251-0.882,0.419-1.116,0.768c-3.25,4.849-7.333,8.857-12.05,12.274c-3.952,2.862-7.968,5.665-11.702,8.797
		c-5.803,4.867-10.77,10.56-15.256,16.659c-0.51,0.692-0.835,1.521-1.246,2.287c0.86-0.221,1.769-0.328,2.571-0.681
		c4.237-1.861,7.5-5.04,10.8-8.152c0.245-0.231,0.277-0.689,0.408-1.042c-0.392-0.121-0.784-0.337-1.177-0.338
		c-0.498-0.002-0.997,0.171-1.495,0.27c-0.102-0.174-0.204-0.347-0.307-0.52c1.252-0.931,2.459-1.933,3.77-2.771
		c1.35-0.864,2.802-1.57,4.267-2.377C170.147,504.47,169.87,504.161,169.571,503.83z M110.899,654.541
		c-0.036-0.001-0.073-0.002-0.109-0.003c0-4.89,0.011-9.779-0.021-14.668c-0.002-0.384-0.23-0.823-0.489-1.117
		c-0.092-0.104-0.663,0.057-0.888,0.247c-2.353,1.998-3.889,4.406-3.905,7.631c-0.035,6.768-0.111,13.536-0.19,20.305
		c-0.035,3.011-0.146,6.021-0.143,9.032c0,0.345,0.521,0.688,0.799,1.032c1.055-1.017,2.454-1.861,3.075-3.096
		c0.752-1.496,1.067-3.308,1.187-5.009C110.549,664.118,110.685,659.327,110.899,654.541z M154.42,700.633
		c0.023,0.001,0.046,0.002,0.069,0.002c0.156-4.887,0.456-9.776,0.364-14.658c-0.023-1.211-1.307-2.404-2.043-3.586
		c-0.061-0.098-0.375-0.092-0.554-0.055c-1.049,0.22-2.702,2.432-2.702,3.545c-0.002,2.267-0.027,4.534-0.04,6.802
		c-0.046,8.3-0.091,16.599-0.138,24.898c-0.005,0.803,0.382,1.13,1.123,0.817c0.724-0.306,1.381-0.768,2.104-1.075
		c1.048-0.446,1.406-1.154,1.423-2.311C154.097,710.219,154.279,705.426,154.42,700.633z M172.633,703.266
		c0.131,0.085,0.263,0.169,0.394,0.254c1.101-0.951,2.262-1.845,3.275-2.881c0.467-0.478,0.905-1.23,0.919-1.867
		c0.264-11.75,0.463-23.502,0.663-35.253c0.004-0.268-0.093-0.715-0.248-0.768c-0.271-0.093-0.739-0.061-0.926,0.122
		c-1.608,1.567-3.902,2.771-3.176,5.657c0.046,0.185-0.006,0.394-0.012,0.591c-0.296,9.231-0.605,18.463-0.879,27.695
		C172.579,698.965,172.633,701.116,172.633,703.266z M182.486,656.514c-0.694-0.833-4.629-2.455-5.416-2.271
		c-0.261,0.062-0.504,0.278-0.714,0.47c-1.838,1.671-2.826,1.839-5.042,0.83c-1.533-0.696-2.309-0.27-2.278,1.392
		c0.025,1.392-0.558,2.373-1.416,3.426c-1.101,1.352-2.163,2.856-2.754,4.473c-0.778,2.13-0.685,2.242-2.434,0.815
		c-0.058-0.047-0.188-0.007-0.479-0.007c-0.112,0.456-0.261,0.946-0.349,1.447c-0.221,1.263-0.345,2.547-0.639,3.791
		c-0.348,1.475-1.194,1.972-2.689,1.653c-1.061-0.225-1.373,0.208-1.232,1.179c0.05,0.342,0.072,0.688,0.146,1.025
		c0.294,1.331,1.049,1.536,2.096,0.672c4.71-3.89,9.434-7.764,14.168-11.623C176.426,661.364,179.425,658.977,182.486,656.514z
		 M128.862,716.819c0.062-0.124,0.124-0.248,0.186-0.373c2.247,0.22,4.192,1.381,5.78,2.872c1.649,1.548,2.912,3.507,4.513,5.497
		c-0.116-0.579-0.12-1.009-0.286-1.362c-1.855-3.937-5.115-6.405-8.997-7.958c-2.9-1.16-5.97-1.953-9.02-2.67
		c-3.492-0.82-7.043-1.396-10.576-2.036c-1.165-0.211-1.29,0.63-1.008,1.39c0.776,2.099,1.82,4.014,3.87,5.22
		c2.982,1.756,6.35,2.176,9.638,2.588c3.719,0.466,6.628,1.963,8.901,4.895c0.276,0.355,0.975,0.384,1.477,0.564
		c-0.126-0.514-0.087-1.197-0.408-1.514c-1.515-1.494-3.129-2.888-4.7-4.31c-0.016,0.013,0.048-0.081,0.127-0.094
		c0.141-0.024,0.301-0.034,0.435,0.009c1.916,0.605,3.611,1.549,4.87,3.172c0.544,0.701,1.085,1.413,1.708,2.041
		c0.206,0.206,0.665,0.16,1.007,0.23c-0.021-0.308,0.078-0.712-0.081-0.907c-1.085-1.336-2.139-2.714-3.37-3.907
		C131.671,718.948,130.225,717.927,128.862,716.819z M122.252,643.307c-0.079-0.007-0.158-0.014-0.236-0.02
		c0-0.445-0.002-0.89,0-1.334c0.019-3.604,0.063-7.209,0.021-10.813c-0.005-0.397-0.534-1.135-0.776-1.117
		c-0.754,0.055-2.94,3.012-2.981,3.789c-0.548,10.404-1.098,20.809-1.646,31.213c-0.083,1.571,0.204,1.854,2.566,2.136
		c1.265,0.151,1.242-0.917,1.307-1.709C121.106,658.071,121.674,650.688,122.252,643.307z M39.243,545.74c-0.026,0-0.051,0-0.077,0
		c0-1.137-0.012-2.272,0.003-3.408c0.015-1.059-0.51-1.511-1.49-1.182c-0.974,0.326-1.859,0.99-2.846,1.18
		c-0.764,0.147-1.88,0.047-2.358-0.428c-0.345-0.343-0.135-1.628,0.24-2.238c1.153-1.877,2.752-3.241,5.14-3.234
		c0.896,0.002,1.208-0.422,1.169-1.295c-0.062-1.431-0.015-2.866-0.08-4.297c-0.018-0.397-0.178-1.022-0.434-1.121
		c-0.376-0.145-0.998-0.053-1.343,0.187c-3.675,2.546-6.853,5.521-8.124,10.015c-0.823,2.91-0.843,5.775,0.872,8.413
		c1.59,2.447,5.849,3.659,8.539,2.383c0.417-0.198,0.697-1.012,0.755-1.569C39.324,548.021,39.243,546.876,39.243,545.74z
		 M163.136,724.525c0.077,0.157,0.153,0.315,0.23,0.473c0.489-0.098,0.998-0.139,1.463-0.303c2.591-0.913,5.138-1.969,7.765-2.762
		c3.196-0.965,6.531-1.508,9.667-2.62c3.281-1.163,5.107-3.137,4.723-6.594c-0.125-1.114-0.434-1.341-1.355-0.697
		c-0.766,0.535-1.534,1.072-2.339,1.545c-2.234,1.313-4.734,1.154-7.193,1.3c-3.72,0.221-7.542-0.122-11.056,1.48
		c-2.485,1.134-4.621,2.72-5.569,5.495c2.294-1.683,4.299-3.855,7.371-4.111c-1.278,1.322-3.111,2.085-3.982,4.295
		c2.085-0.973,3.532-2.54,5.618-2.348C166.583,721.235,164.23,722.19,163.136,724.525z M151.129,663.744
		c1.798,0.665,2.299,0.473,2.108-0.689c-0.338-2.059-0.462-3.899,0.645-5.945c0.918-1.697,0.905-3.906,1.244-5.899
		c0.05-0.297-0.15-0.85-0.378-0.946c-1.344-0.571-0.93-1.433-0.449-2.297c0.961-1.725,1.978-3.42,2.908-5.16
		c0.192-0.359,0.107-0.866,0.151-1.305c-0.466,0.03-1.049-0.109-1.381,0.118c-4.141,2.819-6.999,6.604-6.916,11.733
		c0.097,5.99-1.325,11.518-3.732,16.896c-0.942,2.104-0.885,2.203,0.973,3.666c0.349,0.274,0.694,0.568,1.082,0.775
		c1.026,0.547,1.619,0.243,1.71-0.917c0.077-0.983-0.007-1.98,0.083-2.962c0.042-0.449,0.296-1.236,0.514-1.258
		c2.107-0.208,1.438-1.703,1.438-2.895C151.128,665.727,151.129,664.793,151.129,663.744z M199.473,690.188
		c0.121,0.093,0.241,0.186,0.361,0.278c-0.189,0.373-0.371,0.75-0.568,1.12c-0.739,1.385-1.524,2.748-2.194,4.166
		c-0.159,0.337,0.064,0.855,0.112,1.291c0.423-0.18,0.906-0.286,1.248-0.565c0.228-0.187,0.286-0.611,0.368-0.942
		c0.474-1.909,1.575-3.365,3.204-4.427c2.109-1.373,4.243-2.707,6.352-4.081c3.085-2.011,6.019-4.189,7.443-7.772
		c0.21-0.528,0.055-1.201,0.068-1.808c-0.506,0.043-1.018,0.053-1.517,0.142c-0.334,0.06-0.646,0.239-0.973,0.352
		c-5.237,1.803-10.427,3.729-14.761,7.319c-1.509,1.25-2.953,2.644-4.148,4.188c-0.952,1.229-1.48,2.787-2.196,4.199
		c0.155,0.079,0.31,0.158,0.465,0.237c0.818-1.218,1.534-2.523,2.484-3.626c0.936-1.086,1.773-2.381,3.569-3.09
		c-0.255,0.623-0.325,0.896-0.466,1.125c-1.373,2.219-2.788,4.413-4.106,6.663c-0.217,0.372-0.028,0.981-0.027,1.481
		c0.392-0.263,0.846-0.469,1.156-0.808c0.252-0.274,0.306-0.72,0.49-1.067C196.75,692.844,197.653,691.113,199.473,690.188z
		 M221.414,608.404c0.148-0.002,0.297-0.004,0.445-0.007c0.173-2.454,0.346-4.908,0.519-7.362c0.164,0.011,0.327,0.021,0.491,0.033
		c0.031,0.284,0.088,0.569,0.089,0.854c0.006,1.926-0.031,3.853,0.029,5.776c0.011,0.334,0.422,0.654,0.648,0.981
		c0.16-0.359,0.453-0.718,0.458-1.08c0.018-1.331-0.186-2.676-0.06-3.991c0.098-1.029,0.56-2.024,0.86-3.034
		c0.472,1.744,0.549,3.36,0.793,4.949c0.1,0.652,0.56,1.249,0.855,1.871c0.219-0.633,0.597-1.258,0.628-1.9
		c0.144-2.981,0.254-6.061,1.952-8.561c1.829-2.693,3.521-5.33,4.251-8.573c0.472-2.092-0.348-5.974-2.077-7.541
		c-0.155,0.173-0.403,0.324-0.45,0.522c-0.661,2.771-2.328,4.954-4.038,7.137c-4.067,5.192-6.27,10.994-5.583,17.697
		C221.302,606.918,221.353,607.661,221.414,608.404z M128.908,646.818c-0.071,0.002-0.143,0.003-0.215,0.005
		c-0.225,3.993-0.458,7.987-0.659,11.981c-0.018,0.354,0.084,0.946,0.285,1.023c0.347,0.133,0.884,0.068,1.223-0.123
		c1.935-1.092,3.579-2.394,3.659-4.926c0.037-1.174,0.361-2.337,0.524-3.51c0.715-5.111,0.993-10.24,0.083-15.343
		c-0.24-1.347-1.02-2.612-1.656-3.862c-0.143-0.281-0.719-0.344-1.096-0.507c-0.432,1.315-2.261,1.602-2.193,3.409
		C129.01,638.913,128.908,642.867,128.908,646.818z M225.517,622.037c0,0.225,0.016,0.45-0.002,0.673
		c-0.185,2.195-0.425,4.388-0.522,6.587c-0.02,0.447,0.497,0.919,0.767,1.379c0.173-0.49,0.505-0.985,0.492-1.472
		c-0.086-3.314,0.479-6.458,1.952-9.465c1.524-3.109,3.572-5.981,3.852-9.652c0.139-1.818,0.061-3.434-0.967-4.929
		c-0.225-0.328-0.646-0.521-0.976-0.775c-0.254,0.335-0.562,0.644-0.754,1.012c-0.912,1.733-1.54,3.686-2.735,5.188
		c-2.554,3.208-4.499,6.724-6.053,10.472c-1.009,2.433-1.595,4.987-1.355,7.66c0.104,1.161,0.353,2.272,1.694,3.246
		c-0.159-4.018-0.231-7.743,1.879-11.077c0.042,0.605-0.035,1.203-0.091,1.803c-0.193,2.056-0.461,4.11-0.522,6.17
		c-0.022,0.719,0.472,1.453,0.73,2.18c0.124-0.041,0.247-0.083,0.37-0.125C223.486,627.832,223.381,624.677,225.517,622.037z
		 M184.229,674.689c-0.11,0-0.221,0-0.332,0.001c0,5.23-0.022,10.462,0.034,15.692c0.005,0.52,0.374,1.366,0.762,1.496
		c1.775,0.591,2.848-0.191,2.911-2.026c0.327-9.572,0.583-19.147,0.982-28.716c0.069-1.648-0.54-2.584-1.835-3.345
		c-1.707-1.003-2.506-0.613-2.514,1.345C184.214,664.32,184.229,669.505,184.229,674.689z M165.632,672.263
		c-2.467,0.719-3.699,2.317-3.747,4.562c-0.21,10.079-0.443,20.158-0.654,30.237c-0.036,1.702-0.005,3.406-0.005,5.116
		c1.686-0.118,3.444-1.707,3.484-3.071c0.063-2.124,0.099-4.248,0.162-6.371c0.286-9.684,0.578-19.367,0.859-29.051
		C165.744,673.225,165.669,672.763,165.632,672.263z M82.122,656.538c0.182,0.063,0.364,0.127,0.546,0.19
		c0.367-0.349,0.909-0.633,1.068-1.059c0.461-1.24,0.961-2.518,1.099-3.816c0.368-3.477-1.137-6.475-2.648-9.477
		c-2.546-5.055-6.278-9.185-10.11-13.242c-0.769-0.814-1.308-0.604-1.709,0.439c-1.244,3.229-0.514,6.129,1.542,8.732
		c2.456,3.11,4.78,6.274,5.838,10.178c0.249,0.92,0.516,1.834,0.774,2.75c0.126-0.004,0.252-0.009,0.379-0.014
		c0.131-1.051,0.263-2.103,0.395-3.153c0.167-0.003,0.334-0.005,0.502-0.007c0.215,1.839,0.43,3.678,0.645,5.516
		c2.034-3.728,0.498-7.384,0.066-11.067C83.828,646.821,83.602,651.596,82.122,656.538z M69.812,607.99
		c-0.727,1.649-0.191,2.087,1.161,4.285c2.2,3.577,3.827,7.232,3.217,11.571c-0.13,0.921-0.051,1.878,0.004,2.814
		c0.021,0.366,0.242,0.72,0.372,1.079c0.211-0.017,0.423-0.033,0.635-0.05c0.137-2.056,0.274-4.111,0.419-6.296
		c1.944,2.296,0.903,4.762,0.662,7.453c2.026-1.549,2.028-3.293,1.913-5.019c-0.115-1.729-0.374-3.447-0.621-5.617
		c0.609,0.668,1.086,0.964,1.217,1.372c0.66,2.054,1.584,4.102,0.852,6.333c-0.614,1.871-1.305,3.718-1.949,5.579
		c-0.113,0.328-0.158,0.679-0.234,1.02c0.11,0.07,0.219,0.142,0.329,0.212c0.393-0.311,0.958-0.54,1.149-0.945
		c1.218-2.589,2.394-5.2,2.088-8.191c-0.396-3.882-1.804-7.456-3.414-10.943c-1.344-2.909-2.877-5.732-4.359-8.576
		c-0.349-0.669-0.832-1.27-1.253-1.901c-0.67,0.535-1.489,0.964-1.968,1.635c-0.459,0.644-0.608,1.527-0.797,2.329
		c-0.055,0.231,0.222,0.54,0.414,0.963c0.495-0.527,0.841-0.896,1.476-1.573c0,1.61,0,2.845,0,4.079
		c-0.1,0.025-0.199,0.051-0.299,0.075C70.524,609.178,70.224,608.677,69.812,607.99z M218.47,517.833
		c0.158,0.028,0.317,0.056,0.475,0.084c0.159-0.444,0.368-0.878,0.465-1.336c0.143-0.668,0.209-1.353,0.303-2.03
		c0.385-2.771,2.029-4.971,3.314-7.336c0.959-1.765,0.858-1.889-0.86-2.862c-3.125-1.771-6.245-3.557-9.299-5.447
		c-1.12-0.693-1.837-0.578-2.671,0.373c-1.711,1.95-3.816,3.275-6.475,3.395c-1.57,0.07-3.159,0.021-4.72-0.146
		c-1.071-0.115-1.582,0.406-1.876,1.229c-0.036,0.099,0.79,0.649,1.271,0.768c7.087,1.739,14.309,2.251,21.58,2.279
		c0.358,0.002,0.958,0.088,1.023,0.277c0.119,0.353,0.014,0.852-0.153,1.219c-0.767,1.698-1.715,3.326-2.35,5.069
		C217.974,514.809,217.825,516.373,218.47,517.833z M90.413,677.074c0.013-4.215-1.724-7.684-3.664-11.125
		c1.558,0.567,2.428,1.696,3.052,3.009c1.216,2.558,1.975,5.231,1.995,8.104c0.003,0.405,0.589,0.807,0.905,1.209
		c0.162-0.44,0.528-0.921,0.451-1.314c-0.346-1.773-0.74-3.546-1.26-5.275c-1.291-4.285-4.199-7.495-7.298-10.527
		c-1.118-1.094-2.616-1.807-3.695-2.929c-1.732-1.801-3.253-3.804-4.884-5.704c-0.241-0.281-0.564-0.577-0.9-0.657
		c-0.166-0.04-0.551,0.35-0.659,0.617c-0.921,2.279-0.952,4.618,0.423,6.653c1.197,1.771,2.674,3.396,4.233,4.868
		c2.591,2.447,5.296,4.758,6.167,8.438c0.182,0.769,0.261,1.572,0.544,2.298c0.118,0.303,0.647,0.445,0.989,0.661
		c0.169-0.348,0.558-0.766,0.473-1.032c-0.548-1.73-1.181-3.436-1.828-5.133c-0.235-0.615-0.584-1.187-0.882-1.778
		c0.549,0.027,0.91,0.187,1.154,0.453c1.908,2.087,2.715,4.659,3.041,7.384C88.89,676.294,89.05,677.01,90.413,677.074z
		 M82.619,674.355c-0.201,0.23-0.334,0.323-0.378,0.449c-0.064,0.18-0.101,0.387-0.085,0.577c0.195,2.462,0.695,4.945,2.566,6.604
		c2.189,1.941,4.735,3.479,7.12,5.2c1.557,1.123,3.264,2.102,4.599,3.446c0.958,0.965,1.368,2.456,2.111,3.657
		c0.274,0.441,0.807,0.724,1.222,1.078c0.2-0.5,0.517-0.988,0.563-1.501c0.035-0.396-0.219-0.851-0.436-1.227
		c-0.697-1.208-1.437-2.391-2.223-3.688c2.151,0.578,3.709,2.803,3.964,5.267c0.053,0.511,0.537,0.977,0.822,1.464
		c0.238-0.513,0.72-1.049,0.675-1.535c-0.258-2.766-1.45-5.09-3.625-6.864c-1.022-0.833-2.065-1.64-3.099-2.458
		c0.114-0.174,0.228-0.348,0.341-0.521c1.479,0.824,2.958,1.648,4.436,2.474c-0.082-0.541-0.304-0.976-0.655-1.237
		c-1.535-1.146-3.03-2.378-4.684-3.326c-3.538-2.029-7.186-3.869-10.744-5.864C84.198,675.84,83.453,675.035,82.619,674.355z
		 M185.129,706.1c-0.134,0.239-0.255,0.486-0.404,0.715c-0.939,1.441-1.904,2.867-2.809,4.329c-0.149,0.24-0.158,0.857-0.037,0.919
		c0.305,0.155,0.826,0.25,1.07,0.086c0.604-0.404,1.242-0.879,1.619-1.481c1.736-2.775,4.403-3.967,7.434-4.657
		c1.771-0.402,3.575-0.775,5.257-1.434c2.414-0.945,4.21-2.582,4.441-5.386c0.042-0.501-0.166-1.021-0.195-1.186
		c-1.352,0.364-2.419,0.713-3.514,0.924c-0.669,0.129-1.379,0.066-2.07,0.052c-4.355-0.088-8.382,0.939-11.43,4.181
		c-1.962,2.086-3.558,4.525-5.234,6.865c-0.443,0.619-0.577,1.459-0.854,2.197c0.208,0.125,0.416,0.249,0.624,0.374
		C180.815,710.2,181.943,707.167,185.129,706.1z M205.623,495.618c-0.02,0.186-0.04,0.37-0.06,0.556
		c0.609,0.131,1.215,0.358,1.828,0.377c2.904,0.088,5.655,0.65,8.22,2.116c2.135,1.22,4.309,2.403,6.567,3.364
		c1.361,0.579,2.941,1.899,4.377,0.06c0.664-0.851,1.222-1.792,1.754-2.734c0.466-0.826,0.18-1.407-0.744-1.681
		c-0.898-0.266-1.824-0.478-2.674-0.856c-4.218-1.877-8.383-3.88-12.636-5.674c-1.884-0.794-3.931-0.833-5.928-0.045
		c2.141,0.907,4.873-0.15,6.541,2.037c-1.472,0-2.978-0.179-4.424,0.036c-3.408,0.505-3.396,0.581-3.739,1.827
		c0.753,0,1.486,0,2.552,0C206.496,495.289,206.059,495.453,205.623,495.618z M130.201,676.481c-3.262-0.156-4.356,0.725-4.27,2.737
		c0.026,0.59,0.492,1.16,0.756,1.74c0.465-0.361,0.905-0.763,1.401-1.072c0.561-0.35,1.167-0.862,1.764-0.877
		c2.671-0.063,4.58,2.34,7.258,2.362c0.04,0,0.074,0.07,0.119,0.084c1.951,0.614,3.572,1.529,3.629,3.909
		c0.003,0.129,0.116,0.281,0.22,0.378c1.576,1.465,1.839,3.238,1.445,5.28c-0.102,0.527,0.347,1.614,0.697,1.686
		c0.854,0.174,1.877,0.084,2.673-0.265c0.407-0.178,0.767-1.218,0.632-1.733c-0.345-1.322-0.801-2.685-1.536-3.821
		c-1.288-1.991-1.347-3.849-0.408-6.005c0.594-1.363,0.866-2.941,0.935-4.44c0.076-1.663-1.096-2.253-2.456-1.355
		c-0.814,0.537-1.529,1.242-2.23,1.931c-1.729,1.7-3.649,1.866-5.852,1.014C133.114,677.311,131.17,676.791,130.201,676.481z
		 M199.937,521.473c0.707,0,0.996,0.043,1.268-0.007c4.703-0.861,9.401-1.747,14.106-2.596c0.93-0.168,1.185-0.663,1.156-1.553
		c-0.03-0.974-0.035-1.985,0.192-2.922c0.369-1.524,0.984-2.988,1.389-4.506c0.122-0.457-0.112-1.009-0.184-1.517
		c-1.83,0.265-3.798-0.591-5.464,1.012c-3.771,3.627-7.646,7.146-11.465,10.724C200.631,520.394,200.431,520.788,199.937,521.473z
		 M121.396,669.063c0.886,1.029,1.941,1.802,2.346,2.83c0.636,1.616,1.695,1.687,3.06,1.502c1.586-0.215,2.849-0.933,3.922-2.14
		c2.488-2.801,4.221-6.035,5.6-9.476c0.664-1.657,1.208-3.362,1.805-5.044c-0.162-0.128-0.323-0.256-0.485-0.383
		C132.268,660.559,126.892,664.764,121.396,669.063z M92.197,609.007c1.171-1.065,2.002-1.847,2.86-2.598
		c2.14-1.872,3.66-3.876,3.458-7.064c-0.321-5.067-0.211-10.161-0.279-15.244c-0.018-1.245-0.565-1.971-1.885-1.909
		c-1.293,0.061-1.239,1.031-1.267,1.936c-0.103,3.355-0.159,6.715-0.354,10.065c-0.034,0.586-0.541,1.498-1.011,1.635
		c-1.116,0.324-1.34,0.978-1.371,1.958c-0.098,3.159-0.236,6.317-0.34,9.477C91.995,607.671,92.093,608.084,92.197,609.007z
		 M114.41,495.528c-0.067-0.122-0.136-0.244-0.204-0.367c0.178-0.205,0.333-0.438,0.537-0.611c2.93-2.495,6.276-4.017,10.132-4.432
		c0.434-0.046,0.809-0.638,1.211-0.977c-0.457-0.188-0.973-0.617-1.359-0.521c-1.803,0.444-3.583,0.993-5.344,1.587
		c-1.037,0.351-2.021,0.854-3.029,1.29c-0.092-0.183-0.184-0.364-0.276-0.547c1.112-0.76,2.138-1.734,3.358-2.229
		c1.946-0.789,4.029-1.236,6.038-1.88c0.367-0.117,0.654-0.482,0.979-0.732c-0.325-0.314-0.6-0.763-0.988-0.906
		c-0.435-0.16-0.977-0.086-1.465-0.041c-4.063,0.375-7.352,2.273-9.804,5.444c-2.682,3.469-5.95,6.005-10.124,7.375
		c-0.47,0.155-0.878,0.501-1.577,0.912c0.627,0.32,0.952,0.499,1.288,0.656c3.462,1.623,6.648,0.54,9.461-1.411
		c3.148-2.185,6.377-4.065,10.072-5.115c0.465-0.133,0.888-0.415,1.331-0.628c-0.065-0.166-0.131-0.333-0.196-0.499
		C120.592,491.466,117.752,494.302,114.41,495.528z M114.571,612.659c-0.095-0.168-0.191-0.337-0.286-0.505
		c-0.518,0.185-1.065,0.313-1.549,0.564c-3.165,1.641-5.528,1.408-8.267-0.91c-0.783-0.663-1.201-0.133-1.525,0.418
		c-1.344,2.283-2.764,4.533-3.917,6.912c-1.418,2.926-0.125,6.68,2.634,8.289c1.089,0.635,1.53,0.332,1.696-0.952
		c0.13-1.005,0.316-2.051,0.736-2.96c1.86-4.032,5.234-6.697,8.638-9.323C113.363,613.705,113.959,613.172,114.571,612.659z
		 M227.818,509.445c-0.235,0.563-0.347,0.813-0.443,1.066c-0.729,1.927-1.505,3.839-2.136,5.798
		c-0.123,0.381,0.329,0.947,0.516,1.429c0.399-0.349,0.916-0.629,1.168-1.063c0.289-0.494,0.364-1.12,0.494-1.697
		c0.715-3.174,1.946-6.058,4.213-8.492c1.335-1.434,2.495-3.049,3.595-4.677c0.618-0.914,0.825-2.011-0.001-3.146
		c-0.688,1.004-1.237,1.808-1.787,2.611c0.053-1.789,0.376-3.408,0.549-5.043c0.12-1.145-0.229-2.188-1.438-2.645
		c-0.325-0.122-0.738-0.013-1.11-0.01c0.003,0.366-0.109,0.785,0.031,1.089c0.539,1.173,0.585,2.309-0.174,3.371
		c-1.317,1.843-2.666,3.665-4.034,5.472c-2.911,3.844-6.101,7.541-6.556,12.646c-0.036,0.406,0.249,0.841,0.384,1.264
		c0.308-0.358,0.747-0.667,0.901-1.082c0.78-2.102,1.435-4.251,2.249-6.339c0.233-0.599,0.851-1.048,1.293-1.566
		c0.111,0.072,0.222,0.146,0.333,0.218c-0.264,0.936-0.529,1.871-0.718,2.539C225.893,510.701,226.701,510.174,227.818,509.445z
		 M222.445,642.074c0.164,0.098,0.328,0.195,0.492,0.292c-0.103,0.378-0.185,0.764-0.314,1.133
		c-0.648,1.852-1.344,3.687-1.934,5.556c-0.116,0.366,0.161,0.855,0.256,1.288c0.374-0.255,0.869-0.429,1.102-0.777
		c2.464-3.679,4.833-7.42,7.336-11.07c1.64-2.391,1.854-5.124,0.379-7.627c-0.47-0.798-0.838-0.762-1.428-0.063
		c-1.251,1.482-2.435,3.081-3.922,4.293c-3.908,3.185-6.846,7.019-8.596,11.743c-0.151,0.409-0.013,0.926-0.009,1.393
		c0.376-0.322,0.792-0.611,1.114-0.98c0.181-0.207,0.166-0.572,0.314-0.821c0.762-1.278,1.547-2.542,2.325-3.811
		c0.142,0.079,0.284,0.157,0.426,0.235c-0.233,0.881-0.467,1.762-0.7,2.643c0.091,0.004,0.182,0.008,0.272,0.012
		C220.522,644.365,221.483,643.22,222.445,642.074z M145.202,658.279c0.042-0.785,0.055-1.43,0.118-2.068
		c0.138-1.409,0.164-2.85,0.502-4.211c0.232-0.934,0.223-1.531-0.507-2.225c-0.706-0.671-1.19-1.569-1.823-2.325
		c-0.282-0.337-0.689-0.569-1.039-0.85c-0.208,0.364-0.516,0.704-0.61,1.096c-0.45,1.867-0.842,3.748-1.255,5.624
		c-1.015,4.605-2.595,9.003-4.845,13.153c-0.565,1.042-1.147,2.074-1.864,3.368c1.757-0.692,3.164-1.192,4.513-1.816
		c0.31-0.145,0.499-0.695,0.607-1.096c0.179-0.661,0.1-1.432,0.404-2.011c0.297-0.567,0.868-1.216,1.442-1.371
		c1.875-0.506,2.143-0.739,2.072-2.695c-0.02-0.544-0.111-1.1-0.028-1.627c0.093-0.595,0.346-1.165,0.529-1.745
		C143.879,657.688,144.34,657.894,145.202,658.279z M142.694,695.307c-0.181,0.478-0.363,0.908-0.507,1.35
		c-0.231,0.703-0.359,1.454-0.689,2.104c-0.153,0.302-0.667,0.524-1.043,0.569c-0.23,0.028-0.716-0.344-0.72-0.544
		c-0.007-0.319,0.22-0.723,0.473-0.956c1.388-1.284,1.574-2.417,0.423-3.946c-0.389-0.518-1.056-0.824-1.596-1.228
		c-0.271,0.634-0.75,1.257-0.783,1.903c-0.251,4.923-0.284,9.861-0.661,14.773c-0.201,2.622,0.205,4.619,2.88,5.62
		c0.044,0.017,0.076,0.063,0.117,0.089c1.033,0.65,1.532,0.393,1.553-0.852c0.058-3.404,0.098-6.809,0.134-10.214
		c0.014-1.328,0.167-2.684-0.054-3.975c-0.172-1.004-0.123-1.617,0.734-2.277C143.955,696.953,143.842,696.135,142.694,695.307z
		 M77.281,500.908c0.127-0.101,0.254-0.201,0.381-0.301c2.758,2.071,4.809,4.647,5.766,8.069c0.136,0.486,0.73,0.845,1.112,1.263
		c0.065-0.593,0.384-1.319,0.152-1.755c-1.217-2.294-2.341-4.698-3.938-6.714c-2.112-2.666-4.746-4.92-5.022-8.652
		c-0.065-0.881-0.843-1.259-1.449-0.48c-0.655,0.842-1.476,1.925-1.439,2.871c0.184,4.671,2.445,8.662,4.64,12.636
		c0.138,0.25,0.747,0.24,1.137,0.352c-0.016-0.384,0.067-0.805-0.065-1.143c-0.377-0.957-0.842-1.88-1.272-2.816
		c0.147-0.093,0.295-0.185,0.442-0.277c0.523,0.607,1.102,1.176,1.553,1.833c0.473,0.688,0.772,1.494,1.25,2.177
		c0.178,0.254,0.648,0.304,0.984,0.447c0.014-0.35,0.142-0.747,0.018-1.037c-0.249-0.582-0.613-1.121-0.969-1.651
		C79.479,504.115,78.376,502.514,77.281,500.908z M97.729,667.421c0.207-0.035,0.414-0.071,0.621-0.106
		c0.062-0.504,0.184-1.009,0.177-1.512c-0.072-4.89-0.166-9.779-0.254-14.668c-0.013-0.739,0.022-1.484-0.062-2.216
		c-0.09-0.788-0.606-0.938-1.296-0.664c-1.52,0.604-3.021,2.901-2.986,4.58c0.038,1.827,0.268,3.677,0.06,5.476
		c-0.159,1.378-0.712,2.589,1.087,3.297c0.361,0.143,0.469,0.934,0.69,1.427C96.421,664.496,97.074,665.959,97.729,667.421z
		 M168.594,605.577c2.233-0.088,3.983,0.155,4.874-1.85c0.168-0.38,0.894-0.54,1.387-0.741c0.813-0.332,1.712-0.505,2.456-0.945
		c0.938-0.558,1.062-1.488-0.051-1.866c-1.048-0.356-2.403-0.644-3.361-0.276c-2.94,1.128-5.86,1.987-9.058,1.811
		c-1.245-0.069-1.837,1.059-1.911,2.057c-0.033,0.436,0.921,1.24,1.534,1.368C165.997,605.454,167.593,605.484,168.594,605.577z
		 M106.5,590.303c0.024,0,0.05,0.001,0.074,0.001c0,1.775,0.023,3.551-0.01,5.326c-0.017,0.916,0.275,1.34,1.226,0.991
		c1.332-0.488,3.674-3.696,3.638-5.113c-0.047-1.873-0.131-3.751-0.344-5.609c-0.06-0.524-0.547-1.311-0.979-1.421
		c-1.059-0.268-2.2-0.235-3.309-0.244c-0.097-0.001-0.278,0.583-0.284,0.897C106.485,586.854,106.5,588.578,106.5,590.303z
		 M80.269,604.396c0.102,0.013,0.204,0.026,0.306,0.04c0.123-0.183,0.309-0.35,0.36-0.55c0.79-3.128,0.606-6.271,0.02-9.396
		c-0.076-0.404-0.635-0.94-1.046-1.018c-1.448-0.275-2.928-0.395-4.399-0.538c-1.058-0.104-1.469,0.523-0.982,1.354
		c1.055,1.8,0.713,3.727,0.78,5.627c0.021,0.581,0.106,1.16,0.162,1.74c0.162,0.005,0.324,0.009,0.486,0.014
		c0.211-1.59,0.423-3.18,0.651-4.894c1.86,2.421,0.229,5.07,0.813,7.452c0.192,0.021,0.384,0.043,0.576,0.064
		c0.535-1.759,1.069-3.517,1.604-5.274c0.142,0.007,0.283,0.014,0.425,0.021C80.107,600.826,80.188,602.611,80.269,604.396z
		 M189.079,522.354c2.056-1.331,3.015-3.204,3.746-5.188c0.335-0.911-0.187-1.305-1.124-0.993c-0.701,0.232-1.395,0.485-2.091,0.731
		c-3.292,1.166-5.953,3.199-8.084,5.938c-0.488,0.627-0.614,1.463,0.424,1.507c1.852,0.079,3.769,0.123,5.061-1.684
		c0.386-0.539,0.974-0.935,1.546-1.468C188.729,521.58,188.858,521.864,189.079,522.354z M195.069,677.861
		c0.617-0.473,0.974-0.615,1.121-0.877c1.521-2.707,3.055-5.408,4.447-8.18c0.191-0.381-0.198-1.349-0.61-1.68
		c-1.106-0.886-2.354-1.604-3.58-2.33c-0.966-0.571-1.516-0.236-1.502,0.863c0.033,2.567,0.089,5.135,0.121,7.702
		C195.083,674.722,195.069,676.083,195.069,677.861z M149.125,601.923c0.031,2.599,1.376,3.576,3.45,2.851
		c0.541-0.189,1.043-0.522,1.518-0.854c1.253-0.877,2.149-2.375,4.007-2.198c0.202,0.02,0.638-0.427,0.641-0.66
		c0.013-1.249,0.82-1.386,1.776-1.465c0.429-0.035,0.906-0.158,1.246-0.403c0.313-0.226,0.626-0.659,0.644-1.016
		c0.012-0.243-0.498-0.741-0.753-0.729c-1.294,0.068-2.802-0.108-3.828,0.493c-2.404,1.408-4.783,2.682-7.585,3.082
		C149.763,601.092,149.364,601.72,149.125,601.923z M97.452,509.302c-0.115,0-0.23,0-0.346,0c0-0.788,0.033-1.578-0.007-2.364
		c-0.071-1.413-1.069-1.405-2.124-1.382c-1.066,0.023-1.717,0.397-1.648,1.566c0.126,2.113,0.23,4.229,0.407,6.34
		c0.042,0.507,0.184,1.188,0.534,1.454c1.482,1.126,2.294,2.378,1.545,4.301c-0.108,0.28,0.259,0.745,0.406,1.124
		c0.383-0.249,0.869-0.425,1.116-0.771c0.193-0.271,0.112-0.754,0.113-1.143C97.455,515.386,97.452,512.344,97.452,509.302z
		 M216.364,586.253c-0.082,0-0.163,0-0.244,0.001c0-2.023-0.015-4.047,0.006-6.07c0.01-1.004-0.281-1.564-1.445-1.522
		c-1.176,0.042-1.385,0.669-1.347,1.643c0.132,3.354,0.242,6.708,0.357,10.062c0.042,1.232,0.025,2.47,0.135,3.696
		c0.039,0.424,0.383,0.821,0.588,1.229c0.335-0.236,0.839-0.402,0.973-0.723c0.403-0.964,0.849-1.972,0.936-2.991
		C216.473,589.814,216.364,588.029,216.364,586.253z M197.137,591.915c0.696-0.108,1.609-0.123,2.425-0.41
		c1.099-0.387,1.684-1.247,1.244-2.451c-0.424-1.163-1.271-1.584-2.469-1.088c-1.953,0.808-3.894,1.644-5.858,2.423
		c-1.46,0.58-2.965,1.048-4.411,1.659c-0.382,0.161-0.619,0.667-0.923,1.016c0.252,0.192,0.486,0.515,0.761,0.557
		c1.508,0.229,3.026,0.522,4.54,0.52c0.782-0.001,2.183-0.492,2.235-0.897C194.887,591.62,195.731,591.553,197.137,591.915z
		 M200.99,517.703c0.576-0.176,0.982-0.176,1.176-0.379c2.091-2.184,4.989-3.984,3.84-7.776c-0.067-0.224,0.107-0.571-0.01-0.721
		c-0.352-0.451-0.825-1.207-1.193-1.175c-1.2,0.104-2.564-0.941-3.59,0.372c-0.181,0.23-0.125,0.663-0.138,1.004
		c-0.04,0.985-0.075,1.971-0.082,2.956C200.981,513.829,200.99,515.673,200.99,517.703z M248.782,621.506
		c1.457-1.629,1.438-3.223,1.008-4.908c-0.476-1.862-0.914-3.735-1.401-5.595c-0.153-0.583-0.416-1.138-0.628-1.705
		c-0.693,0.291-1.543,0.425-2.038,0.915c-0.542,0.538-1.005,1.385-1.07,2.134C244.327,616.093,246.998,618.475,248.782,621.506z
		 M224.565,579.93c0.333,0.685,0.559,1.095,0.736,1.525c0.301,0.729,0.476,1.533,0.889,2.188c0.268,0.424,0.865,0.64,1.315,0.948
		c0.117-0.541,0.396-1.109,0.313-1.618c-0.125-0.764-0.565-1.471-0.762-2.229c-0.712-2.758-3.018-3.883-5.623-2.651
		c-0.331,0.156-0.768,0.663-0.726,0.943c0.378,2.553,0.241,5.223,1.455,7.597c0.263,0.515,0.911,0.832,1.381,1.24
		c0.104-0.112,0.208-0.225,0.312-0.337c-0.72-1.827-1.766-3.589-1.221-5.688c0.532,0.837,0.901,1.72,1.224,2.62
		c0.331,0.926,0.369,2.073,1.895,2.197C226.057,584.317,222.52,582.841,224.565,579.93z M185.268,588.433
		c1.691,0.994,6.019,0.744,7.333-0.366c0.214-0.181,0.479-0.471,0.477-0.707c-0.014-1.35,0.906-1.169,1.746-1.126
		c0.542,0.027,1.12,0.23,1.613,0.098c0.642-0.173,1.216-0.6,1.819-0.917c-0.559-0.427-1.106-0.87-1.684-1.27
		c-0.144-0.1-0.392-0.107-0.579-0.076c-2.124,0.355-4.311,0.517-6.345,1.159C187.932,585.769,186.199,586.626,185.268,588.433z
		 M245.347,592.859c1.184-0.141,2.115-0.583,2.11-1.67c-0.003-0.716-0.54-1.771-1.14-2.075c-1.745-0.887-3.63-1.509-5.492-2.143
		c-0.361-0.123-1.249,0.206-1.243,0.266c0.105,1.133-0.084,2.8,0.57,3.273C241.66,591.602,243.589,592.113,245.347,592.859z
		 M211.542,677.596c0.209,0.009,0.419,0.017,0.628,0.025c0.293-0.712,0.613-1.413,0.873-2.136c0.565-1.572,0.251-2.214-1.287-2.891
		c-1.077-0.474-2.107-1.065-3.208-1.467c-0.345-0.125-1.154,0.093-1.24,0.335c-0.705,1.979-1.321,3.994-1.875,6.022
		c-0.079,0.289,0.318,0.708,0.495,1.066c0.246-0.356,0.586-0.681,0.719-1.074c0.374-1.111,0.612-2.271,1.018-3.368
		c0.113-0.304,0.627-0.46,0.957-0.684c0.087,0.351,0.271,0.711,0.239,1.051c-0.061,0.633-0.33,1.251-0.359,1.881
		c-0.022,0.499,0.183,1.008,0.288,1.512c0.123-0.01,0.246-0.021,0.369-0.031c0.537-1.14,1.073-2.279,1.61-3.419
		c0.159,0.042,0.317,0.083,0.476,0.124C211.344,675.562,211.443,676.578,211.542,677.596z M214.098,659.613
		c-0.824-0.656-1.263-1.112-1.792-1.407c-2.403-1.337-4.827-2.639-7.253-3.935c-1.428-0.763-2.862-1.518-4.322-2.216
		c-0.298-0.143-0.736-0.061-1.084,0.022c-0.07,0.017-0.12,0.557-0.012,0.771c0.147,0.292,0.447,0.512,0.695,0.748
		c3.463,3.29,7.846,4.762,12.258,6.161C212.9,659.857,213.294,659.699,214.098,659.613z M103.528,511.453
		c0.013,0.001,0.026,0.002,0.039,0.003c-0.04,0.54-0.105,1.079-0.112,1.619c-0.011,0.884,0.496,0.99,1.174,0.689
		c2.337-1.037,3.844-4.204,3.152-6.686c-0.203-0.728-0.334-1.616-1.485-1.451c-1.108,0.158-2.347,0.039-2.421,1.706
		C103.813,508.709,103.648,510.08,103.528,511.453z M180.533,502.826c1.121,0.927,2.105,0.722,2.864,0.298
		c2.399-1.339,4.733-2.797,7.061-4.259c0.752-0.473,0.717-1.059,0.026-1.676c-1.36-1.213-3.949-0.811-5.305,0.87
		c1.05,1.608,1.062,1.672-0.63,2.657C183.332,501.426,182.056,502.032,180.533,502.826z M208.608,661.831
		c0.037-0.151,0.074-0.304,0.111-0.455c-0.565-0.345-1.124-0.698-1.695-1.032c-3.486-2.037-6.963-4.092-10.48-6.073
		c-0.412-0.231-1.058-0.046-1.596-0.054c0.242,0.421,0.392,0.946,0.738,1.244c3.368,2.906,7.422,4.601,11.438,6.346
		C207.543,661.988,208.11,661.831,208.608,661.831z M206.403,599.46c0.034-1.592-0.368-1.875-1.505-1.431
		c-2.159,0.842-2.991,2.057-2.949,4.326c0.011,0.59-0.008,1.19,0.096,1.766c0.078,0.431,0.253,1.095,0.529,1.178
		c0.365,0.109,0.952-0.143,1.3-0.42C205.72,603.406,205.979,601.206,206.403,599.46z M137.494,677.194
		c0.988,0.022,4.122-2.483,4.111-3.451c-0.005-0.428-0.512-1.092-0.919-1.213c-0.559-0.164-1.288-0.039-1.858,0.184
		c-1.684,0.655-3.336,1.396-4.973,2.162c-0.294,0.138-0.521,0.532-0.642,0.858c-0.04,0.106,0.327,0.485,0.561,0.55
		C135.005,676.62,136.252,676.896,137.494,677.194z M130.536,699.171c-1.243,0.793-2.245,1.321-3.115,2.014
		c-1.426,1.134-1.243,3.471,0.272,4.414c0.5,0.312,0.994,0.634,1.502,0.929c0.954,0.554,1.46,0.34,1.485-0.835
		c0.034-1.62,0.145-3.239,0.171-4.859C130.86,700.379,130.686,699.922,130.536,699.171z M194.503,492.425
		c-0.25,0.148-0.355,0.259-0.412,0.238c-1.674-0.633-2.09,1.151-3.159,1.679c-0.065,0.032,0.017,0.654,0.197,0.844
		c0.568,0.6,1.178,1.179,1.852,1.65c0.277,0.192,0.889,0.263,1.128,0.088c0.906-0.664,1.922-1.324,2.497-2.237
		c0.359-0.57,0.279-1.769-0.104-2.365c-0.493-0.768-1.225-1.771-2.658-1.383C194.1,491.514,194.286,491.935,194.503,492.425z
		 M187.399,643.287c-0.161,0.206-0.322,0.412-0.483,0.618c1.678,1.669,3.299,3.403,5.062,4.977c0.738,0.658,1.745,1.074,2.698,1.405
		c0.404,0.141,0.982-0.221,1.481-0.354c-0.211-0.452-0.3-1.075-0.654-1.329c-1.959-1.406-3.977-2.733-5.989-4.064
		C188.831,644.088,188.105,643.702,187.399,643.287z M115.539,674.295c0.227,0.338,0.496,1.02,0.997,1.379
		c0.279,0.2,1.041,0.005,1.415-0.256c1.109-0.773,2.112-1.696,3.196-2.507c0.996-0.745,1.075-1.493-0.076-1.913
		c-0.87-0.316-2.068-0.34-2.906,0.014C116.93,671.532,115.769,672.404,115.539,674.295z M229.425,664.47
		c0.023-0.186,0.046-0.372,0.069-0.559c-0.734-0.306-1.444-0.714-2.208-0.897c-1.906-0.457-3.828-0.867-5.762-1.172
		c-0.532-0.084-1.132,0.271-1.702,0.424c0.365,0.51,0.619,1.216,1.115,1.498c2.275,1.293,4.812,1.206,7.319,1.12
		C228.65,664.871,229.036,664.614,229.425,664.47z M249.025,588.562c-0.236-1.872-0.849-3.091-2.294-3.543
		c-1.779-0.558-3.623-0.926-5.458-1.27c-0.415-0.077-0.912,0.284-1.371,0.443c0.324,0.376,0.576,0.901,0.986,1.101
		c1.834,0.892,3.704,1.717,5.584,2.51C247.176,588.1,247.943,588.246,249.025,588.562z M250.175,605.772
		c2.474-0.772,4.92-1.508,7.337-2.329c0.298-0.102,0.635-0.694,0.589-1.007c-0.037-0.254-0.659-0.656-0.952-0.604
		c-2.427,0.435-4.854,0.899-7.239,1.516c-0.422,0.109-0.743,0.937-0.908,1.493C248.958,604.994,249.646,605.365,250.175,605.772z
		 M145.276,683.699c0.343,0.748,0.486,1.47,0.732,1.506c0.421,0.063,0.982-0.208,1.351-0.505c0.916-0.738,1.743-1.586,2.633-2.356
		c0.597-0.517,1.161-1.014,0.487-1.831c-1.029-1.249-2.368-1.647-2.994-0.756C146.609,681.005,145.975,682.425,145.276,683.699z
		 M206.391,592.092c0.189-1.262-0.485-1.752-1.612-1.155c-0.86,0.456-1.677,1.037-2.406,1.683c-0.801,0.71-0.92,1.547,0.161,2.146
		c0.81,0.448,1.672,0.805,2.522,1.175c0.9,0.393,1.307-0.021,1.329-0.907C206.41,594.053,206.391,593.072,206.391,592.092z
		 M107.486,620.377c0.111,0.095,0.222,0.188,0.333,0.283c0.888-0.256,1.881-0.339,2.641-0.805c1.53-0.937,2.979-2.026,4.35-3.185
		c0.298-0.252,0.129-1.056,0.175-1.605c-0.486,0.046-1.085-0.073-1.441,0.167c-1.875,1.264-3.707,2.596-5.504,3.967
		C107.733,619.433,107.665,619.977,107.486,620.377z M151.417,611.486c0.443-0.417,0.646-0.613,0.854-0.802
		c0.815-0.737,1.62-1.487,2.454-2.204c0.667-0.572,1.414-1.061,2.03-1.681c0.195-0.196,0.084-0.696,0.114-1.058
		c-0.352,0.026-0.728-0.019-1.052,0.09c-1.656,0.556-3.297,1.154-4.948,1.727c-0.572,0.198-1.743-0.115-1.374,0.96
		C149.852,609.562,150.708,610.433,151.417,611.486z M191.101,597.845c0.077,0.162,0.154,0.324,0.23,0.486
		c2.768,0,5.536,0.033,8.302-0.044c0.327-0.009,0.638-0.619,0.956-0.949c-0.373-0.247-0.747-0.709-1.117-0.706
		c-2.306,0.019-4.615,0.086-6.913,0.271C192.051,596.943,191.586,597.517,191.101,597.845z M190.658,652.021
		c0.021-0.119,0.042-0.238,0.064-0.357c-2.655-2.67-5.31-5.341-7.964-8.011c1.561,3.324,3.59,6.253,6.743,8.228
		C189.798,652.066,190.268,651.98,190.658,652.021z M257.996,604.846c-2.875,1.603-5.925,1.854-9.048,1.743
		c-0.239-0.009-0.561-0.001-0.707,0.141c-0.291,0.282-0.486,0.663-0.721,1.003c0.345,0.16,0.709,0.49,1.033,0.455
		c2.247-0.248,4.523-0.413,6.71-0.937C256.4,606.979,258.042,606.803,257.996,604.846z M191.259,656.196
		c1.317,2.531,7.741,6.707,10.629,7.063C198.41,660.355,194.91,658.149,191.259,656.196z M202.184,501.2
		c0.62-0.054,1.409-0.077,2.178-0.213c0.282-0.05,0.667-0.331,0.729-0.576c0.059-0.231-0.17-0.674-0.401-0.817
		c-0.995-0.622-2.013-1.221-3.077-1.71c-0.313-0.145-0.988-0.048-1.181,0.192c-0.585,0.726-1.014,1.576-1.504,2.378
		c0.786,0.234,1.568,0.481,2.359,0.695C201.519,501.212,201.775,501.181,202.184,501.2z M157.291,615.457
		c-1.903-0.953-3.556-0.567-5.145-0.031c-1.45,0.489-2.518,1.515-3.069,2.976c-0.072,0.191,0.132,0.693,0.27,0.718
		c0.292,0.054,0.646-0.063,0.936-0.196c1.991-0.919,3.975-1.856,5.955-2.801C156.523,615.986,156.778,615.784,157.291,615.457z
		 M40.717,547.344c0.024,0,0.049,0.001,0.073,0.001c-0.018,0.146-0.084,0.308-0.045,0.438c0.14,0.458,0.315,0.905,0.478,1.356
		c0.367-0.269,0.848-0.462,1.081-0.817c1.25-1.905,1.226-4.064-0.06-5.774c-0.227-0.302-0.694-0.423-1.051-0.628
		c-0.158,0.334-0.442,0.664-0.454,1.003C40.688,544.395,40.717,545.869,40.717,547.344z M194.364,509.18
		c-0.387-0.38-0.773-0.76-1.16-1.14c-1.19,1.289-2.517,2.482-3.519,3.904c-0.561,0.796,0.24,1.69,1.121,1.33
		C192.599,512.543,194.287,511.62,194.364,509.18z M255.582,600.273c0.015,0.081,0.03,0.162,0.045,0.243
		c0.294,0,0.609,0.066,0.879-0.016c0.456-0.139,0.881-0.372,1.32-0.565c-0.387-0.376-0.72-0.981-1.172-1.089
		c-1.958-0.466-3.925-0.32-5.733,0.6c-0.367,0.187-0.447,0.937-0.659,1.428c0.447,0.082,0.915,0.292,1.337,0.224
		C252.936,600.879,254.255,600.556,255.582,600.273z M130.035,500.713c0.403-0.139,0.641-0.145,0.74-0.265
		c1.617-1.96,3.238-3.917,4.788-5.93c0.17-0.222-0.095-0.778-0.158-1.179c-0.387,0.104-0.953,0.081-1.134,0.333
		c-1.371,1.906-2.679,3.858-3.968,5.82C130.12,499.771,130.143,500.184,130.035,500.713z M206.704,585.91
		c-0.229-0.772-0.316-1.863-0.621-1.928c-0.621-0.131-1.373,0.251-2.042,0.5c-0.408,0.152-0.803,0.405-1.13,0.695
		c-0.719,0.638-0.829,1.572-0.052,2.012c0.851,0.481,1.974,0.689,2.953,0.624C206.147,587.791,206.405,586.587,206.704,585.91z
		 M144.561,521.213c2.002-2.759,3.639-5.334,4.803-8.551C146.96,513.592,143.807,519.104,144.561,521.213z M222.318,667.493
		c0.07-0.195,0.139-0.39,0.208-0.585c-0.424-0.339-0.799-0.842-1.283-0.989c-1.647-0.504-3.319-0.958-5.012-1.268
		c-0.556-0.102-1.202,0.294-1.807,0.463c0.421,0.337,0.827,0.694,1.268,1.002c0.239,0.166,0.527,0.304,0.811,0.355
		C218.439,666.826,220.379,667.155,222.318,667.493z M111.247,672.715c0.039,0.1,0.084,0.571,0.294,0.663
		c0.301,0.132,0.856,0.132,1.072-0.065c1.121-1.021,2.236-2.065,3.21-3.222c0.427-0.508,0.265-1.186-0.646-1.174
		C113.563,668.938,111.439,670.887,111.247,672.715z M187.16,582.773c-1.093-0.939-4.497-1.185-5.214-0.531
		c-0.205,0.187-0.339,0.602-0.298,0.881c0.153,1.055,1.45,1.97,2.423,1.552C185.142,584.213,186.085,583.451,187.16,582.773z
		 M132.637,486.406c2.244-2.033,2.953-4.434,3.84-6.725c0.059-0.15-0.138-0.556-0.283-0.595c-0.229-0.062-0.633-0.003-0.757,0.161
		c-0.496,0.661-1.054,1.331-1.33,2.092C133.56,482.849,132.35,484.174,132.637,486.406z M215.929,669.779
		c0.029-0.159,0.059-0.318,0.088-0.478c-0.535-0.233-1.054-0.517-1.608-0.691c-1.547-0.488-3.1-0.964-4.669-1.373
		c-0.452-0.118-0.966,0.003-1.451,0.015c0.333,0.47,0.577,1.225,1.014,1.36c1.78,0.554,3.613,0.943,5.439,1.333
		C215.109,670.024,215.532,669.842,215.929,669.779z M194.747,609.398c-0.112-0.104-0.4-0.603-0.713-0.619
		c-1.377-0.071-3.146,1.097-3.068,1.96c0.091,1.017,0.698,1.626,1.729,1.667C193.738,612.447,194.789,611.056,194.747,609.398z
		 M117.694,688.08c0.412-1.447,0.887-2.792,1.133-4.178c0.078-0.438-0.393-1.041-0.75-1.449c-0.112-0.129-0.783,0.016-1.006,0.232
		C115.478,684.245,115.826,686.895,117.694,688.08z M136.163,486.283c-1.911,0.59-4.542,5.315-4.109,7.269
		C133.891,491.212,135.309,488.908,136.163,486.283z M150.569,504.973c-2.565,1.532-3.866,3.966-4.829,6.639
		C148.129,509.967,149.64,507.684,150.569,504.973z M114.385,682.257c0.621-1.458,1.197-2.734,1.693-4.041
		c0.094-0.247-0.034-0.759-0.233-0.894c-0.274-0.187-0.757-0.265-1.073-0.158c-1.197,0.404-1.543,1.461-1.6,2.563
		C113.118,680.788,113.107,681.941,114.385,682.257z M181.254,705.607c-0.574,0.288-0.824,0.339-0.955,0.491
		c-1.433,1.671-2.874,3.337-4.242,5.061c-0.239,0.301-0.154,0.858-0.218,1.298c0.498-0.182,1.214-0.215,1.456-0.57
		C178.597,709.97,179.782,707.973,181.254,705.607z M245.565,582.987c-1.1-1.599-3.696-3.005-5.047-2.837
		c-0.383,0.047-0.958,0.593-0.979,0.938c-0.021,0.34,0.489,0.938,0.868,1.038c1.077,0.285,2.207,0.371,3.314,0.542
		C244.211,582.745,244.699,582.837,245.565,582.987z M127.998,689.105c-0.144-0.914-0.322-1.619-0.348-2.329
		c-0.027-0.732,0.16-1.474,0.119-2.203c-0.017-0.306-0.404-0.85-0.584-0.834c-0.388,0.033-0.851,0.275-1.106,0.58
		C124.951,685.669,125.918,688.425,127.998,689.105z M206.7,581.061c-0.192-0.248-0.52-1.028-0.849-1.029
		c-1.009-0.002-2.04,0.226-3.016,0.519c-0.281,0.084-0.545,0.69-0.545,1.058c0,0.203,0.538,0.517,0.875,0.588
		c0.666,0.143,1.436-0.018,2.027,0.249C206.449,583.011,206.51,582.221,206.7,581.061z M120.547,688.497
		c0.311-0.44,0.442-0.546,0.465-0.67c0.285-1.551,0.595-3.1,0.792-4.663c0.037-0.287-0.381-0.883-0.618-0.898
		c-0.375-0.023-1.065,0.266-1.114,0.52c-0.25,1.286-0.434,2.604-0.431,3.911C119.644,687.24,120.169,687.781,120.547,688.497z
		 M120.321,679.333c0.482,0.553,0.79,1.205,1.143,1.23c0.393,0.028,0.982-0.426,1.208-0.827c0.355-0.628,0.523-1.378,0.677-2.096
		c0.071-0.332,0.019-0.952-0.146-1.018c-0.349-0.14-1.014-0.163-1.187,0.054C121.395,677.456,120.924,678.355,120.321,679.333z
		 M152.657,497.436c-1.518,0.331-3.633,3.113-3.602,4.738C150.494,502.083,152.833,499.006,152.657,497.436z M130.729,614.06
		c-0.248-1.79-3.065-4.063-4.378-3.799c-0.214,0.043-0.556,0.225-0.563,0.356c-0.012,0.239,0.115,0.6,0.304,0.715
		C127.546,612.224,129.028,613.068,130.729,614.06z M109.215,679.08c0.507-1.299,0.924-2.32,1.299-3.357
		c0.09-0.249,0.165-0.657,0.035-0.799c-0.196-0.216-0.794-0.428-0.848-0.357c-0.583,0.77-1.355,1.537-1.544,2.419
		C107.983,677.801,108.119,678.987,109.215,679.08z M184.401,485.242c0.235-0.186,0.715-0.402,0.876-0.762
		c0.08-0.178-0.367-0.703-0.68-0.92c-0.431-0.301-1.022-0.713-1.435-0.615c-0.592,0.142-1.085,0.699-1.622,1.078
		c0.348,0.304,0.65,0.711,1.054,0.883C183.075,485.111,183.641,485.113,184.401,485.242z M158.313,658.295
		c-0.397-0.828-0.778-1.72-1.256-2.558c-0.13-0.228-0.681-0.479-0.808-0.391c-0.265,0.186-0.601,0.687-0.514,0.89
		c0.429,1.005,0.97,1.964,1.521,2.911c0.063,0.109,0.521,0.138,0.642,0.03C158.085,659.011,158.139,658.695,158.313,658.295z
		 M117.498,586.971c0.083,0.085,0.386,0.396,0.688,0.705c0.707-0.693,1.414-1.387,2.12-2.08c-0.451-0.323-0.875-0.869-1.358-0.926
		C117.612,584.515,117.55,585.552,117.498,586.971z M158.771,665.354c-0.797-1.438-1.408-2.59-2.083-3.701
		c-0.098-0.161-0.58-0.264-0.741-0.164c-0.184,0.114-0.283,0.485-0.286,0.747C155.645,663.59,156.822,664.897,158.771,665.354z
		 M151.455,672.189c-0.35,0.859,0.245,3.778,0.861,4.094c0.196,0.1,0.825-0.176,0.91-0.407
		C153.681,674.647,152.86,672.971,151.455,672.189z M189.906,599.313c-0.584-0.379-1.041-0.844-1.58-0.979
		c-0.661-0.167-1.392-0.071-2.091-0.04c-0.041,0.002-0.143,0.613-0.083,0.641c1.011,0.45,2.037,0.869,3.081,1.232
		C189.315,600.194,189.558,599.764,189.906,599.313z M104.361,690.202c-0.16,0.026-0.32,0.053-0.48,0.079
		c0.194,1.606,0.361,3.217,0.602,4.816c0.054,0.361,0.367,0.685,0.56,1.025c0.203-0.377,0.638-0.804,0.57-1.124
		C105.268,693.385,104.792,691.799,104.361,690.202z M183.233,593.221c-0.675,0.634-1.083,1.018-1.492,1.4
		c0.58,0.375,1.122,0.882,1.755,1.06c0.262,0.073,0.723-0.562,1.092-0.873C184.202,594.354,183.815,593.901,183.233,593.221z
		 M183.603,590.438c-0.29-1.301-1.124-1.821-2.245-1.813c-0.252,0.002-0.75,0.628-0.701,0.884
		C180.775,590.138,182.739,590.731,183.603,590.438z M148.578,624.476c0.975-1.122,1.772-2.039,2.647-3.047
		C149.57,621.049,148.091,622.657,148.578,624.476z M116.479,504.035c-0.122-0.223-0.243-0.445-0.364-0.668
		c-0.607,0.223-1.351,0.307-1.772,0.719c-0.253,0.248-0.003,1.009,0.021,1.538c0.176,0.032,0.352,0.063,0.528,0.095
		C115.42,505.157,115.949,504.597,116.479,504.035z M150.624,627.184c-0.276-0.407-0.464-0.686-0.652-0.963
		c-0.381,0.54-0.875,1.038-1.091,1.638c-0.097,0.27,0.361,0.739,0.568,1.119C149.82,628.411,150.19,627.846,150.624,627.184z
		 M179.142,489.402c-0.546,0.35-0.877,0.562-1.208,0.773c0.479,0.41,0.921,0.891,1.463,1.188c0.148,0.081,0.598-0.391,0.909-0.608
		C179.944,490.335,179.583,489.915,179.142,489.402z M143.921,666.715c-0.445-0.453-0.753-0.767-1.062-1.079
		c-0.306,0.38-0.793,0.733-0.856,1.151c-0.043,0.287,0.501,0.663,0.783,1C143.111,667.479,143.438,667.171,143.921,666.715z
		 M153.466,668.716c-0.572,1.421-0.272,2.126,1.012,2.588C154.87,670.183,154.766,669.896,153.466,668.716z M154.785,665.837
		c-0.17,0.12-0.341,0.241-0.511,0.362c0.238,0.552,0.424,1.135,0.737,1.64c0.139,0.225,0.532,0.292,0.81,0.432
		c0.085-0.297,0.333-0.694,0.224-0.872C155.696,666.834,155.215,666.352,154.785,665.837z M183.658,600.021
		c-0.815-0.283-1.242-0.572-1.622-0.519c-0.318,0.044-0.581,0.488-0.868,0.755c0.345,0.25,0.692,0.7,1.033,0.695
		C182.568,600.947,182.929,600.515,183.658,600.021z"/>
	<path fill-rule="evenodd" clip-rule="evenodd" d="M211.143,495.024c2.732,1.176,5.376,2.313,8.02,3.45
		C218.028,496.033,213.86,494.439,211.143,495.024z"/>
	<path fill-rule="evenodd" clip-rule="evenodd" d="M229.05,634.082c-0.601,1.628-1.079,2.922-1.697,4.596
		C229.138,637.558,229.855,635.706,229.05,634.082z"/>
	<path fill-rule="evenodd" clip-rule="evenodd" d="M237.193,544.068c0.78,2.115,1.522,4.244,2.352,6.339
		c0.672,1.696,1.425,3.362,2.202,5.013c0.168,0.356,0.552,0.717,0.915,0.835c0.187,0.061,0.629-0.357,0.814-0.648
		c3.427-5.41,1.859-14.238-1.93-17.975c-0.626-0.617-1.327-1.203-2.09-1.628c-0.748-0.416-1.621-0.609-2.935-1.076
		c3.162-1.952,5.773-4.021,7.239-7.443c2.592,2.638,4.434,5.248,4.72,8.667c0.102,1.214-0.146,2.454-0.127,3.681
		c0.009,0.64,0.23,1.28,0.392,1.911c0.132,0.51,0.452,1.004,0.461,1.509c0.14,8.459-1.828,16.308-6.87,23.234
		c-0.294,0.403-0.785,0.663-1.184,0.99c-0.277-0.426-0.626-0.821-0.82-1.283c-1.261-3.004-2.48-6.025-3.742-9.029
		c-0.116-0.276-0.511-0.7-0.643-0.655c-0.322,0.107-0.687,0.396-0.823,0.706c-1.129,2.575-2.219,5.169-3.302,7.765
		c-0.379,0.908-0.668,1.855-1.072,2.751c-0.141,0.313-0.491,0.719-0.765,0.734c-0.304,0.016-0.791-0.295-0.919-0.586
		c-0.858-1.952-2.159-3.816-1.312-6.159c0.125-0.349-0.007-0.914-0.225-1.242c-1.989-2.985-2.756-6.402-3.604-9.806
		c-0.455-1.826-0.635-3.805-2.592-4.931c-0.81-0.466-0.5-1.478,0.54-1.695c1.587-0.332,3.206-0.532,4.82-0.719
		c1.226-0.142,2.462-0.2,3.696-0.239c0.358-0.011,0.981,0.1,1.031,0.279c0.096,0.351-0.044,0.833-0.231,1.184
		c-0.558,1.042-1.121,2.092-1.806,3.051c-0.536,0.751-0.349,1.212,0.243,1.771c0.457,0.433,0.862,0.949,1.179,1.493
		c0.605,1.039,1.225,1.215,1.849,0.244c1.165-1.813,2.169-3.729,3.24-5.602c0.3-0.525,0.597-1.052,0.895-1.578
		C236.924,543.977,237.059,544.022,237.193,544.068z"/>
	<path fill-rule="evenodd" clip-rule="evenodd" d="M162.931,559.505c-0.068,3.137,0.108,5.723,1.449,8.106
		c0.497,0.884,0.309,1.59-0.767,1.962c-2.598,0.898-5.176,1.853-7.774,2.752c-0.287,0.099-0.851,0.093-0.93-0.055
		c-0.153-0.287-0.194-0.793-0.035-1.062c0.855-1.443,1.843-2.809,2.66-4.271c0.292-0.523,0.505-1.361,0.29-1.852
		c-0.951-2.162-0.99-4.412-0.943-6.69c0.046-2.272,0.2-4.548,0.115-6.814c-0.034-0.902-0.48-1.841-0.927-2.659
		c-0.404-0.74-0.694-1.335,0.134-1.906c1.775-1.224,3.518-2.507,5.362-3.617c1.132-0.682,1.798-0.246,2.104,1.09
		c0.388,1.697,0.481,1.62,1.975,0.845c1.508-0.783,3.16-1.341,4.809-1.768c0.524-0.135,1.563,0.294,1.813,0.762
		c1.328,2.486,2.543,5.095,2.362,7.988c-0.109,1.735-0.736,3.435-1.057,5.163c-0.105,0.569-0.197,1.319,0.078,1.752
		c1.042,1.642,1.392,3.351,0.944,5.229c-0.25,1.051-0.297,2.026,0.518,2.913c0.503,0.549,0.262,0.976-0.433,1.19
		c-2.07,0.638-4.128,1.313-6.207,1.919c-0.431,0.125-0.932,0.011-1.4,0.006c0.055-0.452,0.062-0.917,0.172-1.355
		c1.266-5.037,2.514-10.083,2.048-15.341c-0.094-1.063-0.448-2.136-0.854-3.134c-0.51-1.251-1.55-1.91-2.923-1.883
		c-1.117,0.022-1.786,0.435-1.856,1.766C163.49,553.697,163.156,556.845,162.931,559.505z"/>
	<path fill-rule="evenodd" clip-rule="evenodd" d="M115.724,554.027c0,0.533,0.115,1.345-0.03,2.106
		c-0.167,0.872-0.419,1.797-0.904,2.517c-0.464,0.69-0.533,0.981,0.148,1.55c0.483,0.404,0.925,1.129,0.966,1.738
		c0.113,1.671,0.025,3.357-0.024,5.037c-0.028,0.954,0.085,1.663,1.321,1.622c0.936-0.031,1.125,0.665,0.726,1.309
		c-0.455,0.736-1.028,1.523-1.75,1.94c-1.227,0.707-2.585,1.225-3.942,1.643c-0.428,0.132-1.261-0.149-1.512-0.514
		c-0.701-1.016-1.464-0.795-2.457-0.619c-1.866,0.332-3.832,0.822-5.652,0.55c-4.301-0.645-6.369-4.964-4.543-8.929
		c1.837-3.988,5.111-6.414,8.935-8.269c0.814-0.395,2.06-0.902,2.181-1.536c0.354-1.843,0.411-3.793,0.238-5.668
		c-0.087-0.941-1.655-0.946-2.205,0.077c-0.476,0.886-0.692,1.934-0.901,2.936c-0.327,1.562-0.861,1.813-2.207,1.047
		c-1.108-0.632-2.281-1.149-3.43-1.707c-1.342-0.652-1.5-1.308-0.718-2.58c3.117-5.072,8.696-4.727,13.051-1.729
		C115.848,548.5,116.094,549.534,115.724,554.027z M108.877,560.322c0-0.202,0.036-0.406-0.007-0.594
		c-0.131-0.577-0.293-1.146-0.443-1.719c-0.56,0.233-1.225,0.344-1.661,0.721c-2.383,2.061-3.191,7.426-2.06,10.053
		c0.518,1.202,1.554,1.697,2.928,1.388c1.291-0.29,1.476-1.143,1.56-2.297c0.08-1.114,0.532-2.197,0.757-3.308
		c0.067-0.332,0.054-0.88-0.149-1.036C108.678,562.667,108.677,561.531,108.877,560.322z"/>
	<path fill-rule="evenodd" clip-rule="evenodd" d="M220.848,556.405c0.146,2.613,0.298,5.228,0.436,7.842
		c0.06,1.131,0.4,1.888,1.765,1.823c1.05-0.05,0.89,0.729,0.647,1.355c-0.609,1.577-4.696,3.856-6.339,3.552
		c-0.277-0.052-0.658-0.167-0.772-0.374c-0.794-1.437-1.845-1.023-3.05-0.616c-3.307,1.119-6.692,0.064-8.167-2.378
		c-0.954-1.579-0.792-3.158-0.348-4.855c0.326-1.24,0.298-2.57,0.489-3.852c0.066-0.442,0.216-0.945,0.5-1.272
		c2.142-2.484,4.768-4.29,7.901-5.277c0.913-0.287,1.301-0.763,1.316-1.68c0.019-1.135,0.143-2.271,0.115-3.403
		c-0.009-0.379-0.31-1.03-0.542-1.061c-0.403-0.052-1.03,0.159-1.255,0.479c-0.737,1.042-1.438,2.137-1.955,3.3
		c-0.424,0.955-0.961,1.219-1.835,0.774c-1.187-0.604-2.395-1.195-3.48-1.954c-0.345-0.241-0.623-1.194-0.429-1.488
		c1.074-1.622,2.26-3.177,3.513-4.666c0.287-0.342,0.984-0.471,1.494-0.474c4.134-0.022,8.562,2.891,10.017,6.713
		c0.35,0.919,0.215,2.034,0.239,3.061c0.034,1.481,0.008,2.964,0.008,4.445C221.025,556.4,220.937,556.403,220.848,556.405z
		 M211,561.279c0.068,0.039,0.138,0.077,0.206,0.115c0.165,1.065,0.229,2.16,0.522,3.189c0.313,1.1,1.026,1.981,2.326,1.865
		c1.291-0.115,1.572-1.173,1.755-2.228c0.067-0.386,0.126-0.79,0.083-1.175c-0.259-2.3-0.492-4.605-0.872-6.886
		c-0.085-0.508-0.651-1.135-1.136-1.301c-0.282-0.098-1.076,0.526-1.234,0.97C212.015,557.616,211.537,559.458,211,561.279z"/>
	<path fill-rule="evenodd" clip-rule="evenodd" d="M127.957,563.979c2.528-3.484,3.963-7.197,3.876-11.282
		c-0.06-2.788-0.575-5.571-0.979-8.343c-0.136-0.935,0.055-1.424,1.014-1.199c1.294,0.305,2.585,0.675,3.812,1.176
		c0.303,0.124,0.567,0.905,0.488,1.315c-0.755,3.925-1.532,7.847-2.414,11.744c-1.043,4.61-3.013,8.861-5.399,12.913
		c-0.961,1.632-1.228,1.573-2.78,0.612c-4.6-2.849-6.244-7.298-6.789-12.355c-0.326-3.029-0.344-6.125-1.009-9.076
		c-0.72-3.193-0.972-3.121,1.946-4.563c1.457-0.72,2.872-1.524,4.329-2.243c0.521-0.257,1.102-0.486,1.67-0.529
		c0.985-0.074,1.46,0.676,0.819,1.41c-1.412,1.615-1.237,3.447-1.088,5.334c0.16,2.021,0.279,4.044,0.394,6.067
		c0.028,0.49,0.111,1.051-0.077,1.468C124.326,559.623,127.682,561.29,127.957,563.979z"/>
	<path fill-rule="evenodd" clip-rule="evenodd" d="M202.633,532.595c-0.267,0.819-0.605,1.787-0.895,2.77
		c-0.191,0.649-0.456,1.324-0.437,1.98c0.09,3.042,0.262,6.082,0.417,9.122c0.18,3.496,0.421,6.99,0.547,10.488
		c0.085,2.365,0.104,4.741-0.017,7.103c-0.07,1.364,0.201,2.413,1.353,3.204c0.292,0.201,0.472,0.566,0.704,0.856
		c-0.361,0.19-0.704,0.494-1.085,0.553c-2.97,0.46-5.945,0.889-8.924,1.277c-0.312,0.041-0.665-0.233-0.999-0.362
		c0.165-0.325,0.247-0.823,0.508-0.949c1.613-0.776,2.111-2.061,1.993-3.756c-0.236-3.389-0.473-6.781-0.595-10.176
		c-0.042-1.177,0.308-2.362,0.376-3.55c0.043-0.741-0.053-1.502-0.182-2.237c-0.148-0.842-0.587-1.667-0.577-2.496
		c0.039-3.305,0.241-6.607,0.282-9.912c0.007-0.55-0.437-1.138-0.766-1.647c-0.283-0.439-0.699-0.793-1.057-1.186
		c0.523-0.408,1.003-0.897,1.579-1.21c1.41-0.765,2.886-1.41,4.291-2.185c0.503-0.277,0.887-0.778,1.31-1.192
		c0.729-0.715,1.273-0.472,1.526,0.385C202.262,530.416,202.393,531.4,202.633,532.595z"/>
	<path fill-rule="evenodd" clip-rule="evenodd" d="M176.562,556.687c0.576-3.663,1.098-7.363,1.754-11.039
		c0.465-2.604,2.671-3.453,4.761-4.406c2.2-1.003,3.961-0.222,5.478,1.305c1.003,1.009,1.892,2.156,2.675,3.346
		c0.271,0.412,0.251,1.218,0.037,1.696c-0.289,0.645-0.841,1.205-1.375,1.7c-1.377,1.278-2.207,1.096-3.067-0.551
		c-0.455-0.87-0.921-1.746-1.499-2.533c-0.244-0.334-0.973-0.728-1.156-0.605c-0.375,0.249-0.701,0.813-0.745,1.276
		c-0.123,1.275,0.073,2.594-0.149,3.844c-0.52,2.924-0.588,5.761,0.442,8.615c0.577,1.601,0.644,3.396,1.297,4.954
		c0.732,1.747,1.6,1.807,2.842,0.387c0.77-0.88,1.304-1.962,2.017-2.897c0.307-0.403,0.8-0.665,1.208-0.992
		c0.463,0.646,1.333,1.301,1.318,1.934c-0.072,2.983-5.497,7.989-8.508,8.049c-2.856,0.058-5.114-1.533-5.705-4.348
		C177.523,563.248,177.108,560.025,176.562,556.687z"/>
	<path fill-rule="evenodd" clip-rule="evenodd" d="M138.938,557.025c0-3.012,0.005-6.022-0.003-9.034
		c-0.002-1.019,0.397-1.634,1.449-1.919c1.228-0.333,2.38-0.952,3.613-1.253c4.57-1.113,6.95,0.601,9.063,4.172
		c0.574,0.97,0.912,2.077,1.406,3.099c0.545,1.127,0.167,1.773-0.867,2.405c-2.81,1.717-5.589,3.492-8.29,5.375
		c-0.572,0.398-1.016,1.333-1.072,2.055c-0.159,2.054-0.245,4.126,0.879,6.046c0.607,1.037,1.29,1.057,2.011,0.364
		c1.311-1.259,2.512-2.63,3.784-3.929c0.31-0.315,0.848-0.827,1.053-0.736c0.426,0.19,0.849,0.671,1.007,1.124
		c0.521,1.496,0.002,2.869-0.931,4.007c-2.154,2.626-4.878,4.132-8.393,3.77c-1.861-0.192-2.751-1.109-3.145-2.952
		c-0.118-0.551-0.36-1.181-0.755-1.547c-0.93-0.858-1.138-1.833-1.097-3.052c0.089-2.662,0.027-5.329,0.027-7.994
		C138.763,557.025,138.851,557.025,138.938,557.025z M142.879,556.217c0.518,0.592,0.882,1.409,1.396,1.517
		c1.375,0.289,3.693-1.369,4.018-2.722c0.617-2.57,0.202-4.999-1.216-7.229c-0.588-0.926-1.396-0.89-1.725,0.129
		C144.495,550.572,143.749,553.269,142.879,556.217z"/>
</g>
     </svg>