<svg id="ravenclaw" data-name="Layer 1" xmlns="http://www.w3.org/2000/svg" viewBox="0 0 248.78 324"><path class="cls-1" d="M257.24,514.62c-.85-.81-1.63-1.58-2.46-2.28-.1-.08-.75.22-.77.39C253.92,513.59,256.19,515,257.24,514.62Z" transform="translate(-181.61 -234)"/><path class="cls-1" d="M293.32,336.86l.53-.06c-.29-2.57-.59-5.14-.88-7.71l-.59.07A9.36,9.36,0,0,0,293.32,336.86Z" transform="translate(-181.61 -234)"/><path class="cls-1" d="M266.86,423.42a27.33,27.33,0,0,0,3-1.83c.34-.27.59-1.25.39-1.49-.33-.39-1.24-.74-1.59-.55A14.87,14.87,0,0,0,266,421.7a1.15,1.15,0,0,0-.31,1C265.78,423,266.27,423.09,266.86,423.42Zm9.24-4.19c-.18-.2-.32-.46-.43-.45a31.73,31.73,0,0,0-3.23.44c-.13,0-.29.76-.15,1a1.12,1.12,0,0,0,1,.39,16.29,16.29,0,0,0,2.33-.86C275.77,419.68,275.9,419.44,276.1,419.23Z" transform="translate(-181.61 -234)"/><path class="cls-1" d="M315.62,542.87c-2.32-1.77-17.3-2-19.33-.36C297.33,543.31,313.2,543.65,315.62,542.87Zm-3.89,2H297.09C299.4,547,308.94,546.79,311.73,544.91Z" transform="translate(-181.61 -234)"/><path class="cls-1" d="M273.81,530.6c-1.65-2-3-2.66-4-2.19C270.86,529.41,271.84,530.52,273.81,530.6Z" transform="translate(-181.61 -234)"/><path class="cls-1" d="M341.33,529.26l-3.25,2A2.36,2.36,0,0,0,341.33,529.26Z" transform="translate(-181.61 -234)"/><path class="cls-1" d="M370,495.49l-.53-.61-3.39,3,.44.49Z" transform="translate(-181.61 -234)"/><path class="cls-1" d="M387.33,405.22c2.14-1.37,3.1-3.78,2.09-5Z" transform="translate(-181.61 -234)"/><path class="cls-1" d="M387.13,426l.77.12c.13-.87.27-1.75.41-2.62l-.71-.12C387.44,424.22,387.29,425.09,387.13,426Z" transform="translate(-181.61 -234)"/><path class="cls-1" d="M229.15,446.58c-.6,1.31,1,4.74,2.49,5.17C231.85,450.34,230.9,448.37,229.15,446.58Z" transform="translate(-181.61 -234)"/><path class="cls-1" d="M233.83,471.92A2.69,2.69,0,0,0,236.3,475Z" transform="translate(-181.61 -234)"/><path class="cls-1" d="M246,495.67l.26-.37c-.83-1.71-2.34-2.65-4.12-2.09Z" transform="translate(-181.61 -234)"/><path class="cls-1" d="M211.1,442.47c-.06-.45-.18-.91-.2-1.37-.22-6.92-.34-13.84-.69-20.75-.19-3.84-.77-7.66-1.17-11.49a1.06,1.06,0,0,0-1.44-1.05c-2.49.62-5,1.17-7.43,2-2.23.73-2.6.62-2.66-1.68,0-1.42,0-2.85,0-4.27l.72-.12a9.29,9.29,0,0,1,.62,1.89c.21,1.52.7,1.83,2.17,1.45,2.05-.52,4.13-.94,6.21-1.36,1.17-.23,1.7-.65,1.65-2.07-.12-3.1.09-6.22.17-9.33,0-1.08.44-1.66,1.65-1.52.4,0,.85-.29,1.28-.45-.23-.35-.36-.83-.68-1-1.79-1.14-2.24-2.74-2.11-4.8a54.18,54.18,0,0,0-1.9-17.46c-.13-.48-.32-.93-.49-1.4-.39-1.08-.89-2.15,1.07-2.13.7,0,1.19-.71.61-1.24-2.13-1.95-1.33-4.52-1.53-6.83-.33-3.74-.39-7.51-.66-11.25a39.22,39.22,0,0,0-.8-5.27c-.08-.4-.82-1-1.14-.95a35.29,35.29,0,0,0-5.28,1.37c-.46.16-.85,1.06-.93,1.66-.15,1.12,0,2.28-.06,3.41a6.46,6.46,0,0,0,2.32,5.84c3.83,3.43,3.56,8.18-.35,11.62a5.25,5.25,0,0,0-1.95,4.84c.29,5.58.24,11.17.34,16.76.09,5.09.21,10.18.26,15.27a8.8,8.8,0,0,1-.48,2.08l-.57-.06a9.36,9.36,0,0,1-.27-1.46Q197,385,196.64,368.8c0-.29,0-.59,0-.89,0-1.12-.36-1.49-1.56-.92-3.16,1.53-6.45,1.66-9.15-.75a12.35,12.35,0,0,1-3.51-5.33c-1.55-5.1-.84-10,2.86-14.13a37.11,37.11,0,0,1,9.59-7.6,2.08,2.08,0,0,0,1.23-2.36c-.23-2.3-.1-4.64-.18-7a2.12,2.12,0,0,1,1.74-2.24,94.31,94.31,0,0,1,24.85-5.15c1.26-.07,2.05-.34,1.54-1.89-.09-.27.41-.92.79-1.14a16.73,16.73,0,0,1,2.39-1c-.23-.3-.31-.52-.46-.57-2.24-.81-2.72-2.54-2.9-4.75-.5-6.15-1.25-12.29-1.89-18.43-.23-2.23-.15-2.27,1.92-1.44a65.77,65.77,0,0,0,23.62,4.39,89.92,89.92,0,0,0,22.07-2.16c4.42-1,8.81-2.19,13.21-3.27a1.8,1.8,0,0,0,1.6-1.83,60.59,60.59,0,0,0-2.53-19.91,57.74,57.74,0,0,0-9.11-17.21c-1.63-2.18-3.35-4.28-5-6.43a4.67,4.67,0,0,1-.38-.89,4.8,4.8,0,0,1,1.46-.09,28.79,28.79,0,0,1,15.12,11.05A46.05,46.05,0,0,1,291,274.06c.67,3.14,1.14,6.32,1.71,9.48a3.48,3.48,0,0,0,.59,1.45,78.12,78.12,0,0,0-.77-34.52l.54-.2c.34.33.8.59,1,1a100.3,100.3,0,0,1,4.48,9.14,104.75,104.75,0,0,1,5.21,20.51c.09.52.6,1,.91,1.46a6.83,6.83,0,0,0,.83-1.42c1.94-6.91,1.51-13.88.56-20.87a3.45,3.45,0,0,1,.19-1.07c.39.15.93.18,1.14.46,1,1.33,1.92,2.73,2.86,4.11a2.33,2.33,0,0,0,.87.93,8.32,8.32,0,0,0,.23-1.62c-.54-9.23-1.11-18.45-1.66-27.68A4.44,4.44,0,0,1,310,234a3.41,3.41,0,0,1,1.16.43,23.47,23.47,0,0,1,5.89,8.42,57.68,57.68,0,0,1,4.24,15.51c.46,3.83,1,7.64,1.47,11.46,0,.32.36.61.55.91a3.41,3.41,0,0,0,.7-.66,78.49,78.49,0,0,0,8.5-21.72c.47-2.12.67-4.29,1-6.44.1-.58.26-1.16.49-2.12a15.93,15.93,0,0,1,3.47,7c1.33,6.16.75,12.31-.51,18.39-.94,4.59-2.11,9.14-3.31,13.67-.61,2.28-1.52,4.48-2.29,6.72-.15.44-.29.88-.43,1.32l.37.26a11.28,11.28,0,0,0,1.27-1.22c4.74-6.15,9.42-12.33,12.37-19.6.37-.92.64-1.88,1-2.78a4.18,4.18,0,0,1,.82-.93,6,6,0,0,1,.78.81c1.26,2,1.13,4.17.95,6.33-.38,4.78-2.06,9.22-3.74,13.65-1.33,3.5-2.72,7-4.08,10.47-.31.8-.13,1.32.8,1.5a15.41,15.41,0,0,0,1.55.49,1.91,1.91,0,0,0,1.4-.37c2.75-3.22,5.42-6.5,8.15-9.75a4.32,4.32,0,0,1,1-.68,3.78,3.78,0,0,1,.53,1.14,32,32,0,0,1-.51,10.6c-.25,1,0,1.32.93,1.52A110.47,110.47,0,0,0,381.62,301a58,58,0,0,0,18.56-3.43,3.91,3.91,0,0,1,1.14-.29,1.76,1.76,0,0,1,1.06.2c.13.1,0,.64-.09.94a65.8,65.8,0,0,0-3.36,14.53c-.3,2-.34,4.13-.49,6.2a2.31,2.31,0,0,1-1.64,2.22c-.5.17-1,.39-1.44.57,0,.25,0,.4.06.43a3.3,3.3,0,0,1,1.56,3.78,8.11,8.11,0,0,0,0,1.48c0,2.66-.51,2.73,2.53,3.15a57.5,57.5,0,0,1,8.56,1.65c3.67,1.11,7.33,2.38,10.23,5.14a8.36,8.36,0,0,1,1.59,9.59c-1.06,2.38-2.13,4.77-3.16,7.17-.95,2.18-.88,2.21,1.26,3.12a20.65,20.65,0,0,1,9.57,7.66c.91,1.4,1.58,3,2.41,4.42s.55,2.48-.73,3.58a33.22,33.22,0,0,0-8,10.88,47.36,47.36,0,0,0-4.34,16.36,74.41,74.41,0,0,0,.47,17.14,2.33,2.33,0,0,1-1.18,2.59,15.75,15.75,0,0,1-7.32,2.93c-1.47.13-1.15,1.23-1,2.14a32.62,32.62,0,0,1,.75,4.21c.06,3.21-.09,6.42-.17,9.62a3.66,3.66,0,0,1-.31.77,4.82,4.82,0,0,1-1.13-.92c-2-3-4.05-6-5.87-9.07a6.46,6.46,0,0,1,0-6.41,25.51,25.51,0,0,1,2.17-3.53,7.88,7.88,0,0,0,1.71-4.64c0-.31-.09-.76-.3-.88a1,1,0,0,0-.91.16,16.2,16.2,0,0,1-7,2.69c-1.32.22-1.78.79-1.79,2.17-.1,11.62-.4,23.23-2.19,34.74-.61,3.84-1.68,7.61-2.66,11.38-.34,1.31-.12,2.16,1.19,2.51,2.51.67,5,1.26,7.56,1.9a15,15,0,0,1,1.41.53,4.94,4.94,0,0,1-.58,1.25c-2.29,2.52-4.46,5.17-7,7.44a35.48,35.48,0,0,1-7,4.91,10.3,10.3,0,0,0-4.05,4.55,197.32,197.32,0,0,1-19.18,29.12A123.35,123.35,0,0,1,339.89,540a144,144,0,0,1-14.44,9.21c-4.32,2.45-8.93,4.39-13.43,6.5a52.64,52.64,0,0,1-5,2.09,3,3,0,0,1-2.14,0c-6.49-3.24-13.06-6.33-19.34-9.94-4.29-2.48-8.11-5.78-12.22-8.58A105,105,0,0,1,256,524.7a101.77,101.77,0,0,1-11.47-14.51A131.74,131.74,0,0,1,234,490.48a151.12,151.12,0,0,1-5.39-14.55c-1.77-5.74-3.39-11.55-4.59-17.43a116.48,116.48,0,0,1-2.54-26.06c.19-8,.89-16,1.42-24,.09-1.28-.23-1.85-1.58-1.8a32.27,32.27,0,0,0-3.54-.05,2.4,2.4,0,0,0-1.67,1.27,23.77,23.77,0,0,0-1,8.62,60.84,60.84,0,0,1-2.58,22.7c-.34,1.09-.59,2.21-.88,3.32ZM401.87,383.3c.09-.2.19-.4.29-.6l4.55,1,.26-.49-2.67-3.63c.62.08.8.13,1,.13h1.35a8.91,8.91,0,0,0-.61-1.37,5.93,5.93,0,0,0-1-.91c.53-.35.93-.45,1.24-.33,1.37.55,1.63-.15,1.43-1.26-.25-1.44-.63-2.87-.91-4.31a5.6,5.6,0,0,1,0-1.16l2,.57a7.45,7.45,0,0,0,.13-2.09c-.24-1.14-.73-2.23-1.05-3.36a7.82,7.82,0,0,1-.12-1.58c.64.38,1,.59,1.3.76s.76.35,1.14.52c.11-.45.41-.94.31-1.34-.43-1.71-1-3.38-1.49-5.07-.12-.42-.29-.83-.44-1.25l.3-.26,1.25.58,1.47.64a5.52,5.52,0,0,0,.43-1.76c-.21-2.65-1.68-4.69-3.37-6.6-.46-.51-.83-1.09-1.25-1.63l.4-.38a18.39,18.39,0,0,1,6.26,4.63,5.63,5.63,0,0,0,.57-2c.18-3.27-1.52-5.64-3.89-7.6-1.43-1.19-3-2.24-4.47-3.35l.3-.41c4.44,1.49,7.85,4.57,11.46,8.08a18.87,18.87,0,0,0,.51-2.61c.17-3.82-2.65-7.28-6.85-8.63a16.81,16.81,0,0,1-2.27-1.43,5,5,0,0,0-1.68-.51c-.57-.06-1.16.12-1.73.07-1.23-.1-2.45-.32-3.68-.41-10.47-.85-20.83.43-31.18,1.66-8.05,1-16.05,2.21-24.08,3.25-6,.78-12.06,1.65-18.11,2.08-10.9.77-21.81,1.25-32.72,1.81-2.4.12-4.84.46-7.14-.67a3.36,3.36,0,0,0-1.32-.13c-3.3-.09-6.61-.08-9.91-.28a90,90,0,0,1-9.56-1c-3.36-.57-6.63-1.58-10-2.26a23.25,23.25,0,0,0-4.72-.36c-.49,0-1,.6-1.47.93.34.46.59,1.16,1.05,1.35,1.69.68,3.46,1.17,5.18,1.77,1.17.4,2.32.85,3.47,1.28,0,.14-.07.27-.1.4h-2.29c-1.82,0-3.64,0-5.46.08-.39,0-.76.47-1.14.72.28.38.47.94.85,1.11a23,23,0,0,0,5.21,2c3.78.66,7.62.95,11.44,1.41.66.07,1.31.19,2,.29-.16.31-.33.43-.49.42-3.4-.14-6.81-.18-10.2-.48-2.6-.24-5.15-.87-7.74-1.21-.8-.11-2.06-.42-2.2.82s1.16,1.34,2,1.52c2.47.51,5,.88,7.43,1.36,1.27.24,2.52.59,3.78.9a2.09,2.09,0,0,1-1.34.34c-3.26,0-6.53-.13-9.78-.05a6.32,6.32,0,0,0-2.24,1,16.68,16.68,0,0,0,1.93,1.44,13.64,13.64,0,0,0,2,.75l-.09.61c-.8.08-1.6.12-2.37.27-.34.06-.8.31-.88.58s.23.65.44.94.63.78.95,1.17a12.34,12.34,0,0,1-1.33.73c-1.08.44-1.46,1.2-.71,1.86,1,.88.73,1.64.22,2.61-1,1.93-.42,3.39,1.62,4.26.34.15.65.35,1.36.73a11.74,11.74,0,0,0-1.55.46,3,3,0,0,0-1.24.82c-.11.16.4.73.62,1.12l.41.73-.84.41c-.35.19-.89.32-1,.6a1.3,1.3,0,0,0,.34,1.15c.93.83.86,1.46,0,2.31-.7.68-1.49,1.8-.5,2.57a3.44,3.44,0,0,1,1.22,3.9,6.59,6.59,0,0,0-.12,2.21c.07.52.37,1.28.75,1.41,2.13.77,4.31,1.41,6.49,2,1.82.52,3.66,1,5.49,1.45l0,.38a8.19,8.19,0,0,1-1.83.16c-2.74-.34-5.47-.78-8.2-1.13a4.26,4.26,0,0,0-1.33.27c.25.39.41,1,.76,1.14,2,.91,4,2.17,6.1,2.46A112.09,112.09,0,0,0,275,395.63c14.73.09,29.46.45,44.16-.87q18-1.62,36-3.34c2.51-.24,5-.43,7.51-.89,3-.55,6,0,9-.56a68.49,68.49,0,0,1,18.76-.39,35.72,35.72,0,0,1,11.73,2.91c1.4.65,2.68,1.53,4.33,2.49a4.59,4.59,0,0,0-.3-1.46,21.42,21.42,0,0,0-3.1-3.7c-2.35-1.94-5.28-2.59-8.22-3.09a14.85,14.85,0,0,1-1.71-.45c0-.14.07-.28.11-.42,4.66-.58,8.94,1.24,13.61,2.64C406,385.65,403.57,384.82,401.87,383.3Zm-163.15,2.93.43.25a1.76,1.76,0,0,0,.49.29c2.32.61,2.78,1.1,2.56,3.44a7.25,7.25,0,0,0,1.31,4.89c.5.74,1.06,1.42,1.54,2.17a3.8,3.8,0,0,1,.26,1,6.92,6.92,0,0,1-1.11.09c-.17,0-.33-.2-.51-.28-2.43-1-4.64-2.6-7.5-2.42a4.76,4.76,0,0,1-3.81-1.68,1.8,1.8,0,0,0-1.42-.28c-1.39.28-2.73.79-4.12,1a10.85,10.85,0,0,1-2.47-.11c.48-.69.8-1.66,1.46-2,3.3-1.79,3.39-4.65,2.88-7.78-.1-.59-.13-1.18-.23-1.77-.83-4.45-3-7.89-7.35-9.66-2-.79-2.49-.47-2.46,1.64,0,1.32.47,3-.18,3.89a5.27,5.27,0,0,0-.77,5.83.61.61,0,0,1,0,.3c-.21,5.38-.35,10.76-.68,16.13-.17,2.87-.31,2.86,2.45,2.47.24,0,.49,0,.74-.06,8.81-.72,17.57-.59,26.18,1.77,1.85.51,2.15.21,2.14-1.72-.05-5.13-.18-10.26-.12-15.39.11-9.77.22-19.55.55-29.32.3-8.88.91-17.75,1.31-26.63a2.52,2.52,0,0,0-.93-1.95,50.65,50.65,0,0,0-15.5-5.61c-6.24-1.17-12.5-.79-18.74,0a67.13,67.13,0,0,0-7.37,1.57c-2.63.65-5.2,1.55-7.85,2.11a2,2,0,0,0-1.81,2.36c0,1.63,0,3.26,0,4.88,0,.45,0,1.12.32,1.28s.93,0,1.36-.15c4.35-1.46,8.63-3.13,13-4.39,3.93-1.13,8-1.84,12-2.69a2.32,2.32,0,0,1,1.53.25c3.32,1.94,6.66,3.84,9.87,5.94a14.48,14.48,0,0,1,5.4,5.58c.22.44.29,1.34,0,1.57-1.22,1.07-.63,1.78.3,2.5a4.88,4.88,0,0,1,2,3.65c.24,2.4.75,4.78,1,7.19a2.74,2.74,0,0,1-.76,2.06c-3.87,3.29-7.81,6.51-11.78,9.68-.88.7-.82,1.13-.14,1.89a22.86,22.86,0,0,1,3.33,4.12c1.53,2.8,2.71,5.79,4.1,8.67C240.21,384.16,241,385.37,238.72,386.23ZM282.09,438a5,5,0,0,0-.46-.53c-5.47-3.82-11.35-3.76-17.38-1.72a2.69,2.69,0,0,0-1.39,1.44,15.56,15.56,0,0,0-1,3.53c-.39,2.44-.35,2.51-2.67,1.67-3.78-1.37-6.08-5.31-4.65-9.09a31.51,31.51,0,0,1,3.91-7.42,9.5,9.5,0,0,0,1.89-3.42,7.5,7.5,0,0,1,2.91-4.59c4.67-3.88,10.27-5.11,16.09-5.72a1.5,1.5,0,0,1,1.17.44c.67,1,1.49.84,2.49.74,2.26-.24,4.49-.78,6.74.56,1.6,1,2.35.38,2.44-1.48a32.16,32.16,0,0,0-1.44-11.7,2.23,2.23,0,0,0-1.35-1.35c-4-.72-8.05-2-11.23,1.92a2.24,2.24,0,0,1-.34.27c-5.4,4.4-10.82,8.76-16.19,13.2s-10.64,9-16,13.42a3.06,3.06,0,0,0-1.27,3.07c1.07,7.48,2,15,3.14,22.45.4,2.68,1.18,5.3,1.81,7.94.34,1.38,1,1.54,2.07.56.51-.46,1-.93,1.57-1.35l14.41-11.15q6.66-5.16,13.33-10.36C281.14,438.93,281.57,438.47,282.09,438Zm-40.15-13.25.34,0q0-7.56,0-15.13c0-.49.11-1.15-.15-1.43a6.06,6.06,0,0,0-1.67-.9c-.21.47-.66,1-.6,1.39.94,5.69.15,11-3.14,15.84a2.15,2.15,0,0,0-.14,1.62c.73,2.35,1.7,4.64,2.33,7A16.52,16.52,0,0,1,237,446.63a1.9,1.9,0,0,0,0,2.27,95.78,95.78,0,0,1,4.77,9.15c1.76,4.19,2.51,8.53,0,12.82a1.86,1.86,0,0,0,.34,1.63c1.66,2,3.55,3.85,5.12,5.93,3.09,4.06,5.07,8.56,4.92,13.82a2.18,2.18,0,0,0,.83,1.51c2.2,1.74,4.63,3.21,6.67,5.11a13.87,13.87,0,0,1,4.78,10.32,2.08,2.08,0,0,0,1.3,2.08,59.06,59.06,0,0,1,5.71,3.08,19.62,19.62,0,0,1,8,9.25,3,3,0,0,0,2.57,2.13,23.94,23.94,0,0,1,9.81,3.9,14.39,14.39,0,0,1,5.78,6.93c.66,1.79,1.52,2.08,3.11,2.05,3.21-.05,6.44-.08,9.64.12,1.54.1,2.14-.62,2.89-1.72a36,36,0,0,1,4.21-5.29c3.1-3.05,7.18-3.91,11.33-4.4a2.93,2.93,0,0,0,2.56-1.87c2.82-6,7.12-10.51,13.57-12.64a3.2,3.2,0,0,0,2.3-2.76,23.55,23.55,0,0,1,5.35-10.55,25.74,25.74,0,0,1,7.44-6c.67-.37,1.59-1.12,1.59-1.7a19.7,19.7,0,0,1,1.26-6.8,1.81,1.81,0,0,0-.61-1.65,2.29,2.29,0,0,0-1.93.3,5.78,5.78,0,0,0-1.43,2A6.59,6.59,0,0,1,356,489a2,2,0,0,0-.78,1,33.33,33.33,0,0,1-7.74,12.46,2.49,2.49,0,0,0-.63,1.9c.31,1.86-.17,2.57-2,2.29a2.68,2.68,0,0,0-2.86,1c-.44.6-.93,1.16-1.42,1.71-2,2.22-3.36,5-6.42,6.18-.58.22-.94,1.07-1.38,1.66a8.43,8.43,0,0,1-.89,1.34,73.71,73.71,0,0,1-13.73,10.25c-3.27,1.8-6.76,3.22-10.16,4.79a4,4,0,0,1-4,.09c-3.07-1.78-6.25-3.37-9.25-5.25-1.92-1.2-4.17-2.11-5.17-4.46-.11-.24-.69-.27-1-.41a12.43,12.43,0,0,1-2.09-.87c-1.41-.89-2.5-2.28-4.59-1.63-1.26.4-1.87-.33-1.62-1.68a2.71,2.71,0,0,0-1.06-2.69c-2.15-2-4.25-4.12-6.32-6.24a84.71,84.71,0,0,1-12.69-16.35c-3.16-5.45-5.94-11.13-8.81-16.75-.64-1.23-1.35-2-2.81-1.94-.33,0-.68-.29-1-.45.18-.37.28-.93.58-1.08,1.45-.73,1.26-1.81.83-3a35.71,35.71,0,0,1-1.58-4.6c-1.32-6.08-2.92-12.14-3.67-18.29C242.7,440.24,242.48,432.47,241.94,424.73ZM346.69,441.6l-.06.53c-1.63.17-3.26.32-4.88.54a6.91,6.91,0,0,0-1.4.5c.25.38.42.89.76,1.13,5.45,3.64,10.92,7.24,16.36,10.89a1.58,1.58,0,0,0,2.11-.11c2.78-2,5.65-4,8.41-6,1.2-.9,2.66-1.56,2.79-3.53.36-5.36,1-10.71,1.35-16.08.38-5.56.57-11.14.81-16.71a3.41,3.41,0,0,0-.39-1.18,4.31,4.31,0,0,0-1.1.53,148.41,148.41,0,0,1-19.19,15.26c-.86.57-1.2,1-.33,1.78.7.66.39,1.2-.27,1.7-1.21.91-2.4,1.85-3.6,2.78-.73.56-.88,1.18-.12,1.83.26.22.59.37.85.59s.49.55.74.83a4.43,4.43,0,0,1-1,.77c-1,.47-2.11.83-3.13,1.31a4.16,4.16,0,0,0-.95.79,10.59,10.59,0,0,0,.87.9C345.77,441,346.24,441.28,346.69,441.6Zm-90.54,75.57.12-.86c2.78.64,5.59,1.19,8.35,1.93,2.92.78,5.05,2.78,6.9,5.14-.23-2.87-3.24-3.65-4.47-6.14.59.22.87.29,1.12.42a12.75,12.75,0,0,1,5.14,5.35c.43.72.9,1.13,1.76.49-1-2.93-3.55-4.54-5.18-6.94a16,16,0,0,1,4.26,2.93A30.29,30.29,0,0,1,277,523.7l.4-.19a5.18,5.18,0,0,0-.29-1.19,16.21,16.21,0,0,0-5.51-6.22A25.91,25.91,0,0,0,261,511.94a16.06,16.06,0,0,1-5-1.64,17,17,0,0,1-3.21-2.94c-.47-.45-1.22-1.34-1.48-.2a6.38,6.38,0,0,0,.33,4,34.84,34.84,0,0,0,3.58,4.88c-.14,0-.55,0-.78-.14-3.32-2.57-5.23-5.79-3.94-10,.55-1.81-.06-2.48-1.39-3.24a29.64,29.64,0,0,1-8.17-6.52,10.3,10.3,0,0,1-1.75-11.33,1.9,1.9,0,0,0-.65-2.45,41.73,41.73,0,0,1-5.35-5.1,20.76,20.76,0,0,1-3.4-6.44c-.83-2.73.24-5.29,2-7.55a4.35,4.35,0,0,0,.1-5.72c-1.58-2.26-3.27-4.45-4.77-6.77-1.63-2.54-2.23-5.26-.73-8.13,1.28-2.44,2.64-4.86,3.73-7.39a4.33,4.33,0,0,0,0-3.07c-.76-1.81-1.95-3.42-2.84-5.18-1.71-3.33-3.22-6.69-1.44-10.56a9.56,9.56,0,0,1,4-4.06c1-.62,1.85-1.48,1.43-2.64a8,8,0,0,0-1.95-3.08c-1.63-1.55-3.91-1-4.15.93-.47,3.68-.95,7.35-1.26,11a146.77,146.77,0,0,0,.11,27.25c.47,4.59.45,9.28,2,13.73.41,1.16.57,2.4.89,3.59,1.21,4.56,2.47,9.11,3.67,13.68a3.08,3.08,0,0,0,2.27,2.28c1.07.34,1.36,1.08.53,1.88a2,2,0,0,0-.33,2.54c.62,1.4,1.07,2.87,1.72,4.24,2,4.18,3.88,8.44,6.14,12.48,4.07,7.26,9.28,13.73,14.63,20.08a2.08,2.08,0,0,0,2.28.87c1.74-.37,2.6.55,2,2.26a2.18,2.18,0,0,0,.67,2.49c6.7,7.16,14.57,12.85,22.73,18.18a28.68,28.68,0,0,0,2.63,1.34c-.11-.57-.09-.79-.19-.93a14.53,14.53,0,0,1-2.53-7.48c-.06-1-.66-1.26-1.54-1.44-3-.62-6.07-1.19-9-2a10.07,10.07,0,0,1-5.22-3.72c-1.88-2.44-2.12-5.25-1.73-8.17.14-1-.16-1.46-1.19-1.78C261.59,519.12,258.88,518.11,256.15,517.17ZM301,315.93l.31.28a3.51,3.51,0,0,0,.95-.56c1.7-2.12,3.42-4.22,5-6.42a10,10,0,0,0,.8-2.49c.22-.66.52-1.29.8-1.93s1.07-1.55,1-2.19c-.22-1.11.33-1.61.88-2.32a26.35,26.35,0,0,0,3.21-4.57c.77-1.63,1.15-3.49-.44-5.1-.19-.2-.05-1,.17-1.3.74-1.17,1.69-2.2,2.36-3.39.93-1.64,1.64-3.3.57-5.3a4.09,4.09,0,0,1,.21-2.83c.54-1.67,1.69-3.22,1.93-4.91,1.53-10.76.48-21.19-4.47-31a8.36,8.36,0,0,0-1.23-1.46c1.37,11.36,1.4,22.54-.85,33.62a82.85,82.85,0,0,1-12.89,31c-.85-1.66.13-3.38-1.48-4.7-.11.8-.2,1.3-.24,1.8a28.94,28.94,0,0,1-2.39,10,47.52,47.52,0,0,0-4.54,15.55c-.31,3.53-.15,7,1.5,10.27a2.88,2.88,0,0,0,1.72,1.53,35.72,35.72,0,0,0,5.17,0c.9,0,1.2-.51,1.11-1.49-.32-3.48-.53-7-.79-10.44,0-.36-.07-.73-.1-1.09l-.5-.19c-.73,1.29-1.47,2.58-2.34,4.09-1.39-5.24,1.68-16.5,6.14-18.66ZM410.6,402.47c.86-.11,1.4-.2,1.93-.24s1.31-.06,2-.09a14.52,14.52,0,0,0-.52-2.21,7.59,7.59,0,0,0-1.06-1.4c-.32-.44-.61-.91-.91-1.36a2.4,2.4,0,0,1,1.29-.05c.55,0,1.42.2,1.58-.05a2.09,2.09,0,0,0,.12-1.76,17.78,17.78,0,0,0-1.85-2.62c-.39-.51-.83-1-1.25-1.48l.29-.43c.64.24,1.31.44,1.93.72,1.06.47,1.86.14,2-.94a6.14,6.14,0,0,0-.43-2.5,5.77,5.77,0,0,0-.79-1.33c.85-.07,2,.09,2.13-.23a3.23,3.23,0,0,0,0-2.23,9,9,0,0,0-1.28-2.13c-.39-.58-.84-1.13-1.26-1.69a1.17,1.17,0,0,1,1.08,0c.93.56,1.82,1.19,2.74,1.76,1.17.73,2.07.3,2.07-1.06a3.91,3.91,0,0,0-.52-2c-.71-1.11-1.59-2.11-2.39-3.16-.37-.49-.72-1-1.08-1.5l.45-.42c1.32,1.05,2.7,2,3.95,3.17,1,.88,1.48.6,2-.46.9-1.89.22-3.47-.9-4.94-.81-1.07-1.72-2.05-2.58-3.07a.94.94,0,0,1,.93,0c1.75,1.35,3.48,2.74,5.25,4.07.32.25.88.54,1.14.41s.45-.71.5-1.12c.8-6.46-4.33-11.41-9.2-12.61a2,2,0,0,0-1.69.62,37.74,37.74,0,0,0-5.42,12.57,109.45,109.45,0,0,0-1.89,13.16c-.56,5.65-.64,11.35-1.4,17-.62,4.57-2.93,7.14-7.64,4a1.74,1.74,0,0,0-.26-.15,2.51,2.51,0,0,0-3.61,1.2,9.17,9.17,0,0,0-.67,1.81c-.37,1.71-.34,3.48,1,4.69s2.78.64,4.16-.12c.6-.34,1.26-.57,1.85-.94,3.3-2.06,6.72-3.72,10.79-3.39.37,0,1.1-.42,1.1-.66a1.65,1.65,0,0,0-.66-1.26,25.35,25.35,0,0,0-2.85-1.3c0-.15,0-.3,0-.45l3.21-.24c.08-.16.15-.32.23-.49Zm-109.88,7.18a16.56,16.56,0,0,0,.49-2c.27-2.63.56-5.26.7-7.9,0-.53-.51-1.58-.78-1.58a19.85,19.85,0,0,0-5.05.54c-.31.08-.22,1.8-.25,2.76a7.53,7.53,0,0,0,.24,1.31c.81,5.32,1,10.62-.61,15.84-.14.47-.68.82-1,1.23a4.61,4.61,0,0,1-.68-1.32,2.69,2.69,0,0,0-2-2.35,17.31,17.31,0,0,0-3.46-.78,55.47,55.47,0,0,0-16.37.5c-3.16.64-6.25,1.52-8.68,3.83a4.09,4.09,0,0,0-.64,4.14,2.61,2.61,0,0,0,3.31,1.53,39.21,39.21,0,0,0,5.61-2.17c3.26-1.66,6.51-3.07,10.29-2.36a3,3,0,0,0,1.06-.23c-.1-.3-.2-.6-.32-.9s-.19-.41-.44-.93a5.72,5.72,0,0,1,1.44.23c2.84,1.46,5.66,3,8.5,4.44,1.56.8,2.05,1.89,1.27,3.51a2.63,2.63,0,0,0-.1,1c-.17,5.47,2.76,9.29,6.72,12.55a6.9,6.9,0,0,0,1.27.61,32.64,32.64,0,0,1-1.35-4.46c-.83-5.43.7-10.59,2.18-15.71.56-1.91.76-1.86-1-2.38q1.17-5.13,2.36-10.25l-.43-.13Zm-7.5,139.23-.18.24a10.23,10.23,0,0,0,1.46,1.11c2.33,1.2,4.63,2.47,7,3.48,1.89.8,3.7,2.38,6,1.34,5-2.28,10.15-4.4,15-7,4.49-2.34,8.75-5.14,13.07-7.81a9.27,9.27,0,0,0,2.83-2.43,3,3,0,0,1,2.49-1.52,3.24,3.24,0,0,0,1.7-.66A157.27,157.27,0,0,0,367,509.25c2.37-3.38,4.65-6.84,7-10.27,1.31-2,2.65-3.92,3.85-6S380,489,381,487c.12-.24.22-.71.11-.8a1.1,1.1,0,0,0-.89-.19c-1.59.52-3.15,1.14-4.74,1.67a1.33,1.33,0,0,0-1,1.8,10,10,0,0,1,.24,2.92,9.15,9.15,0,0,1-3.89,6.25c-3.13,2.47-6.4,4.78-9.69,7-1.21.83-1.62,1.59-1.06,3.05,1.91,4.89-.52,8.46-4.41,10.55A29.58,29.58,0,0,1,347,522c-1.19.22-1.78.69-1.53,2,.89,4.55-.47,7.5-4.41,9.81a30.51,30.51,0,0,1-9.9,3.3A2.84,2.84,0,0,0,329,539a18,18,0,0,1-2.28,4.09,17.19,17.19,0,0,1-12.08,6.16,112.48,112.48,0,0,1-12.86.25C298.89,549.49,296.06,549.11,293.22,548.88ZM218,363.57c.21,2.07.37,3.69.55,5.3.12,1.11.67,1.3,1.64.82,1.72-.86,3.48-1.65,5.2-2.51a9.56,9.56,0,0,0,5.72-9.41c0-1.58-.11-3.16-.18-4.74a1.7,1.7,0,0,1,1.33-2,5.73,5.73,0,0,0,1.38-.88,8.28,8.28,0,0,0-1.17-1.39,7.7,7.7,0,0,1-3-3.92c-.65-2.22-1.42-4.41-2.25-6.57a4.06,4.06,0,0,0-4.55-2.79,3.28,3.28,0,0,0-2.89,3.29,67,67,0,0,0-.32,9.29,4.91,4.91,0,0,1-1.17,3.75,1.71,1.71,0,0,0,.06,1.7,2.15,2.15,0,0,1,.66,2.25C218.62,358.5,218.29,361.24,218,363.57Zm63.56-40.22c.23-.18.37-.24.37-.31.15-2.69.31-5.39.39-8.09a1.37,1.37,0,0,0-1-.35c-1.84,1.14-3.68,2.3-5.43,3.58a219.15,219.15,0,0,0-20.24,16.1,1.5,1.5,0,0,0-.44,1c0,.14.5.4.8.44q12.51,1.35,25,2.65c1.19.13,1.5-.37,1.05-1.51s-1-2.27-1.38-3.43c-1.18-3.36-2.29-6.75-1.51-10.4.09-.39.24-.76.42-1.33Zm-51.24-4.05a22.53,22.53,0,0,0-2.45,1c-.38.2-.62.64-.92,1a3.84,3.84,0,0,0,1.13.49c1.28.08,2.56.08,3.85.09,1.1,0,1.56-.21.88-1.48a78.65,78.65,0,0,1-3.74-7.87,6.89,6.89,0,0,1,1.58-7.91c2.26-2.29,3-2.38,5.74-.78a10.55,10.55,0,0,0,8.85.92c1.78-.56,3.5-1.34,5.3-1.85,5.55-1.6,10.92-1.61,15.72,2.23a1.23,1.23,0,0,0,1.92-.13c.75-.78,1.55-1.52,2.34-2.25,3.38-3.1,7-5.63,11.88-5.55.24,0,.62,0,.7-.15.41-.72.74-1.48,1.1-2.23a5.63,5.63,0,0,0-1.68-.28c-.91.15-1.79.53-2.7.76a136.47,136.47,0,0,1-24.33,4.24c-9.63.65-19.16.35-28.37-3-3.19-1.15-3-1.15-2.62,2.15.67,5.23,1.07,10.5,1.68,15.74a4.59,4.59,0,0,0,1.18,2.25A33.2,33.2,0,0,0,230.31,319.3ZM389.59,474.51c1.87.33,3.57-.62,5.11-1.94.3-.25.63-.77.56-1.06a1.47,1.47,0,0,0-1-.72c-3-.75-6.06-1.38-9.06-2.19-5.15-1.39-10.41-2.51-15.35-4.46a82.89,82.89,0,0,1-13.31-7c-4.71-2.95-9.11-6.39-13.62-9.65-4.1-3-8.43-5-13.66-3.72a10.18,10.18,0,0,0-1.91.86,14.22,14.22,0,0,0,1.66,1.26c3.67,2,7.37,4,11,6,.94.52,1.69,1.35,2.95.83.33-.14.95.2,1.33.47,3.79,2.67,7.52,5.41,11.32,8.07A119.8,119.8,0,0,0,373,471.31c.37.17,1.18.2,1.27,0,.84-1.6,1.82-.77,2.85-.3C381,472.82,385,474.39,389.59,474.51ZM264.17,492.37c-1.86,1.17-2.07,1.72-1.15,3.08A114.23,114.23,0,0,0,278,513.21c2.74,2.68,2.75,2.66,5.79.41l.24-.18c4.42-3.55,8.85-7.08,13.25-10.66a1.68,1.68,0,0,0-.06-2.93,11.59,11.59,0,0,0-7.67-2.14c-1.86.16-2.47.74-2.6,2.58a9.31,9.31,0,0,0,.25,2.93c.35,1.35-.22,1.61-1.36,1.47-2.54-.31-3.58-2.17-4.37-4.28-.18-.48-.33-1-.5-1.46l-.4,0a3.71,3.71,0,0,0-.5,1.22c0,1,.11,2.05.13,3.08,0,.41,0,1.11-.18,1.18a1.94,1.94,0,0,1-1.33-.15,16.1,16.1,0,0,1-1.79-1.16l-1,1.56a21.08,21.08,0,0,1-2.43-2.74c-.82-1.32-1.3-2.85-2.12-4.17a32.42,32.42,0,0,0-2.59-3.23C266.24,496.21,265.72,493.11,264.17,492.37ZM245,312.6c-.9,1.57-2.32,1.62-3.55,1.95-.94.25-1.22.54-.76,1.54,1.18,2.58,2.21,5.23,3.35,7.83a6.56,6.56,0,0,0,.93,1.27,4.21,4.21,0,0,0,.47-1.53c-.16-1.72-.44-3.43-.71-5.14s-.07-1.89,1.63-1.88c4.59,0,9.19,0,13.78-.08,1.89-.06,3.78-.52,5.68-.77,4.34-.59,8.71-1,13-1.8,2.42-.44,3.44-2.19,3.48-4.68,0-1.07-.48-1.37-1.38-1.09a41.06,41.06,0,0,0-11.37,5.14,16.1,16.1,0,0,1-3,1.63c-2.51,1.05-4.84.15-7.15-.83-2.53-1.07-5.06-2.13-7.59-3.22-.15-.06-.26-.23-.74-.68l7.33-.31,0-.63c-1.75-1.32-4-1.07-6-1.79,2.09-.32,4.14-.62,6.2.18.86.34,1.8.83,2.77-.14-2.76-2.34-6.17-1.22-9.56-2a17.13,17.13,0,0,1,10.57.17,4.07,4.07,0,0,0,1.26,0,3.34,3.34,0,0,0-1.5-1.54,14,14,0,0,0-10.26-.4c-2,.64-4,1.46-6,2.15a17.76,17.76,0,0,1-8.77.66,4,4,0,0,0-1.47.33,11.33,11.33,0,0,0,.38,1.33,2.65,2.65,0,0,0,2.9,1.79c1-.09,2,0,2.94,0h2.32c0,.21,0,.41.05.62L239,312.16C240.92,313.5,242.84,312.66,245,312.6Zm69.18,84.14a14.42,14.42,0,0,0-7.47,1.35,3.89,3.89,0,0,0,0,6.56,1.73,1.73,0,0,1,.9,1.79,14.47,14.47,0,0,0,.61,3.86,1.74,1.74,0,0,0,1.45.87,10,10,0,0,0,6.35-3.41,6.52,6.52,0,0,1,2.19-1.5c1.38-.69,3.1-.95,3-3.11,0-.21.77-.67,1.17-.65a37.56,37.56,0,0,1,4,.49,3.86,3.86,0,0,1,1,.49c-.22.34-.36.79-.67,1-1.66,1.16-3.36,2.24-5,3.4a4.37,4.37,0,0,0-.79,1.07c.42.2.88.6,1.28.55a37.45,37.45,0,0,0,3.74-.74c1.26-.28,2.51-.68,3.79-.87.77-.12,1.22-.32,1.2-1.14,0-1.29.68-1.19,1.66-1.11a6.12,6.12,0,0,0,2.82-.36c1.11-.46,1-1.37-.05-1.92a14.44,14.44,0,0,1-1.85-.91,6.89,6.89,0,0,1-1.17-1.29,7.82,7.82,0,0,1,1.56-.83c1-.27,2.13-.36,3.19-.6a3.38,3.38,0,0,0,.93-.57,3.87,3.87,0,0,0-.62-.93,11.12,11.12,0,0,0-2-1.51c-1.21-.62-2.23-1.66-3.94-1.08a59.89,59.89,0,0,1-6,1.27,2.4,2.4,0,0,0-1.45.95,2.51,2.51,0,0,1-2.36,1.48,4.65,4.65,0,0,0-3.39,1.5c-1.62,1.63-3.47,3-5.91,3a3.81,3.81,0,0,1-1.05-.28,4.29,4.29,0,0,1,.46-1c.28-.33.93-.53,1-.84.16-1.5,1.39-1.77,2.4-2.32a6,6,0,0,0,1.47-1,1.51,1.51,0,0,0,.34-1.17c-.06-.24-.58-.48-.93-.53A11.6,11.6,0,0,0,314.18,396.74Zm84.73-95.49c0-.91-.27-1.1-1.81-.72-10,2.52-20.07,2.32-30.17,1-4.24-.57-8.47-1.3-12.68-2.05-1.46-.25-2,.5-2.57,1.63s.5,1.31,1,1.8a10.88,10.88,0,0,0,1.78,1.55,2.23,2.23,0,0,0,1.6.37,30.45,30.45,0,0,1,8.68-1.59,27.27,27.27,0,0,1,14.57,3.13,4.87,4.87,0,0,0,5.58,0c4.33-2.49,7.32-.78,8.87,3.14a12.11,12.11,0,0,1,.84,3.6,4.84,4.84,0,0,1-.62,2.75c-1.78,2.9-3.73,5.69-5.62,8.52a2.6,2.6,0,0,0-.25,2.9,7,7,0,0,1,.56,2.41c.09.94.5,1.32,1.44,1.21s2.06-.19,3.1-.23a1.34,1.34,0,0,0,1.47-1.47c.05-1.39.14-2.77.1-4.15a1.81,1.81,0,0,0-.55-1.26c-2.05-1.67-2.07-1.64.27-2.9.22-.11.47-.17.68-.29a2.71,2.71,0,0,0,1.64-2.42c.06-1.53.34-3,.53-4.56ZM393.3,410.1l-.15,0c0-5.08,0-10.17,0-15.25,0-1.26-.39-2-1.73-2a12.22,12.22,0,0,0-1.31-.2,6.12,6.12,0,0,0-1.29.38,3.9,3.9,0,0,0,.68,1c2.84,2.19,3.47,7.06,1.88,9.82a81.8,81.8,0,0,0-3.81,7.46c-1.53,3.39-1.45,3.43,1.59,5.55,2,1.42,2.92,4.58,2.4,7a29,29,0,0,1-4,9c-1.95,3.15-2.66,6.48-.09,9.65,2.77,3.42,2.14,7.19.19,10.29s-3.93,6-5.8,9.08a1.85,1.85,0,0,0,.15,1.76,22.57,22.57,0,0,0,3.48,2.74,1.84,1.84,0,0,0,2.55-.28,8,8,0,0,0,.83-8.63c-.21-.36-.17-1.26.09-1.44a4.89,4.89,0,0,0,2-4.09Q392.14,431,393.3,410.1ZM335,249.41l-.58-.12a11,11,0,0,0-.54,1.41c-.76,3-1.26,6.11-2.3,9a118.41,118.41,0,0,1-5.35,13,135.53,135.53,0,0,0-7.81,18.54c-1.84,5.66-3.21,11.48-4.78,17.24a6.05,6.05,0,0,0-.1,1.06l.4.17a37.64,37.64,0,0,0,6.8-10.08c-1.95-.57-2.2-.91-1.46-2,.86-1.26,1.81-2.46,2.71-3.7,1.58-2.2,3.18-4.4,4.72-6.63a4.45,4.45,0,0,0,.39-1.4l-.37-.23c-.61.53-1.19,1.11-1.85,1.58-.26.19-.7.12-1.06.17a3.68,3.68,0,0,1,0-1.05c.07-.27.35-.46.52-.71,2.38-3.57,4.76-7.14,7.11-10.74a5.19,5.19,0,0,0,.31-1.52l-1.61.51-.37-.22a33.29,33.29,0,0,0,4.69-11.57A39.93,39.93,0,0,0,335,249.41Zm40.21,153.41h.49c-.47,7.94-.8,15.88-1.45,23.8-.71,8.6-1.7,17.19-2.63,25.77a14.5,14.5,0,0,1-1,3c-.1.32-.31.78-.18,1,1.08,1.51,0,2.67-.49,4-.16.46.12,1.08.19,1.62.47-.34,1.09-.57,1.37-1,1.78-2.93,3.37-6,5.27-8.83a3,3,0,0,0,.38-3.23,26.49,26.49,0,0,1-1.74-5.46c-.84-5,.58-9.46,3.13-13.69a2.46,2.46,0,0,0,.12-2A18.15,18.15,0,0,1,377.12,415c.9-3.55,2.33-7,3.45-10.47a2.15,2.15,0,0,0-.17-1.82c-2.1-1.88-2.66-4.39-3.13-7a12.72,12.72,0,0,0-.49-2.3c-.16-.42-.65-.71-1-1.06a4.49,4.49,0,0,0-.52,1.41C375.21,396.79,375.23,399.8,375.23,402.82ZM327.58,538.61a9.61,9.61,0,0,0-1.29.15,21.09,21.09,0,0,1-4.05,1.22q-5.69.45-11.38.5c-5.78,0-11.56-.06-17.34-.09-2.35,0-4.75.47-6.93-.9a1.19,1.19,0,0,0-.93,0,2.11,2.11,0,0,0,0,1.22c1.45,4.16,4.87,5.71,8.8,6.51a54.39,54.39,0,0,0,15.8.7c4.43-.4,8.86-1,12.74-3.47A11.29,11.29,0,0,0,327.58,538.61Zm17.58-265-.43-.12c-.39.6-.8,1.18-1.18,1.79-1.83,2.91-3.38,6-5.53,8.7-3.27,4-7.07,7.57-10.41,11.52a64.6,64.6,0,0,0-6.47,9c-2.09,3.55-3.71,7.39-5.52,11.12-.61,1.27-1.2,2.56-1.89,4,2.76-.43,11.26-8.71,11.74-11.17l-2.86,1.07-.27-.44c2.76-2.79,6.25-4.93,8.41-8.65l-2.09.51-.18-.37,1.25-1.16c1.68-1.51,3.41-3,5-4.55.35-.34.69-1.31.53-1.45-1.08-1-.2-1.56.39-2.18a37.72,37.72,0,0,0,9.46-16.17A6,6,0,0,0,345.16,273.62Zm6.41,39.82-.29-.53c-.37.15-.75.28-1.11.46-2.75,1.42-5.43,3-8.25,4.26-6,2.69-12,5.5-17,9.8-3.6,3.11-6.66,6.85-9.93,10.33a4.79,4.79,0,0,0-.63,1.21,5.28,5.28,0,0,0,1.33.51,13.57,13.57,0,0,0,7.68-1.77c1-.5,2.14-.83,2.17-2.31,0-.3.54-.65.9-.88.66-.42,1.41-.71,2-1.18.27-.2.55-.86.43-1-.93-1.32,0-1.49.95-1.94,1.72-.85,3.64-1.47,4.71-3.37l-1.32-1C340,322.53,346.36,318.78,351.57,313.44Zm-24.67,3.84c2.06-1.14,4-2.28,6-3.3,1.16-.59,2-1.19,1.08-2.5.13-.16.17-.26.25-.31.3-.17.61-.31.91-.49,4.81-2.85,9.38-6,13-10.37a12.37,12.37,0,0,0,2.6-5.88c.07-.39-.24-.85-.37-1.29-.38.26-.89.42-1.12.77a48.5,48.5,0,0,1-12.05,12.28c-3.95,2.86-8,5.66-11.7,8.79a94.64,94.64,0,0,0-15.26,16.66,18,18,0,0,0-1.24,2.29,16.73,16.73,0,0,0,2.57-.68c4.23-1.86,7.5-5,10.8-8.15.24-.24.27-.69.4-1.05a4.29,4.29,0,0,0-1.17-.33,7.17,7.17,0,0,0-1.5.27l-.3-.52c1.25-.93,2.46-1.94,3.77-2.78s2.8-1.57,4.26-2.37ZM268.23,468h-.11c0-4.89,0-9.78,0-14.67a1.84,1.84,0,0,0-.49-1.11c-.09-.11-.66.05-.89.24a9.77,9.77,0,0,0-3.9,7.63q-.06,10.16-.19,20.31c0,3-.15,6-.15,9,0,.35.52.69.8,1,1.06-1,2.46-1.86,3.08-3.09a13.52,13.52,0,0,0,1.18-5C267.88,477.57,268,472.78,268.23,468Zm43.52,46.1h.07c.15-4.89.45-9.78.36-14.66,0-1.21-1.31-2.41-2-3.59-.06-.09-.38-.09-.56,0-1,.22-2.7,2.43-2.7,3.54,0,2.27,0,4.54,0,6.81q-.06,12.45-.14,24.89c0,.81.39,1.13,1.13.82s1.38-.77,2.1-1.07a2.19,2.19,0,0,0,1.42-2.31C311.43,523.67,311.61,518.88,311.75,514.09ZM330,516.72l.4.25c1.1-1,2.26-1.84,3.27-2.88a3.08,3.08,0,0,0,.92-1.87c.26-11.75.46-23.5.66-35.25,0-.27-.09-.71-.24-.77a1.07,1.07,0,0,0-.93.13c-1.61,1.56-3.9,2.77-3.18,5.65a2,2,0,0,1,0,.59c-.29,9.24-.6,18.47-.88,27.7C329.91,512.42,330,514.57,330,516.72ZM339.82,470c-.7-.84-4.63-2.46-5.42-2.27a1.7,1.7,0,0,0-.71.47c-1.84,1.67-2.83,1.83-5.05.83-1.53-.7-2.31-.27-2.28,1.39a5,5,0,0,1-1.41,3.42,16.37,16.37,0,0,0-2.76,4.48c-.77,2.13-.68,2.24-2.43.81-.06-.05-.19,0-.48,0-.11.46-.26,1-.35,1.45-.22,1.26-.34,2.55-.64,3.79-.34,1.48-1.19,2-2.68,1.66-1.07-.23-1.38.2-1.24,1.17.05.35.08.69.15,1,.29,1.33,1.05,1.54,2.09.67q7.06-5.83,14.17-11.62C333.75,474.82,336.75,472.43,339.82,470Zm-53.63,60.3.19-.37a10,10,0,0,1,5.78,2.87,53.09,53.09,0,0,1,4.51,5.5,6.58,6.58,0,0,0-.29-1.36,15.92,15.92,0,0,0-9-8,62.31,62.31,0,0,0-9-2.67c-3.5-.82-7.05-1.4-10.58-2-1.16-.21-1.29.63-1,1.39a9.34,9.34,0,0,0,3.87,5.22c3,1.76,6.35,2.18,9.64,2.59a12.54,12.54,0,0,1,8.9,4.89c.28.36,1,.39,1.48.57-.13-.52-.09-1.2-.41-1.52-1.52-1.49-3.13-2.88-4.7-4.31a.21.21,0,0,1,.13-.09,1,1,0,0,1,.43,0,9.55,9.55,0,0,1,4.87,3.17,22.24,22.24,0,0,0,1.71,2c.2.21.66.16,1,.23,0-.3.07-.71-.08-.9a43.58,43.58,0,0,0-3.37-3.91C289,532.4,287.55,531.38,286.19,530.27Zm-6.61-73.51-.24,0v-1.33c0-3.61.07-7.21,0-10.82,0-.39-.53-1.13-.77-1.11-.76,0-2.94,3-3,3.79L274,478.48c-.08,1.57.2,1.85,2.57,2.13,1.26.16,1.24-.91,1.3-1.71C278.44,471.52,279,464.14,279.58,456.76Zm-83-97.57h-.08c0-1.13,0-2.27,0-3.41s-.51-1.51-1.49-1.18a23.84,23.84,0,0,1-2.85,1.18,3,3,0,0,1-2.36-.43c-.34-.34-.13-1.62.24-2.23a5.91,5.91,0,0,1,5.14-3.24c.9,0,1.21-.42,1.17-1.29-.06-1.43,0-2.87-.08-4.3,0-.4-.18-1-.43-1.12a1.66,1.66,0,0,0-1.35.19c-3.67,2.54-6.85,5.52-8.12,10-.82,2.91-.84,5.78.87,8.41a7.49,7.49,0,0,0,8.54,2.39c.42-.2.7-1,.76-1.57C196.65,361.47,196.57,360.33,196.57,359.19ZM320.46,538c.08.16.16.31.23.47a12,12,0,0,0,1.47-.3c2.59-.92,5.14-2,7.76-2.76,3.2-1,6.53-1.51,9.67-2.62s5.11-3.14,4.72-6.6c-.12-1.11-.43-1.34-1.35-.69-.77.53-1.54,1.07-2.34,1.54-2.24,1.31-4.74,1.15-7.2,1.3-3.72.22-7.54-.12-11.05,1.48-2.49,1.13-4.62,2.72-5.57,5.5,2.29-1.69,4.3-3.86,7.37-4.12-1.28,1.33-3.11,2.09-4,4.3,2.08-1,3.53-2.54,5.62-2.35C323.91,534.69,321.56,535.64,320.46,538Zm-12-60.78c1.8.66,2.3.47,2.11-.69a8.54,8.54,0,0,1,.64-5.95c.92-1.7.91-3.9,1.24-5.9a1.11,1.11,0,0,0-.37-.94c-1.35-.57-.93-1.44-.45-2.3,1-1.73,2-3.42,2.91-5.16a3.93,3.93,0,0,0,.15-1.31c-.47,0-1.05-.1-1.38.12-4.15,2.82-7,6.61-6.92,11.74a39.1,39.1,0,0,1-3.73,16.89c-.94,2.11-.89,2.2,1,3.67a7.33,7.33,0,0,0,1.08.77c1,.55,1.62.25,1.71-.91.08-1,0-2,.09-3,0-.45.29-1.23.51-1.25,2.11-.21,1.44-1.71,1.44-2.9Zm48.34,26.44.36.28c-.19.37-.37.75-.57,1.12-.73,1.38-1.52,2.75-2.19,4.16-.16.34.07.86.11,1.3a4.92,4.92,0,0,0,1.25-.57,1.81,1.81,0,0,0,.37-.94,7.19,7.19,0,0,1,3.2-4.43c2.11-1.37,4.25-2.71,6.35-4.08,3.09-2,6-4.19,7.45-7.77a5.7,5.7,0,0,0,.07-1.81c-.51,0-1,.05-1.52.14a6.6,6.6,0,0,0-1,.35c-5.24,1.81-10.43,3.73-14.77,7.32a27.33,27.33,0,0,0-4.14,4.19,26.14,26.14,0,0,0-2.2,4.2l.47.24a35.18,35.18,0,0,1,2.48-3.63c.94-1.09,1.77-2.38,3.57-3.09a9.74,9.74,0,0,1-.47,1.13c-1.37,2.21-2.78,4.41-4.1,6.66-.22.37,0,1,0,1.48a6,6,0,0,0,1.16-.81c.25-.27.3-.72.49-1.06C354.08,506.3,355,504.57,356.8,503.64Zm21.94-81.78h.45c.17-2.45.34-4.91.52-7.36l.49,0a8.36,8.36,0,0,1,.09.86c0,1.92,0,3.85,0,5.77,0,.34.42.66.64,1,.16-.36.46-.71.46-1.08,0-1.33-.18-2.67-.06-4a16.75,16.75,0,0,1,.86-3,43.37,43.37,0,0,1,.8,5,7.27,7.27,0,0,0,.85,1.87,7.31,7.31,0,0,0,.63-1.9c.14-3,.25-6.06,1.95-8.56,1.83-2.7,3.52-5.33,4.25-8.58.47-2.09-.35-6-2.07-7.54-.16.18-.41.33-.45.53-.67,2.77-2.33,4.95-4,7.13-4.07,5.19-6.27,11-5.59,17.7C378.63,420.37,378.68,421.11,378.74,421.86Zm-92.5,38.41H286c-.22,4-.46,8-.66,12,0,.35.09.94.29,1a1.63,1.63,0,0,0,1.22-.12c1.94-1.09,3.58-2.4,3.66-4.93,0-1.17.36-2.33.52-3.51a48.43,48.43,0,0,0,.09-15.34,14.54,14.54,0,0,0-1.66-3.86c-.14-.28-.72-.35-1.09-.51-.44,1.32-2.27,1.6-2.2,3.41C286.34,452.37,286.24,456.32,286.24,460.27Zm96.61-24.78c0,.22,0,.45,0,.67-.18,2.2-.42,4.39-.52,6.59,0,.45.5.92.77,1.38a4.8,4.8,0,0,0,.49-1.47,19.89,19.89,0,0,1,1.95-9.47c1.53-3.11,3.57-6,3.85-9.65a7.23,7.23,0,0,0-1-4.93,4.17,4.17,0,0,0-1-.77,7.34,7.34,0,0,0-.75,1c-.92,1.73-1.54,3.68-2.74,5.19a42.93,42.93,0,0,0-6.05,10.47,16.07,16.07,0,0,0-1.36,7.66,4,4,0,0,0,1.7,3.24c-.16-4-.23-7.74,1.88-11.07a12.06,12.06,0,0,1-.09,1.8c-.2,2.05-.47,4.11-.53,6.17a6.76,6.76,0,0,0,.73,2.18l.37-.13C380.82,441.28,380.71,438.13,382.85,435.49Zm-41.29,52.65h-.33c0,5.23,0,10.46,0,15.7,0,.51.37,1.36.76,1.49,1.78.59,2.85-.19,2.91-2,.33-9.58.59-19.15,1-28.72a3.31,3.31,0,0,0-1.83-3.35c-1.71-1-2.51-.61-2.52,1.35C341.54,477.77,341.56,483,341.56,488.14ZM323,485.72a4.61,4.61,0,0,0-3.75,4.56q-.31,15.12-.65,30.23c0,1.71,0,3.41,0,5.12,1.69-.12,3.45-1.71,3.49-3.07.06-2.12.1-4.25.16-6.37q.44-14.54.86-29.05C323.07,486.68,323,486.22,323,485.72ZM239.45,470l.55.19c.36-.35.91-.63,1.07-1.06a15.87,15.87,0,0,0,1.09-3.81c.37-3.48-1.13-6.48-2.64-9.48-2.55-5.06-6.28-9.18-10.12-13.24-.76-.82-1.3-.61-1.7.44a8.41,8.41,0,0,0,1.54,8.73c2.45,3.11,4.78,6.27,5.84,10.18.24.92.51,1.83.77,2.75l.38,0,.39-3.15h.5c.22,1.84.43,3.68.65,5.52,2-3.73.5-7.38.07-11.07C241.16,460.27,240.93,465.05,239.45,470Zm-12.31-48.55c-.73,1.65-.19,2.09,1.16,4.29,2.2,3.58,3.83,7.23,3.22,11.57a14.66,14.66,0,0,0,0,2.81,4.07,4.07,0,0,0,.37,1.08l.64-.05c.14-2.05.27-4.11.42-6.29,1.94,2.29.9,4.76.66,7.45,2-1.55,2-3.29,1.91-5s-.37-3.45-.62-5.62c.61.67,1.09,1,1.22,1.38.66,2,1.58,4.1.85,6.33-.61,1.87-1.3,3.72-1.95,5.58-.11.33-.15.68-.23,1l.33.21c.39-.31,1-.54,1.15-.95,1.22-2.58,2.39-5.2,2.09-8.19a34.69,34.69,0,0,0-3.42-10.94c-1.34-2.91-2.88-5.73-4.36-8.58a21.44,21.44,0,0,0-1.25-1.9,9.93,9.93,0,0,0-2,1.64,6.57,6.57,0,0,0-.8,2.33c-.05.23.22.54.42,1l1.47-1.57v4.08l-.3.07ZM375.8,331.29l.47.08a10.64,10.64,0,0,0,.47-1.34c.14-.66.21-1.35.3-2,.39-2.77,2-5,3.32-7.33,1-1.77.85-1.89-.86-2.86-3.13-1.78-6.25-3.56-9.3-5.45a1.76,1.76,0,0,0-2.67.37,9,9,0,0,1-6.48,3.4,31,31,0,0,1-4.72-.15,1.62,1.62,0,0,0-1.88,1.23,2.86,2.86,0,0,0,1.28.77,91.5,91.5,0,0,0,21.58,2.28c.35,0,.95.08,1,.27a1.86,1.86,0,0,1-.15,1.22c-.77,1.7-1.72,3.33-2.35,5.07A5.87,5.87,0,0,0,375.8,331.29ZM247.74,490.53c0-4.22-1.72-7.69-3.66-11.13a5.38,5.38,0,0,1,3,3,18.94,18.94,0,0,1,2,8.1c0,.41.59.81.91,1.21.16-.44.53-.92.45-1.31-.35-1.77-.74-3.55-1.26-5.28-1.29-4.28-4.2-7.49-7.3-10.52-1.12-1.1-2.61-1.81-3.69-2.93-1.74-1.8-3.26-3.81-4.89-5.71a1.9,1.9,0,0,0-.9-.65c-.16,0-.55.35-.66.61a6.86,6.86,0,0,0,.43,6.66,29.16,29.16,0,0,0,4.23,4.86c2.59,2.45,5.3,4.76,6.17,8.44a17.12,17.12,0,0,0,.54,2.3c.12.3.65.45,1,.66.17-.35.56-.76.47-1-.54-1.73-1.18-3.44-1.82-5.13a19.69,19.69,0,0,0-.89-1.78,1.64,1.64,0,0,1,1.16.45,12.81,12.81,0,0,1,3,7.39C246.22,489.75,246.38,490.46,247.74,490.53ZM240,487.81c-.2.23-.34.32-.38.45a1.58,1.58,0,0,0-.09.57c.2,2.47.7,4.95,2.57,6.61,2.19,1.94,4.74,3.48,7.12,5.2a34.93,34.93,0,0,1,4.6,3.45c1,1,1.37,2.45,2.11,3.65a5.55,5.55,0,0,0,1.22,1.08,5.6,5.6,0,0,0,.56-1.5,2.29,2.29,0,0,0-.43-1.23c-.7-1.2-1.44-2.39-2.22-3.68,2.15.57,3.7,2.8,4,5.26,0,.51.54,1,.82,1.47.24-.52.72-1.05.68-1.54a9.7,9.7,0,0,0-3.63-6.86c-1-.84-2.06-1.64-3.1-2.46l.34-.52,4.44,2.47a1.86,1.86,0,0,0-.66-1.24,49,49,0,0,0-4.68-3.32c-3.54-2-7.19-3.87-10.74-5.87A18.56,18.56,0,0,1,240,487.81Zm102.51,31.74c-.14.24-.26.49-.41.72-.94,1.44-1.9,2.86-2.81,4.33-.14.24-.15.85,0,.92a1.27,1.27,0,0,0,1.07.08,5.48,5.48,0,0,0,1.62-1.48c1.73-2.78,4.4-4,7.43-4.66a36.13,36.13,0,0,0,5.26-1.43c2.41-.95,4.21-2.58,4.44-5.39a3.66,3.66,0,0,0-.2-1.18c-1.35.36-2.42.71-3.51.92a9.53,9.53,0,0,1-2.07,0c-4.36-.08-8.38.94-11.43,4.18a65.09,65.09,0,0,0-5.23,6.87,9.24,9.24,0,0,0-.86,2.2l.63.37C338.14,523.65,339.27,520.62,342.46,519.55ZM363,309.07l-.06.56a10.8,10.8,0,0,0,1.83.37,17.2,17.2,0,0,1,8.22,2.12,62.5,62.5,0,0,0,6.57,3.36c1.36.58,2.94,1.9,4.37.06a21.16,21.16,0,0,0,1.76-2.73c.46-.83.18-1.41-.75-1.68a22.45,22.45,0,0,1-2.67-.86c-4.22-1.87-8.38-3.88-12.64-5.67a7.69,7.69,0,0,0-5.92-.05c2.14.91,4.87-.15,6.54,2a29.74,29.74,0,0,0-4.43,0c-3.4.5-3.39.58-3.74,1.82h2.56ZM287.53,489.93c-3.26-.15-4.36.73-4.27,2.74a5.4,5.4,0,0,0,.76,1.74,16.18,16.18,0,0,1,1.4-1.07,4.17,4.17,0,0,1,1.76-.88c2.67-.06,4.58,2.34,7.26,2.36,0,0,.07.08.12.09,1.95.61,3.57,1.53,3.63,3.91a.6.6,0,0,0,.22.38,5.24,5.24,0,0,1,1.44,5.28c-.1.52.35,1.61.7,1.68a4.6,4.6,0,0,0,2.67-.26,2,2,0,0,0,.64-1.74,13.55,13.55,0,0,0-1.54-3.82,5.81,5.81,0,0,1-.41-6,12.69,12.69,0,0,0,.94-4.44c.07-1.67-1.1-2.26-2.46-1.36a15.67,15.67,0,0,0-2.23,1.93,5,5,0,0,1-5.85,1C290.44,490.76,288.5,490.24,287.53,489.93Zm69.74-155a9.27,9.27,0,0,0,1.26,0c4.71-.86,9.4-1.75,14.11-2.6.93-.17,1.18-.66,1.16-1.55a10.94,10.94,0,0,1,.19-2.92c.37-1.53,1-3,1.39-4.51a4.26,4.26,0,0,0-.19-1.51c-1.83.26-3.8-.6-5.46,1-3.77,3.62-7.65,7.14-11.47,10.72A11.44,11.44,0,0,0,357.27,334.93ZM278.72,482.52c.89,1,1.95,1.8,2.35,2.83.64,1.61,1.7,1.68,3.06,1.5a6.16,6.16,0,0,0,3.92-2.14,31.78,31.78,0,0,0,5.6-9.48c.67-1.65,1.21-3.36,1.81-5l-.49-.38Zm-29.19-60.06c1.17-1.07,2-1.85,2.86-2.6,2.14-1.87,3.66-3.87,3.45-7.06-.32-5.07-.21-10.16-.28-15.25,0-1.24-.56-2-1.88-1.91s-1.24,1-1.27,1.94c-.1,3.36-.16,6.71-.35,10.07a2.13,2.13,0,0,1-1,1.63c-1.12.32-1.34,1-1.37,2-.1,3.16-.24,6.32-.34,9.47A13.25,13.25,0,0,0,249.53,422.46ZM271.74,309c-.07-.12-.14-.24-.2-.37a6.09,6.09,0,0,1,.53-.61,18.41,18.41,0,0,1,10.13-4.43c.44-.05.81-.64,1.22-1-.46-.18-1-.61-1.36-.52-1.81.45-3.59,1-5.35,1.59-1,.35-2,.85-3,1.29l-.27-.55a19.51,19.51,0,0,1,3.35-2.23c1.95-.78,4-1.23,6-1.88a3.53,3.53,0,0,0,1-.73c-.32-.31-.6-.76-1-.9a3.56,3.56,0,0,0-1.46-.05,13.64,13.64,0,0,0-9.81,5.45,20.77,20.77,0,0,1-10.12,7.37,10.93,10.93,0,0,0-1.58.92c.63.32,1,.5,1.29.65,3.46,1.63,6.65.54,9.46-1.41a34.18,34.18,0,0,1,10.07-5.11,10.18,10.18,0,0,0,1.34-.63c-.07-.17-.14-.33-.2-.5C277.92,304.92,275.08,307.75,271.74,309Zm.16,117.13-.29-.5a11.79,11.79,0,0,0-1.54.56c-3.17,1.64-5.53,1.41-8.27-.91-.78-.66-1.2-.13-1.53.42-1.34,2.28-2.76,4.53-3.91,6.91a6.57,6.57,0,0,0,2.63,8.29c1.09.64,1.53.33,1.7-.95a10.2,10.2,0,0,1,.73-3c1.86-4,5.24-6.7,8.64-9.32C270.69,427.16,271.29,426.62,271.9,426.11ZM385.15,322.9c-.24.56-.35.81-.45,1.06-.73,1.93-1.5,3.84-2.13,5.8-.13.38.33.95.51,1.43a5.22,5.22,0,0,0,1.17-1.06,6,6,0,0,0,.5-1.7,17.66,17.66,0,0,1,4.21-8.49,39,39,0,0,0,3.59-4.68,2.55,2.55,0,0,0,0-3.15l-1.78,2.62c.05-1.79.37-3.41.54-5.05a2.29,2.29,0,0,0-1.43-2.64,3.43,3.43,0,0,0-1.11,0,2.82,2.82,0,0,0,0,1.09,3.16,3.16,0,0,1-.18,3.37c-1.31,1.84-2.66,3.66-4,5.47-2.91,3.84-6.1,7.54-6.56,12.65a3.73,3.73,0,0,0,.39,1.26,4.5,4.5,0,0,0,.9-1.08c.78-2.1,1.43-4.25,2.25-6.34a6.5,6.5,0,0,1,1.29-1.57l.33.22c-.26.94-.53,1.87-.71,2.54Zm-5.38,132.63.5.29c-.11.38-.19.76-.32,1.13-.65,1.85-1.34,3.69-1.93,5.56-.12.36.16.85.25,1.29.38-.26.87-.43,1.11-.78,2.46-3.68,4.83-7.42,7.33-11.07a6.82,6.82,0,0,0,.38-7.63c-.47-.8-.84-.76-1.43-.06a31.4,31.4,0,0,1-3.92,4.29,27.15,27.15,0,0,0-8.59,11.74,3.86,3.86,0,0,0,0,1.4,11.6,11.6,0,0,0,1.11-1c.18-.21.17-.58.32-.82.76-1.28,1.54-2.55,2.32-3.82l.43.24c-.24.88-.47,1.76-.7,2.64h.27Zm-77.24,16.2c0-.78.06-1.43.12-2.07a29.34,29.34,0,0,1,.5-4.21,1.93,1.93,0,0,0-.51-2.22,26.37,26.37,0,0,1-1.82-2.33,7.26,7.26,0,0,0-1-.85,5,5,0,0,0-.61,1.1c-.45,1.87-.84,3.75-1.25,5.62a50.18,50.18,0,0,1-4.85,13.16c-.56,1-1.15,2.07-1.86,3.36,1.75-.69,3.16-1.19,4.51-1.81.31-.15.5-.7.61-1.1a10.52,10.52,0,0,1,.4-2,2.81,2.81,0,0,1,1.44-1.37c1.88-.51,2.15-.74,2.08-2.69a8.1,8.1,0,0,1,0-1.63,11,11,0,0,1,.53-1.75Zm-2.51,37c-.18.48-.36.91-.5,1.35a16.13,16.13,0,0,1-.69,2.1,1.49,1.49,0,0,1-1.05.57.91.91,0,0,1-.72-.54,1.48,1.48,0,0,1,.48-1c1.38-1.28,1.57-2.42.42-3.94a7.31,7.31,0,0,0-1.6-1.23,6.16,6.16,0,0,0-.78,1.9c-.25,4.92-.28,9.86-.66,14.77-.2,2.63.2,4.62,2.88,5.62,0,0,.07.07.12.09,1,.65,1.53.4,1.55-.85.06-3.4.1-6.81.13-10.21a22,22,0,0,0-.05-4,2,2,0,0,1,.73-2.27C301.28,510.41,301.17,509.59,300,508.76Zm-65.41-194.4.38-.3a15,15,0,0,1,5.77,8.07c.13.49.73.84,1.11,1.26.06-.59.38-1.32.15-1.75a43.18,43.18,0,0,0-3.94-6.72c-2.11-2.66-4.74-4.92-5-8.65-.06-.88-.84-1.26-1.45-.48a5.38,5.38,0,0,0-1.44,2.87c.19,4.67,2.45,8.66,4.64,12.64.14.25.75.24,1.14.35a3.56,3.56,0,0,0-.07-1.14c-.37-1-.84-1.88-1.27-2.82l.45-.28a22.52,22.52,0,0,1,1.55,1.84c.47.68.77,1.49,1.25,2.17.18.26.65.31,1,.45a2.62,2.62,0,0,0,0-1,10.18,10.18,0,0,0-1-1.65C236.81,317.57,235.71,316,234.61,314.36Zm20.45,166.51.62-.1a13.21,13.21,0,0,0,.18-1.51q-.12-7.33-.26-14.67c0-.74,0-1.49-.06-2.22s-.61-.94-1.3-.66a5.6,5.6,0,0,0-3,4.58,40,40,0,0,1,.06,5.47c-.16,1.38-.72,2.59,1.08,3.3.37.14.47.93.69,1.43ZM325.92,419c2.24-.09,4,.16,4.88-1.85.16-.38.89-.54,1.38-.74a17.66,17.66,0,0,0,2.46-.95c.94-.55,1.06-1.48-.05-1.86a5.4,5.4,0,0,0-3.36-.28,21.55,21.55,0,0,1-9.06,1.81c-1.25-.07-1.84,1.06-1.91,2.06,0,.43.92,1.24,1.53,1.37A33.22,33.22,0,0,0,325.92,419Zm-62.09-15.27h.07c0,1.77,0,3.55,0,5.32,0,.92.28,1.34,1.23,1,1.33-.48,3.67-3.69,3.64-5.11-.05-1.87-.13-3.75-.35-5.61a1.92,1.92,0,0,0-1-1.42,13.42,13.42,0,0,0-3.3-.24c-.1,0-.28.58-.29.89C263.81,400.31,263.83,402,263.83,403.76ZM237.6,417.85l.3,0a1.86,1.86,0,0,0,.36-.55,21.6,21.6,0,0,0,0-9.4,1.57,1.57,0,0,0-1-1c-1.45-.28-2.93-.4-4.4-.54-1.06-.11-1.47.52-1,1.35,1,1.8.71,3.73.78,5.63,0,.58.1,1.16.16,1.74h.48c.22-1.59.43-3.18.66-4.89,1.86,2.42.23,5.07.81,7.45l.58.07c.53-1.76,1.07-3.52,1.6-5.28l.42,0C237.44,414.28,237.52,416.06,237.6,417.85Zm108.81-82a9.67,9.67,0,0,0,3.74-5.19c.34-.91-.18-1.31-1.12-1l-2.09.74a17.6,17.6,0,0,0-8.09,5.93c-.48.63-.61,1.47.43,1.51,1.85.08,3.77.12,5.06-1.68a11,11,0,0,1,1.55-1.47Zm6,155.5c.61-.47,1-.61,1.12-.87,1.52-2.71,3.05-5.41,4.45-8.18a1.93,1.93,0,0,0-.61-1.68,30.07,30.07,0,0,0-3.58-2.33c-1-.57-1.52-.24-1.51.86,0,2.57.09,5.14.12,7.7C352.41,488.17,352.4,489.54,352.4,491.31Zm-45.95-75.93c0,2.59,1.38,3.57,3.45,2.85a6.53,6.53,0,0,0,1.52-.86c1.25-.88,2.15-2.37,4-2.2.2,0,.64-.42.64-.66,0-1.25.82-1.38,1.78-1.46a2.64,2.64,0,0,0,1.24-.4,1.57,1.57,0,0,0,.65-1c0-.24-.5-.74-.76-.73-1.29.07-2.8-.11-3.83.49a20.76,20.76,0,0,1-7.58,3.09C307.09,414.54,306.69,415.17,306.45,415.38Zm-51.67-92.63h-.35c0-.78,0-1.57,0-2.36-.07-1.41-1.07-1.41-2.13-1.38s-1.71.4-1.64,1.56c.12,2.12.23,4.23.4,6.34a2.28,2.28,0,0,0,.54,1.46c1.48,1.12,2.29,2.38,1.54,4.3-.11.28.26.74.41,1.12a3.78,3.78,0,0,0,1.11-.77c.2-.27.12-.75.12-1.14Zm118.91,77h-.24c0-2,0-4,0-6.07,0-1-.28-1.57-1.44-1.53s-1.39.67-1.35,1.65c.14,3.35.24,6.7.36,10.06,0,1.23,0,2.47.13,3.69a4,4,0,0,0,.59,1.23c.34-.23.84-.4,1-.72a10.17,10.17,0,0,0,.93-3C373.8,403.27,373.69,401.48,373.69,399.71Zm-19.22,5.66a13.76,13.76,0,0,0,2.42-.41,1.78,1.78,0,0,0,1.25-2.45,1.67,1.67,0,0,0-2.47-1.09c-2,.81-3.9,1.64-5.86,2.42-1.46.58-3,1.05-4.41,1.66-.39.16-.62.67-.93,1,.26.19.49.51.77.55a29,29,0,0,0,4.54.52c.78,0,2.18-.49,2.23-.9C352.22,405.07,353.06,405,354.47,405.37Zm3.85-74.21c.57-.18,1-.18,1.17-.38,2.1-2.19,5-4,3.84-7.78-.06-.22.11-.57,0-.72-.35-.45-.82-1.21-1.19-1.18-1.2.11-2.56-.94-3.59.38-.18.23-.12.66-.14,1,0,1-.07,2-.08,3C358.31,327.28,358.32,329.13,358.32,331.16ZM406.11,435a4.84,4.84,0,0,0,1-4.91c-.48-1.86-.92-3.74-1.4-5.59-.16-.59-.42-1.14-.63-1.71a6.45,6.45,0,0,0-2,.92A3.75,3.75,0,0,0,402,425.8C401.66,429.55,404.33,431.93,406.11,435Zm-24.22-41.58c.34.69.56,1.1.74,1.53a14.55,14.55,0,0,0,.89,2.19c.27.42.86.63,1.31.94a4.8,4.8,0,0,0,.32-1.61c-.13-.77-.57-1.48-.76-2.23-.72-2.76-3-3.89-5.63-2.66-.33.16-.76.67-.72.95.38,2.55.24,5.22,1.45,7.59.27.52.91.84,1.38,1.24l.31-.33c-.72-1.83-1.76-3.59-1.22-5.69a13,13,0,0,1,1.23,2.62c.33.93.37,2.07,1.89,2.2C383.39,397.77,379.85,396.29,381.89,393.38Zm-39.29,8.51c1.69,1,6,.74,7.33-.37.21-.18.48-.47.48-.71,0-1.35.9-1.17,1.74-1.12a5.55,5.55,0,0,0,1.61.09,9.38,9.38,0,0,0,1.82-.91c-.55-.43-1.1-.87-1.68-1.27a.87.87,0,0,0-.58-.08,47.54,47.54,0,0,0-6.34,1.16A6.87,6.87,0,0,0,342.6,401.89Zm60.08,4.42c1.18-.14,2.11-.58,2.11-1.67a2.74,2.74,0,0,0-1.14-2.07,42.09,42.09,0,0,0-5.5-2.15,2.08,2.08,0,0,0-1.24.27c.11,1.13-.08,2.8.57,3.27A25.8,25.8,0,0,0,402.68,406.31Zm-33.81,84.74.63,0c.29-.71.61-1.41.87-2.13.57-1.57.25-2.22-1.28-2.89-1.08-.48-2.11-1.07-3.21-1.47-.35-.12-1.16.09-1.24.34-.71,2-1.32,4-1.88,6-.08.29.32.71.5,1.06a5.28,5.28,0,0,0,.72-1.07c.37-1.11.61-2.27,1-3.37.12-.3.63-.46,1-.68a3.39,3.39,0,0,1,.24,1.05c-.06.63-.33,1.25-.36,1.88a6.2,6.2,0,0,0,.29,1.51l.37,0c.53-1.14,1.07-2.28,1.61-3.42l.47.13Zm2.56-18a16,16,0,0,0-1.8-1.41c-2.4-1.34-4.82-2.64-7.25-3.94-1.43-.76-2.86-1.51-4.32-2.21a1.81,1.81,0,0,0-1.08,0,1.13,1.13,0,0,0,0,.77,3.29,3.29,0,0,0,.7.75c3.46,3.29,7.84,4.76,12.26,6.16A5.42,5.42,0,0,0,371.43,473.07ZM260.86,324.91h0c0,.54-.11,1.08-.12,1.62,0,.88.5,1,1.18.69a6.06,6.06,0,0,0,3.15-6.69c-.2-.73-.33-1.61-1.49-1.45s-2.34,0-2.42,1.71C261.14,322.16,261,323.53,260.86,324.91Zm77-8.63a2.34,2.34,0,0,0,2.87.3c2.39-1.34,4.73-2.8,7.06-4.26.75-.47.71-1.06,0-1.68-1.36-1.21-3.95-.81-5.3.87,1.05,1.61,1.06,1.67-.63,2.66C340.66,314.88,339.38,315.48,337.86,316.28Zm28.08,159c0-.15.07-.3.11-.45-.57-.35-1.13-.7-1.7-1-3.48-2-7-4.1-10.48-6.08-.41-.23-1.06,0-1.59-.05a4.56,4.56,0,0,0,.73,1.24c3.37,2.91,7.43,4.6,11.44,6.35A4.12,4.12,0,0,0,365.94,475.28Zm-2.21-62.37c0-1.59-.37-1.87-1.5-1.43a4,4,0,0,0-3,4.33,11.4,11.4,0,0,0,.09,1.76c.08.43.26,1.1.53,1.18a1.72,1.72,0,0,0,1.3-.42C363.05,416.86,363.31,414.66,363.73,412.91Zm-68.91,77.74c1,0,4.12-2.49,4.11-3.45A1.61,1.61,0,0,0,298,486a3.06,3.06,0,0,0-1.85.19c-1.69.65-3.34,1.39-5,2.16a1.58,1.58,0,0,0-.64.86c0,.1.33.48.56.55C292.33,490.07,293.58,490.35,294.82,490.65Zm-7,22c-1.24.8-2.24,1.32-3.11,2a2.76,2.76,0,0,0,.27,4.41c.5.31,1,.64,1.5.93,1,.55,1.46.34,1.49-.83,0-1.63.14-3.24.17-4.86A9.24,9.24,0,0,0,287.86,512.62Zm64-206.74c-.25.15-.35.26-.41.24-1.67-.64-2.09,1.15-3.16,1.67a1.28,1.28,0,0,0,.2.85,12.55,12.55,0,0,0,1.85,1.65,1.27,1.27,0,0,0,1.13.09,9.64,9.64,0,0,0,2.5-2.24,2.71,2.71,0,0,0-.11-2.37c-.49-.76-1.22-1.77-2.66-1.38Zm-7.1,150.86-.49.62c1.68,1.67,3.3,3.4,5.07,5a7.87,7.87,0,0,0,2.69,1.41c.41.14,1-.22,1.49-.35-.22-.46-.3-1.08-.66-1.33-2-1.41-4-2.74-6-4.07C346.16,457.54,345.43,457.15,344.73,456.74Zm-71.86,31a4.47,4.47,0,0,0,1,1.38c.28.2,1,0,1.42-.26,1.11-.77,2.11-1.7,3.19-2.51s1.08-1.49-.07-1.91a4.34,4.34,0,0,0-2.91,0A3.89,3.89,0,0,0,272.87,487.75Zm113.88-9.83c0-.18.05-.37.07-.56a15,15,0,0,0-2.21-.89c-1.9-.46-3.82-.87-5.76-1.18a4.63,4.63,0,0,0-1.7.43c.37.51.62,1.21,1.12,1.5,2.27,1.29,4.81,1.2,7.31,1.12A4.12,4.12,0,0,0,386.75,477.92ZM406.35,402c-.23-1.87-.84-3.09-2.29-3.54a48.06,48.06,0,0,0-5.46-1.27c-.41-.08-.91.29-1.37.45.32.37.58.9,1,1.1,1.83.89,3.7,1.71,5.58,2.51A26.48,26.48,0,0,0,406.35,402Zm1.15,17.22c2.48-.78,4.92-1.51,7.34-2.33a1.21,1.21,0,0,0,.59-1,1.14,1.14,0,0,0-.95-.6c-2.43.43-4.85.9-7.24,1.51-.42.11-.74.94-.91,1.49C406.29,418.45,407,418.82,407.5,419.23ZM302.6,497.15c.35.75.49,1.47.74,1.51a2,2,0,0,0,1.35-.51c.91-.74,1.74-1.58,2.63-2.35.6-.52,1.16-1,.49-1.83-1-1.25-2.37-1.65-3-.76A43.06,43.06,0,0,0,302.6,497.15Zm61.12-91.61c.19-1.26-.49-1.75-1.61-1.15a13,13,0,0,0-2.41,1.68c-.8.71-.92,1.55.16,2.15.81.45,1.68.8,2.53,1.17s1.3,0,1.32-.9S363.72,406.52,363.72,405.54Zm-98.9,28.29.33.28a10.67,10.67,0,0,0,2.64-.8,35.71,35.71,0,0,0,4.35-3.19c.3-.25.13-1.05.17-1.6-.48,0-1.08-.08-1.44.17-1.87,1.26-3.7,2.59-5.5,4C265.06,432.89,265,433.43,264.82,433.83Zm43.93-8.89.85-.8c.81-.74,1.62-1.49,2.45-2.21.67-.57,1.42-1.06,2-1.68.2-.19.09-.69.12-1.06a5.13,5.13,0,0,0-1.05.09c-1.66.56-3.3,1.16-4.95,1.73-.57.2-1.75-.11-1.38,1A14.55,14.55,0,0,0,308.75,424.94Zm39.68-13.64.23.48c2.77,0,5.54,0,8.3,0,.33,0,.64-.62,1-.95-.37-.25-.75-.71-1.12-.71-2.31,0-4.61.09-6.91.27C349.38,410.4,348.91,411,348.43,411.3ZM348,465.47l.06-.35-8-8a18.42,18.42,0,0,0,6.74,8.23C347.13,465.52,347.6,465.43,348,465.47Zm67.33-47.17a16.69,16.69,0,0,1-9,1.74,1.09,1.09,0,0,0-.71.14,6.14,6.14,0,0,0-.72,1c.34.16.71.49,1,.45a53.37,53.37,0,0,0,6.71-.94C413.73,420.43,415.37,420.26,415.32,418.3Zm-66.73,51.35c1.31,2.53,7.74,6.71,10.63,7.06A61.44,61.44,0,0,0,348.59,469.65Zm10.92-155a21.21,21.21,0,0,0,2.18-.21,1,1,0,0,0,.73-.58,1,1,0,0,0-.4-.81,26.48,26.48,0,0,0-3.08-1.71,1.25,1.25,0,0,0-1.18.19,21.28,21.28,0,0,0-1.5,2.38c.78.23,1.56.48,2.36.69A5.19,5.19,0,0,0,359.51,314.65ZM314.62,428.91a6.21,6.21,0,0,0-5.15,0,4.83,4.83,0,0,0-3.06,3c-.08.2.13.7.27.72a1.65,1.65,0,0,0,.93-.19q3-1.38,6-2.81A10.57,10.57,0,0,0,314.62,428.91ZM198.05,360.8h.07a1.08,1.08,0,0,0-.05.43c.14.46.32.91.48,1.36.37-.27.85-.46,1.08-.82a4.84,4.84,0,0,0-.06-5.77c-.22-.3-.69-.42-1-.63a3,3,0,0,0-.45,1C198,357.85,198.05,359.32,198.05,360.8Zm153.64-38.17-1.16-1.14A41.83,41.83,0,0,0,347,325.4a.9.9,0,0,0,1.13,1.33C349.93,326,351.62,325.07,351.69,322.63Zm61.22,91.1c0,.08,0,.16,0,.24a2.81,2.81,0,0,0,.87,0,11.88,11.88,0,0,0,1.32-.56c-.38-.38-.72-1-1.17-1.09a8.18,8.18,0,0,0-5.73.6c-.37.19-.45.94-.66,1.43a4.32,4.32,0,0,0,1.34.22C410.26,414.33,411.58,414,412.91,413.73ZM287.36,314.17c.41-.14.64-.15.74-.27,1.62-2,3.24-3.92,4.79-5.93.17-.22-.09-.78-.16-1.18-.38.11-1,.08-1.13.34-1.37,1.9-2.68,3.85-4,5.82A4.12,4.12,0,0,0,287.36,314.17ZM364,399.36c-.23-.77-.31-1.86-.62-1.92a4.07,4.07,0,0,0-2,.5,3.66,3.66,0,0,0-1.13.69c-.72.64-.83,1.57-.05,2a5.57,5.57,0,0,0,2.95.63C363.48,401.24,363.73,400,364,399.36Zm-62.14-64.69a33.7,33.7,0,0,0,4.8-8.56C304.29,327,301.14,332.56,301.89,334.67ZM379.65,481c.07-.2.14-.39.2-.59-.42-.34-.79-.84-1.28-1a45.93,45.93,0,0,0-5-1.27c-.56-.1-1.2.3-1.81.47.42.33.83.69,1.27,1a2.24,2.24,0,0,0,.81.35C375.77,480.28,377.71,480.61,379.65,481Zm-111.07,5.22c0,.1.08.57.29.66a1.24,1.24,0,0,0,1.07-.06,34.94,34.94,0,0,0,3.21-3.23c.43-.5.27-1.18-.64-1.17A4.77,4.77,0,0,0,268.58,486.17Zm75.91-89.94c-1.09-.94-4.5-1.19-5.22-.54a1.19,1.19,0,0,0-.29.89,2,2,0,0,0,2.42,1.55A25.28,25.28,0,0,0,344.49,396.23ZM290,299.86c2.24-2,2.95-4.43,3.84-6.73a.67.67,0,0,0-.29-.59.87.87,0,0,0-.75.16,8.3,8.3,0,0,0-1.33,2.09C290.89,296.3,289.68,297.63,290,299.86Zm83.29,183.37.09-.48c-.54-.23-1.06-.51-1.61-.69-1.55-.49-3.1-1-4.67-1.37a5.42,5.42,0,0,0-1.45,0c.33.47.57,1.23,1,1.36,1.78.56,3.61.95,5.44,1.34A3.61,3.61,0,0,0,373.26,483.23Zm-21.18-60.38c-.12-.1-.41-.6-.72-.62-1.38-.07-3.14,1.1-3.07,2a1.67,1.67,0,0,0,1.73,1.67C351.07,425.9,352.12,424.51,352.08,422.85ZM275,501.53c.41-1.44.89-2.79,1.14-4.18.07-.43-.4-1-.75-1.44-.12-.13-.79,0-1,.23A3.47,3.47,0,0,0,275,501.53Zm18.47-201.79c-1.91.59-4.54,5.31-4.11,7.26A23.39,23.39,0,0,0,293.49,299.74Zm14.41,18.69c-2.57,1.53-3.87,4-4.83,6.63A12.73,12.73,0,0,0,307.9,318.43ZM271.71,495.71c.62-1.46,1.2-2.73,1.7-4a1,1,0,0,0-.24-.9,1.38,1.38,0,0,0-1.07-.15,2.52,2.52,0,0,0-1.6,2.56C270.45,494.24,270.44,495.39,271.71,495.71Zm66.87,23.35c-.57.29-.82.34-.95.49-1.44,1.67-2.88,3.34-4.24,5.06-.24.3-.16.86-.22,1.3.49-.18,1.21-.22,1.45-.57C335.93,523.42,337.11,521.43,338.58,519.06Zm64.31-122.62c-1.1-1.6-3.69-3-5-2.84a1,1,0,0,0-.11,2,32.62,32.62,0,0,0,3.31.54ZM285.33,502.56a21.06,21.06,0,0,1-.35-2.33c0-.73.16-1.47.12-2.2,0-.31-.41-.85-.59-.84a1.83,1.83,0,0,0-1.1.58C282.28,499.12,283.25,501.88,285.33,502.56Zm78.7-108c-.19-.24-.52-1-.85-1a10.82,10.82,0,0,0-3,.52c-.28.09-.54.69-.54,1.06,0,.2.54.52.87.59a10.07,10.07,0,0,1,2,.25C363.78,396.46,363.84,395.67,364,394.51ZM277.88,502c.31-.44.44-.55.46-.67.29-1.55.6-3.1.79-4.66,0-.29-.38-.89-.61-.9s-1.07.26-1.12.52a20.53,20.53,0,0,0-.43,3.91C277,500.69,277.5,501.23,277.88,502Zm-.23-9.16c.48.55.79,1.2,1.14,1.23a1.7,1.7,0,0,0,1.21-.83,7.49,7.49,0,0,0,.68-2.1c.07-.33,0-.95-.15-1-.35-.14-1-.17-1.19.05A26.66,26.66,0,0,0,277.65,492.79ZM310,310.89c-1.52.33-3.64,3.11-3.61,4.74C307.82,315.54,310.16,312.46,310,310.89ZM288.06,427.51c-.25-1.79-3.07-4.06-4.38-3.8-.21.05-.56.23-.56.36a.86.86,0,0,0,.3.71C284.87,425.68,286.36,426.52,288.06,427.51Zm-21.52,65c.51-1.3.93-2.32,1.3-3.35.09-.25.17-.66,0-.8s-.8-.43-.85-.36a7.13,7.13,0,0,0-1.54,2.42C265.31,491.25,265.45,492.44,266.54,492.53Zm75.19-193.84c.24-.18.71-.4.88-.76.08-.17-.37-.7-.68-.92s-1-.71-1.44-.61a5.59,5.59,0,0,0-1.62,1.08,4.77,4.77,0,0,0,1.05.88A8.68,8.68,0,0,0,341.73,298.69ZM315.64,471.75c-.4-.83-.78-1.72-1.25-2.56-.13-.23-.68-.48-.81-.39s-.6.69-.52.89a26.07,26.07,0,0,0,1.53,2.91c.06.11.52.14.64,0A2.91,2.91,0,0,0,315.64,471.75Zm-40.81-71.33.68.71,2.12-2.08c-.45-.32-.87-.87-1.35-.93C274.94,398,274.88,399,274.83,400.42Zm41.27,78.39c-.8-1.44-1.41-2.59-2.08-3.71a.77.77,0,0,0-.74-.16,1,1,0,0,0-.29.75C313,477,314.15,478.35,316.1,478.81Zm-7.32,6.83c-.35.86.25,3.78.87,4.1a1,1,0,0,0,.91-.41A3.33,3.33,0,0,0,308.78,485.64Zm38.46-72.87a6.24,6.24,0,0,0-1.59-1,7,7,0,0,0-2.09,0,1.37,1.37,0,0,0-.08.64c1,.45,2,.87,3.08,1.23C346.64,413.65,346.89,413.22,347.24,412.77Zm-85.55,90.88-.48.08c.19,1.61.36,3.22.6,4.82a3.87,3.87,0,0,0,.56,1c.2-.38.64-.81.57-1.13C262.6,506.84,262.12,505.25,261.69,503.65Zm78.87-97c-.67.64-1.08,1-1.49,1.4a6.71,6.71,0,0,0,1.76,1.06c.26.08.72-.56,1.09-.87Zm.37-2.78a2.08,2.08,0,0,0-2.24-1.81c-.26,0-.75.62-.7.88C338.1,403.59,340.07,404.18,340.93,403.89Zm-35,34,2.64-3.05A2.34,2.34,0,0,0,305.91,437.93Zm-32.1-120.44-.37-.67a5,5,0,0,0-1.77.72c-.25.25,0,1,0,1.54l.53.09ZM308,440.64l-.65-1a7.79,7.79,0,0,0-1.09,1.64c-.1.27.36.74.57,1.12Zm28.52-137.79-1.21.78a9.23,9.23,0,0,0,1.47,1.19c.14.08.59-.39.9-.61ZM301.25,480.17l-1.06-1.08c-.31.38-.79.73-.86,1.15s.5.66.78,1Zm9.54,2c-.57,1.42-.27,2.12,1,2.59C312.2,483.64,312.09,483.35,310.79,482.17Zm1.32-2.88-.51.36a12.8,12.8,0,0,0,.74,1.64c.14.23.53.29.81.43.08-.29.33-.69.22-.87A13.23,13.23,0,0,0,312.11,479.29ZM341,413.47c-.82-.28-1.25-.57-1.62-.51s-.59.48-.87.75c.34.25.69.7,1,.7S340.26,414,341,413.47Z" transform="translate(-181.61 -234)"/><path class="cls-1" d="M368.47,308.48l8,3.45C375.36,309.49,371.19,307.89,368.47,308.48Z" transform="translate(-181.61 -234)"/><path class="cls-1" d="M386.38,447.53l-1.7,4.6C386.47,451,387.18,449.16,386.38,447.53Z" transform="translate(-181.61 -234)"/><path class="cls-1" d="M394.52,357.52c.78,2.12,1.52,4.25,2.35,6.34.68,1.7,1.43,3.36,2.21,5a1.7,1.7,0,0,0,.91.84c.19.06.63-.36.81-.65,3.43-5.41,1.86-14.24-1.93-18a9.67,9.67,0,0,0-2.09-1.62,21.29,21.29,0,0,0-2.93-1.08c3.16-1.95,5.77-4,7.24-7.44,2.59,2.63,4.43,5.25,4.72,8.66.1,1.22-.15,2.46-.13,3.68a8.73,8.73,0,0,0,.39,1.92,7.36,7.36,0,0,1,.46,1.5c.14,8.46-1.82,16.31-6.87,23.24a6.38,6.38,0,0,1-1.18,1,8.39,8.39,0,0,1-.82-1.28c-1.26-3-2.48-6-3.74-9-.12-.28-.51-.7-.64-.66a1.5,1.5,0,0,0-.83.71c-1.13,2.57-2.22,5.17-3.3,7.76-.38.91-.67,1.86-1.07,2.75-.14.32-.49.72-.76.74a1.19,1.19,0,0,1-.92-.59c-.86-1.95-2.16-3.81-1.32-6.16a1.58,1.58,0,0,0-.22-1.24c-2-3-2.76-6.4-3.6-9.81-.46-1.82-.64-3.8-2.6-4.93-.81-.46-.5-1.47.54-1.69,1.59-.33,3.21-.53,4.82-.72,1.23-.14,2.47-.2,3.7-.24.36,0,1,.1,1,.28a1.74,1.74,0,0,1-.23,1.18,25.78,25.78,0,0,1-1.81,3.05c-.53.76-.35,1.22.25,1.78a6.53,6.53,0,0,1,1.17,1.49c.61,1,1.23,1.21,1.85.24,1.17-1.81,2.17-3.73,3.24-5.6l.9-1.58Z" transform="translate(-181.61 -234)"/><path class="cls-1" d="M320.26,373c-.07,3.13.11,5.72,1.45,8.1.5.89.31,1.59-.77,2-2.6.89-5.17,1.85-7.77,2.75-.29.1-.85.09-.93-.06a1.23,1.23,0,0,1,0-1.06c.86-1.44,1.85-2.81,2.66-4.27a2.39,2.39,0,0,0,.29-1.85,15.3,15.3,0,0,1-.94-6.69c.05-2.27.2-4.55.12-6.82a6.48,6.48,0,0,0-.93-2.66c-.41-.74-.7-1.33.13-1.9,1.78-1.23,3.52-2.51,5.36-3.62,1.14-.68,1.8-.25,2.11,1.09.39,1.7.48,1.62,2,.85a22.21,22.21,0,0,1,4.81-1.77,2,2,0,0,1,1.81.76c1.33,2.49,2.55,5.09,2.37,8a45,45,0,0,1-1.06,5.16,2.65,2.65,0,0,0,.08,1.75,6.52,6.52,0,0,1,.94,5.23,2.89,2.89,0,0,0,.52,2.91c.5.55.26,1-.43,1.2-2.07.63-4.13,1.31-6.21,1.91a5,5,0,0,1-1.4,0,10.31,10.31,0,0,1,.17-1.36c1.27-5,2.52-10.08,2.05-15.34a11.19,11.19,0,0,0-.85-3.13,2.9,2.9,0,0,0-2.93-1.88c-1.11,0-1.78.43-1.85,1.76C320.82,367.15,320.49,370.3,320.26,373Z" transform="translate(-181.61 -234)"/><path class="cls-1" d="M273.05,367.48a10.08,10.08,0,0,1,0,2.11,6.8,6.8,0,0,1-.9,2.51c-.47.69-.54,1,.15,1.55a2.82,2.82,0,0,1,1,1.74,49.85,49.85,0,0,1,0,5c0,.95.08,1.66,1.32,1.62.94,0,1.12.67.73,1.31a5.66,5.66,0,0,1-1.75,1.94,19.25,19.25,0,0,1-3.95,1.64,1.72,1.72,0,0,1-1.51-.51c-.7-1-1.46-.8-2.46-.62a18.21,18.21,0,0,1-5.65.55c-4.3-.65-6.37-5-4.54-8.93s5.11-6.41,8.93-8.27c.82-.39,2.06-.9,2.19-1.53a20.34,20.34,0,0,0,.23-5.67c-.08-.94-1.65-.95-2.2.07a10.91,10.91,0,0,0-.9,2.94c-.33,1.56-.86,1.81-2.21,1-1.11-.63-2.28-1.15-3.43-1.71-1.34-.65-1.5-1.31-.72-2.58,3.12-5.07,8.7-4.73,13-1.73C273.18,362,273.42,363,273.05,367.48Zm-6.84,6.29a2.9,2.9,0,0,0,0-.59c-.13-.58-.29-1.15-.44-1.72a6.63,6.63,0,0,0-1.67.72c-2.38,2.06-3.19,7.43-2.06,10.06a2.35,2.35,0,0,0,2.93,1.38c1.29-.29,1.48-1.14,1.56-2.29a25.93,25.93,0,0,1,.76-3.31c.07-.33.05-.88-.15-1C266,376.12,266,375,266.21,373.77Z" transform="translate(-181.61 -234)"/><path class="cls-1" d="M378.18,369.86c.14,2.61.29,5.23.43,7.84.06,1.13.4,1.89,1.77,1.82,1.05,0,.89.73.64,1.36-.6,1.58-4.69,3.85-6.33,3.55a1.25,1.25,0,0,1-.78-.37c-.79-1.44-1.84-1-3.05-.62-3.3,1.12-6.69.06-8.16-2.38a5.84,5.84,0,0,1-.35-4.85,37.33,37.33,0,0,0,.49-3.86,2.49,2.49,0,0,1,.5-1.27,17,17,0,0,1,7.9-5.27,1.59,1.59,0,0,0,1.31-1.68c0-1.14.15-2.28.12-3.41,0-.38-.31-1-.54-1.06a1.55,1.55,0,0,0-1.26.48,19,19,0,0,0-1.95,3.3c-.43,1-1,1.22-1.84.77a28.18,28.18,0,0,1-3.48-1.95,1.62,1.62,0,0,1-.43-1.49,53.05,53.05,0,0,1,3.51-4.66,2.18,2.18,0,0,1,1.5-.48,11.21,11.21,0,0,1,10,6.72,9.34,9.34,0,0,1,.24,3.06c0,1.48,0,3,0,4.44Zm-9.85,4.87.21.12a24.38,24.38,0,0,0,.52,3.19,2.17,2.17,0,0,0,2.32,1.86c1.29-.11,1.58-1.17,1.76-2.23a4.61,4.61,0,0,0,.08-1.17c-.26-2.3-.49-4.61-.87-6.89a2,2,0,0,0-1.14-1.3c-.28-.09-1.07.53-1.23,1C369.34,371.07,368.87,372.91,368.33,374.73Z" transform="translate(-181.61 -234)"/><path class="cls-1" d="M285.29,377.43a18.29,18.29,0,0,0,3.87-11.28,67.23,67.23,0,0,0-1-8.34c-.13-.94.06-1.43,1-1.2a25.4,25.4,0,0,1,3.81,1.17,1.54,1.54,0,0,1,.49,1.32c-.76,3.92-1.54,7.84-2.42,11.74a45.11,45.11,0,0,1-5.4,12.92c-1,1.63-1.22,1.57-2.78.61-4.6-2.85-6.24-7.3-6.79-12.36a80.11,80.11,0,0,0-1-9.07c-.72-3.2-1-3.13,1.94-4.57,1.46-.72,2.87-1.52,4.33-2.24a4.59,4.59,0,0,1,1.67-.53c1-.07,1.46.68.82,1.41-1.41,1.62-1.24,3.45-1.09,5.33s.28,4.05.39,6.07a3.28,3.28,0,0,1-.07,1.47C281.65,373.08,285,374.74,285.29,377.43Z" transform="translate(-181.61 -234)"/><path class="cls-1" d="M360,346.05c-.27.82-.6,1.78-.89,2.77a6.66,6.66,0,0,0-.44,2c.09,3,.26,6.08.42,9.12.18,3.5.42,7,.54,10.49.09,2.36.11,4.74,0,7.1a3.24,3.24,0,0,0,1.35,3.2,4.24,4.24,0,0,1,.7.86,3.94,3.94,0,0,1-1.08.55c-3,.46-5.95.89-8.92,1.28-.32,0-.67-.23-1-.36.16-.33.24-.82.5-1a3.44,3.44,0,0,0,2-3.76c-.24-3.39-.48-6.78-.6-10.17,0-1.18.31-2.36.38-3.55a10,10,0,0,0-.18-2.24,14.32,14.32,0,0,1-.58-2.5c0-3.3.24-6.6.28-9.91a3.53,3.53,0,0,0-.76-1.65,10.66,10.66,0,0,0-1.06-1.18,11.41,11.41,0,0,1,1.58-1.21c1.41-.77,2.88-1.41,4.29-2.19a6.36,6.36,0,0,0,1.31-1.19c.73-.71,1.27-.47,1.52.39S359.72,344.85,360,346.05Z" transform="translate(-181.61 -234)"/><path class="cls-1" d="M333.89,370.14c.58-3.66,1.1-7.36,1.76-11,.46-2.6,2.67-3.45,4.76-4.41s4-.22,5.47,1.31a21,21,0,0,1,2.68,3.34,2.09,2.09,0,0,1,0,1.7,5.47,5.47,0,0,1-1.38,1.7c-1.38,1.28-2.21,1.1-3.07-.55a19.3,19.3,0,0,0-1.49-2.53c-.25-.34-1-.73-1.16-.61a1.93,1.93,0,0,0-.75,1.28c-.12,1.27.08,2.59-.14,3.84a16.3,16.3,0,0,0,.44,8.62c.57,1.6.64,3.39,1.29,4.95.74,1.75,1.6,1.81,2.85.39.77-.88,1.3-2,2-2.9a6.53,6.53,0,0,1,1.21-1c.46.64,1.33,1.3,1.32,1.93-.07,3-5.5,8-8.51,8.05a5.37,5.37,0,0,1-5.7-4.35C334.85,376.7,334.44,373.48,333.89,370.14Z" transform="translate(-181.61 -234)"/><path class="cls-1" d="M296.27,370.48q0-4.51,0-9a1.76,1.76,0,0,1,1.45-1.92c1.23-.33,2.38-.95,3.62-1.25,4.57-1.11,6.95.6,9.06,4.17.57,1,.91,2.08,1.4,3.1s.17,1.78-.86,2.41c-2.81,1.71-5.59,3.49-8.29,5.37a3.06,3.06,0,0,0-1.07,2.06c-.16,2.05-.25,4.12.87,6,.61,1,1.29,1.06,2,.37,1.32-1.26,2.52-2.63,3.79-3.93.31-.32.85-.83,1.05-.74a2.08,2.08,0,0,1,1,1.13,4,4,0,0,1-.93,4c-2.16,2.63-4.88,4.14-8.39,3.77a3.22,3.22,0,0,1-3.15-2.95,3.07,3.07,0,0,0-.76-1.55,3.59,3.59,0,0,1-1.09-3c.09-2.66,0-5.33,0-8Zm3.94-.81c.52.59.88,1.41,1.39,1.52,1.38.29,3.7-1.37,4-2.73a9.07,9.07,0,0,0-1.21-7.22c-.59-.93-1.4-.89-1.73.12C301.82,364,301.08,366.72,300.21,369.67Z" transform="translate(-181.61 -234)"/></svg>